<svg width="578" height="545" viewBox="0 0 578 545" fill="none" xmlns="http://www.w3.org/2000/svg">
<path d="M89.7469 336.057V298.516H16.1133V268.529L100.566 160.162H123.525V268.279H145.752V298.569H123.525V336.111L89.7469 336.057ZM49.9088 268.35H93.5079V211.334L49.9088 268.35Z" fill="#0D4EE1"/>
<path d="M483.208 336.057V298.516H409.557V268.529L494.01 160.162H516.968V268.279H539.16V298.569H517.004V336.111L483.208 336.057ZM443.388 268.35H486.987V211.334L443.388 268.35Z" fill="#0D4EE1"/>
<path opacity="0.15" d="M393.591 308.213L394.25 307.608C394.488 307.392 394.682 307.131 394.819 306.84C394.956 306.549 395.034 306.234 395.049 305.913C395.064 305.591 395.015 305.27 394.906 304.968C394.796 304.666 394.628 304.388 394.411 304.151L380.899 289.38C398.073 267.723 406.456 240.394 404.377 212.837C402.299 185.279 389.912 159.516 369.683 140.677C349.455 121.839 322.87 111.309 295.224 111.185C267.578 111.06 240.899 121.35 220.501 140.005C200.104 158.66 187.485 184.311 185.158 211.849C182.831 239.386 190.966 266.79 207.944 288.6C224.922 310.411 249.496 325.029 276.771 329.542C304.047 334.055 332.022 328.132 355.125 312.953L368.654 327.706C368.868 327.943 369.128 328.136 369.417 328.273C369.707 328.41 370.021 328.488 370.341 328.503C370.66 328.518 370.98 328.469 371.281 328.36C371.582 328.251 371.858 328.083 372.094 327.866L372.771 327.26L472.964 436.696H511.091L393.591 308.213Z" fill="#212121" fill-opacity="0.5"/>
<path d="M523.301 450.006L360.063 286.832L339.083 307.804L502.339 470.977C503.79 472.428 505.526 473.561 507.437 474.307C509.348 475.053 511.393 475.395 513.443 475.311C515.493 475.227 517.503 474.72 519.347 473.821C521.191 472.922 522.829 471.65 524.156 470.087C526.559 467.242 527.805 463.599 527.646 459.88C527.488 456.16 525.937 452.636 523.301 450.006Z" fill="#424242"/>
<path d="M323.933 297.665L343.647 317.372C344.127 317.829 344.765 318.084 345.429 318.084C346.093 318.084 346.731 317.829 347.212 317.372L369.564 295.028C370.021 294.548 370.277 293.91 370.277 293.247C370.277 292.583 370.021 291.945 369.564 291.465L349.921 271.687L323.933 297.665Z" fill="#E0E0E0"/>
<path d="M353.04 274.805L355.536 277.318L334.431 308.16L325.145 298.877L353.04 274.805Z" fill="#BDBDBD"/>
<path opacity="0.64" d="M347.961 316.695L368.958 295.723L370.384 297.149L353.986 322.717L347.961 316.695Z" fill="#212121"/>
<path d="M260.655 92.4062C237.698 92.4062 215.256 99.2111 196.168 111.96C177.08 124.71 162.202 142.831 153.417 164.032C144.631 185.234 142.333 208.563 146.811 231.071C151.29 253.578 162.345 274.252 178.578 290.479C194.812 306.706 215.494 317.757 238.01 322.234C260.526 326.711 283.865 324.413 305.075 315.631C326.285 306.849 344.413 291.977 357.167 272.897C369.922 253.816 376.729 231.383 376.729 208.435C376.725 177.663 364.494 148.154 342.727 126.395C320.96 104.637 291.439 92.4109 260.655 92.4062ZM260.655 300.481C242.443 300.481 224.64 295.082 209.497 284.968C194.354 274.854 182.552 260.478 175.582 243.659C168.613 226.84 166.789 208.332 170.342 190.477C173.895 172.622 182.665 156.221 195.543 143.348C208.421 130.475 224.829 121.709 242.691 118.157C260.553 114.606 279.068 116.429 295.894 123.395C312.719 130.362 327.101 142.16 337.219 157.297C347.337 172.434 352.737 190.23 352.737 208.435C352.737 220.522 350.356 232.492 345.728 243.659C341.101 254.827 334.318 264.974 325.767 273.521C317.217 282.068 307.066 288.848 295.894 293.474C284.722 298.1 272.748 300.481 260.655 300.481Z" fill="#F5F5F5"/>
<path d="M260.654 300.48C311.51 300.48 352.737 259.27 352.737 208.435C352.737 157.599 311.51 116.389 260.654 116.389C209.799 116.389 168.572 157.599 168.572 208.435C168.572 259.27 209.799 300.48 260.654 300.48Z" fill="#0D4EE1"/>
<path d="M260.654 300.48C311.51 300.48 352.737 259.27 352.737 208.435C352.737 157.599 311.51 116.389 260.654 116.389C209.799 116.389 168.572 157.599 168.572 208.435C168.572 259.27 209.799 300.48 260.654 300.48Z" fill="#0D4EE1"/>
<circle cx="315" cy="413" r="13" fill="#0D4EE1"/>
<circle cx="69" cy="502" r="43" fill="#EEEEEE"/>
<circle cx="463.5" cy="21.5" r="21.5" fill="#EEEEEE"/>
<circle cx="109.5" cy="43.5" r="10.5" fill="#0D4EE1"/>
</svg>
