<svg width="616" height="630" viewBox="0 0 616 630" fill="none" xmlns="http://www.w3.org/2000/svg">
<path d="M616 491.248H0V491.557H616V491.248Z" fill="#EBEBEB"/>
<path d="M291.984 436.188H54.0976C52.234 436.185 50.4479 435.441 49.1313 434.119C47.8147 432.798 47.0752 431.006 47.0752 429.139V94.0492C47.0914 92.1925 47.838 90.4172 49.1529 89.1089C50.4677 87.8006 52.2446 87.0649 54.0976 87.0617H291.984C293.85 87.0617 295.64 87.8044 296.959 89.1264C298.278 90.4484 299.019 92.2414 299.019 94.1109V429.139C299.019 431.009 298.278 432.802 296.959 434.124C295.64 435.446 293.85 436.188 291.984 436.188ZM54.0976 87.3086C52.3157 87.3119 50.6079 88.0235 49.349 89.2873C48.0902 90.551 47.3832 92.2636 47.3832 94.0492V429.139C47.3832 430.925 48.0902 432.637 49.349 433.901C50.6079 435.165 52.3157 435.876 54.0976 435.88H291.984C293.768 435.876 295.477 435.165 296.737 433.902C297.998 432.638 298.708 430.926 298.711 429.139V94.0492C298.708 92.2625 297.998 90.5499 296.737 89.2865C295.477 88.0231 293.768 87.3119 291.984 87.3086H54.0976Z" fill="#EBEBEB"/>
<path d="M558.478 436.188H320.579C318.714 436.185 316.927 435.441 315.608 434.12C314.289 432.799 313.547 431.008 313.544 429.139V94.0492C313.563 92.1914 314.313 90.4161 315.63 89.1081C316.946 87.8001 318.725 87.0649 320.579 87.0617H558.478C560.329 87.0682 562.102 87.8052 563.415 89.1132C564.727 90.4212 565.472 92.1946 565.488 94.0492V429.139C565.488 431.004 564.75 432.794 563.436 434.115C562.122 435.436 560.339 436.182 558.478 436.188ZM320.579 87.3086C318.796 87.3119 317.087 88.0231 315.826 89.2865C314.565 90.5499 313.855 92.2625 313.852 94.0492V429.139C313.855 430.926 314.565 432.638 315.826 433.902C317.087 435.165 318.796 435.876 320.579 435.88H558.478C560.261 435.876 561.97 435.165 563.231 433.902C564.492 432.638 565.201 430.926 565.205 429.139V94.0492C565.201 92.2625 564.492 90.5499 563.231 89.2865C561.97 88.0231 560.261 87.3119 558.478 87.3086H320.579Z" fill="#EBEBEB"/>
<path d="M95.2088 503.001H63.1768V503.31H95.2088V503.001Z" fill="#EBEBEB"/>
<path d="M234.302 499.656H178.825V499.964H234.302V499.656Z" fill="#EBEBEB"/>
<path d="M171.335 514.47H96.4414V514.779H171.335V514.47Z" fill="#EBEBEB"/>
<path d="M518.154 512.396H450.037V512.705H518.154V512.396Z" fill="#EBEBEB"/>
<path d="M408.433 507.174H316.686V507.483H408.433V507.174Z" fill="#EBEBEB"/>
<path d="M235.102 285.13L219.518 491.298H369.822L385.406 285.13H235.102ZM329.609 430.806C328.882 439.035 325.137 446.702 319.099 452.327C313.06 457.952 305.155 461.135 296.912 461.262C293.009 461.322 289.137 460.558 285.548 459.018C281.96 457.478 278.736 455.197 276.087 452.325C273.437 449.452 271.422 446.052 270.172 442.346C268.923 438.64 268.467 434.712 268.835 430.818L274.317 358.351C275.044 350.123 278.787 342.458 284.823 336.833C290.859 331.209 298.76 328.024 307.002 327.895C310.908 327.832 314.783 328.596 318.374 330.136C321.965 331.675 325.192 333.957 327.844 336.831C330.496 339.705 332.513 343.107 333.764 346.815C335.015 350.523 335.472 354.454 335.104 358.351L329.609 430.806Z" fill="#E6E6E6"/>
<path d="M417.5 491.248H198.352L199.621 477.718H418.756L417.5 491.248Z" fill="#E6E6E6"/>
<path d="M501.696 414.72H521.136C521.397 414.72 521.655 414.667 521.894 414.564C522.133 414.461 522.349 414.31 522.528 414.12C522.706 413.931 522.845 413.707 522.934 413.461C523.023 413.216 523.061 412.955 523.046 412.695L522.972 411.312C522.941 410.772 522.706 410.263 522.315 409.89C521.924 409.516 521.406 409.305 520.865 409.3H501.424C501.164 409.298 500.906 409.349 500.666 409.451C500.427 409.552 500.21 409.702 500.03 409.89C499.85 410.079 499.71 410.302 499.62 410.547C499.529 410.791 499.489 411.052 499.503 411.312L499.576 412.695C499.608 413.239 499.844 413.75 500.237 414.126C500.631 414.502 501.152 414.714 501.696 414.72Z" fill="#E0E0E0"/>
<path d="M469.256 414.72H488.66C488.921 414.722 489.18 414.67 489.42 414.568C489.66 414.465 489.876 414.314 490.055 414.124C490.234 413.934 490.373 413.709 490.461 413.463C490.55 413.217 490.587 412.956 490.57 412.695L490.496 411.312C490.465 410.772 490.23 410.263 489.839 409.89C489.447 409.516 488.929 409.305 488.389 409.3H468.985C468.725 409.298 468.467 409.349 468.227 409.451C467.987 409.552 467.771 409.702 467.591 409.89C467.411 410.079 467.271 410.302 467.18 410.547C467.09 410.791 467.05 411.052 467.063 411.312L467.137 412.695C467.171 413.238 467.408 413.748 467.801 414.123C468.194 414.498 468.713 414.711 469.256 414.72Z" fill="#E0E0E0"/>
<path d="M536.203 413.189H83.2828C80.7372 413.162 78.2966 412.168 76.4536 410.409C74.6106 408.649 73.5024 406.254 73.3528 403.708L59.7146 131.098C59.6383 129.874 59.8147 128.648 60.2328 127.495C60.651 126.343 61.3019 125.29 62.1449 124.401C62.9878 123.512 64.0047 122.807 65.1319 122.33C66.2591 121.853 67.4724 121.614 68.6959 121.629H521.616C524.16 121.652 526.601 122.643 528.444 124.401C530.288 126.159 531.396 128.552 531.546 131.098L545.184 403.708C545.26 404.932 545.084 406.159 544.666 407.312C544.248 408.465 543.597 409.519 542.754 410.408C541.912 411.298 540.895 412.004 539.768 412.483C538.641 412.961 537.427 413.201 536.203 413.189Z" fill="#E0E0E0"/>
<path d="M541.747 413.189H88.8392C86.2847 413.172 83.832 412.183 81.9771 410.423C80.1223 408.663 79.0037 406.263 78.8476 403.708L65.2956 131.098C65.2195 129.876 65.3952 128.652 65.8119 127.501C66.2285 126.351 66.8772 125.298 67.7175 124.41C68.5578 123.522 69.5717 122.816 70.696 122.338C71.8203 121.859 73.0308 121.618 74.2523 121.629H527.16C529.714 121.643 532.166 122.629 534.021 124.387C535.876 126.145 536.995 128.544 537.152 131.098L550.704 403.708C550.78 404.93 550.604 406.155 550.188 407.306C549.771 408.457 549.122 409.51 548.282 410.399C547.442 411.289 546.428 411.995 545.304 412.475C544.18 412.955 542.969 413.198 541.747 413.189Z" fill="#E6E6E6"/>
<path d="M91.4881 394.165L78.8478 140.653C78.8022 139.886 78.9143 139.118 79.1773 138.397C79.4402 137.675 79.8483 137.016 80.3763 136.459C80.9042 135.902 81.5407 135.46 82.2463 135.16C82.952 134.86 83.7116 134.708 84.478 134.715H518.29C519.886 134.728 521.416 135.349 522.572 136.452C523.727 137.554 524.421 139.056 524.511 140.653L537.152 394.165C537.199 394.931 537.089 395.698 536.827 396.42C536.566 397.141 536.159 397.801 535.632 398.358C535.105 398.915 534.469 399.357 533.764 399.658C533.059 399.958 532.3 400.109 531.534 400.103H97.7097C96.1149 400.087 94.5857 399.465 93.4308 398.363C92.276 397.26 91.5817 395.76 91.4881 394.165Z" fill="#F5F5F5"/>
<path d="M105.534 147.677C105.577 148.352 105.482 149.029 105.255 149.666C105.027 150.303 104.671 150.885 104.208 151.379C103.746 151.872 103.188 152.264 102.568 152.532C101.949 152.8 101.281 152.938 100.606 152.937C99.1941 152.92 97.8411 152.369 96.8193 151.393C95.7974 150.417 95.1825 149.089 95.0985 147.677C95.0564 147.003 95.1527 146.328 95.3814 145.693C95.6101 145.058 95.9664 144.476 96.4283 143.984C96.8902 143.493 97.4478 143.101 98.0667 142.834C98.6856 142.566 99.3526 142.429 100.027 142.431C101.438 142.441 102.792 142.989 103.815 143.963C104.838 144.938 105.452 146.266 105.534 147.677Z" fill="white"/>
<path d="M129.274 147.677C129.318 148.352 129.223 149.029 128.995 149.666C128.767 150.303 128.411 150.885 127.949 151.379C127.487 151.872 126.928 152.264 126.309 152.532C125.689 152.8 125.021 152.938 124.346 152.937C122.934 152.92 121.581 152.369 120.56 151.393C119.538 150.417 118.923 149.089 118.839 147.677C118.797 147.003 118.893 146.328 119.122 145.693C119.35 145.058 119.707 144.476 120.169 143.984C120.63 143.493 121.188 143.101 121.807 142.834C122.426 142.566 123.093 142.429 123.767 142.431C125.178 142.441 126.532 142.989 127.555 143.963C128.578 144.938 129.192 146.266 129.274 147.677Z" fill="white"/>
<path d="M153.027 147.677C153.071 148.352 152.976 149.029 152.748 149.666C152.52 150.303 152.164 150.885 151.702 151.379C151.24 151.872 150.682 152.264 150.062 152.532C149.442 152.8 148.774 152.938 148.099 152.937C146.688 152.923 145.335 152.372 144.314 151.395C143.294 150.419 142.683 149.089 142.604 147.677C142.562 147.003 142.659 146.328 142.887 145.693C143.116 145.058 143.472 144.476 143.934 143.984C144.396 143.493 144.954 143.101 145.573 142.834C146.191 142.566 146.858 142.429 147.532 142.431C148.941 142.447 150.29 142.997 151.31 143.971C152.329 144.944 152.943 146.269 153.027 147.677Z" fill="white"/>
<g opacity="0.6">
<path d="M136.604 400.103H199.129L256.293 134.702H193.769L136.604 400.103Z" fill="white"/>
<path d="M405.673 400.103H421.504L478.669 134.702H462.838L405.673 400.103Z" fill="white"/>
<path d="M213.025 400.103H301.729L358.894 134.702H270.19L213.025 400.103Z" fill="white"/>
</g>
<path d="M308 547C439.926 547 546.873 540.743 546.873 533.025C546.873 525.307 439.926 519.05 308 519.05C176.075 519.05 69.1279 525.307 69.1279 533.025C69.1279 540.743 176.075 547 308 547Z" fill="#1877F2" fill-opacity="0.12"/>
<path d="M444.259 343.907H443.816C410.995 341.215 388.376 313.043 387.464 311.908C386.624 310.756 386.261 309.324 386.452 307.91C386.643 306.497 387.373 305.212 388.488 304.326C389.603 303.44 391.018 303.021 392.435 303.157C393.852 303.293 395.161 303.974 396.088 305.056C396.347 305.389 415.677 329.265 442.436 332.672C451.122 324.031 458.452 301.217 457.639 294.315C457.639 294.241 457.639 294.18 457.639 294.118C457.466 291.896 457.048 284.242 459.228 279.736C459.947 278.577 461.068 277.726 462.375 277.347C463.683 276.968 465.084 277.088 466.309 277.683C467.533 278.278 468.495 279.307 469.007 280.57C469.52 281.834 469.547 283.243 469.084 284.526C468.542 285.661 468.283 289.748 468.542 293.167C469.774 304.525 459.918 333.191 447.598 342.783C446.638 343.514 445.465 343.909 444.259 343.907Z" fill="#263238"/>
<path d="M183.347 313.994C172.01 313.856 160.827 311.337 150.522 306.6C140.217 301.862 131.019 295.01 123.521 286.488C122.674 285.543 122.179 284.333 122.121 283.064C122.063 281.795 122.444 280.545 123.2 279.526C132.095 267.538 147.84 239.23 150.304 230.008C149.135 227.785 147.369 225.933 145.204 224.663C144.338 224.259 143.593 223.635 143.042 222.853C142.491 222.071 142.153 221.159 142.062 220.206L141.175 211.169C141.089 209.745 141.557 208.343 142.481 207.257C143.405 206.171 144.713 205.486 146.13 205.345C147.547 205.204 148.963 205.619 150.082 206.503C151.2 207.386 151.933 208.669 152.128 210.083L152.744 216.367C156.386 219.169 159.27 222.84 161.134 227.046C161.503 227.926 161.639 228.887 161.528 229.836C160.394 239.626 144.539 267.983 134.781 282.316C157.561 305.068 184.788 302.994 185.983 302.883C187.419 302.783 188.836 303.251 189.932 304.185C191.028 305.119 191.716 306.446 191.848 307.882C191.98 309.318 191.546 310.748 190.638 311.867C189.731 312.987 188.423 313.706 186.993 313.87C186.673 313.895 185.404 313.994 183.347 313.994Z" fill="#263238"/>
<path d="M360.816 532.84H346.032C345.184 532.84 344.347 532.644 343.587 532.267C342.826 531.889 342.163 531.341 341.649 530.665C341.135 529.988 340.784 529.202 340.623 528.367C340.463 527.533 340.496 526.672 340.722 525.852C344.578 511.976 346.476 500.68 347.893 483.002C342.669 458.311 337.753 435.83 337.704 435.608C337.437 434.196 337.73 432.736 338.52 431.537C339.311 430.338 340.537 429.496 341.937 429.189C343.338 428.882 344.803 429.134 346.021 429.893C347.239 430.651 348.114 431.855 348.459 433.25C348.459 433.472 353.535 456.533 358.82 481.496C358.933 482.014 358.966 482.547 358.919 483.076C357.687 498.952 356.073 509.927 353.165 521.815H360.779C362.193 521.883 363.527 522.493 364.504 523.519C365.481 524.545 366.026 525.909 366.026 527.328C366.026 528.746 365.481 530.11 364.504 531.136C363.527 532.163 362.193 532.773 360.779 532.84H360.816Z" fill="#263238"/>
<path d="M246.794 532.84H238.466C237.678 532.843 236.9 532.675 236.183 532.35C235.466 532.024 234.828 531.547 234.311 530.952C233.795 530.357 233.412 529.658 233.189 528.901C232.966 528.145 232.909 527.349 233.02 526.568C234.437 516.445 241.644 498.014 249.406 479.483C252.153 455.04 254.395 434.052 254.42 433.806C254.481 433.07 254.688 432.354 255.03 431.7C255.373 431.046 255.842 430.467 256.411 429.998C256.981 429.529 257.638 429.18 258.344 428.97C259.051 428.761 259.792 428.695 260.524 428.778C261.257 428.86 261.965 429.089 262.607 429.451C263.249 429.813 263.813 430.3 264.264 430.884C264.714 431.468 265.044 432.137 265.232 432.851C265.421 433.565 265.464 434.309 265.36 435.04C265.36 435.25 263.044 456.718 260.247 481.52C260.19 482.039 260.057 482.546 259.853 483.026C254.395 496.15 248.161 511.606 245.315 521.84H246.794C247.538 521.805 248.282 521.921 248.98 522.182C249.678 522.443 250.316 522.844 250.855 523.359C251.394 523.874 251.824 524.494 252.117 525.18C252.41 525.867 252.561 526.606 252.561 527.352C252.561 528.099 252.41 528.838 252.117 529.524C251.824 530.211 251.394 530.83 250.855 531.346C250.316 531.861 249.678 532.261 248.98 532.522C248.282 532.783 247.538 532.9 246.794 532.865V532.84Z" fill="#263238"/>
<path d="M251.587 156.196L187.449 220.478C184.221 291.723 184.48 366.56 187.449 444.151H399.55C395.349 344.03 394.955 247.65 399.55 156.196H251.587Z" fill="white"/>
<path d="M399.55 445.225H187.449C187.164 445.228 186.889 445.121 186.682 444.925C186.475 444.729 186.353 444.461 186.34 444.176C183.272 363.598 183.272 288.291 186.34 220.391C186.356 220.116 186.475 219.856 186.672 219.663L250.81 155.381C250.912 155.279 251.033 155.198 251.167 155.143C251.3 155.088 251.442 155.06 251.587 155.06H399.55C399.7 155.06 399.848 155.091 399.985 155.151C400.123 155.21 400.247 155.297 400.351 155.406C400.451 155.515 400.529 155.643 400.58 155.783C400.631 155.923 400.653 156.072 400.646 156.22C396.223 244.292 396.223 338.45 400.646 444.077C400.651 444.224 400.627 444.372 400.574 444.51C400.521 444.647 400.441 444.773 400.338 444.879C400.239 444.99 400.117 445.077 399.981 445.137C399.845 445.197 399.698 445.227 399.55 445.225ZM188.496 443.027H398.404C394.043 338.265 394.03 244.774 398.404 157.27H252.042L188.496 220.922C185.477 288.377 185.477 363.091 188.496 443.027Z" fill="#263238"/>
<path d="M249.911 373.968L252.227 373.77C252.333 374.594 252.633 375.381 253.102 376.066C253.609 376.715 254.282 377.214 255.049 377.511C255.958 377.89 256.935 378.079 257.919 378.066C258.76 378.084 259.596 377.942 260.383 377.647C261 377.429 261.537 377.028 261.923 376.498C262.246 376.032 262.406 375.473 262.379 374.906C262.365 374.344 262.161 373.805 261.8 373.375C261.335 372.859 260.739 372.479 260.075 372.276C258.971 371.911 257.849 371.606 256.712 371.363C255.462 371.108 254.244 370.719 253.077 370.202C252.252 369.806 251.54 369.208 251.008 368.462C250.538 367.777 250.273 366.971 250.244 366.141C250.19 365.178 250.444 364.223 250.969 363.415C251.494 362.606 252.263 361.987 253.164 361.647C254.233 361.203 255.382 360.984 256.539 361.005C257.803 360.982 259.059 361.208 260.235 361.672C261.227 362.076 262.082 362.757 262.699 363.635C263.311 364.5 263.677 365.516 263.759 366.573L261.406 366.758C261.299 365.714 260.791 364.754 259.989 364.079C259.028 363.42 257.874 363.103 256.712 363.178C255.577 363.073 254.44 363.365 253.496 364.005C253.192 364.233 252.949 364.533 252.788 364.877C252.627 365.221 252.553 365.6 252.572 365.98C252.579 366.297 252.655 366.609 252.793 366.895C252.931 367.18 253.129 367.433 253.373 367.634C254.529 368.322 255.811 368.771 257.143 368.955C258.568 369.245 259.966 369.658 261.319 370.19C262.292 370.591 263.142 371.243 263.783 372.079C264.337 372.856 264.649 373.779 264.683 374.733C264.729 375.718 264.48 376.694 263.968 377.535C263.408 378.441 262.588 379.155 261.615 379.585C260.5 380.085 259.289 380.334 258.067 380.313C256.612 380.351 255.164 380.104 253.804 379.585C252.686 379.121 251.721 378.351 251.02 377.363C250.35 376.353 249.966 375.179 249.911 373.968Z" fill="#263238"/>
<path d="M277.089 375.61L279.467 375.906C279.231 377.172 278.549 378.311 277.545 379.116C276.449 379.923 275.109 380.329 273.75 380.264C272.871 380.302 271.994 380.159 271.172 379.845C270.35 379.531 269.601 379.051 268.97 378.437C267.685 377.048 266.98 375.219 266.999 373.326C266.778 371.436 267.314 369.536 268.49 368.042C269.047 367.416 269.736 366.922 270.508 366.595C271.279 366.268 272.113 366.117 272.949 366.153C273.786 366.131 274.619 366.284 275.393 366.603C276.167 366.922 276.867 367.399 277.446 368.005C278.731 369.422 279.431 371.275 279.405 373.19C279.405 373.326 279.405 373.523 279.405 373.795H269.352C269.43 375.055 269.939 376.249 270.793 377.177C271.162 377.569 271.607 377.881 272.101 378.094C272.594 378.306 273.127 378.414 273.664 378.412C274.425 378.438 275.173 378.202 275.783 377.745C276.431 377.188 276.887 376.441 277.089 375.61ZM269.414 371.906H276.941C276.86 370.978 276.518 370.092 275.956 369.35C275.602 368.928 275.158 368.59 274.657 368.362C274.156 368.133 273.611 368.02 273.06 368.029C272.578 368.015 272.098 368.1 271.651 368.281C271.203 368.462 270.798 368.733 270.461 369.079C269.755 369.852 269.379 370.871 269.414 371.918V371.906Z" fill="#263238"/>
<path d="M282.498 379.955L281.857 366.462H283.903L284.001 368.511C284.308 367.782 284.776 367.132 285.369 366.61C285.789 366.31 286.294 366.15 286.81 366.153C287.656 366.175 288.479 366.431 289.188 366.894L288.51 369.017C287.997 368.704 287.41 368.534 286.81 368.523C286.333 368.516 285.867 368.673 285.492 368.968C285.096 369.277 284.817 369.712 284.703 370.202C284.476 371.072 284.389 371.972 284.445 372.869L284.777 379.93L282.498 379.955Z" fill="#263238"/>
<path d="M294.916 379.955L289.15 366.462H291.614L294.892 374.548C295.249 375.424 295.581 376.326 295.889 377.264C296.062 376.56 296.296 375.696 296.616 374.696L299.216 366.462H301.569L297.109 379.955H294.916Z" fill="#263238"/>
<path d="M303.417 363.956L303.281 361.326H305.536L305.659 363.956H303.417ZM304.181 380.005L303.528 366.511H305.819L306.46 380.005H304.181Z" fill="#263238"/>
<path d="M318.484 375.017L320.751 375.313C320.657 376.7 320.046 378 319.038 378.955C318.021 379.852 316.697 380.321 315.342 380.264C314.502 380.293 313.666 380.146 312.885 379.834C312.105 379.522 311.397 379.05 310.809 378.449C309.54 377.024 308.85 375.174 308.874 373.264C308.785 371.964 308.97 370.66 309.416 369.437C309.799 368.394 310.537 367.52 311.499 366.968C312.465 366.413 313.563 366.127 314.677 366.141C315.999 366.079 317.303 366.471 318.373 367.252C319.369 368.045 320.053 369.164 320.307 370.412L318.114 370.758C317.921 369.965 317.491 369.25 316.882 368.708C316.322 368.255 315.619 368.014 314.899 368.029C314.377 368.007 313.857 368.107 313.38 368.322C312.903 368.536 312.482 368.858 312.152 369.264C311.39 370.421 311.074 371.817 311.264 373.19C311.224 374.608 311.658 375.998 312.496 377.14C312.843 377.537 313.271 377.853 313.752 378.066C314.233 378.279 314.755 378.385 315.281 378.375C316.096 378.399 316.887 378.102 317.486 377.548C318.111 376.852 318.465 375.953 318.484 375.017Z" fill="#263238"/>
<path d="M331.938 375.61L334.316 375.906C334.08 377.172 333.398 378.311 332.394 379.116C331.298 379.923 329.958 380.329 328.599 380.264C327.72 380.302 326.843 380.159 326.021 379.845C325.199 379.531 324.45 379.052 323.819 378.437C322.54 377.045 321.835 375.218 321.848 373.326C321.738 372.389 321.814 371.44 322.072 370.533C322.33 369.626 322.764 368.779 323.351 368.042C323.905 367.415 324.592 366.921 325.362 366.594C326.131 366.267 326.964 366.117 327.799 366.153C328.635 366.131 329.468 366.284 330.242 366.603C331.016 366.922 331.716 367.399 332.295 368.005C333.58 369.422 334.281 371.275 334.254 373.19C334.254 373.326 334.254 373.523 334.254 373.795H324.201C324.267 375.06 324.768 376.264 325.618 377.202C325.989 377.595 326.436 377.907 326.932 378.119C327.427 378.331 327.962 378.439 328.501 378.437C329.258 378.462 330.002 378.227 330.607 377.77C331.269 377.21 331.735 376.453 331.938 375.61ZM324.263 371.906H331.79C331.717 370.976 331.374 370.088 330.805 369.35C330.451 368.928 330.007 368.59 329.506 368.362C329.005 368.133 328.46 368.02 327.909 368.03C327.429 368.013 326.95 368.098 326.505 368.279C326.059 368.46 325.656 368.732 325.322 369.079C324.609 369.848 324.228 370.869 324.263 371.918V371.906Z" fill="#263238"/>
<path d="M238.417 405.991L238.318 404.004C237.894 404.726 237.283 405.32 236.55 405.724C235.818 406.128 234.99 406.327 234.154 406.3C233.379 406.301 232.612 406.146 231.899 405.843C231.283 405.598 230.737 405.203 230.31 404.695C229.935 404.188 229.671 403.608 229.534 402.992C229.383 402.289 229.3 401.574 229.287 400.856L228.881 392.498H231.172L231.53 399.979C231.537 400.809 231.623 401.636 231.788 402.448C231.938 403.021 232.282 403.523 232.762 403.868C233.279 404.213 233.89 404.39 234.511 404.374C235.185 404.38 235.846 404.196 236.421 403.843C236.988 403.528 237.425 403.02 237.653 402.411C237.893 401.553 237.976 400.658 237.899 399.769L237.554 392.547H239.833L240.474 406.041L238.417 405.991Z" fill="#263238"/>
<path d="M244.035 405.991L243.382 392.498H245.439L245.538 394.411C245.966 393.695 246.581 393.109 247.317 392.717C248.053 392.325 248.882 392.143 249.714 392.189C250.487 392.183 251.253 392.33 251.969 392.621C252.593 392.857 253.143 393.258 253.558 393.782C253.935 394.285 254.203 394.861 254.347 395.473C254.492 396.205 254.57 396.949 254.581 397.695L254.975 405.991H252.696L252.302 397.782C252.301 397.07 252.176 396.364 251.932 395.695C251.732 395.224 251.381 394.833 250.934 394.584C250.448 394.302 249.894 394.157 249.332 394.165C248.422 394.15 247.54 394.486 246.868 395.103C246.479 395.592 246.198 396.159 246.043 396.765C245.887 397.372 245.862 398.004 245.969 398.621L246.326 406.028L244.035 405.991Z" fill="#263238"/>
<path d="M267.196 404.337C266.503 404.988 265.697 405.507 264.818 405.868C264.031 406.166 263.196 406.317 262.354 406.312C261.103 406.385 259.868 405.999 258.88 405.226C258.478 404.882 258.153 404.456 257.926 403.978C257.699 403.499 257.575 402.978 257.562 402.448C257.519 401.822 257.643 401.196 257.919 400.634C258.183 400.111 258.568 399.658 259.04 399.313C259.532 398.983 260.073 398.733 260.642 398.572C261.307 398.412 261.982 398.296 262.662 398.226C264.029 398.102 265.379 397.838 266.691 397.436C266.691 397.127 266.691 396.93 266.691 396.844C266.707 396.481 266.65 396.12 266.523 395.78C266.396 395.441 266.202 395.131 265.952 394.868C265.211 394.398 264.361 394.132 263.485 394.095C262.609 394.058 261.739 394.252 260.962 394.658C260.393 395.182 260.026 395.89 259.927 396.658L257.673 396.362C257.78 395.527 258.088 394.73 258.572 394.041C259.071 393.401 259.749 392.924 260.519 392.671C261.495 392.342 262.52 392.183 263.55 392.202C264.506 392.171 265.461 392.309 266.371 392.609C266.978 392.771 267.529 393.098 267.964 393.553C268.399 394.008 268.7 394.574 268.835 395.189C268.957 395.887 269.027 396.592 269.044 397.3L269.192 400.35C269.22 401.701 269.331 403.049 269.525 404.387C269.66 404.958 269.884 405.503 270.19 406.004H267.8C267.496 405.491 267.291 404.926 267.196 404.337ZM266.753 399.226C265.56 399.664 264.319 399.954 263.057 400.09C262.384 400.166 261.723 400.32 261.086 400.547C260.726 400.7 260.424 400.964 260.223 401.3C260.026 401.627 259.932 402.005 259.952 402.387C259.965 402.679 260.04 402.966 260.172 403.228C260.303 403.49 260.489 403.72 260.716 403.905C261.307 404.35 262.036 404.568 262.773 404.522C263.583 404.537 264.382 404.337 265.09 403.942C265.729 403.586 266.235 403.032 266.531 402.362C266.769 401.621 266.857 400.841 266.79 400.066L266.753 399.226Z" fill="#263238"/>
<path d="M276.67 405.991L270.904 392.498H273.368L276.584 400.634C276.941 401.51 277.274 402.424 277.582 403.362C277.754 402.646 277.988 401.794 278.309 400.794L280.908 392.56H283.249L278.801 406.053L276.67 405.991Z" fill="#263238"/>
<path d="M294.633 404.337C293.94 404.988 293.134 405.507 292.255 405.868C291.468 406.166 290.633 406.317 289.791 406.312C288.544 406.384 287.313 405.998 286.329 405.226C285.921 404.886 285.591 404.462 285.362 403.982C285.132 403.503 285.008 402.98 284.999 402.448C284.956 401.822 285.079 401.196 285.356 400.634C285.62 400.111 286.004 399.658 286.477 399.313C286.972 398.98 287.517 398.73 288.091 398.572C288.751 398.411 289.422 398.295 290.099 398.226C291.465 398.102 292.815 397.838 294.128 397.436C294.128 397.127 294.128 396.93 294.128 396.844C294.146 396.481 294.091 396.119 293.963 395.779C293.836 395.439 293.64 395.129 293.388 394.868C292.648 394.398 291.797 394.132 290.922 394.095C290.046 394.058 289.176 394.252 288.399 394.658C287.829 395.182 287.463 395.89 287.364 396.658L285.109 396.362C285.216 395.527 285.525 394.73 286.009 394.041C286.508 393.401 287.185 392.924 287.955 392.671C288.931 392.342 289.956 392.183 290.986 392.202C291.943 392.171 292.898 392.309 293.807 392.609C294.415 392.771 294.966 393.098 295.401 393.553C295.835 394.008 296.136 394.574 296.271 395.189C296.4 395.886 296.47 396.592 296.481 397.3L296.629 400.35C296.64 401.683 296.735 403.015 296.912 404.337C297.037 404.909 297.258 405.456 297.565 405.954H295.175C294.902 405.451 294.718 404.904 294.633 404.337ZM294.189 399.226C292.997 399.664 291.756 399.954 290.493 400.09C289.821 400.166 289.159 400.32 288.522 400.547C288.162 400.7 287.86 400.964 287.66 401.3C287.463 401.627 287.368 402.005 287.389 402.387C287.402 402.679 287.476 402.966 287.608 403.228C287.74 403.49 287.925 403.72 288.152 403.905C288.743 404.35 289.473 404.568 290.21 404.522C291.02 404.537 291.819 404.337 292.526 403.942C293.165 403.586 293.671 403.032 293.967 402.362C294.217 401.624 294.306 400.841 294.226 400.066L294.189 399.226Z" fill="#263238"/>
<path d="M299.611 389.992L299.487 387.362H301.767L301.902 389.992H299.611ZM300.374 406.041L299.734 392.547H302.013L302.666 406.041H300.374Z" fill="#263238"/>
<path d="M306.091 405.991L305.191 387.362H307.483L308.37 405.991H306.091Z" fill="#263238"/>
<path d="M320.616 404.337C319.927 404.988 319.126 405.507 318.25 405.868C317.463 406.166 316.628 406.316 315.786 406.312C314.539 406.383 313.309 405.997 312.325 405.226C311.923 404.882 311.598 404.456 311.371 403.978C311.143 403.499 311.019 402.978 311.006 402.448C310.965 401.843 311.079 401.237 311.338 400.688C311.597 400.139 311.992 399.665 312.485 399.313C312.975 398.98 313.516 398.73 314.086 398.572C314.751 398.412 315.426 398.296 316.107 398.226C317.473 398.101 318.823 397.836 320.135 397.436C320.135 397.128 320.135 396.93 320.135 396.844C320.151 396.481 320.094 396.12 319.967 395.78C319.84 395.441 319.646 395.131 319.396 394.868C318.637 394.304 317.703 394.028 316.76 394.091C315.935 394.027 315.112 394.226 314.407 394.658C313.837 395.183 313.467 395.89 313.359 396.658L311.117 396.362C311.225 395.529 311.529 394.734 312.004 394.041C312.511 393.404 313.191 392.927 313.963 392.671C314.939 392.342 315.964 392.183 316.994 392.202C317.951 392.172 318.905 392.31 319.815 392.609C320.423 392.771 320.974 393.098 321.408 393.553C321.843 394.008 322.144 394.574 322.279 395.189C322.401 395.887 322.471 396.592 322.489 397.3L322.636 400.35C322.664 401.701 322.776 403.049 322.969 404.387C323.099 404.957 323.32 405.503 323.622 406.004H321.244C320.936 405.491 320.723 404.926 320.616 404.337ZM320.185 399.226C318.992 399.662 317.751 399.952 316.489 400.09C315.816 400.167 315.155 400.32 314.517 400.547C314.155 400.697 313.852 400.961 313.655 401.3C313.458 401.627 313.363 402.005 313.384 402.387C313.395 402.68 313.468 402.967 313.6 403.23C313.732 403.492 313.919 403.722 314.148 403.905C314.739 404.35 315.468 404.568 316.205 404.522C317.015 404.537 317.814 404.337 318.521 403.942C319.16 403.589 319.663 403.033 319.951 402.362C320.201 401.624 320.289 400.841 320.209 400.066L320.185 399.226Z" fill="#263238"/>
<path d="M328.463 405.991H326.344L325.457 387.362H327.712L328.032 394.004C328.437 393.429 328.977 392.962 329.604 392.646C330.231 392.329 330.927 392.172 331.629 392.189C332.449 392.182 333.261 392.355 334.007 392.696C334.741 393.008 335.391 393.491 335.904 394.103C336.435 394.756 336.852 395.495 337.136 396.288C337.453 397.173 337.632 398.102 337.666 399.041C337.893 400.948 337.372 402.869 336.212 404.399C335.731 405.001 335.119 405.485 334.423 405.814C333.727 406.144 332.966 406.31 332.196 406.3C331.44 406.313 330.692 406.138 330.021 405.788C329.35 405.439 328.776 404.928 328.352 404.3L328.463 405.991ZM328.106 399.14C328.089 400.359 328.372 401.563 328.931 402.646C329.233 403.179 329.67 403.623 330.197 403.933C330.725 404.243 331.326 404.408 331.937 404.411C332.43 404.41 332.916 404.292 333.355 404.066C333.794 403.841 334.174 403.515 334.463 403.115C335.221 401.969 335.544 400.59 335.375 399.226C335.404 397.825 334.971 396.454 334.143 395.325C333.827 394.939 333.431 394.629 332.981 394.415C332.532 394.202 332.041 394.091 331.543 394.091C331.049 394.094 330.563 394.215 330.124 394.442C329.685 394.669 329.306 394.997 329.017 395.399C328.28 396.498 327.957 397.824 328.106 399.14Z" fill="#263238"/>
<path d="M340.759 405.991L339.859 387.362H342.151L343.038 405.991H340.759Z" fill="#263238"/>
<path d="M355.592 401.646L357.969 401.942C357.728 403.206 357.047 404.343 356.048 405.152C354.951 405.958 353.612 406.363 352.253 406.3C351.374 406.335 350.498 406.191 349.676 405.877C348.855 405.563 348.105 405.085 347.473 404.473C346.188 403.084 345.483 401.256 345.502 399.362C345.39 398.424 345.464 397.474 345.72 396.565C345.976 395.656 346.408 394.807 346.992 394.066C347.553 393.444 348.243 392.954 349.013 392.629C349.784 392.305 350.617 392.155 351.452 392.189C352.288 392.168 353.119 392.32 353.893 392.637C354.667 392.954 355.367 393.427 355.949 394.029C357.23 395.449 357.929 397.3 357.908 399.214C357.908 399.35 357.908 399.56 357.908 399.831H347.855C347.921 401.097 348.421 402.3 349.272 403.238C349.645 403.62 350.092 403.921 350.586 404.122C351.079 404.324 351.609 404.422 352.142 404.411C352.901 404.434 353.646 404.204 354.261 403.757C354.907 403.204 355.371 402.468 355.592 401.646ZM347.916 397.942H355.444C355.362 397.014 355.021 396.128 354.458 395.387C354.104 394.965 353.661 394.627 353.16 394.398C352.659 394.17 352.113 394.056 351.563 394.066C351.08 394.053 350.599 394.14 350.152 394.323C349.704 394.506 349.3 394.78 348.964 395.128C348.264 395.895 347.888 396.904 347.916 397.942Z" fill="#263238"/>
<path d="M361.518 413.547H338.381C338.273 413.547 338.165 413.525 338.065 413.484C337.965 413.442 337.874 413.381 337.797 413.305C337.721 413.228 337.66 413.137 337.619 413.036C337.577 412.936 337.556 412.828 337.556 412.72C337.556 412.611 337.577 412.503 337.619 412.403C337.66 412.303 337.721 412.212 337.797 412.135C337.874 412.058 337.965 411.997 338.065 411.955C338.165 411.914 338.273 411.893 338.381 411.893H361.518C361.737 411.893 361.947 411.98 362.102 412.135C362.257 412.29 362.343 412.5 362.343 412.72C362.343 412.939 362.257 413.149 362.102 413.305C361.947 413.46 361.737 413.547 361.518 413.547Z" fill="#0D4EE1"/>
<path d="M328.796 413.547H225.456C225.237 413.547 225.027 413.46 224.873 413.305C224.718 413.149 224.631 412.939 224.631 412.72C224.631 412.5 224.718 412.29 224.873 412.135C225.027 411.98 225.237 411.893 225.456 411.893H328.772C328.991 411.893 329.201 411.98 329.355 412.135C329.51 412.29 329.597 412.5 329.597 412.72C329.597 412.939 329.51 413.149 329.355 413.305C329.201 413.46 328.991 413.547 328.772 413.547H328.796Z" fill="#0D4EE1"/>
<path d="M263.993 289.76C263.746 284.377 260.703 280.131 257.18 280.254C253.656 280.378 251.02 284.834 251.242 290.217C251.463 295.599 254.531 299.846 258.055 299.71C261.578 299.575 264.239 295.13 263.993 289.76Z" fill="#0D4EE1"/>
<path d="M338.369 288.069C338.122 282.698 335.079 278.452 331.556 278.575C328.032 278.699 325.396 283.155 325.618 288.538C325.839 293.92 328.919 298.167 332.43 298.031C335.942 297.896 338.615 293.451 338.369 288.069Z" fill="#0D4EE1"/>
<path d="M282.559 311.747C288.243 309.619 294.298 308.665 300.359 308.941C306.42 309.217 312.364 310.717 317.832 313.352C318.013 313.452 318.173 313.588 318.301 313.75C318.43 313.913 318.525 314.1 318.582 314.3C318.638 314.499 318.654 314.708 318.629 314.914C318.603 315.121 318.538 315.32 318.435 315.5C318.226 315.863 317.883 316.13 317.48 316.243C317.077 316.356 316.646 316.306 316.279 316.105C316.095 316.006 298.539 306.525 277.582 317.339C277.208 317.529 276.776 317.565 276.376 317.441C275.976 317.316 275.64 317.041 275.439 316.673C275.343 316.489 275.284 316.288 275.267 316.082C275.249 315.875 275.272 315.667 275.335 315.469C275.398 315.272 275.5 315.089 275.634 314.931C275.768 314.773 275.932 314.643 276.116 314.549C278.198 313.469 280.35 312.533 282.559 311.747Z" fill="#0D4EE1"/>
<path d="M253.349 239.329C253.895 239.344 254.429 239.497 254.901 239.774C255.621 240.201 256.144 240.896 256.356 241.707C256.569 242.518 256.453 243.381 256.035 244.107C253.583 248.485 250.113 252.207 245.92 254.956C241.727 257.704 236.935 259.399 231.949 259.897C231.111 259.93 230.293 259.632 229.673 259.066C229.052 258.5 228.68 257.711 228.635 256.872C228.617 256.458 228.68 256.045 228.821 255.657C228.963 255.268 229.179 254.91 229.458 254.605C229.738 254.3 230.074 254.054 230.449 253.879C230.823 253.704 231.228 253.606 231.641 253.588C232.121 253.588 243.493 252.872 250.564 240.909C250.842 240.418 251.247 240.011 251.738 239.732C252.228 239.454 252.785 239.315 253.349 239.329Z" fill="#0D4EE1"/>
<path d="M327.773 237.514C328.288 237.413 328.819 237.441 329.32 237.596C329.822 237.751 330.276 238.029 330.644 238.403C340.5 248.28 351.76 246.292 352.228 246.206C353.044 246.059 353.884 246.234 354.573 246.694C355.262 247.154 355.746 247.864 355.924 248.675C356.007 249.08 356.009 249.498 355.929 249.904C355.85 250.31 355.691 250.696 355.462 251.041C355.233 251.385 354.938 251.68 354.595 251.91C354.251 252.139 353.866 252.299 353.46 252.378C352.844 252.489 338.504 255.23 326.098 242.811C325.693 242.409 325.405 241.904 325.265 241.35C325.126 240.796 325.14 240.215 325.306 239.668C325.472 239.122 325.784 238.631 326.208 238.25C326.632 237.868 327.152 237.609 327.712 237.502L327.773 237.514Z" fill="#0D4EE1"/>
<path opacity="0.2" d="M396.359 272.069L387.353 272.909C385.795 273.054 384.237 272.626 382.972 271.703C381.706 270.78 380.82 269.427 380.479 267.896L367.999 211.873C367.638 210.246 367.921 208.543 368.787 207.121C369.653 205.698 371.035 204.667 372.643 204.244L396.778 197.898L396.359 272.069Z" fill="black"/>
<path opacity="0.2" d="M257.488 226.181C251.217 209.034 244.946 181.59 251.562 156.171L187.424 220.453C205.571 226.564 234.474 229.169 257.488 226.181Z" fill="black"/>
<path d="M251.587 220.453C244.552 199.639 247.423 171.343 251.587 156.171L187.449 220.453C206.866 223.996 228.561 223.428 251.587 220.453Z" fill="white"/>
<path d="M216.832 223.996C206.922 224.07 197.025 223.244 187.264 221.527C187.066 221.495 186.88 221.408 186.729 221.276C186.577 221.144 186.465 220.972 186.405 220.78C186.345 220.588 186.339 220.383 186.389 220.188C186.438 219.993 186.541 219.816 186.685 219.675L250.823 155.393C250.994 155.219 251.218 155.107 251.46 155.074C251.701 155.042 251.947 155.091 252.158 155.215C252.368 155.338 252.532 155.528 252.622 155.755C252.713 155.982 252.726 156.232 252.658 156.467C248.79 170.59 245.574 199.182 252.658 220.095C252.707 220.251 252.723 220.415 252.704 220.576C252.685 220.738 252.631 220.894 252.547 221.033C252.463 221.172 252.348 221.29 252.211 221.377C252.075 221.465 251.92 221.521 251.759 221.54C240.181 223.106 228.515 223.926 216.832 223.996ZM189.728 219.725C206.779 222.552 226.577 222.49 250.096 219.527C244.293 201.083 245.611 176.677 249.504 159.776L189.728 219.725Z" fill="#263238"/>
<path d="M471.979 314.352C471.574 314.352 471.18 314.217 470.859 313.969C470.539 313.721 470.309 313.374 470.205 312.982L447.61 226.712C447.486 226.239 447.555 225.736 447.801 225.314C448.047 224.891 448.45 224.584 448.922 224.459C449.395 224.335 449.897 224.403 450.318 224.65C450.74 224.897 451.047 225.301 451.171 225.774L473.766 312.043C473.827 312.278 473.841 312.522 473.808 312.762C473.775 313.001 473.695 313.232 473.572 313.441C473.45 313.65 473.287 313.832 473.094 313.978C472.901 314.124 472.681 314.23 472.447 314.29C472.296 314.336 472.138 314.357 471.979 314.352Z" fill="#263238"/>
<path d="M514.064 190.427L512.869 190.736L514.566 197.334L515.761 197.026L514.064 190.427Z" fill="#00D555"/>
<path d="M510.183 180.997L505.44 162.887C504.795 160.435 503.206 158.34 501.021 157.06C498.836 155.78 496.234 155.42 493.786 156.06L481.379 159.319L481.071 158.085L493.477 154.813C496.24 154.094 499.174 154.502 501.637 155.945C504.101 157.389 505.894 159.752 506.623 162.517L511.378 180.639L510.183 180.997Z" fill="#00D555"/>
<path d="M494.578 159.079L377.115 189.958C373.666 190.865 371.604 194.401 372.508 197.857L387.374 254.638C388.279 258.093 391.808 260.16 395.256 259.253L512.72 228.374C516.168 227.467 518.231 223.931 517.326 220.475L502.46 163.694C501.556 160.239 498.026 158.172 494.578 159.079Z" fill="#00D555"/>
<path d="M488.728 225.223L414.617 244.705C411.169 245.612 409.106 249.148 410.011 252.604L414.657 270.349C415.562 273.804 419.091 275.871 422.539 274.964L496.65 255.482C500.098 254.575 502.161 251.039 501.256 247.583L496.61 229.838C495.705 226.383 492.176 224.316 488.728 225.223Z" fill="#00D555"/>
<path d="M421.528 251.181L431.668 248.539L432.345 251.156L426 252.81L426.506 254.761L432.432 253.23L433.084 255.699L427.196 257.242L427.824 259.65L434.353 257.958L435.068 260.736L424.756 263.427L421.528 251.181Z" fill="white"/>
<path d="M437.125 260.218L433.935 247.946L440.242 246.304C441.138 246.037 442.068 245.903 443.002 245.909C443.662 245.944 444.292 246.201 444.788 246.638C445.28 247.104 445.64 247.692 445.835 248.342C446.029 248.991 446.051 249.681 445.897 250.341C445.74 250.917 445.434 251.441 445.01 251.86C444.648 252.201 444.231 252.481 443.778 252.687C444.121 252.671 444.463 252.725 444.784 252.843C445.106 252.962 445.4 253.144 445.651 253.378C445.913 253.564 446.16 253.771 446.39 253.996L449.137 257.07L444.862 258.193L441.893 254.958C441.643 254.641 441.328 254.38 440.969 254.193C440.641 254.088 440.288 254.088 439.959 254.193L439.626 254.279L440.92 259.218L437.125 260.218ZM439.023 251.921L440.624 251.514C440.957 251.399 441.278 251.254 441.585 251.082C441.818 250.974 441.999 250.779 442.09 250.539C442.217 250.252 442.23 249.929 442.127 249.633C442.024 249.337 441.813 249.092 441.536 248.946C441.051 248.792 440.53 248.792 440.045 248.946L438.382 249.378L439.023 251.921Z" fill="white"/>
<path d="M450.419 256.749L447.216 244.477L453.524 242.835C454.42 242.573 455.349 242.44 456.283 242.44C456.94 242.476 457.565 242.733 458.057 243.169C458.606 243.649 458.986 244.294 459.142 245.008C459.314 245.622 459.314 246.271 459.142 246.885C458.981 247.452 458.68 247.97 458.267 248.391C457.899 248.729 457.484 249.012 457.035 249.23C457.408 249.234 457.778 249.297 458.131 249.415C458.407 249.552 458.667 249.717 458.907 249.909C459.166 250.095 459.409 250.301 459.634 250.526L462.394 253.613L458.119 254.724L455.125 251.502C454.873 251.18 454.554 250.919 454.189 250.736C453.865 250.632 453.515 250.632 453.191 250.736L452.858 250.823L454.152 255.761L450.419 256.749ZM452.329 248.465L453.93 248.045C454.257 247.927 454.575 247.782 454.879 247.613C454.997 247.561 455.103 247.487 455.192 247.393C455.281 247.3 455.35 247.19 455.396 247.07C455.519 246.785 455.53 246.464 455.427 246.171C455.325 245.878 455.116 245.635 454.842 245.49C454.355 245.323 453.826 245.323 453.339 245.49L451.688 245.922L452.329 248.465Z" fill="white"/>
<path d="M461.323 247.366C461.017 246.535 460.899 245.646 460.976 244.763C461.054 243.881 461.326 243.026 461.772 242.261C462.219 241.496 462.829 240.84 463.558 240.34C464.288 239.839 465.119 239.507 465.992 239.366C466.833 239.09 467.721 238.985 468.603 239.057C469.485 239.129 470.344 239.377 471.13 239.786C471.86 240.254 472.488 240.865 472.977 241.582C473.466 242.299 473.806 243.107 473.975 243.959C474.331 245.161 474.399 246.429 474.173 247.662C473.939 248.693 473.403 249.631 472.633 250.354C471.723 251.169 470.62 251.739 469.429 252.008C468.263 252.355 467.032 252.431 465.832 252.23C464.786 252.017 463.828 251.492 463.085 250.724C462.213 249.78 461.605 248.621 461.323 247.366ZM465.105 246.403C465.266 247.361 465.754 248.234 466.485 248.872C466.793 249.066 467.137 249.195 467.497 249.251C467.856 249.308 468.223 249.291 468.576 249.2C468.928 249.11 469.259 248.95 469.548 248.728C469.836 248.506 470.077 248.227 470.255 247.909C470.565 246.921 470.539 245.857 470.181 244.885C470.025 243.965 469.544 243.133 468.826 242.539C468.521 242.335 468.176 242.201 467.813 242.148C467.451 242.094 467.081 242.123 466.731 242.23C466.38 242.308 466.05 242.465 465.769 242.69C465.487 242.915 465.26 243.201 465.105 243.527C464.774 244.457 464.774 245.473 465.105 246.403Z" fill="white"/>
<path d="M477.683 249.638L474.492 237.379L480.8 235.737C481.694 235.462 482.625 235.329 483.56 235.342C484.221 235.374 484.851 235.631 485.346 236.07C485.839 236.535 486.2 237.123 486.393 237.774C486.586 238.424 486.603 239.114 486.443 239.774C486.282 240.345 485.981 240.867 485.568 241.292C485.205 241.634 484.789 241.913 484.336 242.119C484.713 242.132 485.086 242.199 485.445 242.317C485.717 242.446 485.974 242.608 486.208 242.798C486.471 242.984 486.714 243.195 486.935 243.428L489.695 246.502L485.42 247.625L482.426 244.403C482.171 244.082 481.852 243.818 481.49 243.625C481.165 243.526 480.817 243.526 480.492 243.625L480.159 243.712L481.453 248.65L477.683 249.638ZM479.58 241.354L481.182 240.946C481.512 240.826 481.833 240.681 482.143 240.514C482.372 240.402 482.552 240.209 482.648 239.971C482.774 239.685 482.787 239.361 482.685 239.065C482.582 238.77 482.37 238.524 482.094 238.379C481.61 238.219 481.087 238.219 480.603 238.379L478.94 238.811L479.58 241.354Z" fill="white"/>
<path d="M411.198 237.942C408.222 238.708 405.445 238.865 402.868 238.413C400.301 237.945 398.116 236.955 396.315 235.443C394.526 233.927 393.308 231.968 392.663 229.566L402.876 226.935C403.258 228.262 404.05 229.194 405.251 229.732C406.464 230.267 407.764 230.355 409.151 229.998C410.223 229.722 411.11 229.251 411.813 228.586C412.512 227.908 412.986 227.087 413.235 226.122C413.484 225.157 413.458 224.115 413.156 222.996C412.876 221.858 412.396 220.933 411.715 220.221C411.031 219.496 410.221 219.013 409.284 218.77C408.344 218.515 407.339 218.525 406.267 218.801C405.157 219.087 404.199 219.623 403.393 220.408C402.597 221.178 402.1 222.093 401.902 223.152L392.204 223.714L388.221 201.99L414.247 195.286L416.41 203.683L399.009 208.166L400.455 216.91L400.682 216.851C400.985 215.523 401.782 214.282 403.071 213.13C404.358 211.965 405.985 211.129 407.952 210.622C410.259 210.028 412.453 210.034 414.532 210.641C416.624 211.245 418.436 212.358 419.97 213.98C421.513 215.586 422.595 217.62 423.216 220.082C423.924 222.777 423.898 225.339 423.138 227.766C422.388 230.178 420.999 232.277 418.972 234.063C416.941 235.837 414.35 237.13 411.198 237.942ZM448.325 228.942C444.803 229.836 441.555 229.806 438.58 228.851C435.604 227.896 433.032 226.078 430.862 223.397C428.692 220.715 427.066 217.248 425.984 212.996C424.899 208.731 424.66 204.933 425.268 201.603C425.888 198.27 427.272 195.5 429.42 193.293C431.58 191.083 434.419 189.524 437.937 188.618C441.455 187.712 444.695 187.711 447.658 188.615C450.617 189.507 453.173 191.262 455.327 193.88C457.48 196.499 459.098 199.934 460.18 204.187C461.281 208.461 461.53 212.297 460.925 215.693C460.321 219.089 458.947 221.923 456.803 224.197C454.669 226.454 451.843 228.036 448.325 228.942ZM446.122 220.393C447.938 219.926 449.182 218.597 449.855 216.406C450.537 214.2 450.348 211.063 449.286 206.993C448.6 204.333 447.775 202.226 446.81 200.672C445.846 199.119 444.793 198.059 443.652 197.493C442.508 196.913 441.33 196.78 440.12 197.092C438.304 197.559 437.06 198.861 436.386 200.998C435.713 203.135 435.877 206.198 436.878 210.189C437.564 212.903 438.397 215.069 439.379 216.685C440.356 218.289 441.419 219.386 442.567 219.978C443.727 220.567 444.912 220.705 446.122 220.393ZM487.23 218.92C483.709 219.814 480.461 219.783 477.485 218.829C474.51 217.874 471.937 216.056 469.767 213.375C467.598 210.693 465.972 207.226 464.89 202.973C463.804 198.708 463.566 194.911 464.174 191.581C464.794 188.248 466.178 185.478 468.325 183.271C470.486 181.061 473.325 179.502 476.843 178.596C480.361 177.69 483.601 177.689 486.563 178.593C489.522 179.484 492.079 181.24 494.232 183.858C496.386 186.476 498.004 189.912 499.086 194.165C500.187 198.439 500.435 202.274 499.831 205.67C499.227 209.067 497.853 211.901 495.709 214.175C493.574 216.432 490.748 218.014 487.23 218.92ZM485.028 210.371C486.844 209.903 488.088 208.574 488.761 206.384C489.443 204.178 489.253 201.04 488.191 196.971C487.506 194.31 486.681 192.203 485.716 190.65C484.751 189.097 483.698 188.037 482.557 187.471C481.413 186.891 480.236 186.758 479.025 187.069C477.21 187.537 475.965 188.839 475.292 190.976C474.619 193.112 474.783 196.176 475.784 200.167C476.47 202.881 477.303 205.047 478.284 206.663C479.262 208.266 480.325 209.364 481.472 209.956C482.632 210.545 483.817 210.683 485.028 210.371Z" fill="white"/>
<circle cx="496" cy="472" r="13" fill="#0D4EE1"/>
<circle cx="77" cy="600" r="30" fill="#EEEEEE"/>
<circle cx="521.5" cy="21.5" r="21.5" fill="#EEEEEE"/>
<circle cx="110.5" cy="65.5" r="10.5" fill="#0D4EE1"/>
</svg>
