<svg width="396" height="265" viewBox="0 0 396 265" fill="none" xmlns="http://www.w3.org/2000/svg">
<path d="M366.078 231.548C366.078 231.548 366.052 231.601 365.983 231.696L365.672 232.113C365.371 232.493 364.964 233.011 364.452 233.671L364.399 233.739L364.346 233.665L361.353 229.526H361.527L358.575 233.697L358.486 233.829L358.38 233.708L354.89 229.547H355.091L354.895 229.79L351.77 233.708L351.669 233.834L351.574 233.702L348.623 229.531H348.797L345.164 233.671L345.101 233.745L345.053 233.66L343.913 231.749L343.622 231.221C343.587 231.164 343.557 231.104 343.533 231.041C343.533 231.041 343.58 231.089 343.654 231.2L343.976 231.691L345.17 233.565H345.059L348.628 229.378L348.718 229.272L348.802 229.389L351.775 233.539H351.574L354.695 229.616L354.885 229.373L354.985 229.251L355.085 229.373L358.57 233.539H358.375C359.431 232.039 360.455 230.645 361.353 229.389L361.437 229.267L361.527 229.389L364.452 233.576H364.346L365.614 232.055L365.957 231.664C366.031 231.585 366.073 231.543 366.078 231.548Z" fill="#F5F5F5"/>
<path d="M54.0249 193.817V210.08H77.8007H104.032V193.817H54.0249Z" fill="#F5F5F5"/>
<path d="M51.9235 189.271V193.817H105.779V189.271H77.8007H51.9235Z" fill="#E0E0E0"/>
<path d="M78.8515 210.079H104.032V193.817H105.779V189.271H77.8008V193.4L78.8515 210.079Z" fill="#E0E0E0"/>
<path d="M71.1585 196.441H61.0156V198.891H71.1585V196.441Z" fill="#E0E0E0"/>
<path d="M72.732 201.948H59.7115V207.117H72.732V201.948Z" fill="white"/>
<path d="M111.54 245.033L110.489 22.3438H106.181V66.1678H95.04L94.8341 22.3438H90.5203V66.1678H52.2086L51.9974 22.3438H47.6889V66.1678H36.6009L36.3739 22.3438H32.0654V245.033H37.4246L37.2821 215.148H47.6889V245.033H53.0482L52.9109 215.148H90.5203V245.033H95.8848L95.7422 215.148H106.181V245.033H111.54ZM42.203 185.638L38.3539 169.128H46.2739L42.203 185.638ZM47.6889 170.142V209.134L43.0214 189.134L47.6889 170.142ZM47.6889 113.461L43.0214 93.4601L47.6889 74.4521V113.461ZM46.8547 117.041H37.224L42.1661 96.9766L46.8547 117.041ZM42.203 89.9594L37.7942 71.057H46.8494L42.203 89.9594ZM41.3477 93.4495L36.7963 111.961L36.6168 73.1743L41.3477 93.4495ZM37.0762 170.823L41.3477 189.123L37.2398 205.834L37.0762 170.823ZM42.1608 192.624L46.2845 210.28H37.8365L42.1608 192.624ZM37.2187 164.26L37.1817 164.112L37.0445 164.143L36.8438 121.903H47.6889V164.254L37.2187 164.26ZM52.4726 121.909H90.5203V164.26H52.668L52.4726 121.909ZM100.352 96.9449L105.072 117.041H95.4149L100.352 96.9449ZM95.2512 110.884L95.077 74.3517L99.5386 93.4495L95.2512 110.884ZM106.181 114.744L101.212 93.4548L106.181 73.2324V114.744ZM106.181 116.967V117.035H105.88L106.181 116.967ZM106.181 171.293V207.909L101.798 189.128L106.181 171.293ZM100.98 185.633L97.152 169.128H105.072L100.98 185.633ZM100.394 89.9542L95.9798 71.0518H105.04L100.394 89.9542ZM106.202 121.903V164.254H95.9904L95.9587 164.106L95.5046 164.212L95.304 121.903H106.202ZM100.146 189.118L95.7264 207.07L95.5522 169.413L100.146 189.118ZM100.959 192.618L105.072 210.28H96.624L100.959 192.618ZM90.5203 71.057V117.041H52.4462L52.2297 71.057H90.5203ZM53.5603 210.28H52.8686L52.6944 169.128H90.5203V210.28H53.5603Z" fill="#E0E0E0"/>
<path d="M87.1834 84.0353H80.0607V117.231H87.1834V84.0353Z" fill="#E0E0E0"/>
<path d="M85.1769 109.268C85.1769 109.547 85.0943 109.82 84.9394 110.052C84.7845 110.283 84.5643 110.464 84.3067 110.571C84.0491 110.678 83.7656 110.705 83.4922 110.651C83.2187 110.597 82.9675 110.462 82.7703 110.265C82.5732 110.068 82.4389 109.817 82.3845 109.543C82.3301 109.27 82.358 108.987 82.4647 108.729C82.5714 108.471 82.7521 108.251 82.984 108.096C83.2158 107.941 83.4884 107.859 83.7672 107.859C84.1406 107.86 84.4984 108.009 84.7625 108.273C85.0266 108.537 85.1756 108.895 85.1769 109.268Z" fill="#FAFAFA"/>
<path d="M84.7969 92.8318H82.6162V106.396H84.7969V92.8318Z" fill="#FAFAFA"/>
<path d="M79.9497 84.0353H72.827V117.231H79.9497V84.0353Z" fill="#EBEBEB"/>
<path d="M77.9433 109.268C77.9444 109.548 77.8623 109.823 77.7074 110.056C77.5526 110.289 77.332 110.472 77.0735 110.579C76.815 110.687 76.5303 110.716 76.2555 110.662C75.9807 110.608 75.728 110.474 75.5296 110.276C75.3312 110.078 75.1959 109.826 75.1409 109.552C75.0858 109.277 75.1135 108.992 75.2205 108.733C75.3274 108.475 75.5088 108.253 75.7416 108.097C75.9744 107.942 76.2482 107.859 76.5283 107.859C76.9027 107.859 77.2618 108.007 77.527 108.271C77.7922 108.535 77.942 108.894 77.9433 109.268Z" fill="#FAFAFA"/>
<path d="M77.558 92.8318H75.3773V106.396H77.558V92.8318Z" fill="#FAFAFA"/>
<path d="M73.0594 84.0353H65.9366V117.231H73.0594V84.0353Z" fill="#F5F5F5"/>
<path d="M71.053 109.268C71.054 109.548 70.9719 109.823 70.8171 110.056C70.6622 110.289 70.4416 110.472 70.1831 110.579C69.9246 110.687 69.64 110.716 69.3651 110.662C69.0903 110.608 68.8377 110.474 68.6392 110.276C68.4408 110.078 68.3055 109.826 68.2505 109.552C68.1955 109.277 68.2232 108.992 68.3301 108.733C68.437 108.475 68.6184 108.253 68.8512 108.097C69.084 107.942 69.3578 107.859 69.6379 107.859C70.0123 107.859 70.3714 108.007 70.6367 108.271C70.9019 108.535 71.0516 108.894 71.053 109.268Z" fill="#E0E0E0"/>
<path d="M70.6728 92.8318H68.4922V106.396H70.6728V92.8318Z" fill="#E0E0E0"/>
<path d="M57.1296 116.724L65.6885 87.5253L62.7369 86.2317L53.9563 115.668L57.1296 116.724Z" fill="#F5F5F5"/>
<path d="M44.447 164.265V159.233H79.9497L80.0606 164.265H44.447Z" fill="#F5F5F5"/>
<path d="M79.9656 160.057C79.9656 160.057 48.481 160.289 46.4429 160.769C46.0046 160.87 45.5558 162.802 46.4429 162.982C47.3299 163.161 79.9656 163.425 79.9656 163.425V160.057Z" fill="white"/>
<path d="M48.5707 159.038V154.011H76.692L76.7817 159.038H48.5707Z" fill="#EBEBEB"/>
<path d="M76.7079 154.83C76.7079 154.83 51.744 155.062 50.16 155.542C49.8168 155.648 49.4631 157.58 50.16 157.755C50.857 157.929 76.7184 158.198 76.7184 158.198L76.7079 154.83Z" fill="#FAFAFA"/>
<path d="M48.444 154.069V149.048H76.5652L76.655 154.069H48.444Z" fill="#E0E0E0"/>
<path d="M76.56 149.866C76.56 149.866 51.6226 150.099 50.0069 150.579C49.6584 150.679 49.3047 152.612 50.0069 152.791C50.7092 152.971 76.56 153.235 76.56 153.235V149.866Z" fill="#FAFAFA"/>
<path d="M90.3777 33.6324H83.255V66.8278H90.3777V33.6324Z" fill="#F5F5F5"/>
<path d="M88.3714 58.8655C88.3714 59.1443 88.2887 59.4168 88.1338 59.6487C87.9789 59.8805 87.7587 60.0612 87.5011 60.1679C87.2435 60.2746 86.9601 60.3025 86.6866 60.2481C86.4131 60.1937 86.162 60.0595 85.9648 59.8623C85.7676 59.6652 85.6334 59.414 85.579 59.1405C85.5246 58.867 85.5525 58.5836 85.6592 58.326C85.7659 58.0684 85.9466 57.8482 86.1784 57.6933C86.4103 57.5384 86.6828 57.4557 86.9616 57.4557C87.147 57.455 87.3306 57.491 87.502 57.5616C87.6733 57.6322 87.829 57.736 87.9601 57.8671C88.0911 57.9981 88.1949 58.1538 88.2655 58.3251C88.3361 58.4965 88.3721 58.6801 88.3714 58.8655Z" fill="#E0E0E0"/>
<path d="M87.9912 42.4288H85.8105V55.9932H87.9912V42.4288Z" fill="#E0E0E0"/>
<path d="M83.1442 33.6324H76.0215V66.8278H83.1442V33.6324Z" fill="#EBEBEB"/>
<path d="M81.1378 58.8656C81.1378 59.1444 81.0551 59.417 80.9002 59.6488C80.7453 59.8806 80.5251 60.0613 80.2675 60.168C80.0099 60.2747 79.7264 60.3026 79.453 60.2482C79.1795 60.1938 78.9283 60.0596 78.7311 59.8624C78.534 59.6653 78.3997 59.4141 78.3453 59.1406C78.2909 58.8671 78.3189 58.5837 78.4256 58.3261C78.5323 58.0685 78.7129 57.8483 78.9448 57.6934C79.1766 57.5385 79.4492 57.4558 79.728 57.4558C80.1019 57.4558 80.4605 57.6043 80.7248 57.8687C80.9892 58.1331 81.1378 58.4917 81.1378 58.8656Z" fill="#FAFAFA"/>
<path d="M80.7575 42.4288H78.5769V55.9932H80.7575V42.4288Z" fill="#FAFAFA"/>
<path d="M76.2537 33.6324H69.131V66.8278H76.2537V33.6324Z" fill="#E0E0E0"/>
<path d="M74.2474 58.8656C74.2473 59.1455 74.1639 59.4191 74.0078 59.6515C73.8517 59.8838 73.63 60.0645 73.3708 60.1704C73.1117 60.2762 72.8269 60.3026 72.5527 60.246C72.2786 60.1894 72.0275 60.0525 71.8314 59.8527C71.6353 59.6529 71.5032 59.3992 71.4518 59.1241C71.4004 58.8489 71.4321 58.5646 71.5429 58.3075C71.6537 58.0504 71.8385 57.8321 72.0737 57.6805C72.309 57.5288 72.5841 57.4506 72.864 57.4558C73.2333 57.4627 73.5851 57.6143 73.8438 57.8779C74.1025 58.1416 74.2474 58.4962 74.2474 58.8656Z" fill="#FAFAFA"/>
<path d="M73.8672 42.4288H71.6865V55.9932H73.8672V42.4288Z" fill="#FAFAFA"/>
<path d="M182.208 229.578V247.182H207.948H236.338V229.578H182.208Z" fill="#F5F5F5"/>
<path d="M179.937 224.657V229.578H238.228V224.657H207.948H179.937Z" fill="#EBEBEB"/>
<path d="M209.083 247.182H236.338V229.578H238.228V224.657H207.948V229.124L209.083 247.182Z" fill="#EBEBEB"/>
<path d="M200.756 232.419H189.779V235.07H200.756V232.419Z" fill="#E0E0E0"/>
<path d="M202.462 238.38H188.364V243.977H202.462V238.38Z" fill="white"/>
<path d="M190.534 207.08V224.679H216.274H244.665V207.08H190.534Z" fill="#F5F5F5"/>
<path d="M188.264 202.159V207.08H246.56V202.159H216.274H188.264Z" fill="#EBEBEB"/>
<path d="M217.409 224.679H244.665V207.08H246.56V202.159H216.274V206.626L217.409 224.679Z" fill="#EBEBEB"/>
<path d="M209.083 209.916H198.106V212.566H209.083V209.916Z" fill="#E0E0E0"/>
<path d="M210.793 215.882H196.696V221.479H210.793V215.882Z" fill="white"/>
<path d="M359.848 31.0029H321.668V88.6922H359.848V31.0029Z" fill="white"/>
<path d="M366.305 23.0249C366.037 23.4911 365.726 23.9312 365.376 24.3396C364.79 25.1316 363.95 26.2035 362.995 27.3651C362.039 28.5267 361.152 29.551 360.503 30.2638C360.166 30.6762 359.793 31.0579 359.388 31.4043C359.672 30.9536 359.995 30.5295 360.355 30.1371L362.805 27.1697C363.729 26.0451 364.568 25.026 365.244 24.1971C365.567 23.7794 365.922 23.3875 366.305 23.0249Z" fill="#E0E0E0"/>
<path d="M360.043 88.5022C361.942 91.5212 364.177 94.3147 366.707 96.8288L360.043 88.5022Z" fill="white"/>
<path d="M315.353 96.607L322.006 88.3966L315.353 96.607Z" fill="white"/>
<path d="M322.006 88.3966C321.004 89.8479 319.929 91.2471 318.785 92.5889C317.71 93.9858 316.565 95.3269 315.353 96.607C316.348 95.1524 317.422 93.7529 318.569 92.4147C319.643 91.0156 320.79 89.6744 322.006 88.3966Z" fill="#E0E0E0"/>
<path d="M315.359 23.0249C316.503 24.2534 317.582 25.5418 318.59 26.8846C319.667 28.1723 320.672 29.5191 321.6 30.9185C320.458 29.6918 319.384 28.4033 318.384 27.0588C317.303 25.7705 316.293 24.4239 315.359 23.0249Z" fill="#E0E0E0"/>
<path d="M292.75 24.1074H92.6851V183.717H292.75V24.1074Z" fill="white"/>
<path d="M114.312 49.7999C114.172 49.7999 114.038 49.7442 113.939 49.6452C113.84 49.5462 113.784 49.4119 113.784 49.2719V44.7839C113.784 44.6438 113.84 44.5095 113.939 44.4105C114.038 44.3115 114.172 44.2559 114.312 44.2559C114.452 44.2559 114.586 44.3115 114.685 44.4105C114.784 44.5095 114.84 44.6438 114.84 44.7839V49.2719C114.84 49.4119 114.784 49.5462 114.685 49.6452C114.586 49.7442 114.452 49.7999 114.312 49.7999Z" fill="white"/>
<path d="M116.551 47.5611H112.068C111.928 47.5611 111.794 47.5055 111.695 47.4065C111.596 47.3075 111.54 47.1732 111.54 47.0331C111.54 46.8931 111.596 46.7588 111.695 46.6598C111.794 46.5608 111.928 46.5051 112.068 46.5051H116.551C116.691 46.5051 116.825 46.5608 116.924 46.6598C117.023 46.7588 117.079 46.8931 117.079 47.0331C117.079 47.1732 117.023 47.3075 116.924 47.4065C116.825 47.5055 116.691 47.5611 116.551 47.5611Z" fill="white"/>
<path d="M273.029 65.9355H110.204C108.215 65.9355 106.603 67.5478 106.603 69.5365V73.5176C106.603 75.5064 108.215 77.1186 110.204 77.1186H273.029C275.017 77.1186 276.63 75.5064 276.63 73.5176V69.5365C276.63 67.5478 275.017 65.9355 273.029 65.9355Z" fill="#EBEBEB"/>
<path d="M153.653 84.6531H110.204C108.215 84.6531 106.603 86.2653 106.603 88.254V92.2352C106.603 94.2239 108.215 95.8361 110.204 95.8361H153.653C155.642 95.8361 157.254 94.2239 157.254 92.2352V88.254C157.254 86.2653 155.642 84.6531 153.653 84.6531Z" fill="#EBEBEB"/>
<path d="M273.029 103.915H110.262C108.273 103.915 106.661 105.527 106.661 107.516V111.497C106.661 113.485 108.273 115.098 110.262 115.098H273.029C275.018 115.098 276.63 113.485 276.63 111.497V107.516C276.63 105.527 275.018 103.915 273.029 103.915Z" fill="#EBEBEB"/>
<path d="M273.029 123.171H110.262C108.273 123.171 106.661 124.783 106.661 126.772V151.324C106.661 153.312 108.273 154.925 110.262 154.925H273.029C275.018 154.925 276.63 153.312 276.63 151.324V126.772C276.63 124.783 275.018 123.171 273.029 123.171Z" fill="#EBEBEB"/>
<path d="M213.74 84.6531H165.607C163.618 84.6531 162.006 86.2653 162.006 88.254V92.2352C162.006 94.2239 163.618 95.8361 165.607 95.8361H213.74C215.728 95.8361 217.341 94.2239 217.341 92.2352V88.254C217.341 86.2653 215.728 84.6531 213.74 84.6531Z" fill="#EBEBEB"/>
<path d="M273.034 84.6531H226.174C224.185 84.6531 222.573 86.2653 222.573 88.254V92.2352C222.573 94.2239 224.185 95.8361 226.174 95.8361H273.034C275.023 95.8361 276.635 94.2239 276.635 92.2352V88.254C276.635 86.2653 275.023 84.6531 273.034 84.6531Z" fill="#EBEBEB"/>
<path d="M233.376 176.198H211.77C210.132 176.15 208.576 175.466 207.434 174.291C206.292 173.115 205.653 171.54 205.653 169.901C205.653 168.262 206.292 166.688 207.434 165.512C208.576 164.337 210.132 163.652 211.77 163.605H233.376C235.014 163.652 236.57 164.337 237.712 165.512C238.854 166.688 239.493 168.262 239.493 169.901C239.493 171.54 238.854 173.115 237.712 174.291C236.57 175.466 235.014 176.15 233.376 176.198ZM211.765 164.133C210.265 164.178 208.842 164.806 207.797 165.883C206.753 166.96 206.168 168.401 206.168 169.901C206.168 171.402 206.753 172.843 207.797 173.92C208.842 174.997 210.265 175.624 211.765 175.67H233.376C234.876 175.624 236.299 174.997 237.343 173.92C238.388 172.843 238.972 171.402 238.972 169.901C238.972 168.401 238.388 166.96 237.343 165.883C236.299 164.806 234.876 164.178 233.376 164.133H211.765Z" fill="#0D4EE1"/>
<path d="M270.6 175.934H248.989C247.389 175.932 245.856 175.296 244.725 174.164C243.594 173.033 242.959 171.498 242.959 169.899C242.957 169.105 243.111 168.319 243.413 167.586C243.715 166.852 244.159 166.185 244.719 165.623C245.279 165.061 245.945 164.615 246.677 164.31C247.41 164.006 248.195 163.849 248.989 163.848H270.6C272.199 163.848 273.733 164.483 274.864 165.614C275.994 166.745 276.63 168.278 276.63 169.878C276.633 170.672 276.48 171.459 276.178 172.193C275.877 172.928 275.433 173.596 274.873 174.158C274.313 174.721 273.647 175.168 272.914 175.472C272.18 175.777 271.394 175.934 270.6 175.934Z" fill="#00D555"/>
<path d="M292.75 22.328H92.6851V35.3749H292.75V22.328Z" fill="#E0E0E0"/>
<path d="M103.161 28.8541C103.161 29.3219 103.022 29.7793 102.762 30.1683C102.502 30.5573 102.133 30.8604 101.7 31.0395C101.268 31.2185 100.793 31.2653 100.334 31.1741C99.8748 31.0828 99.4533 30.8575 99.1225 30.5267C98.7917 30.1959 98.5664 29.7744 98.4751 29.3156C98.3839 28.8567 98.4307 28.3811 98.6097 27.9489C98.7888 27.5166 99.092 27.1472 99.481 26.8873C99.87 26.6274 100.327 26.4886 100.795 26.4886C101.422 26.4886 102.024 26.7379 102.468 27.1815C102.911 27.6251 103.161 28.2267 103.161 28.8541Z" fill="white"/>
<path d="M110.79 28.8541C110.79 29.3222 110.651 29.7797 110.391 30.1688C110.131 30.5579 109.761 30.8611 109.329 31.04C108.896 31.2189 108.42 31.2654 107.961 31.1737C107.502 31.082 107.081 30.8562 106.75 30.5248C106.42 30.1935 106.195 29.7715 106.104 29.3123C106.013 28.8531 106.061 28.3773 106.241 27.9452C106.421 27.5131 106.725 27.144 107.114 26.8847C107.504 26.6255 107.962 26.4876 108.43 26.4887C108.74 26.4887 109.048 26.5499 109.334 26.6688C109.621 26.7878 109.882 26.9621 110.101 27.1818C110.32 27.4015 110.494 27.6623 110.612 27.9493C110.73 28.2362 110.791 28.5437 110.79 28.8541Z" fill="white"/>
<path d="M118.425 28.8541C118.425 29.3219 118.286 29.7793 118.026 30.1683C117.767 30.5573 117.397 30.8604 116.965 31.0395C116.533 31.2185 116.057 31.2653 115.598 31.1741C115.139 31.0828 114.718 30.8575 114.387 30.5267C114.056 30.1959 113.831 29.7744 113.74 29.3156C113.648 28.8567 113.695 28.3811 113.874 27.9489C114.053 27.5166 114.356 27.1472 114.745 26.8873C115.134 26.6274 115.592 26.4886 116.06 26.4886C116.687 26.4886 117.289 26.7379 117.732 27.1815C118.176 27.6251 118.425 28.2267 118.425 28.8541Z" fill="white"/>
<path d="M291.984 57.7198C291.984 57.7937 247.553 57.8571 192.752 57.8571C137.951 57.8571 93.4877 57.7937 93.4877 57.7198C93.4877 57.6459 137.914 57.5825 192.752 57.5825C247.59 57.5825 291.984 57.6353 291.984 57.7198Z" fill="#E0E0E0"/>
<path d="M47.8316 188.104C45.1139 186.404 42.0438 185.348 38.8556 185.015C37.3878 184.862 35.7826 184.91 34.6316 185.797C34.496 185.875 34.3842 185.988 34.3079 186.125C34.2317 186.262 34.1939 186.417 34.1986 186.573C34.2651 186.794 34.412 186.983 34.6105 187.101C38.2642 189.889 43.7924 190.243 47.8633 188.104" fill="#455A64"/>
<path d="M47.5992 187.851C45.5164 186.325 43.5728 184.618 41.7912 182.75C40.0061 180.868 38.751 178.547 38.1533 176.023C37.9949 175.258 37.9474 174.381 38.4384 173.774C43.0637 177.386 46.6964 182.053 47.5887 187.851" fill="#455A64"/>
<path d="M47.7841 188.072C47.3541 185.548 47.3899 182.965 47.8897 180.453C48.4084 177.924 49.8574 175.682 51.95 174.17C52.7473 176.039 52.4041 178.188 51.8391 180.142C50.9651 183.156 49.6082 186.009 47.821 188.59" fill="#455A64"/>
<path d="M52.3196 196.193C49.5635 196.526 47.1663 197.978 45.1124 199.842C43.0481 201.721 41.6106 204.189 40.994 206.912C43.6921 206.743 45.9836 204.842 47.6415 202.688C49.2995 200.533 50.4558 198.21 52.2774 196.214" fill="#455A64"/>
<path d="M53.328 197.492C52.2442 194.742 51.864 191.765 52.2217 188.832C52.5795 185.898 53.6639 183.1 55.3766 180.691C56.9606 186.267 56.3693 192.566 53.328 197.492Z" fill="#455A64"/>
<path d="M59.2892 204.625C56.7719 204.468 54.2639 205.054 52.0774 206.311C49.8909 207.568 48.1223 209.44 46.992 211.695C46.8389 211.996 46.7069 212.387 46.9076 212.656C47.0146 212.759 47.1448 212.835 47.2872 212.877C47.4296 212.919 47.5801 212.927 47.726 212.899C50.1442 212.741 52.2879 211.283 54.062 209.625C55.836 207.967 57.3725 206.051 59.342 204.615" fill="#455A64"/>
<path d="M59.099 204.234C57.8106 200.083 57.7318 195.651 58.872 191.457C59.3208 189.815 60.0758 188.083 61.5965 187.312C61.6516 187.264 61.7181 187.232 61.7895 187.218C61.8609 187.204 61.9347 187.21 62.0036 187.233C62.0724 187.257 62.1339 187.298 62.182 187.352C62.2301 187.407 62.263 187.473 62.2776 187.544C62.7914 188.694 63.0127 189.953 62.9218 191.209C62.829 192.454 62.6365 193.69 62.3462 194.905C61.871 197.17 61.6123 199.609 60.3715 201.563C60.0756 202.034 59.811 202.524 59.5795 203.031C59.3419 203.527 59.3419 203.701 59.1254 204.087" fill="#455A64"/>
<path d="M74.976 206.616C73.7986 202.144 75.0446 196.732 77.8642 193.067C78.0701 192.798 78.3447 192.508 78.6826 192.539C79.2106 192.587 79.3373 193.278 79.3109 193.801C79.0975 198.395 77.5953 202.836 74.976 206.616Z" fill="#455A64"/>
<path d="M76.3805 207.577C81.8083 208.986 88.0387 207.614 92.5531 204.287C89.8445 202.935 86.7514 202.562 83.7989 203.231C80.8738 203.902 78.2021 205.211 76.3805 207.598" fill="#455A64"/>
<path d="M77.6161 204.599C80.6521 199.646 86.4812 196.409 92.2892 196.114C91.6186 198.474 89.6809 200.311 87.4897 201.42C85.2985 202.529 82.8538 203.004 80.4462 203.479C79.5063 203.664 78.2233 203.865 77.6161 204.599Z" fill="#455A64"/>
<path d="M75.2559 190.163C76.0796 187.344 76.9085 184.498 77.1303 181.573C77.352 178.648 76.9402 175.585 75.4196 173.067C72.5789 178.563 72.2938 184.984 75.1714 190.459" fill="#455A64"/>
<path d="M84.818 185.332C88.1391 179.297 94.9134 174.476 101.767 173.801C99.1268 180.385 91.909 185.475 84.818 185.332Z" fill="#455A64"/>
<path d="M82.7271 186.515C87.6797 187.27 91.8984 190.433 96.529 192.349C97.4967 192.819 98.5714 193.025 99.6442 192.946C100.144 192.941 100.631 192.783 101.038 192.492C101.445 192.202 101.753 191.793 101.92 191.322C102.087 190.85 102.105 190.339 101.972 189.857C101.839 189.375 101.561 188.945 101.175 188.627C100.518 188.024 99.7485 187.558 98.9103 187.254C93.8679 185.142 88.4611 185.1 83.1547 186.372" fill="#455A64"/>
<path d="M79.86 189.989C80.9793 190.311 81.3648 190.892 82.2518 191.647C85.2811 194.219 88.862 196.058 92.7168 197.022C93.1181 197.122 93.6408 197.159 93.8414 196.8C94.0421 196.441 93.7939 196.103 93.5669 195.823C91.8811 193.847 89.6917 192.363 87.2309 191.531C84.8126 190.633 82.7217 189.551 79.8389 189.783" fill="#455A64"/>
<path d="M76.6287 169.012C78.6588 170.884 81.0581 172.31 83.6724 173.199C86.2867 174.089 89.0582 174.421 91.8087 174.175C92.0621 174.182 92.3087 174.093 92.5004 173.927C92.8858 173.51 92.4265 172.871 91.9724 172.523C87.5108 169.043 82.1041 167.602 76.6234 169.012" fill="#455A64"/>
<path d="M80.4619 167.607C83.1494 165.629 86.2667 164.315 89.5592 163.771C92.8517 163.228 96.226 163.472 99.4066 164.481C97.02 166.831 93.7094 168.098 90.3778 168.441C87.0491 168.746 83.6929 168.463 80.4619 167.607Z" fill="#455A64"/>
<path d="M78.936 157.966C78.4978 153.509 78.7829 149.993 78.4714 145.516C78.4714 145.157 78.371 144.729 78.0384 144.597C77.5738 144.417 77.183 144.993 77.0299 145.468C76.3806 147.543 76.2142 149.738 76.5437 151.887C76.8731 154.036 77.6896 156.081 78.9307 157.865" fill="#455A64"/>
<path d="M78.614 158.457C81.6342 156.593 83.894 154.154 86.006 151.287C87.4633 149.291 88.6935 146.899 88.3662 144.449C86.3175 144.412 84.3692 145.542 83.0387 147.089C81.7674 148.702 80.8434 150.561 80.3247 152.549C79.7334 154.513 79.3215 156.524 78.6246 158.452" fill="#455A64"/>
<path d="M85.8687 156.456C92.5069 153.988 98.652 150.356 104.016 145.732C101.846 144.861 99.3644 145.384 97.1943 146.26C92.2364 148.261 88.1866 151.64 85.7578 156.398" fill="#455A64"/>
<path d="M80.6573 160.896C84.0101 161.261 87.4158 161.503 90.7422 160.944C94.0686 160.384 97.0782 159.101 100.156 157.818C100.421 157.739 100.649 157.567 100.795 157.332C100.845 157.191 100.849 157.037 100.809 156.893C100.768 156.748 100.684 156.62 100.568 156.524C100.333 156.339 100.059 156.211 99.7657 156.15C96.4445 155.22 92.8594 155.653 89.5911 156.757C86.4773 157.822 83.4831 159.209 80.6573 160.896Z" fill="#455A64"/>
<path d="M61.5067 169.159C59.2205 164.545 59.3947 159.154 61.343 154.375C62.737 156.487 62.927 159.196 62.6525 161.715C62.3779 164.233 61.6282 166.836 61.5965 169.371" fill="#455A64"/>
<path d="M52.3671 164.55C49.5018 164.514 46.6604 165.075 44.0241 166.197C41.3877 167.32 39.0143 168.98 37.0551 171.071C39.9063 171.52 42.8631 170.786 45.4344 169.518C48.0058 168.251 50.3343 166.477 52.6152 164.714" fill="#455A64"/>
<path d="M46.2264 162.496C43.428 162.269 40.7405 161.926 38.053 162.749C35.3655 163.573 32.9261 165.442 31.8279 168.029C34.4651 168.241 37.1109 167.742 39.4892 166.583C41.8512 165.422 44.1058 164.055 46.2264 162.496Z" fill="#455A64"/>
<path d="M55.3239 162.591C52.8106 160.944 50.2287 159.27 47.2983 158.584C44.3679 157.897 40.9623 158.409 38.9401 160.611C41.3108 162.005 44.1831 162.169 46.934 162.163C49.6849 162.158 53.0482 162.132 55.6354 163.05" fill="#455A64"/>
<path d="M55.3397 162.723C51.0417 158.499 49.4102 150.922 51.1157 145.156C54.5148 150.346 56.0077 156.555 55.3397 162.723Z" fill="#455A64"/>
<path d="M67.1564 150.769C67.9642 148.884 68.5345 146.904 69.2684 144.961C69.9301 143.014 70.9489 141.207 72.2727 139.634C73.6296 138.064 75.5482 137.089 77.6161 136.92C76.9552 139.826 75.6954 142.563 73.9171 144.955C72.1388 147.347 69.8812 149.341 67.2884 150.811" fill="#455A64"/>
<path d="M65.018 153.288C63.6769 151.44 62.1246 148.932 60.3082 147.554C58.4919 146.176 56.1212 145.341 53.8983 145.875C55.0513 147.885 56.6563 149.599 58.5862 150.882C60.5161 152.165 62.7181 152.982 65.018 153.267" fill="#455A64"/>
<path d="M65.4721 150.922C64.5102 148.722 63.8016 146.419 63.3601 144.058C63.0063 141.682 63.2228 139.148 64.4161 137.073C66.7709 141.534 67.5313 146.318 65.5777 150.97" fill="#455A64"/>
<path d="M67.1774 137.073C68.5133 132.654 72.5577 129.401 76.9296 127.907C77.4704 127.683 78.0575 127.594 78.6403 127.648C78.9312 127.681 79.206 127.798 79.4304 127.986C79.6548 128.174 79.8189 128.424 79.9022 128.704C80.0606 129.454 79.4376 130.13 78.8462 130.626C75.4294 133.543 71.4561 135.736 67.1669 137.073" fill="#455A64"/>
<path d="M67.225 133.461C67.394 130.61 67.5735 127.717 68.4975 125.013C69.4215 122.31 71.2114 119.776 73.8145 118.598C74.2527 121.476 72.9855 124.338 71.4543 126.814C69.9231 129.29 68.0751 131.629 67.1564 134.396" fill="#455A64"/>
<path d="M67.1564 135.42C66.0476 132.199 65.9367 128.107 63.9884 125.298C62.642 123.34 60.4825 122.004 59.3209 119.923C58.6216 121.917 58.718 124.103 59.5902 126.027C60.4688 127.928 61.6773 129.658 63.1595 131.138C64.5903 132.664 65.7995 133.81 67.1406 135.42" fill="#455A64"/>
<path d="M67.1775 230.297C67.0877 230.297 67.0138 208.807 67.0085 182.301C67.0033 155.796 67.0561 134.28 67.1564 134.28C67.2567 134.28 67.3148 155.764 67.3201 182.28C67.3253 208.796 67.262 230.297 67.1775 230.297Z" fill="#263238"/>
<path d="M85.9585 165.917C85.6987 166.043 85.4283 166.145 85.1506 166.224L82.9225 166.973C81.0481 167.612 78.4767 168.557 75.6783 169.682C72.8799 170.807 70.298 171.831 68.8143 173.119C68.2198 173.614 67.748 174.239 67.4362 174.946C67.2197 175.474 67.1828 175.759 67.1564 175.754C67.13 175.749 67.1564 175.675 67.1564 175.527C67.191 175.315 67.244 175.107 67.3148 174.904C67.5971 174.154 68.0595 173.485 68.6612 172.956C69.5588 172.198 70.562 171.576 71.6391 171.108C72.8324 170.553 74.1524 169.973 75.5569 169.397C78.3605 168.246 80.953 167.348 82.8538 166.757C83.7989 166.461 84.5751 166.229 85.1084 166.102C85.3851 166.013 85.6698 165.952 85.9585 165.917Z" fill="#263238"/>
<path d="M92.115 150.796C92.0499 150.886 91.9736 150.968 91.8879 151.039L91.1962 151.704L88.6249 154.043L80.0554 161.672C76.7079 164.65 73.8198 167.48 71.8134 169.635C70.8102 170.691 70.0234 171.594 69.4849 172.211L68.8618 172.924C68.714 173.083 68.6348 173.167 68.6295 173.156C68.6767 173.057 68.7371 172.965 68.809 172.882C68.941 172.708 69.1311 172.454 69.3898 172.132C69.9178 171.488 70.6676 170.58 71.655 169.492C74.2409 166.667 76.9745 163.981 79.8442 161.445C83.2023 158.473 86.2594 155.806 88.477 153.884L91.117 151.619L91.8457 151.012C91.9273 150.93 92.0176 150.858 92.115 150.796Z" fill="#263238"/>
<path d="M76.4439 164.682C76.3541 164.645 77.0511 163.029 77.748 160.986C78.445 158.943 78.804 157.221 78.8727 157.237C78.7991 158.556 78.5194 159.854 78.0437 161.086C77.7412 161.966 77.3886 162.828 76.9877 163.668C76.8544 164.03 76.6714 164.371 76.4439 164.682Z" fill="#263238"/>
<path d="M67.1933 177.692C66.9994 177.51 66.8227 177.31 66.6653 177.095L65.3453 175.4C64.2365 173.964 62.7053 171.99 60.984 169.819C59.2627 167.649 57.684 165.712 56.5382 164.307L55.1918 162.639C55.0164 162.44 54.8591 162.226 54.7219 162C54.9285 162.165 55.1162 162.353 55.2816 162.559C55.6248 162.929 56.1106 163.478 56.7072 164.143C57.8952 165.516 59.5056 167.438 61.2269 169.608C62.9482 171.778 64.453 173.779 65.5195 175.247C66.0475 175.981 66.4752 176.578 66.7603 177C66.9323 177.212 67.0777 177.445 67.1933 177.692Z" fill="#263238"/>
<path d="M63.0802 172.407C62.2486 171.487 61.6557 170.378 61.3536 169.175C61.0278 168.122 60.8955 167.018 60.9629 165.918H61.1002C61.0368 166.171 60.9946 166.298 60.9682 166.298C60.9418 166.298 60.9682 166.155 60.9682 165.896H61.1055C61.1652 166.969 61.3423 168.031 61.6335 169.064C62.0269 170.215 62.5107 171.332 63.0802 172.407Z" fill="#263238"/>
<path d="M57.7632 165.717C57.392 165.436 56.9877 165.202 56.5594 165.02C55.4745 164.698 54.3342 164.606 53.2118 164.751C52.0766 164.836 50.9501 165.013 49.8432 165.279C49.3902 165.421 48.928 165.532 48.4598 165.611C48.8731 165.371 49.3197 165.193 49.7851 165.083C50.8924 164.742 52.0349 164.527 53.1907 164.444C54.353 164.288 55.5358 164.415 56.6386 164.814C57.1056 164.977 57.5025 165.296 57.7632 165.717Z" fill="#263238"/>
<path d="M56.496 164.096C56.4696 164.143 55.7938 163.816 54.648 163.425C51.6601 162.399 48.4588 162.155 45.3499 162.718C44.1619 162.929 43.4438 163.151 43.4227 163.098C43.5772 163.009 43.7422 162.94 43.9138 162.892C44.3691 162.731 44.8348 162.6 45.3077 162.501C48.4501 161.813 51.7254 162.063 54.7272 163.219C55.1787 163.388 55.618 163.587 56.0419 163.816C56.2054 163.888 56.3582 163.982 56.496 164.096Z" fill="#263238"/>
<path d="M67.1564 157.242C66.6075 155.715 66.1578 154.155 65.81 152.57C65.15 149.967 64.6801 147.818 64.754 147.818C65.3029 149.345 65.7526 150.905 66.1004 152.49C66.5505 154.051 66.9032 155.638 67.1564 157.242Z" fill="#263238"/>
<path d="M67.2409 157.242C67.1458 157.274 66.7604 155.875 65.7466 154.444C65.1164 153.598 64.3799 152.837 63.5554 152.179C63.8672 152.257 64.1565 152.407 64.4002 152.617C65.0183 153.072 65.554 153.629 65.9842 154.265C66.6573 155.13 67.0908 156.157 67.2409 157.242Z" fill="#263238"/>
<path d="M67.1775 218.839C67.1406 218.839 67.0772 218.311 66.8396 217.408C66.4801 216.133 65.9992 214.895 65.4034 213.712C63.9145 210.676 61.2164 206.848 57.7791 202.973C56.079 201.029 54.4316 199.197 53.0271 197.444C51.7707 195.892 50.6356 194.245 49.6321 192.518C48.9564 191.357 48.3822 190.14 47.9161 188.88C47.7577 188.437 47.6415 188.083 47.5782 187.824C47.5343 187.705 47.5042 187.581 47.4884 187.455C47.4884 187.455 47.6732 187.946 48.0164 188.822C48.5233 190.056 49.1234 191.249 49.8116 192.391C50.8364 194.085 51.9835 195.701 53.2436 197.228C54.6481 198.965 56.3007 200.787 57.9956 202.735C61.4382 206.6 64.131 210.491 65.5777 213.58C66.1664 214.789 66.6214 216.058 66.9346 217.366C67.035 217.83 67.0983 218.195 67.1247 218.422C67.1594 218.558 67.1771 218.698 67.1775 218.839Z" fill="#263238"/>
<path d="M84.1474 199.673C83.86 199.856 83.5621 200.021 83.2551 200.169C82.452 200.622 81.6827 201.132 80.953 201.695C79.8714 202.534 78.858 203.457 77.9223 204.456C76.8663 205.581 75.7628 206.885 74.6434 208.284C72.41 211.088 70.3191 213.564 69.0677 215.55C68.4288 216.532 67.9695 217.361 67.6632 217.941C67.5217 218.251 67.3594 218.551 67.1775 218.839C67.1891 218.751 67.2159 218.665 67.2567 218.586C67.3253 218.427 67.4151 218.184 67.5576 217.889C67.9491 217.044 68.3917 216.224 68.8829 215.433C70.0973 213.406 72.1724 210.887 74.4005 208.089C75.5199 206.69 76.6287 205.38 77.7164 204.261C78.6706 203.26 79.7093 202.343 80.821 201.521C81.5709 200.967 82.3676 200.479 83.2023 200.063C83.498 199.916 83.7303 199.826 83.894 199.757C84.0576 199.688 84.1421 199.662 84.1474 199.673Z" fill="#263238"/>
<path d="M84.48 205.887C83.8612 206.025 83.2329 206.117 82.6003 206.162C81.0912 206.317 79.5994 206.61 78.144 207.038C76.7042 207.513 75.3548 208.227 74.1523 209.15C73.2336 209.863 72.8007 210.449 72.7584 210.417C72.8219 210.257 72.9151 210.11 73.033 209.984C73.3273 209.619 73.6562 209.283 74.0151 208.981C75.2056 207.99 76.5749 207.235 78.049 206.758C79.5258 206.322 81.0473 206.054 82.5845 205.961C83.2131 205.882 83.8472 205.858 84.48 205.887Z" fill="#263238"/>
<path d="M73.3023 209.715C73.202 209.662 74.0521 208.369 74.7068 206.626C75.3615 204.884 75.4671 203.332 75.578 203.348C75.6253 203.683 75.6146 204.024 75.5463 204.356C75.4607 205.165 75.2836 205.963 75.0183 206.732C74.7335 207.495 74.3689 208.226 73.9306 208.913C73.7659 209.212 73.5537 209.483 73.3023 209.715Z" fill="#263238"/>
<path d="M89.6439 182.977C89.5504 183.042 89.4493 183.095 89.3429 183.136L88.4611 183.537C88.0704 183.701 87.6005 183.912 87.0725 184.192C86.5445 184.472 85.9215 184.746 85.2773 185.137L84.253 185.718C83.8939 185.924 83.5455 186.166 83.197 186.399C82.4419 186.858 81.6816 187.423 80.8738 187.983C77.4124 190.565 74.3919 193.691 71.9295 197.239C71.4015 198.068 70.8418 198.823 70.4141 199.615C70.1923 199.995 69.96 200.359 69.7647 200.718L69.2367 201.774C68.8723 202.434 68.6083 203.062 68.3549 203.601C68.1015 204.14 67.9008 204.615 67.7477 205.011L67.3728 205.908C67.3381 206.015 67.2884 206.117 67.225 206.209C67.2422 206.099 67.2723 205.991 67.3147 205.887L67.6315 204.963C67.7688 204.567 67.9483 204.081 68.1965 203.532C68.4447 202.983 68.6823 202.344 69.0413 201.674L69.5693 200.618C69.7541 200.253 69.9811 199.889 70.1976 199.498C70.6253 198.717 71.1586 197.914 71.7077 197.091C74.1606 193.496 77.2065 190.345 80.7154 187.772C81.5338 187.196 82.2994 186.636 83.0703 186.188C83.4504 185.955 83.8042 185.718 84.1685 185.517L85.2245 184.947C85.8792 184.572 86.5128 184.303 87.0514 184.039C87.5899 183.775 88.0704 183.579 88.4664 183.431L89.3746 183.083C89.4594 183.036 89.5499 183.001 89.6439 182.977Z" fill="#263238"/>
<path d="M76.2115 191.974C76.3359 191.539 76.5947 191.155 76.9508 190.876C77.7784 190.157 78.8324 189.751 79.9287 189.73C81.0022 189.729 82.0658 189.937 83.0597 190.343C83.4796 190.477 83.878 190.67 84.2424 190.918C83.8138 190.833 83.3933 190.712 82.9858 190.554C82.0047 190.21 80.9734 190.032 79.9339 190.026C78.9017 190.053 77.9048 190.408 77.088 191.04C76.7741 191.33 76.4812 191.642 76.2115 191.974Z" fill="#263238"/>
<path d="M74.2052 194.044C74.1207 193.996 74.8757 192.888 75.05 191.298C75.2242 189.709 74.7649 188.452 74.8599 188.426C75.0372 188.663 75.1566 188.938 75.2084 189.229C75.5707 190.613 75.3992 192.083 74.7279 193.347C74.4481 193.822 74.2369 194.065 74.2052 194.044Z" fill="#263238"/>
<path d="M52.3301 221.928C52.7947 230.143 55.271 238.496 59.0779 246.939H75.6307C79.2634 238.581 81.5654 230.238 81.9667 221.928H52.3301Z" fill="#0D4EE1"/>
<path d="M79.2951 235.207C79.2951 235.297 73.8408 235.365 67.1194 235.365C60.3979 235.365 54.949 235.297 54.949 235.207C54.949 235.117 60.3979 235.054 67.1194 235.054C73.8408 235.054 79.2951 235.128 79.2951 235.207Z" fill="#FAFAFA"/>
<path d="M78.9255 238.185C78.9255 238.269 73.8145 238.338 67.5102 238.338C61.2059 238.338 56.1001 238.269 56.1001 238.185C56.1001 238.1 61.2059 238.026 67.5102 238.026C73.8145 238.026 78.9255 238.1 78.9255 238.185Z" fill="#FAFAFA"/>
<path d="M324.224 55.1907C325.021 57.2552 325.501 57.7568 326.557 59.9427C327.487 61.8382 326.652 64.4148 325.105 65.8404C324.097 66.7697 322.714 67.1446 321.383 67.4244C318.416 68.1108 315.322 68.6177 312.328 68.058C309.479 67.5197 306.883 66.0663 304.936 63.9185C302.988 61.7475 301.791 59.0079 301.52 56.1041" fill="#455A64"/>
<g opacity="0.3">
<path d="M324.224 55.1907C325.021 57.2552 325.501 57.7568 326.557 59.9427C327.487 61.8382 326.652 64.4148 325.105 65.8404C324.097 66.7697 322.714 67.1446 321.383 67.4244C318.416 68.1108 315.322 68.6177 312.328 68.058C309.479 67.5197 306.883 66.0663 304.936 63.9185C302.988 61.7475 301.791 59.0079 301.52 56.1041" fill="black"/>
</g>
<path d="M322.133 62.1445C323.01 59.7712 323.68 57.3262 324.134 54.837C324.582 52.3361 324.4 49.7632 323.606 47.3499C323.479 46.9856 322.37 44.5621 321.99 44.5991C321.716 44.5991 322.392 46.8747 322.249 47.1123C320.908 49.3563 320.517 52.065 320.665 54.6733C320.862 57.2087 321.341 59.7145 322.091 62.1445" fill="#263238"/>
<path d="M309.635 86.5434C313.558 86.5064 322.149 80.0067 322.196 76.089L322.502 52.5032C322.782 46.1672 319.334 40.7236 312.998 40.6127L312.412 40.6391C309.567 40.7551 306.869 41.9389 304.857 43.9546C302.846 45.9704 301.667 48.6701 301.557 51.5159C301.34 57.0071 301.171 63.0791 301.33 66.0148C301.657 72.0868 307.629 72.7626 307.629 72.7626C307.629 72.7626 307.629 75.1703 307.629 76.9602C307.629 80.9677 306.573 86.5751 310.559 86.5434H309.635Z" fill="#FFBE9D"/>
<path d="M307.623 72.7626C310.476 72.6638 313.239 71.7475 315.586 70.1226C315.586 70.1226 313.711 74.769 307.623 74.4733V72.7626Z" fill="#EB996E"/>
<path d="M303.236 56.4738C303.244 56.7007 303.34 56.9156 303.503 57.0732C303.667 57.2308 303.885 57.3187 304.112 57.3186C304.223 57.3221 304.334 57.3035 304.437 57.2638C304.541 57.2241 304.635 57.1642 304.715 57.0875C304.796 57.0108 304.86 56.9189 304.904 56.8171C304.948 56.7154 304.971 56.6058 304.973 56.4949C304.965 56.2694 304.869 56.0559 304.707 55.8993C304.544 55.7427 304.327 55.6552 304.102 55.6554C303.991 55.6512 303.88 55.6691 303.776 55.7081C303.672 55.7472 303.577 55.8065 303.497 55.8827C303.416 55.9589 303.352 56.0505 303.307 56.152C303.262 56.2534 303.238 56.3629 303.236 56.4738Z" fill="#263238"/>
<path d="M302.951 53.9869C303.067 54.0977 303.7 53.5803 304.635 53.5433C305.569 53.5064 306.277 53.9499 306.372 53.8285C306.467 53.707 306.303 53.575 305.992 53.3744C305.577 53.1094 305.09 52.9802 304.598 53.0048C304.112 53.0222 303.644 53.1942 303.262 53.4958C302.988 53.7281 302.898 53.9393 302.951 53.9869Z" fill="#263238"/>
<path d="M311.235 56.7589C311.24 56.9858 311.335 57.2014 311.498 57.3594C311.661 57.5174 311.879 57.6051 312.106 57.6037C312.217 57.6072 312.327 57.5888 312.431 57.5495C312.534 57.5102 312.629 57.4508 312.709 57.3747C312.79 57.2987 312.854 57.2074 312.9 57.1062C312.945 57.0051 312.969 56.896 312.972 56.7853C312.964 56.5584 312.868 56.3435 312.704 56.1859C312.541 56.0283 312.323 55.9403 312.096 55.9405C311.985 55.937 311.875 55.9554 311.772 55.9948C311.669 56.0341 311.574 56.0936 311.494 56.1698C311.414 56.2459 311.35 56.3372 311.305 56.4383C311.261 56.5395 311.237 56.6484 311.235 56.7589Z" fill="#263238"/>
<path d="M312.117 53.7229C312.228 53.8021 312.866 53.4272 313.801 53.4008C314.736 53.3744 315.438 53.6965 315.538 53.6067C315.638 53.517 315.464 53.4219 315.158 53.2741C314.721 53.0764 314.243 52.9841 313.764 53.0048C313.296 53.0106 312.836 53.134 312.428 53.3638C312.154 53.5328 312.048 53.6859 312.117 53.7229Z" fill="#263238"/>
<path d="M309.065 61.305C308.566 61.1673 308.051 61.0963 307.534 61.0938C307.296 61.0938 307.069 61.041 307.006 60.8773C306.975 60.6318 307.021 60.3829 307.138 60.1645C307.338 59.5784 307.544 58.9606 307.766 58.3165C308.637 55.6765 309.26 53.5645 309.155 53.5011C309.049 53.4378 308.252 55.5709 307.381 58.1951C307.169 58.8445 306.974 59.4623 306.779 60.0483C306.645 60.345 306.616 60.6778 306.694 60.9934C306.733 61.0754 306.79 61.1476 306.86 61.2051C306.931 61.2626 307.013 61.3039 307.101 61.3261C307.236 61.3551 307.374 61.3675 307.513 61.3631C308.03 61.4078 308.552 61.3883 309.065 61.305Z" fill="#263238"/>
<path d="M311.99 49.0343C312.096 49.2824 313.046 49.124 314.102 49.2085C315.158 49.293 316.103 49.557 316.24 49.3247C316.298 49.2138 316.135 48.9815 315.77 48.7491C315.288 48.4649 314.745 48.2984 314.186 48.2634C313.622 48.2165 313.055 48.3071 312.534 48.5274C312.143 48.7069 311.948 48.9128 311.99 49.0343Z" fill="#263238"/>
<path d="M303.209 49.314C303.384 49.52 304.017 49.2718 304.793 49.2296C305.569 49.1873 306.224 49.314 306.377 49.087C306.441 48.9761 306.33 48.7649 306.034 48.559C305.639 48.3368 305.186 48.2358 304.734 48.2686C304.281 48.3015 303.848 48.4668 303.489 48.7438C303.215 48.992 303.135 49.2137 303.209 49.314Z" fill="#263238"/>
<path d="M322.191 57.0228C322.291 56.9753 326.315 55.6131 326.357 59.7737C326.399 63.9344 322.207 63.116 322.201 62.9998C322.196 62.8836 322.191 57.0228 322.191 57.0228Z" fill="#FFBE9D"/>
<path d="M323.458 61.4158C323.458 61.4158 323.527 61.4633 323.653 61.5214C323.823 61.5885 324.012 61.5885 324.181 61.5214C324.62 61.3577 324.984 60.6555 325 59.9057C325.006 59.5426 324.934 59.1825 324.789 58.8497C324.747 58.7272 324.678 58.6158 324.586 58.5242C324.495 58.4327 324.383 58.3634 324.261 58.3217C324.178 58.3003 324.09 58.3087 324.013 58.3454C323.936 58.382 323.874 58.4447 323.838 58.5224C323.78 58.6438 323.806 58.723 323.785 58.7336C323.764 58.7441 323.696 58.6649 323.727 58.4907C323.749 58.3862 323.807 58.2927 323.891 58.2267C323.947 58.1836 324.01 58.1521 324.078 58.1339C324.146 58.1158 324.217 58.1114 324.287 58.1211C324.458 58.1521 324.619 58.2267 324.753 58.3377C324.887 58.4486 324.99 58.5923 325.053 58.7547C325.233 59.1149 325.324 59.5135 325.317 59.9163C325.317 60.7505 324.873 61.5425 324.261 61.7221C324.149 61.7552 324.031 61.7629 323.916 61.7446C323.801 61.7264 323.691 61.6826 323.595 61.6165C323.463 61.5109 323.442 61.4158 323.458 61.4158Z" fill="#EB996E"/>
<path d="M304.239 44.6202C303.563 44.2506 305.585 42.07 307.238 41.3149C309.741 40.1797 313.574 39.4775 315.866 40.1322C318.643 40.9189 320.95 42.297 322.344 44.8261C323.692 47.3966 324.33 50.28 324.192 53.1791C324.228 54.0646 324.026 54.9436 323.606 55.724C323.025 56.6427 321.911 57.2236 321.964 58.496C321.993 58.9591 321.837 59.4148 321.531 59.7632C320.771 60.5764 319.836 59.816 319.419 59.0504C318.506 57.4242 318.4 55.4759 318.321 53.6067C318.189 52.2832 318.276 50.9471 318.579 49.652C318.785 48.9551 319.107 48.3004 319.276 47.5981C319.38 47.2515 319.408 46.8864 319.357 46.5281C319.306 46.1698 319.177 45.8269 318.981 45.5231C318.878 45.3994 318.765 45.2846 318.643 45.1799C318.062 44.6732 317.357 44.3303 316.6 44.1865C315.842 44.0426 315.06 44.103 314.334 44.3615C311.99 45.1904 307.998 46.4312 306.942 45.6392C305.438 44.4935 305.073 43.749 305.073 43.749L304.239 44.6202Z" fill="#263238"/>
<path d="M301.53 50.9456C301.897 49.8399 302.362 48.7692 302.919 47.7459C303.611 46.6318 305.86 45.692 306.346 45.5178C306.831 45.3435 312.433 45.3858 316.409 46.2042C320.385 47.0226 324.055 55.2963 324.055 55.2963L324.504 52.9995C324.504 52.9995 324.102 48.5696 324.102 47.5717C324.102 46.5738 322.413 43.2685 321.99 42.7563C321.568 42.2442 317.275 39.8418 316.811 39.5883C316.346 39.3349 312.587 38.3475 310.791 38.7013C308.996 39.055 304.408 41.204 303.399 42.0224C302.623 42.546 301.988 43.2534 301.551 44.0816C300.96 45.0848 301.53 50.9456 301.53 50.9456ZM305.913 43.939L305.971 43.147C306.002 42.619 308.215 39.7942 311.42 40.28C314.625 40.7658 315.586 44.599 315.586 44.599L305.913 43.939Z" fill="#455A64"/>
<path d="M306.002 45.523C306.002 45.523 305.902 45.4596 305.807 45.3223C305.745 45.2343 305.705 45.1333 305.688 45.0272C305.672 44.921 305.68 44.8124 305.712 44.7099C305.776 44.4952 305.886 44.2971 306.034 44.1291C306.14 43.9865 306.208 43.8968 306.198 43.8809C306.187 43.8651 306.087 43.9337 305.955 44.0604C305.772 44.2251 305.639 44.4371 305.569 44.6729C305.531 44.7961 305.526 44.927 305.554 45.0529C305.582 45.1787 305.642 45.2953 305.728 45.391C305.865 45.5336 306.002 45.5388 306.002 45.523Z" fill="#263238"/>
<path d="M307.254 44.5199C307.254 44.5199 307.301 44.5938 307.285 44.7047C307.284 44.7343 307.276 44.7633 307.262 44.7897C307.249 44.8161 307.229 44.8393 307.206 44.8578C307.178 44.8769 307.145 44.8871 307.111 44.8871C307.077 44.8871 307.044 44.8769 307.016 44.8578C306.987 44.8407 306.964 44.8157 306.949 44.7858C306.934 44.7558 306.928 44.7221 306.932 44.6888C306.947 44.6309 306.985 44.5816 307.037 44.5516C307.132 44.4935 307.212 44.5516 307.222 44.5093C307.233 44.4671 307.153 44.409 306.995 44.4565C306.949 44.472 306.907 44.4983 306.873 44.5332C306.839 44.5681 306.814 44.6106 306.8 44.6572C306.785 44.7185 306.791 44.7828 306.816 44.8407C306.84 44.8986 306.883 44.9472 306.937 44.9792C306.987 45.0178 307.048 45.0387 307.111 45.0387C307.174 45.0387 307.236 45.0178 307.285 44.9792C307.322 44.9484 307.35 44.9093 307.369 44.8653C307.387 44.8212 307.395 44.7734 307.391 44.7258C307.375 44.5199 307.259 44.4882 307.254 44.5199Z" fill="#263238"/>
<path d="M309.086 44.6202C309.086 44.6202 309.139 44.6941 309.123 44.8103C309.121 44.8397 309.112 44.8683 309.098 44.8939C309.083 44.9195 309.063 44.9415 309.038 44.9581C309.011 44.9775 308.979 44.9879 308.946 44.9879C308.913 44.9879 308.881 44.9775 308.854 44.9581C308.823 44.9423 308.799 44.9177 308.783 44.8876C308.767 44.8574 308.76 44.8231 308.764 44.7892C308.78 44.7313 308.817 44.6819 308.869 44.6519C308.97 44.5938 309.049 44.6519 309.06 44.6097C309.07 44.5674 308.986 44.5093 308.827 44.5569C308.782 44.5739 308.741 44.6015 308.708 44.6372C308.675 44.673 308.651 44.716 308.637 44.7628C308.624 44.8235 308.63 44.8868 308.653 44.9442C308.677 45.0017 308.718 45.0505 308.77 45.0843C308.822 45.1181 308.883 45.1353 308.945 45.1335C309.007 45.1317 309.068 45.111 309.118 45.0743C309.156 45.045 309.186 45.0062 309.204 44.9617C309.223 44.9172 309.229 44.8686 309.223 44.8209C309.207 44.6413 309.091 44.5991 309.086 44.6202Z" fill="#263238"/>
<path d="M310.923 44.7311C310.923 44.7311 310.971 44.805 310.955 44.9211C310.953 44.95 310.945 44.978 310.931 45.0035C310.918 45.029 310.899 45.0513 310.876 45.069C310.848 45.088 310.815 45.0982 310.781 45.0982C310.747 45.0982 310.714 45.088 310.686 45.069C310.657 45.0519 310.634 45.0269 310.619 44.9969C310.604 44.967 310.598 44.9333 310.601 44.9C310.617 44.8421 310.655 44.7927 310.707 44.7627C310.802 44.7047 310.881 44.7627 310.892 44.7205C310.902 44.6783 310.823 44.6202 310.665 44.6677C310.618 44.6837 310.576 44.7108 310.542 44.7467C310.508 44.7825 310.483 44.8261 310.469 44.8736C310.455 44.9342 310.461 44.9976 310.486 45.0546C310.51 45.1117 310.553 45.1592 310.607 45.1904C310.656 45.2289 310.718 45.2499 310.781 45.2499C310.844 45.2499 310.905 45.2289 310.955 45.1904C310.991 45.1596 311.02 45.1205 311.038 45.0764C311.057 45.0324 311.064 44.9846 311.061 44.937C311.045 44.7522 310.929 44.7099 310.923 44.7311Z" fill="#263238"/>
<path d="M312.761 44.8419C312.761 44.8419 312.808 44.9158 312.793 45.032C312.791 45.0614 312.782 45.09 312.767 45.1156C312.753 45.1412 312.732 45.1631 312.708 45.1798C312.681 45.1992 312.649 45.2096 312.616 45.2096C312.583 45.2096 312.55 45.1992 312.523 45.1798C312.493 45.164 312.468 45.1394 312.452 45.1093C312.436 45.0791 312.43 45.0448 312.434 45.0109C312.449 44.9529 312.487 44.9036 312.539 44.8736C312.639 44.8155 312.719 44.8736 312.729 44.8313C312.74 44.7891 312.655 44.731 312.497 44.7785C312.451 44.7956 312.41 44.8232 312.377 44.8589C312.344 44.8947 312.32 44.9377 312.307 44.9845C312.291 45.0444 312.296 45.1078 312.32 45.1649C312.344 45.2221 312.385 45.2699 312.439 45.3013C312.489 45.339 312.55 45.3593 312.613 45.3593C312.676 45.3593 312.737 45.339 312.787 45.3013C312.825 45.2701 312.855 45.2304 312.874 45.1854C312.893 45.1404 312.902 45.0914 312.898 45.0425C312.877 44.863 312.761 44.8208 312.761 44.8419Z" fill="#263238"/>
<path d="M314.593 44.9528C314.593 44.9528 314.64 45.0267 314.625 45.1429C314.623 45.1717 314.614 45.1998 314.601 45.2252C314.587 45.2507 314.568 45.273 314.545 45.2907C314.517 45.3098 314.484 45.32 314.45 45.32C314.416 45.32 314.383 45.3098 314.355 45.2907C314.326 45.2737 314.303 45.2486 314.288 45.2187C314.273 45.1887 314.267 45.1551 314.271 45.1218C314.287 45.0638 314.324 45.0145 314.376 44.9845C314.471 44.9264 314.551 44.9845 314.561 44.9422C314.572 44.9 314.493 44.8419 314.334 44.8947C314.287 44.9085 314.244 44.9343 314.21 44.9694C314.176 45.0045 314.151 45.0479 314.139 45.0954C314.129 45.156 314.137 45.2183 314.161 45.2745C314.186 45.3308 314.227 45.3787 314.278 45.4122C314.33 45.4458 314.39 45.4637 314.451 45.4637C314.513 45.4637 314.573 45.4458 314.625 45.4122C314.661 45.38 314.689 45.3399 314.707 45.2951C314.726 45.2502 314.734 45.2018 314.73 45.1534C314.714 44.9739 314.598 44.9317 314.593 44.9528Z" fill="#263238"/>
<path d="M311.293 40.4753C310.955 40.4753 310.797 39.9843 310.453 39.9843C310.284 39.9887 310.118 40.0366 309.972 40.1235C309.825 40.2104 309.704 40.3334 309.619 40.4806C309.556 40.3236 309.444 40.1909 309.3 40.1017C309.156 40.0125 308.988 39.9713 308.819 39.9843C308.65 39.9972 308.49 40.0635 308.361 40.1737C308.233 40.2838 308.143 40.432 308.104 40.5967C307.852 40.482 307.568 40.4596 307.301 40.5334C307.053 40.639 306.926 41.0614 307.148 41.1881C306.988 41.0785 306.801 41.0151 306.607 41.0048C306.413 40.9946 306.221 41.0379 306.05 41.13C305.971 41.181 305.904 41.2493 305.854 41.3296C305.805 41.41 305.774 41.5005 305.765 41.5943C305.755 41.6881 305.767 41.7829 305.799 41.8716C305.831 41.9604 305.882 42.0407 305.95 42.1068C305.763 42.0121 305.548 41.9862 305.344 42.0336C305.14 42.0811 304.959 42.199 304.833 42.3665C304.707 42.5341 304.644 42.7406 304.655 42.9499C304.666 43.1593 304.751 43.358 304.894 43.5113C304.922 43.5498 304.957 43.5823 304.998 43.6068C305.039 43.6313 305.084 43.6473 305.131 43.6539C305.3 43.6539 305.427 43.4796 305.459 43.3107C305.464 43.1322 305.491 42.955 305.538 42.7827C305.612 42.6243 305.828 42.5134 305.955 42.6295C305.786 42.9199 305.622 43.3054 305.833 43.5588C305.981 43.7331 306.134 43.9443 306.361 43.9495C307.671 43.9759 314.281 44.5462 315.564 44.5779C315.586 44.599 314.44 40.6126 311.293 40.4753Z" fill="#263238"/>
<path d="M323.696 54.5783C323.738 54.9267 324.108 55.1432 324.451 55.2171C324.801 55.2481 325.146 55.3263 325.475 55.4495C325.787 55.6131 326.003 56.0567 325.765 56.3207C325.652 56.4129 325.515 56.4708 325.37 56.4876C325.225 56.5045 325.078 56.4795 324.947 56.4157C324.316 56.2136 323.745 55.8586 323.284 55.3824C322.824 54.9061 322.488 54.3233 322.307 53.6859C322.061 53.8098 321.778 53.8395 321.512 53.7695C321.245 53.6995 321.014 53.5346 320.86 53.3058C320.567 52.8274 320.4 52.2824 320.375 51.7218C319.662 51.7277 318.975 51.4551 318.46 50.962C317.945 50.4689 317.643 49.7942 317.618 49.0818C317.618 48.2898 317.993 47.4714 317.708 46.7322C318.757 47.5046 319.705 48.4038 320.533 49.4091C321.489 50.7027 323.696 54.5783 323.696 54.5783Z" fill="#263238"/>
<path d="M325.317 56.3154C325.36 56.3153 325.403 56.3242 325.443 56.3414C325.483 56.3586 325.519 56.3838 325.549 56.4155C325.578 56.4472 325.601 56.4847 325.616 56.5256C325.63 56.5665 325.636 56.61 325.633 56.6533C325.621 56.7397 325.584 56.8208 325.529 56.8879C325.473 56.955 325.399 57.0053 325.317 57.0335C325.148 57.0941 324.965 57.1087 324.789 57.0757C324.263 57.0143 323.761 56.8199 323.331 56.5108C323.229 56.6781 323.076 56.809 322.895 56.8848C322.714 56.9607 322.514 56.9776 322.323 56.9332C322.133 56.8825 321.957 56.7911 321.807 56.6652C321.656 56.5393 321.535 56.3821 321.452 56.2045C321.288 55.8473 321.212 55.4564 321.23 55.0641C321.048 55.1817 320.835 55.2408 320.619 55.2333C320.403 55.2257 320.194 55.1519 320.021 55.0218C319.679 54.7505 319.458 54.3563 319.403 53.9236C319.349 53.4959 319.367 53.0623 319.456 52.6405C319.369 52.6982 319.271 52.7365 319.168 52.7528C319.065 52.7691 318.96 52.763 318.86 52.7349C318.76 52.7068 318.667 52.6575 318.587 52.5901C318.508 52.5228 318.444 52.4392 318.4 52.3449C318.328 52.1392 318.306 51.9191 318.336 51.7032C318.366 51.4873 318.448 51.2818 318.574 51.1041C318.436 51.0522 318.31 50.9719 318.205 50.8684C318.099 50.7649 318.017 50.6405 317.963 50.5032C317.909 50.3659 317.884 50.2187 317.89 50.0712C317.896 49.9237 317.933 49.7791 317.999 49.6468C317.93 49.6866 317.854 49.7123 317.775 49.7222C317.696 49.7321 317.616 49.726 317.54 49.7043C317.464 49.6826 317.393 49.6458 317.331 49.596C317.269 49.5462 317.218 49.4844 317.18 49.4144C317.042 49.1237 317.021 48.7909 317.122 48.4852C317.22 48.1809 317.298 47.8704 317.354 47.5559C317.376 47.3391 317.352 47.1204 317.285 46.9133C317.217 46.7061 317.108 46.5151 316.964 46.3521C317.74 46.5213 318.446 46.9249 318.986 47.5084C319.523 48.0902 319.999 48.7253 320.406 49.4039C321.575 51.2097 322.745 53.0154 323.917 54.8212" fill="#263238"/>
<path d="M317.148 46.41C317.218 46.4755 317.278 46.5501 317.328 46.6318C317.442 46.8859 317.461 47.1728 317.381 47.4396C317.328 47.6326 317.261 47.8214 317.18 48.0046C317.082 48.2249 317.014 48.4576 316.98 48.6963C316.954 48.8381 316.961 48.9838 316.999 49.1227C317.038 49.2615 317.107 49.3901 317.201 49.4988C317.32 49.6079 317.469 49.678 317.629 49.6995C317.716 49.7116 317.804 49.7021 317.886 49.6717C317.968 49.6413 318.041 49.5909 318.099 49.5252L317.988 49.4672C317.916 49.7059 317.897 49.9576 317.934 50.2043C317.971 50.451 318.062 50.6864 318.201 50.8935C318.34 51.1006 318.523 51.2743 318.738 51.402C318.952 51.5297 319.192 51.6083 319.44 51.632L319.371 51.5369C319.191 52.0552 319.219 52.6233 319.451 53.1209C319.654 53.5807 320.013 53.9544 320.464 54.1769L320.427 54.1188C320.463 54.4575 320.532 54.7917 320.633 55.1168C320.733 55.4348 320.915 55.7208 321.161 55.9457C321.408 56.1472 321.719 56.2523 322.038 56.2414C322.187 56.2416 322.333 56.2039 322.463 56.1319C322.594 56.0598 322.703 55.9558 322.782 55.8296H322.682C322.906 56.2737 323.294 56.6129 323.764 56.7747C324.118 56.8977 324.502 56.9087 324.863 56.8064C325.089 56.7432 325.301 56.6355 325.486 56.4896C325.534 56.4525 325.58 56.4119 325.623 56.3681L325.665 56.3206C325.665 56.3206 325.596 56.3734 325.464 56.4632C325.275 56.5917 325.064 56.6848 324.841 56.7377C324.493 56.8317 324.123 56.8132 323.785 56.6849C323.344 56.5253 322.982 56.1994 322.777 55.7768L322.729 55.6817L322.671 55.7768C322.601 55.8845 322.505 55.9726 322.391 56.0327C322.278 56.0927 322.15 56.1228 322.022 56.12C321.738 56.1252 321.461 56.0298 321.24 55.8507C321.014 55.6391 320.849 55.3712 320.76 55.0745C320.663 54.7579 320.598 54.4325 320.565 54.103V54.066H320.528C320.091 53.8408 319.748 53.4674 319.562 53.0127C319.375 52.558 319.356 52.0517 319.509 51.5844L319.546 51.4947H319.44C319.202 51.4776 318.972 51.4034 318.769 51.2784C318.566 51.1534 318.396 50.9813 318.273 50.7766C318.15 50.5952 318.071 50.3883 318.039 50.1716C318.008 49.9548 318.027 49.7338 318.094 49.5252L318.21 49.1926L317.983 49.4619C317.881 49.5482 317.751 49.593 317.617 49.5871C317.484 49.5812 317.358 49.5252 317.265 49.4302C317.181 49.3344 317.12 49.2213 317.085 49.0989C317.05 48.9766 317.043 48.8481 317.064 48.7227C317.165 48.2987 317.29 47.8809 317.439 47.4713C317.515 47.1896 317.481 46.8893 317.344 46.6318C317.301 46.5408 317.233 46.4639 317.148 46.41Z" fill="#455A64"/>
<path d="M306.039 42.6402C306.012 42.5634 306.012 42.4794 306.039 42.4026C306.058 42.3596 306.088 42.3225 306.126 42.2955C306.164 42.2684 306.209 42.2525 306.256 42.2495C306.317 42.2459 306.378 42.2634 306.427 42.2989C306.477 42.3344 306.514 42.3859 306.53 42.4448H306.615C306.596 42.2649 306.631 42.0833 306.715 41.9234C306.8 41.7635 306.93 41.6325 307.09 41.5472C307.296 41.4517 307.532 41.4401 307.747 41.515C307.962 41.5899 308.139 41.7453 308.241 41.9485L308.336 41.8535C308.252 41.8165 308.231 41.6687 308.283 41.5684C308.316 41.5144 308.362 41.4693 308.416 41.4371C308.47 41.4049 308.532 41.3865 308.595 41.3835C308.897 41.3652 309.198 41.4233 309.471 41.5525C309.925 41.7544 310.289 42.1149 310.496 42.5663L310.596 42.4765C310.548 42.4471 310.511 42.4045 310.487 42.3538C310.464 42.3031 310.456 42.2466 310.464 42.1914C310.467 42.1349 310.483 42.0798 310.51 42.0304C310.538 41.981 310.576 41.9385 310.622 41.9063C310.82 41.7801 311.056 41.7295 311.288 41.7637C311.686 41.7976 312.067 41.9441 312.386 42.1861C312.683 42.4005 312.928 42.6782 313.104 42.9992C313.104 42.9992 313.104 42.9728 313.104 42.9253C313.078 42.8566 313.048 42.7896 313.014 42.7247C312.883 42.4828 312.703 42.2707 312.486 42.1016C312.16 41.834 311.761 41.6703 311.34 41.6317C311.08 41.5902 310.814 41.6447 310.591 41.7848C310.53 41.829 310.479 41.8859 310.441 41.9514C310.404 42.017 310.381 42.0898 310.374 42.165C310.363 42.2479 310.376 42.3323 310.413 42.4075C310.45 42.4827 310.508 42.5453 310.58 42.5874L310.754 42.6772L310.675 42.4924C310.453 42.0076 310.063 41.6194 309.577 41.3994C309.279 41.2637 308.953 41.2039 308.627 41.2252C308.54 41.231 308.456 41.2582 308.382 41.3042C308.309 41.3503 308.247 41.4138 308.204 41.4892C308.166 41.5678 308.153 41.6563 308.167 41.7426C308.174 41.7889 308.191 41.8331 308.218 41.8716C308.244 41.9101 308.279 41.9418 308.32 41.9644L308.505 42.0594L308.415 41.8693C308.315 41.6577 308.142 41.4892 307.928 41.395C307.714 41.3008 307.473 41.2871 307.249 41.3565C307.025 41.4259 306.834 41.5737 306.711 41.7727C306.588 41.9716 306.541 42.2085 306.578 42.4395H306.662C306.637 42.3646 306.587 42.3001 306.522 42.2561C306.456 42.2122 306.377 42.1913 306.298 42.1967C306.242 42.2041 306.19 42.2267 306.146 42.2621C306.102 42.2975 306.069 42.3443 306.05 42.3973C305.955 42.561 306.039 42.6508 306.039 42.6402Z" fill="#455A64"/>
<path d="M301.514 50.7133C301.528 51.0965 301.403 51.4717 301.161 51.7693C300.856 52.0808 300.584 52.4222 300.348 52.7883C300.237 52.9753 300.204 53.198 300.256 53.409C300.307 53.62 300.438 53.8026 300.622 53.9182C300.465 54.147 300.363 54.4092 300.324 54.6841C300.286 54.959 300.312 55.2391 300.4 55.5022C300.59 56.0302 300.817 56.9278 301.361 57.0862C301.446 55.2541 301.641 52.2181 301.652 50.3806" fill="#263238"/>
<path d="M311.916 61.8171C311.774 61.8171 311.81 62.7781 311.013 63.5014C310.216 64.2248 309.181 64.1614 309.181 64.2987C309.181 64.436 309.419 64.4729 309.857 64.4677C310.422 64.4485 310.963 64.2339 311.388 63.8605C311.792 63.4956 312.04 62.9886 312.08 62.4454C312.101 62.0441 311.979 61.8066 311.916 61.8171Z" fill="#263238"/>
<path d="M273.615 128.245L302.782 128.899L303.304 119.168L268.171 122.035L273.615 128.245Z" fill="#FFBE9D"/>
<path d="M251.539 97.5099C251.539 97.5468 251.222 98.228 251.222 98.228C253.767 103.086 263.007 120.663 263.007 120.663L274.365 126.17L298.331 125.114V123.651L287.538 118.097L270.114 118.524L260.721 99.9598C260.603 99.7265 260.433 99.5234 260.225 99.3659C260.016 99.2085 259.774 99.101 259.517 99.0516L251.539 97.5099Z" fill="#455A64"/>
<path d="M274.365 126.17C274.088 125.827 273.846 125.457 273.641 125.066C273.229 124.369 272.675 123.393 272.057 122.31C271.439 121.228 270.938 120.24 270.568 119.522C270.347 119.144 270.17 118.742 270.04 118.324C270.319 118.663 270.559 119.031 270.758 119.422C271.175 120.124 271.73 121.096 272.342 122.183C272.955 123.271 273.467 124.253 273.837 124.977C274.055 125.354 274.232 125.754 274.365 126.17Z" fill="#263238"/>
<path d="M276.894 123.773L288.51 123.393L279.745 118.82L270.368 119.031L276.894 123.773Z" fill="#263238"/>
<path d="M298.32 123.588C298.238 123.611 298.152 123.622 298.067 123.619L297.348 123.651L294.708 123.736C292.475 123.81 289.386 123.947 285.981 124.1C282.575 124.253 279.481 124.353 277.242 124.369C276.128 124.369 275.22 124.369 274.602 124.369L273.879 124.343C273.796 124.351 273.713 124.351 273.631 124.343C273.711 124.319 273.795 124.308 273.879 124.311L274.602 124.274L277.242 124.19C279.476 124.121 282.559 123.984 285.97 123.831C289.381 123.678 292.47 123.577 294.703 123.556C295.823 123.556 296.725 123.556 297.343 123.556H298.061C298.149 123.552 298.236 123.562 298.32 123.588Z" fill="#263238"/>
<path d="M272.707 125.362C272.627 125.263 272.56 125.155 272.506 125.04L271.978 124.084C271.524 123.218 270.922 122.014 270.13 120.541C268.578 117.516 266.46 113.376 264.127 108.809L259.67 99.9598L259.755 100.023L253.551 98.7613L251.824 98.3917C251.619 98.3585 251.417 98.3054 251.222 98.2333C251.43 98.2491 251.636 98.2773 251.84 98.3178L253.577 98.624L259.802 99.7856H259.855L259.887 99.8384C261.186 102.389 262.733 105.425 264.396 108.677L270.336 120.452C271.07 121.94 271.672 123.155 272.1 124.031C272.295 124.438 272.448 124.765 272.569 125.013C272.623 125.126 272.669 125.243 272.707 125.362Z" fill="#263238"/>
<path d="M265.79 118.878C265.79 118.878 266.27 118.392 267.237 119.628C268.203 120.863 269.808 124.454 269.808 124.454L271.577 125.256C271.577 125.256 270.024 123.435 270.024 122.685C270.024 121.935 271.202 121.935 271.846 123.007C272.617 124.116 273.458 125.174 274.365 126.175C274.365 126.175 273.779 128.345 273.615 128.25C273.451 128.155 270.505 127.997 270.505 127.997L269.702 127.622C269.702 127.622 267.717 127.622 267.59 127.094C267.464 126.566 264.211 124.306 264.211 123.82V120.71C264.211 120.71 262.712 117.067 263.034 116.687C263.356 116.307 264.713 115.499 265.79 118.878Z" fill="#FFBE9D"/>
<path d="M266.001 118.82C266.001 118.82 265.943 118.82 265.859 118.862C265.801 118.889 265.753 118.932 265.722 118.987C265.691 119.042 265.678 119.106 265.684 119.168C265.811 119.564 265.959 120.177 266.123 120.921C266.286 121.666 266.461 122.558 266.735 123.466C266.941 124.068 267.268 124.622 267.696 125.093L268.673 126.36C268.995 126.733 269.278 127.138 269.518 127.569C269.152 127.25 268.818 126.896 268.52 126.513L267.49 125.283C267.281 125.041 267.089 124.785 266.915 124.517C266.728 124.221 266.583 123.902 266.482 123.567C266.237 122.716 266.043 121.853 265.901 120.98C265.774 120.309 265.669 119.718 265.573 119.211C265.573 119.126 265.601 119.044 265.653 118.977C265.704 118.91 265.777 118.862 265.859 118.841C265.948 118.783 266.001 118.815 266.001 118.82Z" fill="#EB996E"/>
<path d="M265.521 125.124C264.909 123.709 264.476 122.222 264.232 120.7C264.581 121.39 264.844 122.121 265.014 122.875C265.272 123.602 265.442 124.357 265.521 125.124Z" fill="#EB996E"/>
<path d="M271.017 122.257C271.017 122.257 270.938 122.284 270.801 122.299C270.626 122.301 270.458 122.369 270.331 122.49C270.199 122.637 270.252 122.907 270.394 123.192C270.537 123.477 270.695 123.825 270.853 124.163L271.323 125.114C271.482 125.394 271.651 125.642 271.788 125.848C272.063 126.265 272.184 126.566 272.147 126.582C272.11 126.597 271.941 126.349 271.619 125.964C271.43 125.736 271.254 125.498 271.091 125.251C270.933 124.955 270.758 124.628 270.563 124.279C270.368 123.931 270.267 123.619 270.125 123.297C270.052 123.143 270.007 122.977 269.993 122.806C269.985 122.724 269.995 122.64 270.022 122.562C270.05 122.484 270.094 122.412 270.151 122.352C270.236 122.282 270.335 122.231 270.442 122.202C270.549 122.174 270.66 122.169 270.769 122.189C270.949 122.21 271.022 122.236 271.017 122.257Z" fill="#EB996E"/>
<path d="M315.216 226.231L318.384 237.24C318.384 237.24 308.236 244.183 308.627 246.279L330.243 240.872L325.977 223.512L315.216 226.231Z" fill="#455A64"/>
<path d="M324.826 234.653C325.05 234.663 325.262 234.756 325.421 234.914C325.58 235.072 325.675 235.284 325.686 235.508C325.685 235.732 325.597 235.947 325.44 236.108C325.284 236.268 325.071 236.362 324.847 236.369C324.61 236.356 324.386 236.256 324.219 236.089C324.051 235.921 323.951 235.697 323.939 235.46C323.967 235.227 324.084 235.012 324.266 234.863C324.448 234.713 324.68 234.64 324.915 234.658" fill="#E0E0E0"/>
<g opacity="0.6">
<path d="M330.238 240.894L329.71 239.156L309.176 244.991C309.176 244.991 308.32 245.651 308.595 246.3L330.238 240.894Z" fill="white"/>
</g>
<path d="M317.999 237.24C318.03 237.345 318.569 237.24 319.171 237.467C319.773 237.694 320.163 238.053 320.227 237.995C320.29 237.937 320 237.356 319.266 237.113C318.532 236.87 317.951 237.15 317.999 237.24Z" fill="#263238"/>
<path d="M315.966 238.745C315.966 238.85 316.494 238.919 316.943 239.273C317.391 239.626 317.634 240.075 317.735 240.049C317.835 240.022 317.735 239.399 317.164 238.993C316.594 238.586 315.945 238.644 315.966 238.745Z" fill="#263238"/>
<path d="M315.359 241.781C315.459 241.781 315.475 241.216 315.058 240.725C314.641 240.234 314.091 240.107 314.07 240.197C314.049 240.286 314.429 240.529 314.767 240.952C315.105 241.374 315.253 241.796 315.359 241.781Z" fill="#263238"/>
<path d="M317.555 234.642C317.618 234.732 318.083 234.463 318.674 234.357C319.266 234.251 319.794 234.32 319.825 234.214C319.857 234.109 319.297 233.845 318.606 233.982C317.914 234.119 317.481 234.6 317.555 234.642Z" fill="#263238"/>
<path d="M322.772 228.829L323.3 240.297C323.3 240.297 311.805 244.664 311.684 246.791L333.965 246.617L333.918 228.713L322.772 228.829Z" fill="#455A64"/>
<path d="M330.153 239.278C330.373 239.341 330.56 239.485 330.678 239.681C330.796 239.877 330.834 240.11 330.787 240.334C330.734 240.551 330.599 240.739 330.409 240.859C330.22 240.978 329.992 241.019 329.773 240.973C329.545 240.907 329.35 240.759 329.226 240.556C329.102 240.354 329.058 240.113 329.102 239.88C329.186 239.662 329.35 239.486 329.561 239.387C329.772 239.289 330.012 239.276 330.232 239.352" fill="#E0E0E0"/>
<g opacity="0.6">
<path d="M333.944 246.617L333.865 244.811L312.534 245.651C312.534 245.651 311.546 246.094 311.663 246.791L333.944 246.617Z" fill="white"/>
</g>
<path d="M322.909 240.186C322.909 240.297 323.437 240.345 323.997 240.688C324.556 241.031 324.82 241.49 324.921 241.443C325.021 241.395 324.857 240.772 324.197 240.387C323.537 240.001 322.883 240.091 322.909 240.186Z" fill="#263238"/>
<path d="M320.58 241.173C320.58 241.279 321.029 241.459 321.399 241.918C321.768 242.377 321.885 242.858 321.996 242.852C322.106 242.847 322.164 242.235 321.689 241.675C321.214 241.115 320.58 241.068 320.58 241.173Z" fill="#263238"/>
<path d="M319.276 243.982C319.371 243.982 319.519 243.454 319.234 242.863C318.949 242.272 318.442 242.039 318.395 242.129C318.347 242.219 318.669 242.536 318.923 243.027C319.176 243.518 319.165 243.972 319.276 243.982Z" fill="#263238"/>
<path d="M323.083 237.562C323.131 237.662 323.611 237.504 324.245 237.562C324.878 237.62 325.338 237.789 325.396 237.699C325.454 237.609 324.989 237.219 324.261 237.171C323.532 237.124 323.03 237.477 323.083 237.562Z" fill="#263238"/>
<path d="M336.552 144.882V153.953L334.113 189.292C334.113 189.292 335.634 206.431 336.563 216.109C337.371 224.515 336.035 239.151 336.035 239.151H321.869L316.8 190.338L313.632 159.898L308.151 146.044L336.552 144.882Z" fill="#263238"/>
<path d="M298.468 146.498L301.926 195.765L316.272 232.678L316.932 234.901L325.401 232.852L319.102 145.5L298.468 146.498Z" fill="#263238"/>
<path d="M313.685 160.263C313.679 160.331 313.679 160.4 313.685 160.469C313.685 160.616 313.685 160.817 313.685 161.071C313.685 161.599 313.727 162.391 313.759 163.383C313.817 165.39 313.959 168.288 314.16 171.873C314.588 179.044 315.39 188.933 316.631 199.82C317.872 210.708 319.208 220.539 320.2 227.651C320.702 231.194 321.109 234.067 321.394 236.068C321.536 237.05 321.647 237.815 321.726 238.354C321.769 238.607 321.8 238.803 321.821 238.951C321.831 239.018 321.845 239.085 321.864 239.151C321.871 239.083 321.871 239.014 321.864 238.945C321.864 238.797 321.827 238.602 321.795 238.349C321.732 237.821 321.631 237.039 321.51 236.052C321.246 234.051 320.866 231.173 320.401 227.604C319.461 220.486 318.136 210.655 316.911 199.768C315.686 188.88 314.841 179.007 314.366 171.842C314.139 168.262 313.965 165.363 313.875 163.357C313.822 162.364 313.785 161.588 313.753 161.049C313.753 160.791 313.727 160.595 313.716 160.447C313.711 160.385 313.7 160.323 313.685 160.263Z" fill="#455A64"/>
<path d="M312.787 147.929C312.787 148.073 312.83 148.214 312.91 148.333C312.99 148.453 313.104 148.547 313.237 148.602C313.37 148.657 313.517 148.671 313.658 148.643C313.799 148.615 313.929 148.546 314.031 148.444C314.133 148.342 314.202 148.212 314.23 148.071C314.259 147.929 314.244 147.783 314.189 147.65C314.134 147.517 314.04 147.403 313.921 147.323C313.801 147.243 313.66 147.2 313.516 147.2C313.323 147.2 313.137 147.277 313.001 147.413C312.864 147.55 312.787 147.735 312.787 147.929Z" fill="#455A64"/>
<path d="M300.321 154.819C300.696 154.554 301.032 154.237 301.319 153.879C302.787 152.198 303.719 150.117 303.996 147.902C304.078 147.449 304.089 146.986 304.028 146.53C303.985 146.53 303.954 147.058 303.811 147.871C303.435 150.022 302.528 152.046 301.171 153.758C300.659 154.418 300.289 154.787 300.321 154.819Z" fill="#455A64"/>
<path d="M338.686 149.592C338.686 149.592 337.059 137.179 336.885 135.758C336.711 134.338 333.96 116.349 333.96 116.349L336.531 82.1345C334.578 80.0225 324.387 73.4172 324.387 73.4172L322.386 68.8184L310.042 78.5916L308.352 83.8294L307.602 76.7859L305.379 82.6572C304.291 83.6198 303.468 84.8449 302.988 86.216L301.066 98.1488C300.796 99.8136 300.639 101.495 300.596 103.181L300.189 118.229L297.211 151.836L307.243 154.967C310.86 156.097 314.708 156.266 318.41 155.458C323.738 154.302 331.114 152.728 332.445 152.617C334.557 152.443 336.563 154.819 336.563 154.819C336.964 154.819 338.902 151.968 338.686 149.592Z" fill="#0D4EE1"/>
<path d="M323.981 73.1057C323.844 73.3323 323.686 73.5462 323.511 73.7446C323.189 74.1459 322.714 74.7108 322.096 75.392C320.876 76.7595 319.092 78.56 317.159 80.5558C316.209 81.5537 315.316 82.5147 314.519 83.4176L314.429 83.5284L314.329 83.4281C313.025 82.1292 312.085 80.8884 311.362 80.0648L310.522 79.1091C310.411 79.0027 310.311 78.884 310.226 78.7553C310.357 78.8353 310.476 78.933 310.58 79.0457C310.802 79.2516 311.108 79.5737 311.483 79.9592C312.243 80.7564 313.215 81.9761 314.514 83.238H314.318C315.095 82.3193 315.982 81.3478 316.958 80.3499C318.891 78.3382 320.697 76.5747 321.948 75.2441C322.582 74.5841 323.078 74.0403 323.426 73.6601C323.592 73.4573 323.778 73.2715 323.981 73.1057Z" fill="#263238"/>
<path d="M304.059 135.336C304.053 135.292 304.053 135.248 304.059 135.204C304.059 135.098 304.059 134.971 304.059 134.813C304.059 134.443 304.107 133.942 304.144 133.308C304.228 131.978 304.355 130.098 304.503 127.785C304.825 123.118 305.3 116.697 305.865 109.564C306.43 102.431 306.984 96.0156 307.449 91.3639C307.676 89.0355 307.887 87.1399 308.046 85.8569C308.13 85.2286 308.199 84.727 308.252 84.3627L308.31 83.9772C308.313 83.9318 308.324 83.8873 308.341 83.8452C308.348 83.8907 308.348 83.937 308.341 83.9825C308.341 84.0881 308.341 84.2148 308.304 84.3732C308.268 84.7375 308.22 85.2391 308.157 85.8675C308.035 87.1927 307.861 89.0724 307.629 91.3798C307.217 96.0367 306.689 102.468 306.124 109.59C305.559 116.713 305.068 123.118 304.682 127.796C304.492 130.109 304.339 131.988 304.234 133.319C304.176 133.947 304.128 134.449 304.096 134.818C304.096 134.971 304.065 135.103 304.054 135.204C304.064 135.247 304.066 135.292 304.059 135.336Z" fill="#263238"/>
<g opacity="0.3">
<path d="M300.004 121.439C301.34 122.104 302.866 122.337 304.181 123.023C305.091 123.576 305.941 124.224 306.715 124.955C312.312 129.771 319.345 133.229 326.726 133.356C329.261 133.403 331.969 132.981 333.854 131.286C334.91 130.357 335.629 128.91 335.227 127.59C334.741 125.964 332.893 125.241 331.278 124.734L316.156 120.024C312.995 118.954 309.76 118.114 306.478 117.511C304.264 117.163 302.022 117.03 299.783 117.115" fill="black"/>
</g>
<path d="M316.8 142.527C316.758 142.596 313.104 140.626 308.648 138.129C304.191 135.631 300.601 133.551 300.638 133.482C300.675 133.414 304.334 135.383 308.79 137.881C313.247 140.378 316.8 142.458 316.8 142.527Z" fill="#263238"/>
<path d="M305.216 154.344C305.192 154.107 305.192 153.868 305.216 153.631C305.247 153.103 305.279 152.469 305.321 151.698C305.395 150.062 305.406 147.807 305.374 145.31C305.342 142.812 305.337 140.558 305.342 138.91C305.342 138.134 305.342 137.485 305.342 136.973C305.332 136.734 305.348 136.495 305.39 136.26C305.437 136.494 305.459 136.733 305.453 136.973C305.453 137.501 305.496 138.134 305.522 138.91C305.57 140.547 305.612 142.807 305.638 145.304C305.665 147.802 305.638 150.056 305.501 151.709C305.443 152.527 305.369 153.187 305.305 153.642C305.297 153.878 305.267 154.113 305.216 154.344Z" fill="#263238"/>
<g opacity="0.3">
<path d="M322.122 115.018C323.395 110.129 323.268 104.506 323.136 99.4846C324.039 102.938 325.042 108.212 325.776 111.84L324.345 115.314L322.122 115.018Z" fill="black"/>
</g>
<g opacity="0.3">
<path d="M308.352 83.8294C307.887 84.2782 308.394 83.7344 308.352 83.8294C309.045 83.0334 309.657 82.1702 310.179 81.2528C311.552 82.5148 312.834 83.8715 314.017 85.3131C315.781 83.4704 317.55 81.6171 319.139 79.6424C320.414 78.0519 321.573 76.3721 322.608 74.6158L314.429 83.3437L310.026 78.6234L308.352 83.8294Z" fill="black"/>
</g>
<path d="M301.726 112.463L302.137 119.828C302.137 119.828 313.062 124.934 320.211 126.772C327.36 128.609 335.776 128.329 335.776 128.329L332.772 116.36L301.726 112.463Z" fill="#FFBE9D"/>
<path d="M280.595 113.968C280.571 113.667 280.633 113.365 280.774 113.099C280.916 112.832 281.13 112.612 281.392 112.463C282.343 111.877 284.333 110.578 284.333 110.578L290.363 110.05L301.726 112.484L302.137 119.849C302.137 119.849 296.329 120.166 294.999 120.119C293.668 120.071 289.914 118.873 289.914 118.873C289.914 118.873 283.636 119.67 283.335 119.321C283.034 118.973 282.638 118.572 283.04 118.324C283.441 118.075 288.272 116.829 288.272 116.829L285.03 116.581C285.03 116.581 280.278 117.579 279.951 117.426C279.624 117.273 279.154 116.681 279.423 116.233L279.724 115.784C279.638 115.552 279.642 115.296 279.733 115.066C279.825 114.836 279.998 114.648 280.22 114.538L280.669 114.39L280.595 113.968Z" fill="#FFBE9D"/>
<path d="M289.191 113.878C288.727 114.05 288.234 114.133 287.739 114.121C286.836 114.189 285.563 114.047 284.27 114.422C283.666 114.641 283.074 114.891 282.496 115.171C282.004 115.375 281.502 115.552 280.991 115.699C280.527 115.866 280.042 115.964 279.55 115.99C279.55 115.948 280.078 115.81 280.928 115.504C281.35 115.356 281.852 115.161 282.39 114.913C282.971 114.614 283.571 114.353 284.185 114.131C284.824 113.951 285.486 113.866 286.15 113.878C286.751 113.878 287.285 113.878 287.734 113.878C288.636 113.931 289.186 113.836 289.191 113.878Z" fill="#EB996E"/>
<path d="M288.668 112.183C288.252 112.332 287.809 112.39 287.369 112.352C286.34 112.254 285.303 112.389 284.333 112.748C283.209 113.218 282.19 113.672 281.445 113.968C281.051 114.16 280.637 114.307 280.21 114.406C280.569 114.157 280.955 113.95 281.361 113.788C282.089 113.44 283.087 112.959 284.228 112.484C284.774 112.249 285.36 112.119 285.954 112.099C286.482 112.099 286.973 112.13 287.375 112.151C288.172 112.204 288.663 112.141 288.668 112.183Z" fill="#EB996E"/>
<path d="M336.531 82.1557C336.531 82.1557 339.562 86.9921 340.037 89.347C340.512 91.7019 341.685 116.55 341.215 117.02C340.804 117.398 340.37 117.751 339.916 118.076C339.916 118.076 342.624 118.662 341.801 120.077C341.302 120.933 340.752 121.758 340.153 122.548C340.153 122.548 339.747 127.141 339.245 127.257C338.744 127.374 335.877 128.995 335.877 128.995C335.877 128.995 327.629 124.549 326.901 122.194C326.172 119.839 324.387 115.129 324.387 115.129L325.776 111.84L321.552 91.8181C321.552 91.8181 319.276 85.4134 323.374 82.7946C327.471 80.1757 334.99 79.5157 336.531 82.1557Z" fill="#0D4EE1"/>
<path d="M322.349 95.6144C322.389 95.711 322.418 95.8121 322.434 95.9153L322.645 96.7971C322.819 97.5891 323.067 98.7085 323.384 100.118C324.007 102.996 324.884 107.04 325.913 111.813V111.85V111.887C325.47 112.943 324.995 114.047 324.509 115.187V115.087C325.317 117.331 326.172 119.781 327.086 122.263L327.233 122.579L327.45 122.87C327.595 123.059 327.756 123.235 327.93 123.398C328.274 123.742 328.635 124.068 329.013 124.375C329.762 124.992 330.544 125.541 331.325 126.064C332.909 127.12 334.451 128.034 335.951 128.868H335.808C336.526 128.467 337.228 128.081 337.92 127.727C338.263 127.548 338.601 127.374 338.976 127.199L339.113 127.147L339.235 127.104C339.28 127.06 339.315 127.006 339.335 126.946C339.401 126.783 339.455 126.615 339.499 126.444C339.77 125.144 339.962 123.829 340.074 122.505V122.474C340.491 121.946 340.866 121.391 341.194 120.89C341.363 120.636 341.516 120.388 341.664 120.145C341.731 120.031 341.791 119.913 341.843 119.791C341.867 119.673 341.867 119.551 341.843 119.432C341.748 118.957 341.289 118.688 340.935 118.498C340.597 118.335 340.243 118.208 339.879 118.118H339.779L339.863 118.054C340.322 117.732 340.65 117.474 340.866 117.299C340.969 117.206 341.076 117.117 341.188 117.035C341.17 117.065 341.146 117.092 341.12 117.115L340.898 117.336C340.584 117.619 340.257 117.885 339.916 118.134V118.049C340.289 118.131 340.652 118.254 340.998 118.413C341.207 118.512 341.403 118.635 341.584 118.778C341.794 118.942 341.941 119.173 342.002 119.432C342.03 119.575 342.03 119.723 342.002 119.865C341.95 120.001 341.886 120.132 341.811 120.256C341.669 120.499 341.516 120.752 341.352 121.011C341.025 121.539 340.66 122.067 340.243 122.632V122.579C340.146 123.916 339.97 125.245 339.715 126.56C339.67 126.74 339.611 126.917 339.541 127.088C339.503 127.204 339.427 127.303 339.325 127.368C339.24 127.405 339.235 127.4 339.182 127.421L339.061 127.469C338.723 127.616 338.385 127.791 338.047 127.97C337.343 128.322 336.639 128.706 335.935 129.121L335.871 129.153L335.813 129.121C334.298 128.292 332.735 127.374 331.156 126.323C330.349 125.796 329.568 125.228 328.817 124.623C328.621 124.471 328.432 124.309 328.252 124.137C328.066 123.972 327.89 123.795 327.724 123.609C327.542 123.431 327.374 123.238 327.223 123.033C327.149 122.933 327.064 122.833 326.99 122.722L326.816 122.363C325.898 119.85 325.058 117.426 324.255 115.177V115.124V115.076C324.746 113.936 325.227 112.832 325.676 111.782V111.861C324.683 107.083 323.844 103.028 323.247 100.145C322.962 98.7296 322.719 97.6049 322.576 96.8077C322.508 96.4328 322.45 96.1424 322.407 95.9206C322.382 95.8199 322.362 95.7176 322.349 95.6144Z" fill="#263238"/>
<path d="M340.032 117.98C340.032 117.98 339.895 118.065 339.615 118.155C339.219 118.281 338.805 118.343 338.39 118.339C338.093 118.33 337.802 118.258 337.535 118.128C337.24 117.984 336.956 117.82 336.684 117.637C336.114 117.252 335.528 116.792 334.879 116.349C333.596 115.457 332.387 114.707 331.521 114.152C331.035 113.877 330.574 113.561 330.143 113.207C330.658 113.422 331.154 113.68 331.626 113.978C332.519 114.506 333.738 115.219 335.042 116.09C335.697 116.534 336.283 117.009 336.832 117.394C337.288 117.769 337.834 118.017 338.416 118.112C338.815 118.131 339.213 118.101 339.604 118.023C339.745 117.994 339.888 117.98 340.032 117.98Z" fill="#263238"/>
<path d="M340.153 122.553C339.988 122.629 339.808 122.671 339.625 122.674C339.127 122.718 338.626 122.629 338.173 122.416C336.731 121.695 335.363 120.832 334.092 119.839C332.835 118.841 331.639 117.767 330.512 116.624C330.074 116.185 329.731 115.826 329.498 115.568C329.266 115.309 329.139 115.172 329.155 115.156C329.683 115.559 330.182 115.999 330.649 116.47C331.552 117.305 332.793 118.461 334.266 119.612C335.524 120.598 336.859 121.481 338.258 122.252C338.678 122.472 339.146 122.587 339.62 122.585C339.797 122.565 339.975 122.554 340.153 122.553Z" fill="#263238"/>
<g opacity="0.3">
<path d="M330.28 113.339C330.834 114.139 331.505 114.851 332.27 115.451L335.782 118.508C336.452 119.095 337.244 119.723 338.126 119.596C338.574 119.504 338.994 119.307 339.351 119.021C339.694 118.788 340.074 118.435 339.974 118.033C339.484 118.209 338.961 118.272 338.443 118.218C337.926 118.163 337.427 117.991 336.985 117.716C336.614 117.451 336.261 117.16 335.929 116.845C334.206 115.471 332.319 114.315 330.312 113.403" fill="black"/>
</g>
<path d="M302.137 119.829C301.909 119.881 301.675 119.91 301.44 119.913L299.55 120.029L296.736 120.166L295.078 120.235C294.774 120.215 294.474 120.164 294.18 120.082L293.299 119.876C292.079 119.57 290.923 119.264 289.883 118.978H289.93C288.346 119.121 287.047 119.232 286.107 119.301L285.02 119.369C284.888 119.388 284.755 119.388 284.624 119.369C284.749 119.328 284.878 119.301 285.009 119.29L286.097 119.147C287.026 119.031 288.346 118.889 289.904 118.72H289.951L293.367 119.591L294.244 119.802C294.516 119.879 294.796 119.928 295.078 119.95L296.736 119.897L299.545 119.823H301.44C301.672 119.804 301.906 119.806 302.137 119.829Z" fill="#EB996E"/>
<path d="M322.349 86.5434C322.414 86.3538 322.509 86.1756 322.629 86.0154C322.931 85.5605 323.27 85.1314 323.643 84.7324C324.197 84.145 324.788 83.593 325.412 83.0797C326.146 82.3961 326.995 81.8474 327.92 81.4588C328.877 81.1508 329.888 81.0482 330.887 81.1578C331.691 81.2324 332.489 81.3541 333.279 81.5221C333.955 81.6488 334.504 81.7544 334.863 81.8336C335.06 81.8647 335.252 81.916 335.438 81.9868C335.239 81.9998 335.038 81.9855 334.842 81.9445C334.462 81.897 333.913 81.8231 333.258 81.7175C332.603 81.6119 331.774 81.4693 330.877 81.4218C329.913 81.3279 328.941 81.4321 328.02 81.728C327.127 82.1049 326.304 82.6297 325.586 83.2804C324.962 83.7766 324.365 84.3053 323.796 84.8644C322.825 85.8306 322.392 86.5698 322.349 86.5434Z" fill="#263238"/>
<path d="M106.059 41.5553H144.503V50.5109H106.059V41.5553Z" fill="#0D4EE1"/>
</svg>
