<svg width="188" height="62" viewBox="0 0 188 62" fill="none" xmlns="http://www.w3.org/2000/svg">
<path d="M0.666687 60.7032V26.163H8.90644L9.59873 31.783C10.6656 29.8584 12.231 28.2495 14.1342 27.122C16.0955 25.9342 18.4385 25.3403 21.1635 25.3403C24.072 25.3403 26.5185 25.9342 28.5031 27.122C30.4877 28.3097 31.9996 30.046 33.0387 32.3306C34.0777 34.6162 34.5973 37.4262 34.5973 40.7606V60.7032H25.3184V41.6515C25.3184 38.9092 24.7296 36.8096 23.552 35.3527C22.3744 33.8959 20.5625 33.1649 18.1164 33.1598C16.5457 33.1598 15.149 33.5253 13.9264 34.2562C12.6886 35.0037 11.692 36.0851 11.0534 37.3735C10.3607 38.7232 10.0143 40.357 10.0143 42.2749V60.7096L0.666687 60.7032Z" fill="#282828"/>
<path d="M56.6707 60.6903C53.3249 60.6903 50.3649 59.9824 47.7906 58.5667C45.2556 57.192 43.1705 55.1288 41.781 52.6202C40.3497 50.0707 39.6344 47.1189 39.6353 43.7647C39.6353 40.3231 40.3397 37.2843 41.7485 34.6483C43.1088 32.0626 45.18 29.9103 47.7231 28.4396C50.2974 26.9373 53.2795 26.1862 56.6694 26.1862C59.971 26.1862 62.8545 26.9047 65.3196 28.3419C67.7334 29.7276 69.7196 31.7387 71.0643 34.1585C72.4281 36.6 73.1104 39.3668 73.1113 42.4587V43.928C73.1113 44.4875 73.0679 45.0462 72.9814 45.5991H45.9736V40.24H64.1377C64.0052 38.1062 63.2458 36.4291 61.8595 35.2087C60.4733 33.9884 58.7454 33.3783 56.6759 33.3783C55.2268 33.3672 53.7979 33.7155 52.5197 34.3912C51.2434 35.0674 50.242 36.1021 49.5155 37.4956C48.789 38.889 48.4258 40.6531 48.4258 42.7878V44.6838C48.4258 46.4706 48.7669 48.0281 49.4492 49.3565C50.0844 50.6351 51.0829 51.7024 52.3223 52.4274C53.5535 53.1473 54.9823 53.5068 56.6084 53.5059C58.2345 53.505 59.5883 53.1567 60.6698 52.4608C61.7096 51.8067 62.5444 50.8785 63.0805 49.7806H72.1904C71.573 51.8319 70.5145 53.7268 69.0875 55.3351C67.6118 57.0093 65.787 58.3473 63.7389 59.257C61.6244 60.2125 59.2684 60.6903 56.6707 60.6903Z" fill="#282828"/>
<path d="M72.4739 60.7032L85.0076 43.4331L72.4739 26.1631H82.5814L90.9601 38.0188L99.3388 26.1631H109.38L96.8464 43.4331L109.38 60.7032H99.3362L90.9627 48.7755L82.5814 60.7032H72.4739Z" fill="#282828"/>
<path d="M130.644 7.33252L132.291 10.3109L135.301 11.9396L132.291 13.5695L130.644 16.5479L128.999 13.5695L125.988 11.9396L128.999 10.3109L130.644 7.33252Z" fill="#00D555"/>
<path d="M129.998 60.7032C127.55 60.7032 125.414 60.3266 123.592 59.5733C121.769 58.82 120.351 57.5633 119.338 55.8031C118.322 54.0454 117.815 51.6356 117.816 48.5737V33.9067H111.859V26.1631H136.374L127.164 33.9067V48.7099C127.164 50.2636 127.51 51.3374 128.203 51.9313C128.895 52.5252 130.072 52.8221 131.734 52.8221H136.303V60.7032H129.998Z" fill="#0D4EE1"/>
<path d="M152.571 61.5258C149.662 61.5258 147.262 61.0575 145.369 60.1208C143.476 59.1842 142.079 57.9279 141.179 56.3519C140.273 54.7517 139.808 52.944 139.829 51.1098C139.829 49.0068 140.372 47.1562 141.457 45.5579C142.542 43.9597 144.181 42.7034 146.373 41.789C148.565 40.8746 151.324 40.4174 154.648 40.4174H163.304C163.304 38.7275 163.073 37.3225 162.611 36.2024C162.149 35.0824 161.433 34.2485 160.465 33.7009C159.495 33.1533 158.203 32.8795 156.587 32.8795C154.832 32.8795 153.343 33.2561 152.12 34.0094C150.898 34.7627 150.148 35.9162 149.871 37.4699H140.8C141.03 35.0044 141.849 32.8688 143.257 31.0632C144.665 29.2575 146.535 27.8525 148.867 26.8482C151.197 25.8438 153.794 25.3412 156.66 25.3403C159.938 25.3403 162.777 25.8884 165.177 26.9844C167.578 28.0805 169.424 29.6573 170.717 31.7149C172.01 33.7716 172.656 36.307 172.656 39.3209V60.7032H164.758L163.719 55.4328C163.226 56.3268 162.621 57.156 161.919 57.9009C161.205 58.6489 160.389 59.2945 159.495 59.8188C158.522 60.3864 157.473 60.8133 156.378 61.0862C155.133 61.392 153.854 61.5397 152.571 61.5258ZM154.787 54.3993C155.895 54.4181 156.995 54.1956 158.007 53.7476C158.939 53.3237 159.776 52.7172 160.465 51.9647C161.164 51.2024 161.715 50.3202 162.093 49.3616C162.495 48.337 162.762 47.2656 162.889 46.1737V46.1055H155.756C154.324 46.1055 153.159 46.2769 152.259 46.6197C151.36 46.9625 150.702 47.4536 150.285 48.0929C149.866 48.7484 149.65 49.5105 149.663 50.2858C149.663 51.2011 149.87 51.9552 150.285 52.5482C150.737 53.17 151.363 53.6466 152.087 53.9185C152.946 54.2526 153.864 54.4159 154.787 54.3993Z" fill="#0D4EE1"/>
<path d="M177.915 60.7032V11.3598H187.267V60.7032H177.915Z" fill="#0D4EE1"/>
<path d="M91.3976 8.08313L95.3383 15.2135L102.543 19.1136L95.3383 23.0124L91.3976 30.1441L87.457 23.0124L80.2524 19.1136L87.457 15.2135L91.3976 8.08313Z" fill="#00D555"/>
<path d="M112.013 0.473267L114.696 5.32971L119.603 7.98545L114.696 10.6425L112.013 15.4989L109.329 10.6425L104.422 7.98545L109.329 5.32971L112.013 0.473267Z" fill="#00D555"/>
<path d="M127.21 19.7525H117.9V35.0622H127.21V19.7525Z" fill="#0D4EE1"/>
</svg>
