<svg width="162" height="54" viewBox="0 0 162 54" fill="none" xmlns="http://www.w3.org/2000/svg">
<path d="M0.211182 52.8167V23.0429H7.31389L7.91065 27.8874C8.83028 26.2283 10.1797 24.8415 11.8203 23.8695C13.5109 22.8457 15.5306 22.3337 17.8795 22.3337C20.3867 22.3337 22.4956 22.8457 24.2064 23.8695C25.9171 24.8934 27.2203 26.39 28.116 28.3594C29.0117 30.3296 29.4595 32.7518 29.4595 35.6261V52.8167H21.4611V36.394C21.4611 34.0301 20.9536 32.2203 19.9385 30.9645C18.9234 29.7087 17.3615 29.0786 15.2529 29.0741C13.899 29.0741 12.695 29.3892 11.6411 30.0193C10.5742 30.6636 9.71504 31.5958 9.16459 32.7064C8.56747 33.8698 8.26891 35.2782 8.26891 36.9314V52.8222L0.211182 52.8167Z" fill="white"/>
<path d="M48.4871 52.8055C45.603 52.8055 43.0515 52.1953 40.8324 50.975C38.6472 49.79 36.8499 48.0115 35.6521 45.849C34.4183 43.6514 33.8017 41.1069 33.8025 38.2156C33.8025 35.2489 34.4097 32.6294 35.6241 30.3572C36.7966 28.1283 38.582 26.2729 40.7742 25.0052C42.9933 23.7102 45.5638 23.0627 48.486 23.0627C51.332 23.0627 53.8175 23.6822 55.9425 24.921C58.0232 26.1155 59.7353 27.849 60.8945 29.935C62.0701 32.0396 62.6582 34.4245 62.659 37.0898V38.3563C62.659 38.8386 62.6216 39.3202 62.547 39.7968H39.2661V35.1773H54.9237C54.8095 33.3379 54.1549 31.8922 52.9599 30.8403C51.7649 29.7883 50.2755 29.2624 48.4916 29.2624C47.2424 29.2529 46.0107 29.5531 44.9089 30.1355C43.8087 30.7184 42.9455 31.6104 42.3192 32.8115C41.693 34.0127 41.3799 35.5333 41.3799 37.3734V39.0078C41.3799 40.5481 41.674 41.8907 42.2621 43.0357C42.8096 44.1379 43.6704 45.0579 44.7387 45.6828C45.8001 46.3034 47.0316 46.6132 48.4334 46.6125C49.8351 46.6118 51.0021 46.3115 51.9343 45.7116C52.8306 45.1478 53.5502 44.3477 54.0123 43.4013H61.8652C61.3329 45.1695 60.4205 46.8029 59.1905 48.1893C57.9183 49.6325 56.3454 50.7858 54.5799 51.57C52.7572 52.3937 50.7263 52.8055 48.4871 52.8055Z" fill="white"/>
<path d="M62.1094 52.8167L72.9135 37.9298L62.1094 23.043H70.8221L78.0446 33.2627L85.2671 23.043H93.9227L83.1186 37.9298L93.9227 52.8167H85.2649L78.0468 42.535L70.8221 52.8167H62.1094Z" fill="white"/>
<path d="M112.253 6.81079L113.672 9.37818L116.267 10.7821L113.672 12.1871L112.253 14.7545L110.834 12.1871L108.239 10.7821L110.834 9.37818L112.253 6.81079Z" fill="white"/>
<path d="M111.695 52.8167C109.585 52.8167 107.744 52.4921 106.173 51.8427C104.602 51.1934 103.38 50.1101 102.506 48.5928C101.631 47.0777 101.194 45.0004 101.194 42.361V29.718H96.0598V23.043H117.191L109.252 29.718V42.4785C109.252 43.8177 109.551 44.7434 110.148 45.2553C110.745 45.7672 111.76 46.0232 113.192 46.0232H117.131V52.8167H111.695Z" fill="white"/>
<path d="M131.154 53.5258C128.646 53.5258 126.577 53.1221 124.945 52.3147C123.314 51.5073 122.11 50.4244 121.334 49.0659C120.553 47.6865 120.151 46.1283 120.17 44.5472C120.17 42.7344 120.638 41.1391 121.573 39.7614C122.508 38.3837 123.921 37.3008 125.811 36.5126C127.701 35.7244 130.078 35.3303 132.944 35.3303H140.406C140.406 33.8735 140.207 32.6624 139.808 31.6969C139.409 30.7314 138.793 30.0127 137.958 29.5406C137.122 29.0686 136.008 28.8326 134.615 28.8326C133.102 28.8326 131.819 29.1572 130.765 29.8065C129.711 30.4559 129.065 31.4502 128.826 32.7895H121.007C121.205 30.6642 121.911 28.8233 123.125 27.2669C124.339 25.7104 125.95 24.4993 127.96 23.6335C129.969 22.7677 132.208 22.3345 134.678 22.3337C137.504 22.3337 139.951 22.8062 142.02 23.751C144.089 24.6958 145.681 26.055 146.795 27.8287C147.91 29.6016 148.467 31.787 148.467 34.3851V52.8167H141.659L140.763 48.2736C140.338 49.0443 139.816 49.759 139.211 50.4011C138.596 51.0459 137.893 51.6024 137.122 52.0543C136.284 52.5437 135.379 52.9116 134.435 53.1469C133.362 53.4104 132.259 53.5378 131.154 53.5258ZM133.064 47.3827C134.019 47.3989 134.967 47.2071 135.839 46.8209C136.643 46.4555 137.364 45.9327 137.958 45.284C138.56 44.627 139.036 43.8665 139.361 43.0402C139.708 42.157 139.939 41.2335 140.048 40.2922V40.2335H133.899C132.665 40.2335 131.66 40.3812 130.885 40.6767C130.109 40.9722 129.542 41.3955 129.183 41.9465C128.822 42.5116 128.636 43.1686 128.647 43.8369C128.647 44.6259 128.826 45.2759 129.183 45.7871C129.572 46.3231 130.112 46.7339 130.736 46.9683C131.477 47.2563 132.268 47.3971 133.064 47.3827Z" fill="white"/>
<path d="M153 52.8168V10.2825H161.062V52.8168H153Z" fill="white"/>
<path d="M78.4217 7.45801L81.8186 13.6045L88.029 16.9663L81.8186 20.3271L78.4217 26.4747L75.0249 20.3271L68.8145 16.9663L75.0249 13.6045L78.4217 7.45801Z" fill="white"/>
<path d="M96.1921 0.898193L98.5052 5.08447L102.735 7.37374L98.5052 9.66412L96.1921 13.8504L93.879 9.66412L89.6492 7.37374L93.879 5.08447L96.1921 0.898193Z" fill="white"/>
<path d="M109.292 17.5171H101.267V30.7142H109.292V17.5171Z" fill="white"/>
</svg>
