<svg width="63" height="64" viewBox="0 0 63 64" fill="none" xmlns="http://www.w3.org/2000/svg">
<g clip-path="url(#clip0_63_94)">
<path d="M53.8194 9.30052C47.8971 3.30648 40.0221 0.0036571 31.6318 0C14.3424 0 0.272335 14.226 0.265413 31.7118C0.263399 37.3012 1.70737 42.7572 4.45196 47.5666L0.0020752 64L16.6298 59.5903C21.211 62.1172 26.3692 63.4488 31.6184 63.4509H31.6317H31.6318C48.9184 63.4509 62.9907 49.2224 62.998 31.7375C63.0009 23.263 59.741 15.295 53.8194 9.30052ZM31.6318 58.0947H31.6217C26.9428 58.0922 22.3546 56.8217 18.3526 54.4199L17.4002 53.8488L7.53294 56.4654L10.1673 46.7388L9.54682 45.7416C6.93694 41.5445 5.55914 36.6942 5.5611 31.7138C5.56684 17.1802 17.2614 5.35644 31.6417 5.35644C38.6054 5.35937 45.1505 8.1047 50.073 13.0868C54.9952 18.0688 57.7039 24.6917 57.7018 31.7352C57.6957 46.2693 46.0008 58.0947 31.6318 58.0947Z" fill="#E0E0E0"/>
<path d="M1.44189 62.1766L5.68852 46.4939C3.06862 41.9042 1.69087 36.6969 1.69253 31.3639C1.6994 14.6772 15.1269 1.10144 31.6251 1.10144C39.6325 1.1051 47.1479 4.25689 52.7985 9.97726C58.4503 15.6976 61.5609 23.3012 61.5576 31.3876C61.5508 48.0747 48.1224 61.6516 31.6263 61.6516C31.6251 61.6516 31.6271 61.6516 31.6263 61.6516H31.613C26.6036 61.65 21.6814 60.3782 17.3097 57.9684L1.44189 62.1766Z" fill="url(#paint0_linear_63_94)"/>
<path fill-rule="evenodd" clip-rule="evenodd" d="M23.8808 18.2486C23.3006 16.9437 22.6896 16.9176 22.1375 16.8947C21.6859 16.8752 21.169 16.8764 20.6528 16.8764C20.1363 16.8764 19.2969 17.0727 18.587 17.8568C17.8768 18.6409 15.8751 20.5363 15.8751 24.3914C15.8751 28.2468 18.6516 31.9721 19.0386 32.4953C19.426 33.0178 24.3982 41.1818 32.2728 44.3225C38.8173 46.9327 40.149 46.4135 41.5695 46.2829C42.9901 46.1523 46.1531 44.3878 46.7988 42.558C47.4445 40.7287 47.4445 39.1606 47.2508 38.8328C47.0571 38.5062 46.5405 38.3103 45.7657 37.9185C44.9909 37.5267 41.1821 35.6308 40.4719 35.3696C39.7616 35.1083 39.2451 34.9777 38.7285 35.7622C38.212 36.5459 36.7281 38.3103 36.2761 38.8328C35.8241 39.3564 35.3721 39.4217 34.5973 39.0299C33.8225 38.6369 31.3273 37.8103 28.3672 35.1409C26.0641 33.0642 24.5092 30.4993 24.0572 29.7149C23.6052 28.9312 24.0087 28.5068 24.3974 28.1161C24.7452 27.7651 25.1722 27.2014 25.5596 26.7439C25.9462 26.2863 26.0754 25.9598 26.3336 25.4374C26.5919 24.9141 26.4628 24.4566 26.2691 24.0647C26.0754 23.6729 24.5697 19.798 23.8808 18.2486Z" fill="white"/>
<path d="M53.5632 9.19976C47.7088 3.27454 39.9242 0.00969078 31.6304 0.00598145C14.5394 0.00598145 0.630808 14.0687 0.623938 31.3537C0.621923 36.879 2.04931 42.2724 4.7624 47.0266L0.363647 63.2713L16.8005 58.9121C21.3292 61.41 26.4281 62.7264 31.617 62.7284H31.6302H31.6304C48.7185 62.7284 62.6291 48.6633 62.6364 31.379C62.6392 23.002 59.4168 15.1254 53.5632 9.19976ZM31.6304 57.4338H31.6203C26.9951 57.4314 22.4596 56.1755 18.5035 53.8012L17.562 53.2367L7.80804 55.8232L10.4122 46.2083L9.79878 45.2226C7.21886 41.0736 5.85687 36.279 5.85888 31.3558C5.86451 16.9891 17.4248 5.30104 31.6401 5.30104C38.524 5.30391 44.9938 8.01774 49.8599 12.9426C54.7255 17.8674 57.4031 24.4143 57.4011 31.3771C57.395 45.7442 45.8343 57.4338 31.6304 57.4338Z" fill="white"/>
</g>
<defs>
<linearGradient id="paint0_linear_63_94" x1="31.4998" y1="62.1766" x2="31.4998" y2="1.10154" gradientUnits="userSpaceOnUse">
<stop stop-color="#20B038"/>
<stop offset="1" stop-color="#60D66A"/>
</linearGradient>
<clipPath id="clip0_63_94">
<rect width="63" height="64" fill="white"/>
</clipPath>
</defs>
</svg>
