<svg width="258" height="289" viewBox="0 0 258 289" fill="none" xmlns="http://www.w3.org/2000/svg">
<path opacity="0.7" d="M22.4863 99.5857C22.4863 99.5857 5.86977 142.498 29.2211 185.708C52.5723 228.918 100.67 251.745 139.165 271.264C177.661 290.783 217.635 281.276 236.629 249.307C255.624 217.337 229.572 194.517 229.537 148.929C229.501 103.341 236.361 91.2715 211.657 52.758C186.952 14.2445 126.393 5.71574 80.5962 34.282C34.7996 62.8483 22.4863 99.5857 22.4863 99.5857Z" fill="white"/>
<path d="M27.9337 99.2042C45.1104 67.5805 88.3204 30.6643 147.599 46.0411C206.877 61.4179 246.928 93.9475 240.366 150.544C233.804 207.14 199.319 254.164 125.04 255.541C50.7605 256.918 -9.7335 168.549 27.9337 99.2042Z" fill="#00D555"/>
<path opacity="0.7" d="M27.9337 99.2042C45.1104 67.5805 88.3204 30.6643 147.599 46.0411C206.877 61.4179 246.928 93.9475 240.366 150.544C233.804 207.14 199.319 254.164 125.04 255.541C50.7605 256.918 -9.7335 168.549 27.9337 99.2042Z" fill="white"/>
<path d="M243.709 141.973L205.048 147.958C203.571 148.186 202.559 149.569 202.788 151.046L206.433 174.593C206.662 176.07 208.044 177.082 209.521 176.853L248.182 170.868C249.659 170.64 250.671 169.257 250.442 167.78L246.797 144.233C246.568 142.756 245.185 141.744 243.709 141.973Z" stroke="#263238" stroke-linecap="round" stroke-linejoin="round"/>
<path d="M203.378 154.847L247.387 148.035" stroke="#263238" stroke-linecap="round" stroke-linejoin="round"/>
<path d="M243.946 155.759L236.837 156.86L238.421 167.096L245.531 165.996L243.946 155.759Z" stroke="#263238" stroke-linecap="round" stroke-linejoin="round"/>
<path d="M239.722 158.536C241.224 156.748 243.692 157.94 243.114 163.489L245.313 164.579L245.527 165.974L238.423 167.077L238.131 165.211L240.813 164.168C240.813 164.168 238.31 160.223 239.722 158.536Z" stroke="#263238" stroke-linecap="round" stroke-linejoin="round"/>
<path d="M224.304 171.052C224.304 171.052 229.441 171.094 227.969 170.069C226.497 169.044 226.276 168.007 227.528 167.989C228.78 167.971 230.878 170.373 230.711 168.906C230.544 167.44 231.45 168.394 231.623 168.489C231.795 168.585 233.279 167.989 233.351 168.161C233.423 168.334 233.321 168.817 238.155 168.072" stroke="#263238" stroke-linecap="round" stroke-linejoin="round"/>
<path d="M207.109 159.418L228.66 156.081" stroke="#263238" stroke-linecap="round" stroke-linejoin="round"/>
<path d="M207.491 161.862L220.185 159.895" stroke="#263238" stroke-linecap="round" stroke-linejoin="round"/>
<path d="M208.158 166.171L225.865 163.429" stroke="#263238" stroke-linecap="round" stroke-linejoin="round"/>
<path d="M213.653 150.055L235.264 146.706" stroke="#263238" stroke-linecap="round" stroke-linejoin="round"/>
<path d="M7.83655 134.958L56.1543 125.309L73.027 206.317L21.6697 217.331L7.83655 134.958Z" stroke="#263238" stroke-linecap="round" stroke-linejoin="round"/>
<path d="M19.7268 205.775L70.9828 196.495" stroke="#263238" stroke-linecap="round" stroke-linejoin="round"/>
<path d="M64.9095 189.605L40.4318 194.123" stroke="#263238" stroke-linecap="round" stroke-linejoin="round"/>
<path d="M61.2798 185.541L54.1278 186.596" stroke="#263238" stroke-linecap="round" stroke-linejoin="round"/>
<path d="M62.3705 177.268L25.8357 184.122" stroke="#263238" stroke-linecap="round" stroke-linejoin="round"/>
<path d="M14.1542 172.59L64.1645 163.763" stroke="#263238" stroke-linecap="round" stroke-linejoin="round" stroke-dasharray="1 2"/>
<path d="M67.2935 203.695L36.9154 210.06" stroke="#263238" stroke-linecap="round" stroke-linejoin="round"/>
<path d="M66.3876 201.132L52.1074 203.695" stroke="#263238" stroke-linecap="round" stroke-linejoin="round"/>
<path d="M58.6634 158.423L33.6135 163.388" stroke="#263238" stroke-linecap="round" stroke-linejoin="round"/>
<path d="M56.6847 152.862L48.7042 154.43" stroke="#263238" stroke-linecap="round" stroke-linejoin="round"/>
<path d="M56.2139 149L19.7268 156.033" stroke="#263238" stroke-linecap="round" stroke-linejoin="round"/>
<path d="M52.9001 130.202L43.0482 132.24" stroke="#263238" stroke-linecap="round" stroke-linejoin="round"/>
<path d="M19.7267 137.205L11.2278 138.856" stroke="#263238" stroke-linecap="round" stroke-linejoin="round"/>
<path d="M14.321 143.541C14.4983 142.937 14.8027 142.377 15.2139 141.9C15.6251 141.423 16.1335 141.04 16.705 140.775" stroke="#263238" stroke-linecap="round" stroke-linejoin="round"/>
<path d="M18.0997 149C17.0443 148.875 16.0688 148.376 15.3503 147.593C14.6318 146.81 14.218 145.795 14.184 144.733" stroke="#263238" stroke-linecap="round" stroke-linejoin="round"/>
<path d="M21.4135 147.987C20.8085 148.531 20.0555 148.884 19.25 149" stroke="#263238" stroke-linecap="round" stroke-linejoin="round"/>
<path d="M18.5168 140.37C19.2842 140.395 20.032 140.619 20.6874 141.019C21.3428 141.419 21.8835 141.981 22.2567 142.652C22.63 143.323 22.8232 144.079 22.8174 144.847C22.8117 145.615 22.6072 146.368 22.224 147.033" stroke="#263238" stroke-linecap="round" stroke-linejoin="round"/>
<path d="M27.2065 141.491C26.4138 141.24 25.6271 140.954 24.8225 140.775" stroke="#263238" stroke-linecap="round" stroke-linejoin="round"/>
<path d="M33.9652 142.063C33.2917 143.666 29.525 142.206 28.4283 141.872" stroke="#263238" stroke-linecap="round" stroke-linejoin="round"/>
<path d="M27.5165 137.807L34.5612 139.464C34.448 139.935 34.3586 140.412 34.2692 140.882" stroke="#263238" stroke-linecap="round" stroke-linejoin="round"/>
<path d="M24.0299 139.464C24.7809 137.676 24.4829 137.08 26.3543 137.515" stroke="#263238" stroke-linecap="round" stroke-linejoin="round"/>
<path d="M109.991 265.977L119.318 268.838L112.387 260.673C116.187 256.448 118.362 251.011 118.526 245.332" stroke="#263238" stroke-linecap="round" stroke-linejoin="round"/>
<path d="M98.673 269.577C101.799 268.579 104.75 267.097 107.416 265.184" stroke="#263238" stroke-linecap="round" stroke-linejoin="round"/>
<path d="M62.6805 252.233C65.4281 265.47 80.0539 273.624 95.3533 270.453" stroke="#263238" stroke-linecap="round" stroke-linejoin="round"/>
<path d="M64.9096 237.309C64.3224 238.425 63.8241 239.584 63.4196 240.778" stroke="#263238" stroke-linecap="round" stroke-linejoin="round"/>
<path d="M118.079 240.742C115.337 227.505 100.705 219.352 85.412 222.529C78.4673 223.892 72.2087 227.618 67.6989 233.072" stroke="#263238" stroke-linecap="round" stroke-linejoin="round"/>
<path d="M101.85 235.891C97.4452 231.093 91.4435 234.419 88.9463 239.288C84.822 235.712 78.0097 234.836 75.7091 240.933C71.8232 251.202 85.114 257.466 91.2647 259.731C91.962 259.993 92.5342 260.214 93.011 260.375C93.3984 260.047 93.8514 259.63 94.3997 259.129C99.263 254.736 109.276 243.985 101.85 235.891Z" stroke="#263238" stroke-linecap="round" stroke-linejoin="round"/>
<path d="M138.474 40.5279L129.468 36.7791L135.577 45.576C131.402 49.4144 128.724 54.6098 128.02 60.2376" stroke="#263238" stroke-linecap="round" stroke-linejoin="round"/>
<path d="M150.072 38.0188C146.866 38.7139 143.787 39.9043 140.947 41.5471" stroke="#263238" stroke-linecap="round" stroke-linejoin="round"/>
<path d="M184.241 58.7476C182.781 45.2959 169.007 35.7599 153.475 37.4704" stroke="#263238" stroke-linecap="round" stroke-linejoin="round"/>
<path d="M180.587 73.3854C181.268 72.3311 181.866 71.2251 182.375 70.0776" stroke="#263238" stroke-linecap="round" stroke-linejoin="round"/>
<path d="M128.02 64.8506C129.48 78.2904 143.254 87.8145 158.786 86.1278C165.828 85.4358 172.414 82.33 177.428 77.3368" stroke="#263238" stroke-linecap="round" stroke-linejoin="round"/>
<path d="M162.662 73.0754C169.549 69.3891 172.143 60.8182 168.457 53.9318C164.77 47.0453 156.2 44.4511 149.313 48.1374C142.427 51.8237 139.832 60.3946 143.519 67.281C147.205 74.1675 155.776 76.7617 162.662 73.0754Z" stroke="#263238" stroke-linecap="round" stroke-linejoin="round"/>
<path d="M150.614 62.3951L154.846 66.3883L161.903 54.2358" stroke="#263238" stroke-linecap="round" stroke-linejoin="round"/>
<path opacity="0.2" d="M173.668 195.315C173.668 195.315 171.546 220.991 174.615 227.219C177.685 233.447 179.222 276.002 177.846 281.354C177.846 281.354 187.727 283.845 191.637 280.305C195.547 276.764 201.56 280.174 211.466 276.729C221.372 273.284 214.226 196.823 214.226 196.823L214.529 169.008L198.193 154.453L173.668 195.315Z" fill="black" fill-opacity="0.7"/>
<path d="M186.839 207.664C186.778 207.848 186.678 208.016 186.547 208.159C184.437 210.156 175.432 212.373 167.696 213.97C161.289 215.299 155.776 216.199 155.776 216.199C155.776 216.199 151.532 180.934 151.532 177.227C151.532 173.519 144.69 113.502 144.69 113.502L161.092 112.793L182.852 111.851C182.852 111.851 182.983 113.455 183.204 116.256C184.64 134.1 189.575 200.626 186.839 207.664Z" fill="#00D555"/>
<mask id="mask0_55_845" style="mask-type:luminance" maskUnits="userSpaceOnUse" x="144" y="111" width="44" height="106">
<path d="M186.839 207.664C186.778 207.848 186.678 208.016 186.547 208.159C184.437 210.156 175.432 212.373 167.696 213.97C161.289 215.299 155.776 216.199 155.776 216.199C155.776 216.199 151.532 180.934 151.532 177.227C151.532 173.519 144.69 113.502 144.69 113.502L161.092 112.793L182.852 111.851C182.852 111.851 182.983 113.455 183.204 116.256C184.64 134.1 189.575 200.626 186.839 207.664Z" fill="white"/>
</mask>
<g mask="url(#mask0_55_845)">
<path opacity="0.2" d="M186.839 207.664L167.696 211.58L160.466 213.064C158.505 211.139 157.01 211.103 157.01 211.103L156.414 205.709L155.478 196.883L147.241 119.224C149.029 117.99 149.911 115.29 149.911 115.29L160.937 114.891L180.039 114.194L183.192 116.232C184.64 134.1 189.575 200.626 186.839 207.664Z" fill="black" fill-opacity="0.7"/>
<path d="M186.839 207.664L167.696 211.58L160.466 213.064C158.505 211.139 157.01 211.103 157.01 211.103L156.414 205.709L155.478 196.883L147.241 119.224C149.029 117.99 149.911 115.29 149.911 115.29L160.937 114.891L180.039 114.194L183.192 116.232C184.64 134.1 189.575 200.626 186.839 207.664Z" stroke="#263238" stroke-linecap="round" stroke-linejoin="round"/>
<path d="M158.023 184.802L164.412 184.79L164.418 186.786L162.642 187.418L158.547 187.865L158.023 184.802Z" fill="#00D555" stroke="#263238" stroke-linecap="round" stroke-linejoin="round"/>
<path d="M158.416 188.914L163.113 188.753L164.317 189.325L164.257 191.978L158.774 192.037L158.416 188.914Z" fill="#00D555" stroke="#263238" stroke-linecap="round" stroke-linejoin="round"/>
<path d="M159.167 193.152L164.531 192.764L164.471 194.773L161.879 195.691L159.137 195.536L159.167 193.152Z" fill="#00D555" stroke="#263238" stroke-linecap="round" stroke-linejoin="round"/>
<path d="M159.489 196.537L163.822 196.757L164.215 197.866L163.583 199.088L159.709 199.338L159.042 197.449L159.489 196.537Z" fill="#00D555" stroke="#263238" stroke-linecap="round" stroke-linejoin="round"/>
<path d="M164.483 200.417L165.079 202.151C165.175 202.336 165.224 202.54 165.224 202.747C165.224 202.955 165.175 203.159 165.079 203.343C164.969 203.47 164.827 203.566 164.668 203.623C164.51 203.679 164.339 203.694 164.174 203.665C163.84 203.635 163.512 203.522 163.178 203.504C162.171 203.463 161.247 204.291 160.258 204.1C159.87 203.027 158.893 201.454 160.216 200.971C160.46 200.894 164.626 200.81 164.483 200.417Z" fill="#00D555" stroke="#263238" stroke-linecap="round" stroke-linejoin="round"/>
<path d="M164.465 205.298C164.56 205.71 164.628 206.129 164.668 206.55C164.729 206.816 164.72 207.093 164.643 207.355C164.565 207.617 164.422 207.855 164.227 208.046C163.973 208.185 163.689 208.261 163.399 208.266L159.954 208.576C159.903 207.926 159.894 207.273 159.924 206.621C160.127 205.846 159.984 205.912 160.717 205.596C161.879 205.101 163.273 205.888 164.465 205.298Z" fill="#00D555" stroke="#263238" stroke-linecap="round" stroke-linejoin="round"/>
<path d="M151.938 120.988C151.938 120.988 153.237 133.546 153.297 136.031" stroke="#263238" stroke-linecap="round" stroke-linejoin="round"/>
<path d="M154.739 121.125L155.347 128.045" stroke="#263238" stroke-linecap="round" stroke-linejoin="round"/>
<path d="M164.448 118.509L165.234 126.62L166.337 126.727L165.979 118.586L164.448 118.509Z" fill="#00D555" stroke="#263238" stroke-linecap="round" stroke-linejoin="round"/>
<path opacity="0.2" d="M186.839 207.664C186.778 207.848 186.678 208.016 186.547 208.159C184.437 210.156 175.432 212.373 167.696 213.97V208.606L156.437 205.721L154.739 205.286L155.502 196.895L158.416 164.83L160.961 114.915L161.068 112.793L182.852 111.851C182.852 111.851 182.983 113.455 183.204 116.256C184.64 134.1 189.575 200.626 186.839 207.664Z" fill="black" fill-opacity="0.7"/>
</g>
<path d="M186.839 207.664C186.778 207.848 186.678 208.016 186.547 208.159C184.437 210.156 175.432 212.373 167.696 213.97C161.289 215.299 155.776 216.199 155.776 216.199C155.776 216.199 151.532 180.934 151.532 177.227C151.532 173.519 144.69 113.502 144.69 113.502L161.092 112.793L182.852 111.851C182.852 111.851 182.983 113.455 183.204 116.256C184.64 134.1 189.575 200.626 186.839 207.664Z" stroke="#263238" stroke-linecap="round" stroke-linejoin="round"/>
<path d="M198.384 287.689C198.521 286.432 196.542 268.391 196.506 266.43C196.411 261.066 194.891 254.027 194.891 254.027C192.769 248.604 191.119 236.105 185.457 228.089C179.795 220.073 179.801 210.644 178.859 202.64C177.917 194.636 178.15 195.327 178.388 188.223C178.56 182.886 178.323 177.544 177.679 172.244C177.208 167.524 176.266 159.221 177.679 155.353C179.091 151.485 182.786 150.585 186.833 154.459C190.88 158.333 192.531 174.217 192.531 176.178C192.531 178.138 192.531 184.265 193.95 186.626C193.95 186.626 201.966 182.525 201.966 181.393C201.966 180.26 201.727 170.253 202.907 169.717L198.193 154.459L207.133 151.283C208.816 152.792 210.27 154.539 211.448 156.468C212.457 158.065 213.302 159.76 213.969 161.528C217.742 171.535 223.803 178.514 225.055 181.393C226.306 184.271 225.055 207.134 225.055 211.383C225.055 215.633 222.313 235.223 222.385 238.519C222.438 240.903 224.048 249.772 225.651 256.572C226.247 259.194 229.865 278.195 230.419 279.703L198.384 287.689Z" fill="white"/>
<path opacity="0.4" d="M205.44 168.71C205.381 169.991 206.913 180.207 206.913 180.207C207.973 182.752 202.18 191.429 202.18 191.429C200.929 192.133 200.392 196.495 200.392 196.495C196.471 195.625 187.489 186.596 187.489 186.596C187.489 186.596 186.428 190.297 185.236 199.457C184.044 208.618 191.601 230.378 194.82 245.403C198.038 260.428 196.506 266.412 196.506 266.412C196.411 261.048 194.891 254.009 194.891 254.009C192.769 248.586 191.119 236.088 185.457 228.071C179.795 220.055 179.801 210.644 178.859 202.64C177.917 194.636 178.15 195.327 178.388 188.223C178.56 182.886 178.323 177.544 177.679 172.244C177.208 167.524 176.266 159.221 177.679 155.353C179.091 151.485 182.786 150.585 186.833 154.459C190.88 158.333 192.531 174.217 192.531 176.178C192.531 178.138 192.531 184.265 193.95 186.626C193.95 186.626 201.966 182.525 201.966 181.393C201.966 180.26 201.727 170.253 202.907 169.717L198.193 154.459L207.133 151.283C208.816 152.792 210.27 154.539 211.448 156.468C208.558 162.249 205.5 167.911 205.44 168.71Z" fill="#00D555"/>
<path opacity="0.4" d="M220.472 240.099C220.865 236.523 222.039 228.024 222.784 222.719C221.872 226.861 220.4 228.959 220.4 228.959C220.4 228.959 222.939 198.563 223.189 196.71C223.44 194.856 226.002 186.524 225.061 181.363C226.312 184.236 225.061 207.104 225.061 211.354C225.061 215.603 222.319 235.194 222.391 238.489C222.444 240.873 225.001 256.065 226.604 262.866C223.16 257.859 220.078 243.692 220.472 240.099Z" fill="#00D555"/>
<path d="M230.407 279.673C228.524 274.249 222.474 241.767 222.403 238.489C222.331 235.211 225.073 215.597 225.073 211.354C225.073 207.11 226.324 184.236 225.073 181.363C223.821 178.49 217.76 171.505 213.987 161.498C212.561 157.585 210.217 154.072 207.151 151.253L198.211 154.43L202.925 169.687C201.733 170.224 201.984 180.23 201.984 181.363C201.984 182.495 193.967 186.596 193.967 186.596C192.549 184.212 192.549 178.109 192.549 176.148C192.549 174.187 190.898 158.298 186.851 154.43C182.804 150.562 179.103 151.45 177.697 155.324C176.29 159.198 177.226 167.494 177.697 172.214C178.342 177.52 178.579 182.868 178.406 188.211C178.168 195.315 177.929 194.612 178.877 202.628C179.824 210.644 179.818 220.073 185.474 228.089C191.131 236.105 192.787 248.604 194.909 254.027C194.909 254.027 198.914 282.975 198.402 287.689" stroke="#263238" stroke-linecap="round" stroke-linejoin="round"/>
<path d="M193.95 186.596C193.95 186.596 195.362 193.193 198.545 196.495" stroke="#263238" stroke-linecap="round" stroke-linejoin="round"/>
<path d="M194.808 189.605C194.808 189.605 200.768 191.429 203.259 191.542" stroke="#263238" stroke-linecap="round" stroke-linejoin="round"/>
<path d="M201.966 181.363C201.966 181.363 206.209 179.402 208.921 180.582" stroke="#263238" stroke-linecap="round" stroke-linejoin="round"/>
<path d="M202.907 169.687C202.907 169.687 206.209 169.383 206.913 167.732" stroke="#263238" stroke-linecap="round" stroke-linejoin="round"/>
<path d="M186.547 229.77C186.547 229.77 192.889 237.643 194.772 241.648" stroke="#263238" stroke-linecap="round" stroke-linejoin="round"/>
<path d="M223.422 195.315C222.361 201.567 220.942 218.661 220.472 221.724" stroke="#263238" stroke-linecap="round" stroke-linejoin="round"/>
<path d="M225.448 183.526C225.627 189.188 224.256 192.133 224.256 192.133" stroke="#263238" stroke-linecap="round" stroke-linejoin="round"/>
<path d="M176.701 104.3L220.4 115.827C220.4 115.827 205.041 162.44 201.924 168.221L196.715 208.856C196.715 208.856 168.798 207.629 155.961 203.749C155.961 203.749 164.078 161.433 164.513 155.788C164.948 150.144 176.701 104.3 176.701 104.3Z" fill="#00D555"/>
<mask id="mask1_55_845" style="mask-type:luminance" maskUnits="userSpaceOnUse" x="155" y="104" width="66" height="105">
<path d="M176.701 104.3L220.4 115.827C220.4 115.827 205.041 162.44 201.924 168.221L196.715 208.856C196.715 208.856 168.798 207.629 155.961 203.749C155.961 203.749 164.078 161.433 164.513 155.788C164.948 150.144 176.701 104.3 176.701 104.3Z" fill="white"/>
</mask>
<g mask="url(#mask1_55_845)">
<path opacity="0.2" d="M167.302 153.285L176.934 112.108C176.934 112.108 181.076 110.051 182.679 108.174L213.987 117.078C213.987 117.078 214.082 120.148 215.876 122.115L200.076 167.643L196.244 201.204C196.244 201.204 191.148 201.609 190.66 205.376C190.66 205.376 174.139 206.27 163.059 203.349C163.059 203.349 161.754 199.279 159.757 196.704L167.302 153.285Z" fill="black" fill-opacity="0.7"/>
<path d="M167.302 153.285L176.934 112.108C176.934 112.108 181.076 110.051 182.679 108.174L213.987 117.078C213.987 117.078 214.082 120.148 215.876 122.115L200.076 167.643L196.244 201.204C196.244 201.204 191.148 201.609 190.66 205.376C190.66 205.376 174.139 206.27 163.059 203.349C163.059 203.349 161.754 199.279 159.757 196.704L167.302 153.285Z" stroke="#263238" stroke-linecap="round" stroke-linejoin="round"/>
<path d="M175.319 155.425C175.319 155.425 178.162 144.697 188.174 146.622C198.187 148.547 192.531 161.766 192.531 161.766C192.531 161.766 192.591 172.435 184.467 170.963C177.423 169.687 173.668 165.819 175.319 155.425Z" fill="#00D555" stroke="#263238" stroke-linecap="round" stroke-linejoin="round"/>
<path d="M180.742 116.023C180.742 116.023 177.715 128.283 176.934 130.643" stroke="#263238" stroke-linecap="round" stroke-linejoin="round"/>
<path d="M183.335 117.084L181.571 123.807" stroke="#263238" stroke-linecap="round" stroke-linejoin="round"/>
<path d="M205.44 121.799L211.466 123.92L210.804 125.81H208.921L204.91 124.868L205.44 121.799Z" fill="#00D555" stroke="#263238" stroke-linecap="round" stroke-linejoin="round"/>
<path d="M204.439 125.81L208.921 127.222L209.863 128.164L208.921 130.643L203.73 128.873L204.439 125.81Z" fill="#00D555" stroke="#263238" stroke-linecap="round" stroke-linejoin="round"/>
<path d="M203.73 130.053L208.921 131.484L208.188 133.355H205.44L202.907 132.294L203.73 130.053Z" fill="#00D555" stroke="#263238" stroke-linecap="round" stroke-linejoin="round"/>
<path d="M202.907 133.355L206.913 135.006V136.18L205.911 137.128L202.18 136.067V134.058L202.907 133.355Z" fill="#00D555" stroke="#263238" stroke-linecap="round" stroke-linejoin="round"/>
<path d="M206.323 138.677V140.513C206.354 140.715 206.337 140.922 206.274 141.116C206.211 141.311 206.103 141.488 205.959 141.633C205.811 141.714 205.645 141.757 205.476 141.757C205.307 141.757 205.141 141.714 204.993 141.633C204.689 141.49 204.397 141.276 204.111 141.151C203.176 140.775 202.025 141.246 201.131 140.745C201.131 139.607 200.732 137.801 202.139 137.765C202.371 137.783 206.323 139.094 206.323 138.677Z" fill="#00D555" stroke="#263238" stroke-linecap="round" stroke-linejoin="round"/>
<path d="M204.672 143.272C204.627 143.693 204.551 144.109 204.445 144.518C204.314 145.049 204.058 145.639 203.527 145.782C203.242 145.829 202.949 145.804 202.675 145.71L199.326 144.828C199.488 144.201 199.687 143.584 199.922 142.98C200.375 142.319 200.22 142.331 201.012 142.277C202.3 142.223 203.349 143.433 204.672 143.272Z" fill="#00D555" stroke="#263238" stroke-linecap="round" stroke-linejoin="round"/>
<path d="M193.36 117.913L191.351 125.81L192.352 126.28L194.772 118.497L193.36 117.913Z" fill="#00D555" stroke="#263238" stroke-linecap="round" stroke-linejoin="round"/>
<path d="M168.19 170.945L174.377 172.548L173.876 174.479L171.999 174.646L167.922 174.044L168.19 170.945Z" fill="#00D555" stroke="#263238" stroke-linecap="round" stroke-linejoin="round"/>
<path d="M167.535 175.027L172.118 176.052L173.143 176.911L172.416 179.462L167.094 178.138L167.535 175.027Z" fill="#00D555" stroke="#263238" stroke-linecap="round" stroke-linejoin="round"/>
<path d="M167.195 179.319L172.488 180.296L171.915 182.221L169.18 182.46L166.563 181.619L167.195 179.319Z" fill="#00D555" stroke="#263238" stroke-linecap="round" stroke-linejoin="round"/>
<path d="M166.653 182.674L170.789 183.979L170.89 185.153L169.973 186.179L166.164 185.44L165.991 183.443L166.653 182.674Z" fill="#00D555" stroke="#263238" stroke-linecap="round" stroke-linejoin="round"/>
<path d="M170.509 187.686L170.67 189.516C170.719 189.715 170.72 189.923 170.673 190.123C170.627 190.323 170.534 190.509 170.402 190.666C170.261 190.759 170.1 190.815 169.932 190.829C169.764 190.842 169.595 190.813 169.442 190.744C169.126 190.631 168.846 190.44 168.518 190.344C167.559 190.046 166.45 190.613 165.538 190.19C165.431 189.057 164.889 187.293 166.283 187.156C166.498 187.144 170.545 188.104 170.509 187.686Z" fill="#00D555" stroke="#263238" stroke-linecap="round" stroke-linejoin="round"/>
<path d="M169.263 192.407C169.255 192.84 169.215 193.273 169.144 193.7C169.055 194.237 168.852 194.85 168.34 195.035C168.058 195.107 167.763 195.107 167.481 195.035L164.072 194.439C164.187 193.799 164.34 193.166 164.531 192.544C164.924 191.847 164.769 191.87 165.556 191.751C166.808 191.567 167.952 192.681 169.263 192.407Z" fill="#00D555" stroke="#263238" stroke-linecap="round" stroke-linejoin="round"/>
<path d="M193.95 198.194C193.95 198.194 195.368 182.376 195.368 180.785" stroke="#263238" stroke-linecap="round" stroke-linejoin="round"/>
<path d="M191.119 197.485C191.119 197.485 191.715 189.26 191.822 187.83" stroke="#263238" stroke-linecap="round" stroke-linejoin="round"/>
<path d="M180.063 191.542L178.15 200.906H180.063L181.452 191.542H180.063Z" fill="#00D555" stroke="#263238" stroke-linecap="round" stroke-linejoin="round"/>
<path opacity="0.2" d="M202.025 167.989C197.889 167.124 194.2 165.855 191.47 164.025C191.47 164.025 193.449 169.711 200.464 179.402L196.691 208.856C196.691 208.856 178.471 208.058 164.704 205.704C168.935 193.784 176.624 171.195 175.712 166.719C174.478 160.574 178.835 153.321 178.835 153.321C192.609 150.842 205.965 140.43 215.131 131.627C210.465 145.424 204.094 163.9 202.025 167.989Z" fill="black" fill-opacity="0.7"/>
</g>
<path d="M176.701 104.3L220.4 115.827C220.4 115.827 205.041 162.44 201.924 168.221L196.715 208.856C196.715 208.856 168.798 207.629 155.961 203.749C155.961 203.749 164.078 161.433 164.513 155.788C164.948 150.144 176.701 104.3 176.701 104.3Z" stroke="#263238" stroke-linecap="round" stroke-linejoin="round"/>
<path d="M200.929 197.091L194.772 241.648C193.401 238.734 189.664 233.763 187.733 231.278C187.018 230.348 186.541 229.77 186.541 229.77L185.451 228.089C179.795 220.073 179.795 210.644 178.853 202.628C177.911 194.612 178.144 195.315 178.382 188.211C178.555 182.879 178.32 177.541 177.679 172.244C177.208 167.524 176.266 159.222 177.679 155.353C178.37 153.458 179.616 152.278 181.177 152.028C182.739 151.777 184.753 152.493 186.833 154.459C190.88 158.328 192.531 174.217 192.531 176.178C192.531 178.139 192.531 184.265 193.95 186.626C193.95 186.596 197.752 193.79 200.929 197.091Z" fill="white"/>
<path opacity="0.4" d="M184.986 224.913C186.273 226.558 187.149 228.93 187.733 231.278C187.018 230.348 186.541 229.77 186.541 229.77L185.451 228.089C179.795 220.073 179.795 210.644 178.853 202.628C177.911 194.612 178.144 195.315 178.382 188.211C178.555 182.879 178.32 177.541 177.679 172.244C177.208 167.524 176.266 159.222 177.679 155.354C178.37 153.458 179.616 152.278 181.177 152.028C184.157 152.874 187.137 155.908 188.174 161.099C189.962 169.812 181.898 162.774 180.033 170.158C178.167 177.543 180.879 179.533 181.994 181.393C183.108 183.252 181.684 187.353 180.033 192.86C178.382 198.367 181.451 220.389 184.986 224.913Z" fill="#00D555"/>
<path d="M200.929 197.091C197.746 193.79 193.95 186.596 193.95 186.596C192.531 184.212 192.531 178.109 192.531 176.148C192.531 174.187 190.88 158.298 186.833 154.43C182.786 150.562 179.085 151.45 177.679 155.324C176.272 159.198 177.208 167.494 177.679 172.214C178.324 177.521 178.561 182.868 178.388 188.211C178.15 195.315 177.911 194.612 178.859 202.628C179.806 210.644 179.8 220.073 185.457 228.089L186.547 229.77C186.547 229.77 192.889 237.643 194.772 241.648" stroke="#263238" stroke-linecap="round" stroke-linejoin="round"/>
<path d="M180.063 178.234C180.063 178.234 185.468 175.439 188.174 175.677" stroke="#263238" stroke-linecap="round" stroke-linejoin="round"/>
<path opacity="0.2" d="M97.5108 101.803C97.5108 101.803 83.8385 86.7479 82.8968 85.8241C81.9552 84.9003 81.2459 68.8441 78.6474 61.7755C76.0488 54.7069 74.7913 13.2015 74.7913 13.2015C74.7913 13.2015 72.3179 10.1381 65.3447 11.789C58.3714 13.4399 51.5353 10.3705 43.7575 14.8524C35.9797 19.3343 51.0645 83.4401 51.0645 83.4401L66.3757 132.235L97.5108 101.803Z" fill="black" fill-opacity="0.7"/>
<path d="M106.904 101.916C106.904 101.916 100.777 141.055 94.3877 146.241C90.6985 149.221 84.9471 150.591 79.8453 150.413C76.1501 150.281 72.7887 149.352 70.8099 147.665C66.0956 143.654 59.4859 141.532 56.196 138.94C52.9061 136.347 52.8942 127.151 50.7724 119.367C48.6507 111.583 45.5813 111.351 44.878 103.573C44.1747 95.7951 41.3377 71.9849 36.2121 65.3752C31.0865 58.7656 30.9673 53.5863 28.8456 46.8635C26.7238 40.1406 11.204 15.8178 11.204 15.8178L49.0381 8.06982C49.0381 8.06982 52.7571 23.4645 56.7384 36.0222C58.6277 41.9822 60.5766 47.3105 62.2097 50.0401C65.3454 55.3201 68.0616 60.8381 70.3331 66.5434C74.6124 71.0253 76.9547 80.9547 77.6639 89.6503L87.7959 95.3004C95.5857 97.4281 106.904 101.916 106.904 101.916Z" fill="white"/>
<path opacity="0.4" d="M106.904 101.916C106.904 101.916 100.777 141.055 94.3877 146.241C90.6984 149.221 84.947 150.591 79.8452 150.413C67.7464 147.433 64.4923 140.686 62.8533 139.053C60.6719 136.877 57.8052 123.622 59.3786 115.91C60.952 108.198 59.8196 105.343 58.5204 101.576C55.6417 93.2323 64.4208 88.7385 65.3267 85.5797C66.2326 82.4209 65.9227 64.7554 61.9712 59.01C59.8733 55.9525 54.4676 40.1943 56.7443 36.0342C58.6336 41.9942 60.5825 47.3224 62.2156 50.0521C65.3513 55.332 68.0675 60.8501 70.339 66.5553C74.6183 71.0373 76.9606 80.9666 77.6698 89.6623L87.8018 95.3123C95.5856 97.4281 106.904 101.916 106.904 101.916Z" fill="#00D555"/>
<path d="M60.7017 99.1624C60.7017 99.1624 58.5681 101.672 56.6847 101.672" stroke="#263238" stroke-linecap="round" stroke-linejoin="round"/>
<path d="M65.3446 107.644C65.3446 107.644 63.05 112.519 59.3846 113.604" stroke="#263238" stroke-linecap="round" stroke-linejoin="round"/>
<path d="M61.2679 136.216C61.2679 136.216 66.4591 133.975 67.2816 130.202" stroke="#263238" stroke-linecap="round" stroke-linejoin="round"/>
<path d="M87.8078 95.3064C87.8078 95.3064 86.5085 96.9573 86.5085 98.2864" stroke="#263238" stroke-linecap="round" stroke-linejoin="round"/>
<path d="M49.0619 8.06982C49.0619 8.06982 57.1556 41.5471 62.2335 50.064C65.3692 55.3439 68.0854 60.862 70.357 66.5672C74.6363 71.0491 76.9785 80.9845 77.6878 89.6801L87.8198 95.3302C95.5976 97.4519 106.892 101.934 106.892 101.934C106.892 101.934 100.765 141.073 94.3758 146.258C87.9867 151.444 75.572 151.658 70.804 147.653C66.036 143.648 59.48 141.52 56.1901 138.928C52.9001 136.335 52.8882 127.139 50.7665 119.355C48.6447 111.571 45.5753 111.339 44.872 103.561C44.1687 95.7831 41.3318 71.9729 36.2062 65.3633C31.0806 58.7537 30.9614 53.5744 28.8396 46.8515C26.7179 40.1287 11.204 15.8178 11.204 15.8178" stroke="#263238" stroke-linecap="round" stroke-linejoin="round"/>
<path d="M121.237 99.377L58.6635 195.697L73.4323 197.341L118.305 199.207L122.9 113.532L121.237 99.377Z" fill="#263238" stroke="#263238" stroke-linecap="round" stroke-linejoin="round"/>
<path d="M121.237 99.371L115.456 197.562L58.6635 195.696L63.1454 120.457L64.54 97.0942L89.2859 98.0896L121.237 99.371Z" fill="#757575"/>
<mask id="mask2_55_845" style="mask-type:luminance" maskUnits="userSpaceOnUse" x="58" y="97" width="64" height="101">
<path d="M121.237 99.371L115.456 197.562L58.6635 195.696L63.1454 120.457L64.54 97.0942L89.2859 98.0896L121.237 99.371Z" fill="white"/>
</mask>
<g mask="url(#mask2_55_845)">
<path d="M106.957 186.256C110.776 186.256 113.871 183.161 113.871 179.342C113.871 175.524 110.776 172.429 106.957 172.429C103.139 172.429 100.044 175.524 100.044 179.342C100.044 183.161 103.139 186.256 106.957 186.256Z" fill="#BFBFBF" stroke="#263238" stroke-miterlimit="10"/>
<path d="M105.008 174.753L109.693 175.367" stroke="#263238" stroke-linecap="round" stroke-linejoin="round"/>
<path d="M103.751 175.891L110.79 176.577" stroke="#263238" stroke-linecap="round" stroke-linejoin="round"/>
<path d="M102.97 182.829L110.015 183.514" stroke="#263238" stroke-linecap="round" stroke-linejoin="round"/>
<path d="M106.051 177.459C106.245 177.507 106.45 177.479 106.623 177.38C106.796 177.281 106.924 177.12 106.981 176.928L107.506 176.982L106.975 181.959L106.195 181.875L106.6 178.079L106.004 178.013L106.051 177.459Z" fill="#263238"/>
<path d="M108.656 177.668C108.966 177.668 109.109 177.9 109.073 178.228V178.287L108.769 178.258V178.204C108.769 178.061 108.733 177.995 108.632 177.983C108.531 177.971 108.465 178.025 108.453 178.168C108.441 178.311 108.489 178.436 108.68 178.639C108.777 178.721 108.853 178.825 108.901 178.942C108.95 179.059 108.97 179.186 108.96 179.312C108.924 179.64 108.745 179.807 108.429 179.771C108.114 179.736 107.977 179.533 108.006 179.211V179.086L108.304 179.116V179.265C108.304 179.408 108.346 179.467 108.447 179.479C108.549 179.491 108.62 179.444 108.632 179.301C108.644 179.158 108.596 179.032 108.406 178.83C108.309 178.748 108.233 178.644 108.184 178.527C108.135 178.41 108.115 178.283 108.126 178.156C108.167 177.799 108.352 177.608 108.656 177.668Z" fill="#263238"/>
<path d="M109.216 177.751L110.206 177.852L110.17 178.144L109.836 178.109L109.651 179.849L109.335 179.819L109.52 178.073L109.186 178.037L109.216 177.751Z" fill="#263238"/>
<path d="M92.4615 103.73L81.3746 101.31C81.0883 101.248 80.8057 101.429 80.7432 101.716L79.2349 108.627C79.1725 108.914 79.3539 109.196 79.6401 109.259L90.727 111.678C91.0132 111.741 91.2959 111.559 91.3584 111.273L92.8667 104.361C92.9291 104.075 92.7477 103.792 92.4615 103.73Z" fill="white" stroke="#263238" stroke-linecap="round" stroke-linejoin="round"/>
<path d="M83.32 108.126L83.2783 108.085C83.2783 108.085 83.2783 108.013 83.2485 107.983C83.2201 107.956 83.1977 107.924 83.1829 107.888C83.1803 107.876 83.1803 107.864 83.1829 107.852C83.1829 107.852 83.2127 107.852 83.2306 107.81C83.2453 107.801 83.2577 107.789 83.267 107.775C83.2763 107.76 83.2822 107.744 83.2842 107.727C83.2819 107.717 83.2819 107.707 83.2842 107.697H83.32C83.32 107.584 83.2485 107.5 83.1769 107.411C83.0041 107.196 82.9684 107.089 83.0041 106.946C83.0399 106.803 83.0995 106.761 83.2008 106.779C83.3021 106.797 83.3438 106.869 83.314 107.012V107.095L83.612 107.161V107.095C83.6523 106.99 83.6506 106.873 83.6074 106.769C83.5642 106.665 83.4826 106.581 83.3796 106.535L83.4154 106.392L83.1591 106.332L83.1293 106.481C82.8968 106.481 82.7478 106.63 82.6882 106.898C82.6655 107.018 82.6738 107.142 82.7124 107.258C82.751 107.374 82.8186 107.478 82.9087 107.56C83.0816 107.769 83.1174 107.888 83.0816 108.025C83.0458 108.162 82.9803 108.21 82.8789 108.186C82.7776 108.162 82.7299 108.096 82.7597 107.959L82.7955 107.798L82.4975 107.733V107.87C82.4729 107.924 82.4594 107.983 82.4578 108.042C82.4562 108.102 82.4665 108.161 82.4882 108.217C82.5098 108.272 82.5424 108.323 82.5839 108.366C82.6254 108.409 82.6751 108.443 82.7299 108.466V108.609L82.9862 108.669L83.016 108.52H83.171C83.2179 108.503 83.2606 108.477 83.2962 108.442C83.3325 108.406 83.3627 108.363 83.3856 108.317C83.32 108.162 83.32 108.144 83.32 108.126Z" fill="#263238"/>
<path d="M84.959 108.031C84.9564 107.983 84.9442 107.937 84.9233 107.894C84.9175 107.87 84.9175 107.846 84.9233 107.822C84.9324 107.804 84.947 107.79 84.965 107.78C85.1259 107.637 84.9292 107.447 84.7743 107.411C84.7207 107.398 84.6646 107.398 84.6114 107.413C84.5581 107.428 84.5096 107.456 84.4703 107.494L84.5955 107.03L85.1438 107.149L85.2034 106.863L84.3809 106.684C84.3635 106.724 84.3515 106.766 84.3452 106.809C84.3452 106.851 84.3988 106.863 84.3988 106.91C84.3988 106.958 84.3988 106.952 84.3988 106.976C84.4097 107.011 84.433 107.04 84.4644 107.059C84.4942 107.059 84.524 107.113 84.518 107.149C84.5221 107.16 84.5221 107.173 84.518 107.184C84.4954 107.239 84.4557 107.285 84.4048 107.316C84.3813 107.32 84.3602 107.333 84.3452 107.351V107.387C84.3452 107.429 84.2975 107.453 84.2617 107.477C84.226 107.5 84.1366 107.691 84.1008 107.822L84.3988 107.888V107.828C84.4286 107.685 84.5061 107.649 84.6014 107.667C84.6968 107.685 84.7564 107.757 84.7206 107.9L84.6253 108.341C84.6253 108.478 84.524 108.52 84.4226 108.496C84.3213 108.472 84.2736 108.412 84.3034 108.269L84.3452 108.084L84.0472 108.019L84.0114 108.186C83.9883 108.25 83.9793 108.319 83.9849 108.388C83.9905 108.456 84.0107 108.523 84.0441 108.583C84.0774 108.643 84.1232 108.695 84.1784 108.736C84.2335 108.777 84.2967 108.805 84.3639 108.82C84.431 108.834 84.5004 108.835 84.5676 108.82C84.6347 108.806 84.698 108.777 84.7532 108.736C84.8084 108.695 84.8542 108.643 84.8877 108.583C84.9211 108.523 84.9414 108.457 84.9471 108.388C84.9683 108.27 84.9723 108.15 84.959 108.031Z" fill="#263238"/>
<path d="M88.8508 108.865C88.8453 108.818 88.8333 108.772 88.8151 108.728C88.8093 108.705 88.8093 108.68 88.8151 108.657C88.8242 108.639 88.8388 108.624 88.8568 108.615C89.0117 108.472 88.8151 108.281 88.6661 108.245C88.6125 108.232 88.5564 108.233 88.5032 108.247C88.4499 108.262 88.4014 108.29 88.3621 108.329L88.4873 107.864L89.0356 107.983L89.0952 107.697L88.2727 107.518C88.2527 107.557 88.2405 107.6 88.2369 107.643C88.2369 107.685 88.2846 107.697 88.2906 107.745C88.2965 107.792 88.2906 107.787 88.2906 107.81C88.3015 107.845 88.3248 107.875 88.3561 107.894C88.3859 107.894 88.4157 107.947 88.4098 107.983C88.4038 108.019 88.4098 107.983 88.4098 108.019C88.3869 108.075 88.3446 108.122 88.2906 108.15C88.2695 108.156 88.2507 108.169 88.2369 108.186C88.2369 108.186 88.2369 108.186 88.2369 108.222C88.2369 108.257 88.1952 108.287 88.1595 108.311C88.1237 108.335 88.0343 108.526 87.9985 108.657L88.2965 108.722V108.663C88.3263 108.52 88.4038 108.484 88.4992 108.502C88.5945 108.52 88.6482 108.591 88.6184 108.734L88.523 109.175C88.523 109.312 88.4217 109.354 88.3204 109.33C88.2191 109.306 88.1714 109.247 88.2012 109.104L88.2429 108.919L87.9449 108.853L87.9091 109.02C87.8911 109.083 87.8862 109.149 87.8946 109.213C87.903 109.278 87.9246 109.34 87.9581 109.396C87.9915 109.452 88.0361 109.501 88.089 109.539C88.142 109.577 88.2022 109.604 88.2659 109.618C88.3296 109.632 88.3955 109.632 88.4595 109.62C88.5235 109.607 88.5842 109.581 88.6379 109.544C88.6917 109.507 88.7372 109.46 88.7718 109.404C88.8063 109.349 88.8292 109.287 88.8389 109.223C88.8628 109.105 88.8668 108.984 88.8508 108.865Z" fill="#263238"/>
<path d="M85.6384 107.441C85.6682 107.298 85.7457 107.256 85.8411 107.28C85.8716 107.284 85.8998 107.299 85.9205 107.322C85.9412 107.345 85.9532 107.374 85.9543 107.405H86.0556C86.0591 107.422 86.0662 107.439 86.0765 107.453C86.0867 107.468 86.1 107.48 86.1152 107.489C86.151 107.518 86.1987 107.536 86.2404 107.566C86.26 107.503 86.2662 107.437 86.2584 107.372C86.2507 107.307 86.2292 107.244 86.1954 107.188C86.1617 107.131 86.1163 107.083 86.0624 107.045C86.0085 107.008 85.9473 106.982 85.8828 106.97C85.8171 106.948 85.7472 106.941 85.6785 106.951C85.6098 106.96 85.5442 106.985 85.4866 107.023C85.429 107.062 85.3811 107.113 85.3464 107.173C85.3118 107.233 85.2914 107.3 85.2868 107.369C85.284 107.407 85.284 107.445 85.2868 107.483C85.2868 107.578 85.2868 107.548 85.3821 107.584C85.4775 107.62 85.5073 107.667 85.4239 107.697H85.4775C85.4775 107.697 85.4775 107.739 85.4775 107.757C85.4775 107.775 85.4775 107.787 85.4477 107.81C85.4532 107.826 85.4532 107.843 85.4477 107.858C85.4477 107.858 85.4 107.936 85.3881 107.947C85.3707 107.977 85.3461 108.002 85.3166 108.019C85.2391 108.067 85.2033 108.019 85.1795 108.138C85.1557 108.257 85.1497 108.269 85.1378 108.329C85.1149 108.394 85.1061 108.464 85.112 108.532C85.1179 108.601 85.1384 108.668 85.172 108.729C85.2057 108.789 85.2518 108.842 85.3073 108.883C85.3627 108.924 85.4264 108.953 85.4939 108.968C85.5614 108.983 85.6313 108.983 85.699 108.969C85.7667 108.955 85.8306 108.927 85.8865 108.886C85.9424 108.845 85.9891 108.793 86.0233 108.733C86.0576 108.673 86.0788 108.606 86.0854 108.538L86.1808 108.12H86.145C86.0744 108.088 86.0066 108.051 85.9424 108.007L85.8887 107.959L85.7695 108.496C85.7695 108.639 85.6623 108.681 85.5669 108.657C85.4715 108.633 85.4179 108.567 85.4477 108.424L85.6205 107.614C85.6166 107.563 85.6292 107.513 85.6563 107.471L85.6384 107.441Z" fill="#263238"/>
<path d="M87.1045 108.424H87.1343C87.1343 108.394 87.1343 108.365 87.1343 108.323H87.2654L87.3668 107.864C87.3897 107.799 87.3984 107.729 87.3925 107.66C87.3866 107.591 87.3662 107.525 87.3325 107.464C87.2989 107.404 87.2528 107.351 87.1973 107.31C87.1418 107.269 87.0782 107.24 87.0107 107.225C86.9431 107.21 86.8732 107.21 86.8055 107.224C86.7378 107.238 86.6739 107.266 86.618 107.307C86.5621 107.348 86.5155 107.4 86.4812 107.46C86.4469 107.52 86.4258 107.586 86.4191 107.655V107.739C86.4608 107.774 86.4847 107.834 86.5264 107.864C86.5681 107.894 86.6337 107.864 86.6158 107.965C86.5979 108.067 86.58 108.049 86.6158 108.078C86.6516 108.108 86.6575 108.078 86.6635 108.12C86.6707 108.13 86.6747 108.141 86.6747 108.153C86.6747 108.165 86.6707 108.176 86.6635 108.186C86.6635 108.186 86.6218 108.186 86.6158 108.239C86.6098 108.293 86.6158 108.329 86.58 108.341C86.5443 108.353 86.4668 108.269 86.4012 108.275C86.3778 108.282 86.3565 108.295 86.3398 108.313C86.323 108.331 86.3113 108.353 86.3059 108.376C86.2755 108.478 86.2536 108.581 86.2403 108.686C86.2186 108.749 86.211 108.816 86.2182 108.883C86.2254 108.949 86.2471 109.013 86.2818 109.07C86.3166 109.127 86.3634 109.175 86.4191 109.212C86.4748 109.249 86.5379 109.273 86.6039 109.282C86.6716 109.301 86.7425 109.304 86.8115 109.291C86.8806 109.279 86.946 109.251 87.0032 109.211C87.056 109.165 87.1004 109.111 87.1343 109.05C87.1611 109.019 87.1759 108.98 87.1759 108.94C87.1759 108.899 87.1611 108.86 87.1343 108.829H87.1045L87.0628 108.686C87.0628 108.686 87.0628 108.686 87.1045 108.651C87.1463 108.615 87.1045 108.537 87.1641 108.496C87.2237 108.454 87.0926 108.436 87.1045 108.424ZM86.8542 108.829C86.8244 108.972 86.7469 109.014 86.6456 108.99C86.5443 108.966 86.4966 108.901 86.5264 108.758L86.7648 107.685C86.7946 107.542 86.8661 107.5 86.9674 107.524C87.0688 107.548 87.1165 107.614 87.0867 107.757L86.8542 108.829Z" fill="#263238"/>
<path d="M87.635 109.163L87.5695 109.467L87.2655 109.402L87.3311 109.098L87.635 109.163Z" fill="#263238"/>
<path d="M90.1263 108.633C90.1621 108.633 90.1621 108.496 90.174 108.448C90.1969 108.383 90.2057 108.313 90.1998 108.245C90.1939 108.176 90.1734 108.109 90.1398 108.048C90.1061 107.988 90.06 107.935 90.0045 107.894C89.949 107.853 89.8854 107.824 89.8179 107.809C89.7504 107.794 89.6805 107.794 89.6128 107.808C89.5451 107.822 89.4812 107.85 89.4253 107.891C89.3694 107.932 89.3227 107.984 89.2884 108.044C89.2541 108.104 89.233 108.171 89.2264 108.24L89.137 108.639C89.2144 108.71 89.137 108.824 89.1727 108.907C89.2085 108.99 89.1727 108.907 89.1727 108.943C89.1727 108.979 89.0833 108.996 89.0833 109.044C89.0833 109.044 89.0356 109.116 89.0058 109.151C88.987 109.18 88.9767 109.213 88.976 109.247C88.9532 109.312 88.9444 109.381 88.9503 109.45C88.9562 109.519 88.9766 109.586 89.0103 109.646C89.044 109.707 89.09 109.759 89.1455 109.801C89.201 109.842 89.2646 109.871 89.3321 109.886C89.3997 109.901 89.4696 109.901 89.5373 109.887C89.605 109.873 89.6689 109.844 89.7248 109.804C89.7807 109.763 89.8273 109.711 89.8616 109.651C89.8959 109.591 89.9171 109.524 89.9237 109.455L89.9952 109.128C89.9952 109.044 90.1025 108.824 89.9952 108.758C89.8879 108.692 89.9475 108.758 89.9356 108.716C89.9283 108.703 89.9245 108.687 89.9245 108.672C89.9245 108.656 89.9283 108.641 89.9356 108.627C90.0071 108.567 90.0608 108.669 90.1263 108.633ZM89.7628 109.157C89.7628 109.193 89.7032 109.205 89.6734 109.253C89.6504 109.312 89.6364 109.374 89.6316 109.437C89.6018 109.58 89.5244 109.616 89.429 109.598C89.3336 109.581 89.274 109.509 89.3098 109.366C89.3098 109.324 89.3634 109.205 89.3515 109.169C89.3396 109.133 89.2919 109.169 89.2681 109.098C89.2502 109.035 89.2502 108.969 89.2681 108.907C89.271 108.893 89.271 108.879 89.2681 108.865C89.2681 108.865 89.2383 108.812 89.2681 108.788C89.2681 108.788 89.2681 108.71 89.2681 108.657C89.4588 108.728 89.4528 108.436 89.4826 108.317C89.5124 108.198 89.5899 108.132 89.6853 108.156C89.7806 108.18 89.8343 108.245 89.8045 108.383C89.764 108.504 89.74 108.63 89.733 108.758C89.7579 108.762 89.7808 108.774 89.798 108.792C89.8153 108.811 89.826 108.834 89.8283 108.859C89.8224 108.891 89.8224 108.923 89.8283 108.955C89.8283 108.955 89.8283 109.008 89.8283 109.032C89.8283 109.056 89.7926 109.032 89.7687 109.032C89.7523 109.039 89.7376 109.049 89.7262 109.063C89.7148 109.076 89.7068 109.092 89.7032 109.11L89.7628 109.157Z" fill="#263238"/>
<path d="M86.7947 104.3L88.8092 104.741" stroke="#263238" stroke-linecap="round" stroke-linejoin="round"/>
<path d="M82.2174 103.299L85.7934 104.085" stroke="#263238" stroke-linecap="round" stroke-linejoin="round"/>
<path d="M81.9194 104.681L84.2796 105.194" stroke="#263238" stroke-linecap="round" stroke-linejoin="round"/>
<path opacity="0.4" d="M61.2679 194.826C64.3999 194.007 67.6204 193.575 70.8576 193.539C76.6745 193.396 80.3936 194.499 85.1616 192.138C89.9296 189.778 93.0228 194.028 97.5822 191.668C102.142 189.307 104.257 185.529 106.892 185.612C109.526 185.696 113.448 143.481 114.711 136.216C115.975 128.95 118.663 108.698 119.587 104.586L114.395 196.114L61.2679 194.826Z" fill="white"/>
<path d="M61.5183 176.815L76.0547 194.498L60.7018 193.545L61.5183 176.815Z" fill="#0D4EE1" stroke="#263238" stroke-linecap="round" stroke-linejoin="round"/>
<path d="M100.097 141.848L99.8649 148.577C99.8326 149.516 99.6156 150.439 99.2264 151.294C98.8372 152.149 98.2833 152.919 97.5965 153.56C96.9096 154.201 96.1032 154.7 95.2234 155.029C94.3435 155.359 93.4074 155.511 92.4685 155.478L85.5549 155.234C84.6134 155.202 83.6876 154.984 82.8306 154.593C81.9736 154.202 81.2023 153.645 80.561 152.955C79.9197 152.265 79.421 151.455 79.0936 150.572C78.7662 149.689 78.6166 148.749 78.6532 147.808L78.9632 139.047C79.03 137.152 79.8467 135.361 81.2336 134.068C82.6206 132.774 84.4644 132.085 86.3595 132.151L93.2731 132.389C93.4638 132.389 93.6546 132.389 93.8691 132.431C92.9017 133.362 92.291 134.602 92.1434 135.936C91.9957 137.27 92.3203 138.614 93.0608 139.734C93.8014 140.853 94.9109 141.678 96.1965 142.064C97.482 142.451 98.8623 142.374 100.097 141.848Z" fill="#0D4EE1" stroke="#263238" stroke-linecap="round" stroke-linejoin="round"/>
<path d="M101.343 136.037C101.321 136.684 101.108 137.31 100.731 137.836C100.354 138.361 99.8288 138.764 99.2229 138.991C98.6169 139.219 97.9571 139.261 97.3269 139.114C96.6967 138.966 96.1244 138.635 95.6825 138.162C95.2405 137.689 94.9487 137.096 94.8439 136.457C94.7392 135.819 94.8262 135.163 95.094 134.574C95.3618 133.985 95.7984 133.488 96.3484 133.147C96.8985 132.806 97.5374 132.636 98.1842 132.658C99.0506 132.689 99.8694 133.062 100.461 133.695C101.053 134.328 101.37 135.17 101.343 136.037Z" fill="#0D4EE1" stroke="#263238" stroke-linecap="round" stroke-linejoin="round"/>
<path opacity="0.4" d="M80.6201 148.642L90.7819 139.953C90.7819 139.953 89.4946 135.298 90.7819 133.826H85.9007C84.7252 133.822 83.5925 134.267 82.734 135.07C81.8756 135.873 81.3561 136.974 81.2817 138.147L80.6201 148.642Z" fill="white"/>
<path opacity="0.4" d="M96.6883 136.216L98.8637 133.832C98.8637 133.832 97.5108 132.92 96.6883 133.832C95.8658 134.744 96.6883 136.216 96.6883 136.216Z" fill="white"/>
<path d="M95.6273 188.133L112.011 188.843" stroke="#263238" stroke-linecap="round" stroke-linejoin="round"/>
<path d="M89.9535 189.784L112.011 190.964" stroke="#263238" stroke-linecap="round" stroke-linejoin="round"/>
<path d="M106.236 194.499H112.011" stroke="#263238" stroke-linecap="round" stroke-linejoin="round"/>
<path opacity="0.2" d="M86.1569 134.32C77.7057 138.385 68.5511 124.147 65.3446 122.186C64.5541 121.687 63.8171 121.108 63.1454 120.457L64.54 97.0942L89.28 98.0896C89.1191 101.57 89.1727 105.414 89.9475 107.626C91.6163 112.447 94.6023 130.262 86.1569 134.32Z" fill="black" fill-opacity="0.7"/>
<path opacity="0.4" d="M76.6865 135.048C76.6865 135.048 83.4452 137.98 86.5086 136.24C89.572 134.499 92.8739 131.174 93.3447 123.789C93.3447 123.789 97.3677 134.189 89.2562 137.306C81.1446 140.423 76.6865 135.048 76.6865 135.048Z" fill="white"/>
<path opacity="0.4" d="M74.0521 139.208C74.0521 139.208 87.7601 142.891 93.6248 136.228C93.6248 136.228 92.838 139.929 86.5085 140.996C80.179 142.062 74.0521 139.208 74.0521 139.208Z" fill="white"/>
<path opacity="0.4" d="M96.0982 115.397C95.0552 113.544 96.3366 130.202 96.3366 130.202C96.3366 130.202 98.22 119.2 96.0982 115.397Z" fill="white"/>
</g>
<path d="M121.237 99.371L115.456 197.562L58.6635 195.696L63.1454 120.457L64.54 97.0942L89.2859 98.0896L121.237 99.371Z" stroke="#263238" stroke-linecap="round" stroke-linejoin="round"/>
<path opacity="0.4" d="M118.365 198.087L116.297 197.562L121.237 107.644L122.114 113.58L118.365 198.087Z" fill="white"/>
<path d="M86.1569 134.321C85.3753 134.736 84.5063 134.959 83.6213 134.973C82.7364 134.986 81.8609 134.789 81.0671 134.398C79.6932 133.677 78.5846 132.537 77.9023 131.144C75.5481 126.9 69.1769 117.233 68.0027 114.456C66.8286 111.678 64.2301 103.823 61.6375 100.527C59.0449 97.2315 57.6264 92.2727 57.6264 92.2727L56.6847 44.1755C58.0972 51.1309 61.9891 59.0279 61.9891 59.0279C65.3704 60.7873 68.2434 63.3854 70.3331 66.5732C70.9414 67.221 71.4862 67.9255 71.9602 68.6771C75.8103 74.6371 77.6758 85.3651 77.8785 93.7091C78.1169 103.144 81.1803 107.417 86.1331 115.636C91.0858 123.855 89.3753 132.491 86.1569 134.321Z" fill="white"/>
<path opacity="0.4" d="M86.1569 134.321C85.3722 134.726 84.5042 134.944 83.6211 134.957C82.738 134.971 81.8638 134.779 81.0671 134.398C83.7729 133.659 87.3251 132.27 86.5085 130.226C85.2271 126.96 81.4783 131.805 79.5949 130.226C77.7116 128.647 70.8695 119.587 75.2143 115.6C79.5592 111.613 78.1943 104.926 75.2143 103.042C72.2343 101.159 74.1713 96.6712 75.113 89.6086C75.709 85.3353 73.6647 75.6563 71.984 68.6711C75.8342 74.6311 77.6997 85.3591 77.9023 93.7031C78.1407 103.138 81.2041 107.411 86.1569 115.63C91.1096 123.849 89.3753 132.604 86.1569 134.321Z" fill="#00D555"/>
<path d="M56.6847 44.1458C58.0972 51.1011 61.9891 58.9981 61.9891 58.9981C65.3704 60.7575 68.2434 63.3556 70.3331 66.5434C75.2859 71.7286 77.646 84.2267 77.8785 93.6555C78.1109 103.084 81.1803 107.363 86.1331 115.582C91.0858 123.801 89.7091 132.372 86.1331 134.321C83.6418 135.685 80.2386 135.387 77.8785 131.144C75.5183 126.9 69.153 117.233 67.9789 114.456C66.8048 111.679 64.2062 103.823 61.6136 100.527C59.021 97.2315 57.6025 92.2728 57.6025 92.2728" stroke="#263238" stroke-linecap="round" stroke-linejoin="round"/>
<path d="M71.996 113.58C71.996 113.58 75.8461 113.234 77.6103 111.792" stroke="#263238" stroke-linecap="round" stroke-linejoin="round"/>
<path d="M56.214 93.2205C56.214 93.2205 55.463 95.0085 59.3966 96.7965" stroke="#263238" stroke-linecap="round" stroke-linejoin="round"/>
</svg>
