<svg width="302" height="66" viewBox="0 0 302 66" fill="none" xmlns="http://www.w3.org/2000/svg">
<g clip-path="url(#clip0_78_83)">
<path d="M9.47792 44.6566V65.1112H0.715454V30.2021H9.09059V36.134H9.5263C10.3816 34.1794 11.7452 32.6263 13.617 31.4748C15.505 30.3233 17.8369 29.7476 20.6124 29.7476C23.1783 29.7476 25.4133 30.2628 27.3174 31.293C29.2377 32.3233 30.7223 33.8157 31.7713 35.7703C32.8363 37.7248 33.3607 40.0961 33.3446 42.8839V65.1112H24.5822V44.1566C24.5822 41.8233 23.9367 39.9976 22.6458 38.6794C21.3709 37.3612 19.6039 36.7021 17.3447 36.7021C15.8117 36.7021 14.4481 37.0203 13.254 37.6566C12.076 38.2779 11.1481 39.1794 10.4704 40.3612C9.8087 41.543 9.47792 42.9748 9.47792 44.6566ZM55.6447 65.793C51.9171 65.793 48.6978 65.0658 45.9867 63.6112C43.2918 62.1415 41.2182 60.0658 39.7659 57.3839C38.3135 54.6869 37.5874 51.5127 37.5874 47.8612C37.5874 44.2703 38.3135 41.1188 39.7659 38.4067C41.2344 35.6794 43.2837 33.5581 45.9141 32.043C48.5444 30.5127 51.6347 29.7476 55.1848 29.7476C57.4763 29.7476 59.6387 30.0961 61.6719 30.793C63.7214 31.4748 65.5287 32.5355 67.094 33.9748C68.6754 35.4142 69.918 37.2476 70.8217 39.4748C71.7253 41.6869 72.1772 44.3233 72.1772 47.3839V49.9067H41.7024V44.3612H63.7779C63.7617 42.7854 63.3986 41.3839 62.6886 40.1566C61.9786 38.9142 60.9861 37.937 59.7113 37.2248C58.4527 36.5127 56.9841 36.1566 55.3059 36.1566C53.5146 36.1566 51.9413 36.5658 50.5858 37.3839C49.2303 38.1869 48.1733 39.2476 47.4149 40.5658C46.6726 41.8688 46.2933 43.3006 46.2772 44.8612V49.7021C46.2772 51.7324 46.6726 53.4748 47.4633 54.9294C48.254 56.3688 49.3593 57.4748 50.7794 58.2476C52.1995 59.0052 53.8616 59.3839 55.7658 59.3839C57.0406 59.3839 58.1944 59.2172 59.2272 58.8839C60.2599 58.5355 61.1556 58.0278 61.914 57.3612C62.6724 56.6945 63.2454 55.8688 63.6326 54.8839L71.8141 55.7476C71.2977 57.7779 70.3134 59.5506 68.8611 61.0658C67.4248 62.5658 65.5852 63.7324 63.3421 64.5658C61.0991 65.3839 58.5333 65.793 55.6447 65.793ZM82.8889 30.2021L90.3926 43.0884L98.0175 30.2021H107.289L96.0805 47.6566L107.482 65.1112H98.2599L90.3926 52.543L82.5985 65.1112H73.3035L84.6317 47.6566L73.5939 30.2021H82.8889Z" fill="black"/>
<path d="M111.386 64.9898V18.4443H129.976C133.784 18.4443 136.979 19.111 139.561 20.4443C142.159 21.7777 144.119 23.611 145.443 25.9443C146.782 28.2625 147.452 30.8989 147.452 33.8534C147.452 36.8382 146.782 39.4898 145.443 41.808C144.103 44.1261 142.127 45.9519 139.513 47.2853C136.899 48.6034 133.679 49.2625 129.854 49.2625H117.534V42.3307H128.644C130.871 42.3307 132.695 41.967 134.115 41.2397C135.535 40.5125 136.584 39.5125 137.261 38.2397C137.955 36.967 138.303 35.5049 138.303 33.8534C138.303 32.2019 137.955 30.7474 137.261 29.4898C136.584 28.2322 135.527 27.2549 134.091 26.558C132.671 25.8459 130.839 25.4898 128.596 25.4898H120.366V59.0807L111.386 64.9898ZM151.798 64.9898V30.0807H160.294V35.8989H160.681C161.359 33.8837 162.521 32.3307 164.167 31.2397C165.829 30.1337 167.725 29.5807 169.855 29.5807C170.339 29.5807 170.88 29.6034 171.476 29.6489C172.09 29.6792 172.598 29.7322 173.002 29.808V37.3762C172.63 37.2549 172.042 37.1489 171.235 37.058C170.444 36.9519 169.678 36.8989 168.935 36.8989C167.337 36.8989 165.901 37.2246 164.627 37.8762C163.368 38.5125 162.376 39.3989 161.65 40.5352C160.923 41.6716 160.56 42.9822 160.56 44.467V64.9898H151.798ZM190.443 65.6716C186.812 65.6716 183.665 64.9216 181.002 63.4216C178.34 61.9216 176.274 59.8231 174.806 57.1261C173.354 54.4292 172.628 51.2777 172.628 47.6716C172.628 44.0655 173.354 40.9064 174.806 38.1943C176.274 35.4822 178.34 33.3762 181.002 31.8762C183.665 30.3762 186.812 29.6261 190.443 29.6261C194.073 29.6261 197.22 30.3762 199.883 31.8762C202.545 33.3762 204.603 35.4822 206.055 38.1943C207.524 40.9064 208.258 44.0655 208.258 47.6716C208.258 51.2777 207.524 54.4292 206.055 57.1261C204.603 59.8231 202.545 61.9216 199.883 63.4216C197.22 64.9216 194.073 65.6716 190.443 65.6716ZM190.491 59.0807C192.46 59.0807 194.106 58.5731 195.429 57.558C196.753 56.5277 197.736 55.1489 198.382 53.4216C199.044 51.6943 199.375 49.7701 199.375 47.6489C199.375 45.5125 199.044 43.5807 198.382 41.8534C197.736 40.111 196.753 38.7246 195.429 37.6943C194.106 36.664 192.46 36.1489 190.491 36.1489C188.474 36.1489 186.796 36.664 185.456 37.6943C184.133 38.7246 183.141 40.111 182.479 41.8534C181.833 43.5807 181.511 45.5125 181.511 47.6489C181.511 49.7701 181.833 51.6943 182.479 53.4216C183.141 55.1489 184.133 56.5277 185.456 57.558C186.796 58.5731 188.474 59.0807 190.491 59.0807ZM213.015 18.4443L219.163 25.111L238.721 52.1716H239.302L258.451 25.9999L265.008 18.4443V64.9898H256.391V33.0125H255.931L241.411 61.111L239.044 64.9898L222.092 32.9444H221.632V64.9898H213.015V18.4443ZM282.032 65.6943C279.676 65.6943 277.554 65.3004 275.666 64.5125C273.794 63.7095 272.309 62.5277 271.212 60.967C270.131 59.4064 269.59 57.4822 269.59 55.1943C269.59 53.2246 269.978 51.5958 270.752 50.308C271.526 49.0201 272.584 47.9898 273.924 47.2171C275.263 46.4444 276.771 45.861 278.45 45.467C280.144 45.058 281.895 44.7625 283.702 44.5807C285.88 44.3685 287.648 44.1792 289.004 44.0125C290.359 43.8307 291.343 43.558 291.956 43.1943C292.586 42.8156 292.9 42.2322 292.9 41.4444V41.308C292.9 39.5958 292.36 38.2701 291.279 37.3307C290.197 36.3913 288.64 35.9216 286.607 35.9216C284.46 35.9216 282.758 36.361 281.5 37.2397C280.257 38.1186 279.418 39.1565 278.982 40.3534L270.8 39.2625C271.446 37.1413 272.511 35.3685 273.995 33.9444C275.481 32.5049 277.296 31.4292 279.442 30.7171C281.588 29.9898 283.961 29.6261 286.558 29.6261C288.349 29.6261 290.133 29.8231 291.908 30.2171C293.683 30.611 295.305 31.2625 296.773 32.1716C298.242 33.0655 299.42 34.2853 300.307 35.8307C301.211 37.3762 301.663 39.308 301.663 41.6261V64.9898H293.239V60.1943H292.949C292.417 61.164 291.666 62.0731 290.697 62.9216C289.746 63.7549 288.544 64.4292 287.091 64.9444C285.655 65.4444 283.969 65.6943 282.032 65.6943ZM284.307 59.6489C286.066 59.6489 287.591 59.3231 288.882 58.6716C290.174 58.0049 291.166 57.1261 291.86 56.0352C292.57 54.9444 292.925 53.7549 292.925 52.467V48.3534C292.65 48.5655 292.183 48.7625 291.521 48.9444C290.875 49.1261 290.149 49.2853 289.343 49.4216C288.535 49.558 287.737 49.6792 286.945 49.7853C286.155 49.8913 285.47 49.9822 284.888 50.058C283.581 50.2246 282.412 50.4973 281.379 50.8762C280.346 51.2549 279.531 51.7853 278.934 52.467C278.337 53.1337 278.038 53.9973 278.038 55.058C278.038 56.5731 278.627 57.7171 279.805 58.4898C280.983 59.2625 282.484 59.6489 284.307 59.6489Z" fill="#0D4EE1"/>
</g>
<path d="M137.5 5L139.445 8.23197L143 9.9993L139.445 11.768L137.5 15L135.556 11.768L132 9.9993L135.556 8.23197L137.5 5Z" fill="#00D555"/>
<path d="M156.5 14L158.092 15.9392L161 16.9996L158.092 18.0608L156.5 20L154.91 18.0608L152 16.9996L154.91 15.9392L156.5 14Z" fill="#00D555"/>
<path d="M114 0L116.828 4.84815L122 7.49936L116.828 10.1519L114 15L111.172 10.1519L106 7.49936L111.172 4.84815L114 0Z" fill="#00D555"/>
<path d="M91 15L94.8893 21.1411L102 24.5L94.8893 27.8578L91 34L87.1107 27.8578L80 24.5L87.1107 21.1411L91 15Z" fill="#00D555"/>
<defs>
<clipPath id="clip0_78_83">
<rect width="302" height="48" fill="white" transform="translate(0 18)"/>
</clipPath>
</defs>
</svg>
