<svg width="292" height="264" viewBox="0 0 292 264" fill="none" xmlns="http://www.w3.org/2000/svg">
<g clip-path="url(#clip0_55_506)">
<path d="M279.541 254.57L274.065 254.57L271.459 233.353H279.542L279.541 254.57Z" fill="#9E616A"/>
<path d="M280.938 259.902L263.279 259.902V259.677C263.279 257.847 264.003 256.091 265.292 254.796C266.581 253.501 268.33 252.774 270.152 252.774L280.938 252.774L280.938 259.902Z" fill="#2F2E41"/>
<path d="M234.96 254.39L229.633 253.114L232 231.868L239.862 233.752L234.96 254.39Z" fill="#9E616A"/>
<path d="M235.087 259.902L217.91 255.787L217.962 255.569C218.385 253.788 219.495 252.248 221.048 251.29C222.601 250.331 224.469 250.03 226.243 250.455L236.734 252.969L235.087 259.902Z" fill="#2F2E41"/>
<path d="M255.624 75.054C262.022 75.054 267.208 69.8449 267.208 63.4193C267.208 56.9937 262.022 51.7847 255.624 51.7847C249.227 51.7847 244.041 56.9937 244.041 63.4193C244.041 69.8449 249.227 75.054 255.624 75.054Z" fill="#9E616A"/>
<path d="M282.981 146.394C282.981 146.394 288.374 152.813 281.583 162.643C274.793 172.472 268.52 182.101 268.52 182.101L253.342 210.987L237.137 249.351C237.137 249.351 227.351 246.542 226.952 245.339C226.552 244.135 238.563 205.571 238.563 205.571C238.563 205.571 240.897 190.192 243.494 185.177C246.09 180.162 252.603 141.837 258.795 141.436C264.986 141.035 282.981 146.394 282.981 146.394Z" fill="#0D4EE1"/>
<path d="M281.942 157.828L282.659 188.921C282.659 188.921 286.074 215.356 284.077 224.584C282.08 233.812 281.261 248.9 281.261 248.9L271.076 247.897L270.277 211.99C270.277 211.99 267.481 205.972 268.28 203.364C269.079 200.756 264.885 179.292 264.885 179.292L281.942 157.828Z" fill="#0D4EE1"/>
<path d="M248.151 147.397C254.142 153.815 283.98 148.398 283.98 148.398L283.582 143.785L283.999 139.575L282.801 119.916C282.341 112.036 282.299 104.137 282.677 96.2532C282.713 95.3901 282.661 94.5255 282.522 93.673C280.464 81.0941 269.88 73.3868 269.319 73.5769C269.038 73.67 266.036 75.2415 262.903 76.8943C259.307 78.7916 255.541 80.7976 255.541 80.7976C250.747 82.6056 251.546 111.492 249.947 114.099C248.348 116.707 249.947 125.732 249.947 125.732L248.151 134.357C248.151 134.357 242.16 140.98 248.151 147.397Z" fill="#CACACA"/>
<path opacity="0.1" d="M267.507 83.7155C267.507 83.7155 273.099 100.566 271.9 112C270.702 123.434 257.721 156.131 257.721 156.131L253.327 158.538V164.155L250.237 155.747L258.735 137.899C258.735 137.899 248.135 76.2934 267.507 83.7155Z" fill="black"/>
<path d="M259.438 68.3684C259.38 67.645 259.223 66.9332 258.97 66.2533C258.461 65.2923 257.293 64.8897 256.214 64.7953C254.836 64.6748 253.447 64.9145 252.067 64.8196C250.687 64.7247 249.213 64.1965 248.526 62.9906C248.317 62.478 248.058 61.9875 247.753 61.5262C246.997 60.6582 245.618 60.7928 244.531 61.1648C243.444 61.5368 242.31 62.0802 241.199 61.7891C240.264 59.1632 241.415 56.134 243.405 54.1895C245.395 52.2451 248.079 51.1988 250.745 50.4188C254.261 49.3901 258.218 48.7821 261.45 50.5104C266.138 53.0165 267.792 59.6493 267.36 64.5933C267.196 66.462 266.929 68.5782 265.425 69.84C263.22 71.6893 260.103 71.5305 259.438 68.3684Z" fill="#2F2E41"/>
<path d="M248.715 172.165C249.253 171.732 249.69 171.185 249.995 170.563C250.3 169.941 250.466 169.26 250.48 168.567C250.495 167.874 250.358 167.186 250.079 166.552C249.8 165.918 249.387 165.354 248.867 164.898L255.153 149.279L246.609 151.008L241.95 165.575C241.245 166.502 240.903 167.657 240.989 168.821C241.076 169.985 241.584 171.076 242.418 171.888C243.252 172.701 244.354 173.178 245.514 173.229C246.675 173.28 247.814 172.901 248.715 172.165Z" fill="#9E616A"/>
<path d="M266.923 80.9996C266.923 80.9996 272.515 97.8497 271.316 109.284C270.118 120.718 257.137 153.415 257.137 153.415L252.743 155.822V161.439L243.556 158.831L245.553 152.212C245.553 152.212 242.358 148.2 244.555 146.996C246.752 145.792 246.352 139.173 246.352 139.173C246.352 139.173 247.55 73.5775 266.923 80.9996Z" fill="#CACACA"/>
<path d="M210.808 262.377H11.9143V-0.306152H210.808V262.377Z" fill="white"/>
<path d="M210.808 262.377H11.9143V-0.306152H210.808V262.377ZM13.6847 260.598H209.038V1.47209H13.6847V260.598Z" fill="#E4E4E4"/>
<path d="M180.256 66.1399H41.8079V75.4106H180.256V66.1399Z" fill="#E4E4E4"/>
<path d="M162.455 33.0303H73.4529V37.6656H162.455V33.0303Z" fill="#E4E4E4"/>
<path d="M180.256 86.668H41.8079V95.9387H180.256V86.668Z" fill="#E4E4E4"/>
<path d="M180.256 107.196H41.8079V116.467H180.256V107.196Z" fill="#E4E4E4"/>
<path d="M49.06 43.6255C53.7934 43.6255 57.6306 39.7713 57.6306 35.017C57.6306 30.2626 53.7934 26.4084 49.06 26.4084C44.3266 26.4084 40.4894 30.2626 40.4894 35.017C40.4894 39.7713 44.3266 43.6255 49.06 43.6255Z" fill="#0D4EE1"/>
<path d="M180.256 137.955H40.4894V223.378H180.256V137.955Z" fill="#00D555"/>
<path d="M48.3708 235.364C47.5061 234.494 46.3328 234.004 45.1088 234.003C43.8849 234.002 42.7106 234.489 41.8442 235.358C40.9779 236.226 40.4906 237.405 40.4894 238.634C40.4882 239.863 40.9733 241.043 41.8379 241.913L48.358 248.475L54.8909 241.926C55.3199 241.496 55.6603 240.985 55.8928 240.423C56.1252 239.861 56.2452 239.258 56.2458 238.649C56.2464 238.041 56.1276 237.438 55.8962 236.875C55.6648 236.313 55.3254 235.801 54.8972 235.37C54.4691 234.94 53.9607 234.598 53.401 234.364C52.8414 234.131 52.2414 234.01 51.6353 234.01C51.0293 234.009 50.4291 234.128 49.8689 234.361C49.3088 234.593 48.7997 234.934 48.3708 235.364Z" fill="#FF6582"/>
<path d="M298.439 264H-15.7785C-15.887 264 -15.9911 263.901 -16.0678 263.725C-16.1445 263.549 -16.1876 263.311 -16.1876 263.062C-16.1876 262.813 -16.1445 262.574 -16.0678 262.398C-15.9911 262.222 -15.887 262.123 -15.7785 262.123H298.439C298.548 262.123 298.652 262.222 298.729 262.398C298.806 262.574 298.849 262.813 298.849 263.062C298.849 263.311 298.806 263.549 298.729 263.725C298.652 263.901 298.548 264 298.439 264Z" fill="#CACACA"/>
<path d="M175.512 124.968C180.564 124.968 184.66 120.855 184.66 115.78C184.66 110.706 180.564 106.593 175.512 106.593C170.46 106.593 166.365 110.706 166.365 115.78C166.365 120.855 170.46 124.968 175.512 124.968Z" fill="white"/>
<path d="M175.512 106.593C173.703 106.593 171.935 107.131 170.43 108.141C168.926 109.151 167.753 110.586 167.061 112.264C166.369 113.943 166.188 115.791 166.541 117.573C166.894 119.355 167.765 120.992 169.044 122.277C170.323 123.562 171.953 124.437 173.728 124.792C175.502 125.146 177.341 124.964 179.013 124.269C180.684 123.574 182.113 122.396 183.118 120.885C184.123 119.374 184.66 117.598 184.66 115.78C184.66 113.344 183.696 111.007 181.98 109.284C180.265 107.561 177.938 106.593 175.512 106.593ZM173.322 119.792C173.322 119.861 173.295 119.927 173.247 119.975C173.198 120.024 173.133 120.051 173.064 120.051H171.003C170.935 120.051 170.869 120.024 170.821 119.975C170.772 119.927 170.745 119.861 170.745 119.792V114.875C170.745 114.806 170.772 114.74 170.821 114.692C170.869 114.643 170.935 114.616 171.003 114.616H173.064C173.133 114.616 173.198 114.643 173.247 114.692C173.295 114.74 173.322 114.806 173.322 114.875V119.792ZM180.279 115.91C180.279 116.116 180.198 116.313 180.053 116.459C179.908 116.605 179.711 116.686 179.506 116.686V116.699C179.652 116.729 179.782 116.809 179.876 116.924C179.97 117.04 180.022 117.184 180.022 117.333C180.022 117.483 179.97 117.627 179.876 117.743C179.782 117.858 179.652 117.938 179.506 117.967V118.239C179.643 118.239 179.774 118.294 179.871 118.391C179.967 118.488 180.022 118.62 180.022 118.757C180.022 118.894 179.967 119.026 179.871 119.123C179.774 119.22 179.643 119.274 179.506 119.274H174.353C174.284 119.274 174.219 119.247 174.171 119.199C174.122 119.15 174.095 119.084 174.095 119.016V114.875C174.095 113.581 176.156 111.769 176.156 111.769V111.138C176.156 110.946 176.226 110.761 176.353 110.617C176.48 110.474 176.654 110.382 176.844 110.359C177.034 110.337 177.225 110.385 177.382 110.494C177.539 110.604 177.65 110.768 177.694 110.954L177.703 110.992C177.803 111.904 177.581 112.823 177.077 113.588H178.663C178.686 113.586 178.709 113.581 178.733 113.581H179.506C179.301 113.992 179.267 114.469 179.412 114.906C179.557 115.343 179.869 115.704 180.279 115.91Z" fill="#5E90FF"/>
<path d="M188.929 75.3537C196.001 75.3537 201.735 69.5947 201.735 62.4906C201.735 55.3865 196.001 49.6274 188.929 49.6274C181.856 49.6274 176.122 55.3865 176.122 62.4906C176.122 69.5947 181.856 75.3537 188.929 75.3537Z" fill="white"/>
<path d="M188.929 49.6274C186.396 49.6274 183.92 50.3818 181.814 51.7953C179.708 53.2087 178.066 55.2176 177.097 57.5681C176.128 59.9185 175.874 62.5048 176.368 65C176.862 67.4952 178.082 69.7872 179.873 71.5861C181.664 73.3851 183.946 74.6102 186.43 75.1065C188.914 75.6028 191.489 75.3481 193.829 74.3745C196.169 73.4009 198.17 71.7522 199.577 69.6369C200.984 67.5216 201.735 65.0346 201.735 62.4906C201.735 59.079 200.386 55.8073 197.984 53.395C195.582 50.9827 192.325 49.6274 188.929 49.6274ZM185.862 68.1068C185.862 68.2029 185.824 68.2951 185.757 68.363C185.689 68.431 185.597 68.4692 185.501 68.4692H182.616C182.52 68.4692 182.428 68.431 182.36 68.363C182.293 68.2951 182.255 68.2029 182.255 68.1068V61.2223C182.255 61.1263 182.293 61.0341 182.36 60.9661C182.428 60.8982 182.52 60.86 182.616 60.86H185.501C185.597 60.86 185.689 60.8982 185.757 60.9661C185.824 61.0341 185.862 61.1263 185.862 61.2223V68.1068ZM195.602 62.6717C195.602 62.96 195.488 63.2365 195.285 63.4403C195.082 63.6442 194.807 63.7587 194.52 63.7587V63.777C194.724 63.8188 194.907 63.9299 195.038 64.0917C195.17 64.2534 195.242 64.4558 195.242 64.6646C195.242 64.8734 195.17 65.0758 195.038 65.2375C194.907 65.3992 194.724 65.5104 194.52 65.5522V65.9328C194.711 65.9328 194.895 66.0091 195.03 66.145C195.166 66.2809 195.242 66.4653 195.242 66.6575C195.242 66.8497 195.166 67.034 195.03 67.1699C194.895 67.3058 194.711 67.3821 194.52 67.3821H187.305C187.21 67.3821 187.118 67.344 187.05 67.276C186.982 67.2081 186.944 67.1159 186.944 67.0198V61.2223C186.944 59.4106 189.83 56.8742 189.83 56.8742V55.9909C189.83 55.7223 189.928 55.4629 190.105 55.262C190.283 55.061 190.528 54.9325 190.793 54.9008C191.059 54.8691 191.327 54.9363 191.546 55.0898C191.765 55.2434 191.921 55.4724 191.984 55.7336C191.988 55.7513 191.991 55.7691 191.995 55.7872C192.356 57.5989 191.119 59.4206 191.119 59.4206H193.339C193.372 59.4176 193.404 59.4106 193.438 59.4106H194.52C194.807 59.4106 195.082 59.5252 195.285 59.729C195.488 59.9329 195.602 60.2094 195.602 60.4977C195.602 60.786 195.488 61.0625 195.285 61.2663C195.082 61.4702 194.807 61.5847 194.52 61.5847C194.807 61.5847 195.082 61.6992 195.285 61.9031C195.488 62.1069 195.602 62.3834 195.602 62.6717Z" fill="#5E90FF"/>
<path d="M193.206 136.621C193.083 136.737 192.92 136.802 192.751 136.802C192.581 136.802 192.418 136.737 192.295 136.621L191.945 136.303C189.08 133.663 187.425 131.948 187.425 129.809C187.425 128.065 188.524 126.717 190.248 126.717C190.725 126.719 191.197 126.826 191.629 127.03C192.061 127.234 192.444 127.53 192.752 127.897C193.058 127.53 193.441 127.234 193.873 127.03C194.305 126.826 194.776 126.719 195.253 126.717C196.979 126.717 198.076 128.06 198.076 129.809C198.076 131.943 196.421 133.659 193.556 136.303L193.206 136.621Z" fill="#FF6584"/>
<path d="M172.28 100.036C172.043 100.258 171.731 100.382 171.406 100.382C171.082 100.382 170.77 100.258 170.533 100.036L169.862 99.4271C164.373 94.368 161.203 91.0811 161.203 86.9832C161.203 83.6405 163.309 81.0574 166.611 81.0574C167.526 81.0626 168.429 81.2676 169.257 81.658C170.086 82.0485 170.82 82.6151 171.409 83.3187C171.997 82.6152 172.73 82.0486 173.557 81.6581C174.385 81.2676 175.287 81.0627 176.202 81.0574C179.508 81.0574 181.61 83.632 181.61 86.9832C181.61 91.0725 178.44 94.3594 172.951 99.4271L172.28 100.036Z" fill="#FF6584"/>
<path d="M173.151 42.7925C172.843 43.0808 172.437 43.2412 172.016 43.2412C171.595 43.2412 171.19 43.0808 170.882 42.7925L170.01 42.0011C162.88 35.4303 158.763 31.1612 158.763 25.8387C158.763 21.4972 161.499 18.1421 165.788 18.1421C166.976 18.1489 168.149 18.4151 169.225 18.9222C170.301 19.4294 171.254 20.1653 172.019 21.0792C172.783 20.1655 173.735 19.4295 174.81 18.9224C175.885 18.4152 177.057 18.149 178.245 18.1421C182.539 18.1421 185.269 21.486 185.269 25.8387C185.269 31.15 181.152 35.4191 174.022 42.0011L173.151 42.7925Z" fill="#FF6584"/>
</g>
<defs>
<clipPath id="clip0_55_506">
<rect width="292" height="264" fill="white"/>
</clipPath>
</defs>
</svg>
