<svg width="302" height="281" viewBox="0 0 302 281" fill="none" xmlns="http://www.w3.org/2000/svg">
<g clip-path="url(#clip0_55_135)">
<path d="M280.523 154.513C277.534 179.871 265.966 209.345 242.86 222.889C207.956 243.352 210.901 274.831 142.745 288.493C132.809 290.539 122.681 291.496 112.539 291.347C107.576 291.262 102.624 290.857 97.7132 290.136C54.4099 283.829 25.2707 253.706 14.5821 217.344C0.511661 169.524 28.6027 138.215 47.2218 119.356C65.841 100.498 79.4809 41.7191 146.351 27.7378C156.554 25.5657 166.972 24.5767 177.4 24.7905C201.192 25.3712 227.143 33.1892 245.1 49.5122C246.448 50.7611 247.759 52.01 249.038 53.3151C273.996 78.9548 284.604 119.95 280.523 154.513Z" fill="#00D555"/>
<path opacity="0.7" d="M280.523 154.513C277.534 179.871 265.966 209.345 242.86 222.889C207.956 243.352 210.901 274.831 142.745 288.493C132.809 290.539 122.681 291.496 112.539 291.347C107.576 291.262 102.624 290.857 97.7132 290.136C54.4099 283.829 25.2707 253.706 14.5821 217.344C0.511661 169.524 28.6027 138.215 47.2218 119.356C65.841 100.498 79.4809 41.7191 146.351 27.7378C156.554 25.5657 166.972 24.5767 177.4 24.7905C201.192 25.3712 227.143 33.1892 245.1 49.5122C246.448 50.7611 247.759 52.01 249.038 53.3151C273.996 78.9548 284.604 119.95 280.523 154.513Z" fill="white"/>
<path d="M260.824 263.89V193.422" stroke="#263238" stroke-linecap="round" stroke-linejoin="round"/>
<path d="M255.115 263.89V228.946" stroke="#263238" stroke-linecap="round" stroke-linejoin="round"/>
<path d="M262.609 204.974C262.609 204.974 256.856 204.318 254.497 199.76C252.139 195.201 251.914 183.443 260.874 170.411C269.834 157.379 274.533 157.241 276.093 167.876C277.653 178.51 277.428 193.952 273.759 199.803C270.09 205.655 262.609 204.974 262.609 204.974Z" fill="white" stroke="#263238" stroke-linecap="round" stroke-linejoin="round"/>
<path d="M264.649 180.427C265.71 176.805 266.977 173.558 268.449 171.335" stroke="#263238" stroke-linecap="round" stroke-linejoin="round"/>
<path d="M260.194 204.193C260.984 197.027 262.234 189.918 263.938 182.912" stroke="#263238" stroke-linecap="round" stroke-linejoin="round"/>
<path d="M266.035 227.847C266.035 227.847 262.341 224.981 262.64 220.86C262.94 216.738 267.682 208.527 279.294 203.319C290.906 198.111 294.219 199.96 290.85 207.94C287.48 215.92 280.866 226.48 275.874 228.978C270.883 231.475 266.035 227.847 266.035 227.847Z" fill="white" stroke="#263238" stroke-linecap="round" stroke-linejoin="round"/>
<path d="M277.709 211.774C279.955 209.726 282.189 208.027 284.13 207.103" stroke="#263238" stroke-linecap="round" stroke-linejoin="round"/>
<path d="M276.218 213.185C272.108 217.304 268.269 221.684 264.724 226.299C264.724 226.299 261.748 230.308 260.868 238.269" stroke="#263238" stroke-linecap="round" stroke-linejoin="round"/>
<path d="M263.938 251.651C263.938 251.651 261.798 249.99 261.972 247.605C262.147 245.219 264.893 240.461 271.625 237.439C278.358 234.416 280.267 235.497 278.314 240.124C276.361 244.751 272.53 250.864 269.647 252.307C266.765 253.749 263.938 251.651 263.938 251.651Z" fill="white" stroke="#263238" stroke-linecap="round" stroke-linejoin="round"/>
<path d="M270.683 242.366C271.796 241.29 273.057 240.38 274.427 239.662" stroke="#263238" stroke-linecap="round" stroke-linejoin="round"/>
<path d="M269.822 243.184C267.442 245.566 265.218 248.101 263.164 250.771C263.164 250.771 261.436 253.094 260.924 257.708" stroke="#263238" stroke-linecap="round" stroke-linejoin="round"/>
<path d="M255.608 218.318C255.608 218.318 259.296 215.452 259.002 211.331C258.709 207.209 253.961 198.998 242.342 193.79C230.724 188.582 227.423 190.431 230.793 198.411C234.162 206.391 240.776 216.951 245.768 219.449C250.76 221.946 255.608 218.318 255.608 218.318Z" fill="white" stroke="#263238" stroke-linecap="round" stroke-linejoin="round"/>
<path d="M243.934 202.245C242.021 200.394 239.858 198.821 237.507 197.574" stroke="#263238" stroke-linecap="round" stroke-linejoin="round"/>
<path d="M245.425 203.656C249.532 207.776 253.369 212.156 256.912 216.77C256.912 216.77 259.888 220.779 260.774 228.74" stroke="#263238" stroke-linecap="round" stroke-linejoin="round"/>
<path d="M253.792 250.146C253.792 250.146 257.536 250.265 259.408 248.011C261.28 245.756 262.403 239.462 257.723 231.775C253.044 224.088 250.055 223.551 248.183 229.171C246.311 234.791 245.219 243.028 247.091 246.468C248.963 249.909 253.792 250.146 253.792 250.146Z" fill="white" stroke="#263238" stroke-linecap="round" stroke-linejoin="round"/>
<path d="M254.379 244.414C254.435 245.182 254.473 245.95 254.491 246.712" stroke="#263238" stroke-linecap="round" stroke-linejoin="round"/>
<path d="M251.509 228.803C252.781 233.329 253.687 237.95 254.217 242.622" stroke="#263238" stroke-linecap="round" stroke-linejoin="round"/>
<path d="M12.4107 204.63H98.774V28.2249" stroke="#263238" stroke-linecap="round" stroke-linejoin="round"/>
<path d="M190.422 204.63H104.059V28.2249" stroke="#263238" stroke-linecap="round" stroke-linejoin="round"/>
<path d="M139.307 204.63H225.67V28.2249" stroke="#263238" stroke-linecap="round" stroke-linejoin="round"/>
<path d="M208.049 69.6443L177.862 103.027" stroke="#263238" stroke-linecap="round" stroke-linejoin="round"/>
<path d="M191.302 95.4712L182.928 104.732" stroke="#263238" stroke-linecap="round" stroke-linejoin="round"/>
<path d="M124.768 60.877L108.464 78.9047" stroke="#263238" stroke-linecap="round" stroke-linejoin="round"/>
<path d="M129.174 56.4871L140.193 44.3042" stroke="#263238" stroke-linecap="round" stroke-linejoin="round"/>
<path d="M95.2485 168.082L84.6723 179.778" stroke="#263238" stroke-linecap="round" stroke-linejoin="round"/>
<path d="M91.7232 152.489L72.1119 174.176" stroke="#263238" stroke-linecap="round" stroke-linejoin="round"/>
<path d="M290.646 84.228C297.055 68.1844 289.254 49.9792 273.223 43.5655C257.192 37.1518 239 44.9583 232.592 61.0019C226.183 77.0454 233.983 95.2506 250.015 101.664C266.046 108.078 284.237 100.272 290.646 84.228Z" stroke="#0D4EE1" stroke-linecap="round" stroke-linejoin="round"/>
<path d="M261.629 99.9298C276.699 99.9298 288.915 87.7041 288.915 72.6229C288.915 57.5417 276.699 45.3159 261.629 45.3159C246.56 45.3159 234.343 57.5417 234.343 72.6229C234.343 87.7041 246.56 99.9298 261.629 99.9298Z" stroke="#0D4EE1" stroke-linecap="round" stroke-linejoin="round"/>
<path d="M261.629 74.49C262.66 74.49 263.495 73.6541 263.495 72.623C263.495 71.5918 262.66 70.7559 261.629 70.7559C260.599 70.7559 259.764 71.5918 259.764 72.623C259.764 73.6541 260.599 74.49 261.629 74.49Z" stroke="#0D4EE1" stroke-linecap="round" stroke-linejoin="round"/>
<path d="M261.629 74.49V83.6631" stroke="#0D4EE1" stroke-linecap="round" stroke-linejoin="round"/>
<path d="M259.764 72.6228H237.513" stroke="#0D4EE1" stroke-linecap="round" stroke-linejoin="round"/>
<path d="M119.658 148.131L109.375 132.158C115.641 122.021 117.765 109.858 115.306 98.1949C112.848 86.5319 105.995 76.2645 96.1713 69.5246C86.3475 62.7848 74.3073 60.0901 62.5506 62.0002C50.7939 63.9103 40.2239 70.2784 33.0352 79.7823C25.8465 89.2862 22.5914 101.196 23.9457 113.038C25.3 124.881 31.1598 135.746 40.3083 143.379C49.4568 151.011 61.1912 154.825 73.0751 154.027C84.959 153.229 96.0795 147.882 104.128 139.095L119.658 148.131Z" fill="#263238" stroke="#263238" stroke-linecap="round" stroke-linejoin="round"/>
<path d="M120.638 144.247L110.349 128.273C116.603 118.141 118.718 105.987 116.254 94.335C113.791 82.683 106.938 72.4282 97.118 65.6997C87.2983 58.9711 75.2665 56.2857 63.5205 58.2011C51.7745 60.1164 41.2169 66.4854 34.0395 75.9856C26.8621 85.4858 23.6164 97.3874 24.9763 109.219C26.3362 121.051 32.1972 131.905 41.3424 139.526C50.4876 147.147 62.2145 150.951 74.0882 150.148C85.962 149.344 97.0704 143.995 105.107 135.211L120.638 144.247Z" fill="white" stroke="#263238" stroke-linecap="round" stroke-linejoin="round"/>
<path d="M38.4613 110.527V106.199L45.5496 95.2966C46.0862 94.4911 46.5916 93.7043 47.072 92.9487C47.5342 92.2168 47.9269 91.4433 48.2451 90.6382C48.5507 89.8542 48.7052 89.0195 48.7006 88.1779C48.7531 87.5032 48.5725 86.8308 48.1889 86.2734C48.0208 86.069 47.8077 85.9063 47.5663 85.798C47.325 85.6896 47.0618 85.6386 46.7975 85.6489C46.5169 85.6328 46.236 85.6732 45.9713 85.7675C45.7066 85.8619 45.4635 86.0084 45.2563 86.1984C44.8686 86.6037 44.6082 87.1139 44.5075 87.6659C44.3639 88.3411 44.2948 89.03 44.3016 89.7203V91.169H38.3864V89.5954C38.3646 87.9988 38.6506 86.4129 39.2288 84.9246C39.7561 83.5816 40.6927 82.439 41.9056 81.6587C43.3555 80.8037 45.0227 80.3893 46.7039 80.466C49.3703 80.466 51.3795 81.1571 52.7314 82.5392C54.0833 83.9213 54.7614 85.8467 54.7656 88.3153C54.7768 89.4539 54.5845 90.5853 54.1977 91.6561C53.8076 92.7033 53.3033 93.7043 52.694 94.6409C52.07 95.6088 51.4086 96.6142 50.6973 97.6695L45.275 105.787H53.9606V110.527H38.4613Z" fill="#0D4EE1" stroke="#0D4EE1" stroke-linecap="round" stroke-linejoin="round"/>
<path d="M65.2482 110.527V103.876H56.1196V99.3679L63.8568 80.8469H70.9637V99.3305H73.7092V103.876H70.9637V110.527H65.2482ZM60.7744 99.2868H65.2482V86.9727L60.7744 99.2868Z" fill="#0D4EE1" stroke="#0D4EE1" stroke-linecap="round" stroke-linejoin="round"/>
<path d="M75.9867 110.527L85.0717 80.822H88.2976L79.1752 110.527H75.9867Z" fill="#0D4EE1" stroke="#0D4EE1" stroke-linecap="round" stroke-linejoin="round"/>
<path d="M92.2535 110.527L98.7053 85.4804H90.5938V80.822H104.664V85.037L98.2311 110.527H92.2535Z" fill="#0D4EE1" stroke="#0D4EE1" stroke-linecap="round" stroke-linejoin="round"/>
<path d="M44.2268 129.56C43.4992 129.587 42.7788 129.407 42.149 129.042C41.5949 128.692 41.1598 128.182 40.901 127.58C40.6052 126.883 40.4321 126.139 40.3894 125.382L41.6373 125.008C41.6919 125.59 41.8069 126.166 41.9805 126.725C42.1159 127.197 42.3872 127.618 42.7604 127.936C43.1767 128.258 43.6955 128.418 44.2205 128.386C44.7992 128.419 45.3687 128.229 45.8116 127.855C46.0183 127.628 46.1755 127.36 46.2733 127.069C46.371 126.777 46.4072 126.469 46.3795 126.163C46.3913 125.541 46.2175 124.93 45.8803 124.408C45.48 123.836 45.0175 123.311 44.5013 122.841L41.8058 120.243C41.3648 119.827 41.0032 119.334 40.7388 118.788C40.5101 118.271 40.3951 117.711 40.4019 117.146C40.3729 116.693 40.4427 116.24 40.6065 115.817C40.7703 115.395 41.0241 115.013 41.3503 114.698C42.0457 114.11 42.9364 113.804 43.8461 113.843C44.3429 113.837 44.8375 113.909 45.3125 114.055C45.7363 114.185 46.1219 114.416 46.4356 114.729C46.7634 115.073 47.0125 115.484 47.1657 115.934C47.3578 116.517 47.4793 117.121 47.5276 117.733L46.2796 118.058C46.244 117.493 46.1392 116.935 45.9676 116.397C45.8379 115.977 45.5778 115.609 45.2251 115.347C44.8113 115.082 44.3241 114.956 43.8337 114.985C43.2737 114.96 42.7231 115.135 42.28 115.479C42.0652 115.67 41.8971 115.907 41.7889 116.174C41.6807 116.44 41.6352 116.728 41.656 117.015C41.6511 117.406 41.732 117.794 41.8931 118.151C42.1261 118.576 42.4348 118.955 42.8041 119.269L45.5121 121.829C46.115 122.385 46.6454 123.014 47.0908 123.703C47.5328 124.407 47.7625 125.225 47.7522 126.057C47.7753 126.73 47.6204 127.398 47.3029 127.992C47.0182 128.502 46.5821 128.91 46.055 129.16C45.4837 129.43 44.8585 129.567 44.2268 129.56Z" fill="#263238" stroke="#263238" stroke-linecap="round" stroke-linejoin="round"/>
<path d="M49.6678 129.372V113.999H55.2211V115.116H51.1278V120.886H54.4661V121.948H51.1278V128.286H55.2647V129.372H49.6678Z" fill="#263238" stroke="#263238" stroke-linecap="round" stroke-linejoin="round"/>
<path d="M57.2365 129.372V113.999H60.7057C61.4875 113.961 62.2662 114.12 62.9707 114.461C63.5099 114.76 63.9289 115.236 64.1563 115.81C64.4132 116.478 64.5362 117.191 64.5182 117.908C64.5223 118.451 64.4573 118.992 64.3247 119.519C64.2214 119.993 64.0076 120.436 63.7008 120.811C63.3632 121.186 62.9071 121.433 62.4092 121.511L64.7615 129.372H63.3576L61.1051 121.817H58.6529V129.372H57.2365ZM58.6529 120.755H60.6059C61.1253 120.785 61.6429 120.672 62.1034 120.43C62.4602 120.214 62.728 119.878 62.8584 119.481C63.0271 118.974 63.1052 118.442 63.0893 117.908C63.1424 117.164 62.9707 116.422 62.5964 115.778C62.2657 115.31 61.6167 115.079 60.6433 115.079H58.6529V120.755Z" fill="#263238" stroke="#263238" stroke-linecap="round" stroke-linejoin="round"/>
<path d="M66.9828 129.372V113.999H68.4242V129.372H66.9828Z" fill="#263238" stroke="#263238" stroke-linecap="round" stroke-linejoin="round"/>
<path d="M73.8652 129.372L70.2649 113.999H71.6501L74.5515 126.762L77.2783 114.03H78.6198L75.1506 129.404L73.8652 129.372Z" fill="#263238" stroke="#263238" stroke-linecap="round" stroke-linejoin="round"/>
<path d="M80.4917 129.372V113.999H81.9331V129.372H80.4917Z" fill="#263238" stroke="#263238" stroke-linecap="round" stroke-linejoin="round"/>
<path d="M88.204 129.56C87.3585 129.62 86.5167 129.401 85.8079 128.935C85.2393 128.5 84.8293 127.89 84.6411 127.199C84.4158 126.412 84.3065 125.596 84.3167 124.777V118.645C84.3046 117.8 84.416 116.959 84.6474 116.147C84.8431 115.468 85.2605 114.874 85.8329 114.461C86.5391 114.011 87.3679 113.793 88.204 113.836C88.9641 113.796 89.7192 113.981 90.3754 114.367C90.9062 114.734 91.3027 115.265 91.5047 115.878C91.7459 116.628 91.8619 117.413 91.8479 118.201V119.132H90.4752V118.245C90.4831 117.664 90.4287 117.084 90.313 116.515C90.2344 116.076 90.0021 115.68 89.6578 115.397C89.2309 115.101 88.7157 114.96 88.1977 114.998C87.6488 114.96 87.1033 115.11 86.6503 115.422C86.2896 115.735 86.0437 116.159 85.9514 116.628C85.8243 117.221 85.7636 117.826 85.7705 118.432V124.983C85.7595 125.614 85.8329 126.244 85.9889 126.856C86.0937 127.316 86.3565 127.725 86.7314 128.011C87.1672 128.286 87.6772 128.419 88.1915 128.392C88.712 128.427 89.2284 128.279 89.6516 127.974C89.9961 127.67 90.2271 127.258 90.3067 126.806C90.4212 126.228 90.4756 125.64 90.469 125.051V124.046H91.8354V124.958C91.8472 125.766 91.7399 126.572 91.5172 127.349C91.343 127.996 90.9562 128.566 90.4191 128.967C89.7621 129.394 88.9865 129.602 88.204 129.56Z" fill="#263238" stroke="#263238" stroke-linecap="round" stroke-linejoin="round"/>
<path d="M94.0817 129.372V113.999H99.6413V115.116H95.5418V120.886H98.88V121.948H95.5418V128.286H99.6787V129.372H94.0817Z" fill="#263238" stroke="#263238" stroke-linecap="round" stroke-linejoin="round"/>
<path d="M203.214 199.928H236.639C236.639 199.928 218.544 244.458 221.958 264.346H188.082C188.082 264.346 194.403 213.491 203.214 199.928Z" fill="#263238" stroke="#263238" stroke-linecap="round" stroke-linejoin="round"/>
<path d="M174.293 136.01C174.293 136.01 174.623 142.036 185.836 145.552C197.049 149.067 208.43 145.552 214.788 150.547C221.146 155.543 220.978 163.274 218.8 167.126C216.623 170.979 213.11 174.826 223.486 179.347C233.863 183.868 227.667 197.1 223.318 201.958C218.969 206.816 211.462 209.158 203.07 207.484C194.678 205.811 184.831 185.547 174.124 174.826C163.417 164.104 162.107 144.328 168.939 138.658C175.771 132.988 174.293 136.01 174.293 136.01Z" fill="#263238" stroke="#263238" stroke-linecap="round" stroke-linejoin="round"/>
<path d="M172.571 114.336C172.571 114.336 177.188 112.319 178.373 116.209C179.559 120.1 179.908 130.79 179.908 130.79L177.413 130.197C177.413 130.197 178.005 118.108 175.279 116.209C172.552 114.311 170.424 118.582 170.424 118.582L172.571 114.336Z" fill="#A6A6A6" stroke="#263238" stroke-linecap="round" stroke-linejoin="round"/>
<path d="M120.738 244.395L136.511 235.953C136.511 235.953 135.42 219.386 135.576 218.762C135.732 218.137 139.681 185.722 139.681 185.722L128.862 217.825L120.738 244.395Z" fill="#263238" stroke="#263238" stroke-linecap="round" stroke-linejoin="round"/>
<path d="M190.472 169.075C190.472 169.075 206.071 177.58 208.168 178.441C210.264 179.303 209.029 190.15 209.029 197.237C209.029 204.325 198.421 264.178 198.421 264.178H119.864C119.864 264.178 133.136 243.814 133.491 238.5C133.847 233.186 131.545 228.934 131.189 223.801C130.833 218.668 138.446 187.315 139.681 185.71C140.917 184.105 146.233 180.046 146.233 180.046L164.989 163.605L173.662 161.656L190.472 169.075Z" fill="#00D555" stroke="#263238" stroke-linecap="round" stroke-linejoin="round"/>
<path d="M138.408 244.258L135.788 249.653" stroke="#263238" stroke-linecap="round" stroke-linejoin="round"/>
<path d="M140.923 228.759C140.923 228.759 137.029 231.413 138.976 232.83C140.923 234.248 141.809 237.258 141.809 237.258L139.313 242.122" stroke="#263238" stroke-linecap="round" stroke-linejoin="round"/>
<path d="M159.261 241.66C160.316 241.741 161.426 241.804 162.587 241.835" stroke="#263238" stroke-linecap="round" stroke-linejoin="round"/>
<path d="M142.508 237.289C142.508 237.289 146.745 240.124 155.973 241.335" stroke="#263238" stroke-linecap="round" stroke-linejoin="round"/>
<path d="M131.95 124.052C131.204 124.417 130.582 124.993 130.161 125.709C129.741 126.426 129.541 127.25 129.585 128.08C129.585 131.165 132.081 137.203 132.081 137.203L133.504 136.735C133.504 136.735 130.902 130.453 131.258 128.199C131.373 127.541 131.667 126.928 132.107 126.427C132.547 125.926 133.117 125.556 133.754 125.357L133.279 123.815L131.95 124.052Z" fill="#A6A6A6" stroke="#263238" stroke-linecap="round" stroke-linejoin="round"/>
<path d="M138.046 139.919C138.67 143.042 137.603 145.858 135.707 146.226C133.81 146.595 131.788 144.353 131.189 141.231C130.59 138.109 131.632 135.286 133.529 134.924C135.426 134.562 137.447 136.803 138.046 139.919Z" fill="white" stroke="#263238" stroke-linecap="round" stroke-linejoin="round"/>
<path d="M143.806 138.914C144.985 142.898 143.606 146.826 140.723 147.656C137.841 148.487 134.546 145.976 133.36 141.992C132.175 138.008 133.56 134.081 136.443 133.25C139.326 132.42 142.626 134.93 143.806 138.914Z" fill="#263238" stroke="#263238" stroke-linecap="round" stroke-linejoin="round"/>
<path d="M154.494 160.632L157.296 169.749L148.086 181.364L146.551 190.337C146.551 190.337 145.022 215.939 145.896 219.886C146.769 223.832 146.769 224.919 146.769 224.919C146.769 224.919 165.8 202.813 175.204 189.244C184.607 175.675 186.791 167.351 186.791 167.351L177.606 162.356L173.238 141.999L154.494 160.632Z" fill="white" stroke="#263238" stroke-linecap="round" stroke-linejoin="round"/>
<path d="M169.02 151.809L157.296 169.749L154.026 159.19L169.02 151.809Z" fill="#263238" stroke="#263238" stroke-linecap="round" stroke-linejoin="round"/>
<path d="M146.632 189.831L146.545 190.337C146.545 190.337 145.016 215.939 145.89 219.886C146.763 223.832 146.763 224.919 146.763 224.919C146.763 224.919 165.794 202.813 175.197 189.244C175.934 188.183 176.62 187.152 177.275 186.153C165.501 190.187 153.496 190.256 146.632 189.831Z" fill="white" stroke="#263238" stroke-linecap="round" stroke-linejoin="round"/>
<path d="M142.021 104.738C142.021 104.738 133.254 110.071 132.306 118.126C131.358 126.182 134.677 134.836 135.981 138.271C137.285 141.705 141.784 155.1 144.149 157.71C146.514 160.32 154.213 164.223 155.518 164.935C156.822 165.646 159.186 165.409 161.202 163.985C163.217 162.562 171.504 152.496 172.808 150.123C174.112 147.75 174.343 142.536 174.343 142.536C174.343 142.536 174.105 132.108 173.638 125.357C173.17 118.607 173.519 112.082 167.953 106.393C162.387 100.704 147.468 100.586 142.021 104.738Z" fill="white" stroke="#263238" stroke-linecap="round" stroke-linejoin="round"/>
<path d="M173.638 125.357C173.163 118.601 173.519 112.082 167.953 106.393C162.387 100.704 147.468 100.586 142.021 104.738C142.021 104.738 133.254 110.071 132.306 118.126C131.757 122.81 132.649 127.68 133.741 131.627C135.756 130.378 142.558 126.207 150.189 120.855C159.305 114.454 162.269 104.501 162.269 104.501C162.269 104.501 163.33 103.908 163.099 105.213C162.868 106.518 159.305 114.217 158.007 115.404L156.703 116.584C156.703 116.584 157.77 116.347 162.625 122.154C167.479 127.961 170.199 130.334 171.622 131.046C172.378 131.319 173.171 131.473 173.974 131.502C173.881 129.372 173.769 127.224 173.638 125.357Z" fill="#263238" stroke="#263238" stroke-linecap="round" stroke-linejoin="round"/>
<path d="M159.055 137.921C159.205 138.789 158.887 139.576 158.338 139.67C157.789 139.763 157.227 139.139 157.09 138.271C156.953 137.403 157.258 136.616 157.807 136.516C158.357 136.416 158.899 137.053 159.055 137.921Z" fill="#263238" stroke="#263238" stroke-linecap="round" stroke-linejoin="round"/>
<path d="M145.79 139.813C145.946 140.687 145.628 141.468 145.079 141.568C144.529 141.668 143.962 141.037 143.831 140.163C143.7 139.289 143.993 138.514 144.542 138.414C145.091 138.315 145.64 138.945 145.79 139.813Z" fill="#263238" stroke="#263238" stroke-linecap="round" stroke-linejoin="round"/>
<path d="M153.621 132.582C153.621 132.582 157.533 129.504 161.108 131.989" stroke="#263238" stroke-linecap="round" stroke-linejoin="round"/>
<path d="M145.69 134.256C145.69 134.256 141.073 132.001 137.872 136.035" stroke="#263238" stroke-linecap="round" stroke-linejoin="round"/>
<path d="M146.52 134.362C146.52 134.362 149.715 135.904 149.952 138.864" stroke="#263238" stroke-linecap="round" stroke-linejoin="round"/>
<path d="M150.07 147.044C150.07 147.044 151.374 147.987 153.621 147.281" stroke="#263238" stroke-linecap="round" stroke-linejoin="round"/>
<path d="M149.128 152.021C151.782 151.907 154.392 151.303 156.828 150.242C160.971 148.462 162.631 145.977 162.631 145.977" stroke="#263238" stroke-linecap="round" stroke-linejoin="round"/>
<path d="M151.137 151.902C152.084 152.74 153.305 153.203 154.569 153.201C156.703 153.201 158.594 149.411 158.594 149.411C158.594 149.411 153.146 151.784 151.137 151.902Z" stroke="#263238" stroke-linecap="round" stroke-linejoin="round"/>
<path d="M175.765 143.129C178.774 143.129 181.212 139.76 181.212 135.604C181.212 131.449 178.774 128.08 175.765 128.08C172.757 128.08 170.318 131.449 170.318 135.604C170.318 139.76 172.757 143.129 175.765 143.129Z" fill="#263238" stroke="#263238" stroke-linecap="round" stroke-linejoin="round"/>
<path d="M178.074 140.051C180.004 140.051 181.568 137.478 181.568 134.306C181.568 131.133 180.004 128.561 178.074 128.561C176.144 128.561 174.58 131.133 174.58 134.306C174.58 137.478 176.144 140.051 178.074 140.051Z" fill="white" stroke="#263238" stroke-linecap="round" stroke-linejoin="round"/>
<path d="M135.707 143.622C135.707 143.622 135.744 155.936 138.939 157.004C142.133 158.072 150.9 155.936 150.9 155.936" stroke="#263238" stroke-width="2" stroke-linecap="round" stroke-linejoin="round"/>
<path d="M155.399 155.886C155.399 156.836 154.232 157.604 152.791 157.604C151.349 157.604 150.189 156.836 150.189 155.886C150.189 154.937 151.356 154.169 152.791 154.169C154.226 154.169 155.399 154.937 155.399 155.886Z" fill="#263238" stroke="#263238" stroke-linecap="round" stroke-linejoin="round"/>
<path d="M156.141 170.317C156.141 170.317 152.398 176.868 149.771 196.35C147.144 215.833 148.885 219.723 148.885 219.723L145.141 222.028C145.141 222.028 137.36 221.141 140.012 202.726C142.664 184.311 144.136 181.295 144.136 181.295L156.141 170.317Z" fill="#00D555" stroke="#263238" stroke-linecap="round" stroke-linejoin="round"/>
<path d="M179.852 163.604C179.852 163.604 171.36 183.793 162.512 196.369C153.664 208.945 141.64 226.986 141.64 226.986C141.64 226.986 148.011 223.976 161.464 213.872C174.917 203.769 188.538 180.577 189.954 178.279C191.371 175.981 193.492 170.667 193.492 170.667L179.852 163.604Z" fill="#00D555" stroke="#263238" stroke-linecap="round" stroke-linejoin="round"/>
<path d="M106.343 253.3C104.267 254.564 102.09 255.654 99.8347 256.559C95.8538 258.189 95.4669 257.902 96.7585 259.276C98.0502 260.649 104.72 258.189 106.53 257.465C108.339 256.74 111.777 255.654 111.777 255.654C111.777 255.654 115.939 258.008 118.473 258.732C121.006 259.457 124.088 258.37 124.088 258.37C124.088 258.37 124.269 255.473 122.098 253.843C119.926 252.213 115.234 248.41 113.593 248.591C111.952 248.773 106.343 253.3 106.343 253.3Z" fill="white" stroke="#263238" stroke-linecap="round" stroke-linejoin="round"/>
<path d="M105.257 248.954C105.257 248.954 103.086 248.41 101.638 249.497C100.19 250.583 98.5618 254.024 98.3809 254.93C98.1999 255.835 98.5618 256.378 100.009 255.111C101.457 253.843 103.99 252.032 103.99 252.032L106.162 251.308L105.257 248.954Z" fill="white" stroke="#263238" stroke-linecap="round" stroke-linejoin="round"/>
<path d="M110.866 247.324C110.866 247.324 106.499 245.875 105.619 247.143C104.739 248.41 101.638 255.654 102.543 256.197C103.447 256.74 104.714 255.654 106.343 253.3C107.971 250.945 108.876 249.678 108.876 249.678L111.047 249.316L110.866 247.324Z" fill="white" stroke="#263238" stroke-linecap="round" stroke-linejoin="round"/>
<path d="M118.622 248.947C118.622 248.947 112.963 244.52 111.547 245.582C110.13 246.643 105.532 253.55 105.001 254.948C104.471 256.347 106.948 255.66 108.888 253.887C110.829 252.113 113.138 250.14 113.138 250.14L117.562 252.444L118.622 248.947Z" fill="white" stroke="#263238" stroke-linecap="round" stroke-linejoin="round"/>
<path d="M138.976 252.313C138.976 252.313 131.545 251.957 128.537 250.896C125.53 249.834 119.508 247.53 117.743 247.705C115.977 247.88 109.244 254.436 107.828 255.854C106.411 257.271 106.58 257.652 107.971 257.827C109.363 258.002 112.782 255.679 114.379 254.436C115.368 253.675 116.434 253.022 117.562 252.488C118.832 254.317 120.253 256.036 121.811 257.627C123.577 259.219 127.826 260.456 129.417 260.281C130.429 260.166 131.434 259.988 132.424 259.75L138.446 259.575L138.976 252.313Z" fill="white" stroke="#263238" stroke-linecap="round" stroke-linejoin="round"/>
<path d="M190.647 201.127C190.647 201.127 184.101 208.739 184.457 211.399C184.813 214.06 184.987 216.707 184.987 216.707L180.208 245.575C180.208 245.575 176.14 243.627 176.14 245.219V246.818L137.897 250.714L137.541 264.171L198.415 264.346C198.415 264.346 201.423 260.987 201.778 259.744C202.134 258.501 208.854 237.077 210.626 214.584C212.398 192.092 211.512 182.001 210.626 180.24C209.74 178.479 199.301 175.107 199.301 175.107" fill="#00D555"/>
<path d="M190.647 201.127C190.647 201.127 184.101 208.739 184.457 211.399C184.813 214.06 184.987 216.707 184.987 216.707L180.208 245.575C180.208 245.575 176.14 243.627 176.14 245.219V246.818L137.897 250.714L137.541 264.171L198.415 264.346C198.415 264.346 201.423 260.987 201.778 259.744C202.134 258.501 208.854 237.077 210.626 214.584C212.398 192.092 211.512 182.001 210.626 180.24C209.74 178.479 199.301 175.107 199.301 175.107" stroke="#263238" stroke-linecap="round" stroke-linejoin="round"/>
<path d="M181.624 245.407C181.624 245.407 187.284 249.122 190.647 250.009L181.624 245.407Z" fill="white"/>
<path d="M181.624 245.407C181.624 245.407 187.284 249.122 190.647 250.009" stroke="#263238" stroke-linecap="round" stroke-linejoin="round"/>
<path d="M128.537 209.482L132.905 195.451C134.676 193.714 136.227 191.766 137.522 189.65C139.394 186.484 139.394 180.546 139.101 179.49C138.808 178.435 142.926 173.689 144.093 171.997C145.259 170.305 145.933 167.245 144.355 165.003C142.776 162.761 141.984 166.458 140.929 168.169C139.875 169.88 136.181 171.597 136.181 171.597L132.281 174.77C132.281 174.77 125.823 180.439 125.417 181.233C125.012 182.026 124.232 184.53 124.232 184.53L124.762 192.179L121.337 205.498L128.537 209.482Z" fill="white" stroke="#263238" stroke-linecap="round" stroke-linejoin="round"/>
<path d="M129.617 170.155C129.617 170.155 132.78 165.159 133.704 163.561C134.627 161.962 136.075 155.649 136.998 156.067C137.922 156.486 138.87 158.565 138.583 161.344C138.296 164.123 135.02 170.442 135.02 170.442L129.617 170.155Z" stroke="#263238" stroke-linecap="round" stroke-linejoin="round"/>
<path d="M121.973 201.546L124.743 192.179L123.545 177.143L127.233 170.024L137.379 168.706C137.379 168.706 143.575 172.003 144.105 172.003C144.636 172.003 144.105 173.452 142.92 173.714C141.734 173.977 139.488 173.321 139.488 173.321L143.313 175.819C143.313 175.819 143.051 177.005 142.127 177.267C141.215 177.451 140.287 177.541 139.357 177.536C139.357 177.536 142.651 179.647 141.853 180.034C141.07 180.393 140.217 180.572 139.357 180.558H136.861L134.883 180.296L131.85 181.482C131.85 181.482 133.959 186.89 133.828 189.532C133.697 192.173 130.403 193.903 130.403 193.903" fill="white"/>
<path d="M121.973 201.546L124.743 192.179L123.545 177.143L127.233 170.024L137.379 168.706C137.379 168.706 143.575 172.003 144.105 172.003C144.636 172.003 144.105 173.452 142.92 173.714C141.734 173.977 139.488 173.321 139.488 173.321L143.313 175.819C143.313 175.819 143.051 177.005 142.127 177.267C141.215 177.451 140.287 177.541 139.357 177.536C139.357 177.536 142.651 179.647 141.853 180.034C141.07 180.393 140.217 180.572 139.357 180.558H136.861L134.883 180.296L131.85 181.482C131.85 181.482 133.959 186.89 133.828 189.532C133.697 192.173 130.403 193.903 130.403 193.903" stroke="#263238" stroke-linecap="round" stroke-linejoin="round"/>
<path d="M139.5 173.321C139.5 173.321 137.391 171.604 136.206 171.604C135.02 171.604 127.776 172.921 127.776 172.921" stroke="#263238" stroke-linecap="round" stroke-linejoin="round"/>
<path d="M139.369 177.542C139.369 177.542 135.944 175.669 134.889 175.669C133.835 175.669 125.53 177.779 125.53 177.779" stroke="#263238" stroke-linecap="round" stroke-linejoin="round"/>
<path d="M122.142 198.604L132.843 205.817C132.843 205.817 128.075 231.419 127.607 233.611C127.139 235.803 123.708 241.579 121.992 243.302C120.276 245.026 118.248 244.707 113.562 243.458C108.876 242.209 104.826 238.463 104.97 233.611C105.113 228.759 122.142 198.604 122.142 198.604Z" fill="#00D555" stroke="#263238" stroke-linecap="round" stroke-linejoin="round"/>
<path d="M66.8331 260.656H63.7258V261.611H66.8331V260.656Z" fill="white" stroke="#263238" stroke-linecap="round" stroke-linejoin="round"/>
<path d="M71.1385 260.656H68.0312V261.611H71.1385V260.656Z" fill="white" stroke="#263238" stroke-linecap="round" stroke-linejoin="round"/>
<path d="M75.4439 260.656H72.3365V261.611H75.4439V260.656Z" fill="white" stroke="#263238" stroke-linecap="round" stroke-linejoin="round"/>
<path d="M79.7555 260.656H76.6481V261.611H79.7555V260.656Z" fill="white" stroke="#263238" stroke-linecap="round" stroke-linejoin="round"/>
<path d="M84.0608 260.656H80.9535V261.611H84.0608V260.656Z" fill="white" stroke="#263238" stroke-linecap="round" stroke-linejoin="round"/>
<path d="M88.3662 260.656H85.2589V261.611H88.3662V260.656Z" fill="white" stroke="#263238" stroke-linecap="round" stroke-linejoin="round"/>
<path d="M92.6716 260.656H89.5642V261.611H92.6716V260.656Z" fill="white" stroke="#263238" stroke-linecap="round" stroke-linejoin="round"/>
<path d="M96.977 260.656H93.8696V261.611H96.977V260.656Z" fill="white" stroke="#263238" stroke-linecap="round" stroke-linejoin="round"/>
<path d="M101.282 260.656H98.175V261.611H101.282V260.656Z" fill="white" stroke="#263238" stroke-linecap="round" stroke-linejoin="round"/>
<path d="M105.588 260.656H102.48V261.611H105.588V260.656Z" fill="white" stroke="#263238" stroke-linecap="round" stroke-linejoin="round"/>
<path d="M109.899 260.656H106.792V261.611H109.899V260.656Z" fill="white" stroke="#263238" stroke-linecap="round" stroke-linejoin="round"/>
<path d="M114.205 260.656H111.097V261.611H114.205V260.656Z" fill="white" stroke="#263238" stroke-linecap="round" stroke-linejoin="round"/>
<path d="M118.51 260.656H115.403V261.611H118.51V260.656Z" fill="white" stroke="#263238" stroke-linecap="round" stroke-linejoin="round"/>
<path d="M122.815 260.656H119.708V261.611H122.815V260.656Z" fill="white" stroke="#263238" stroke-linecap="round" stroke-linejoin="round"/>
<path d="M127.121 260.656H124.013V261.611H127.121V260.656Z" fill="white" stroke="#263238" stroke-linecap="round" stroke-linejoin="round"/>
<path d="M131.426 260.656H128.319V261.611H131.426V260.656Z" fill="white" stroke="#263238" stroke-linecap="round" stroke-linejoin="round"/>
<path d="M138.933 261.411H61.9412V264.121H138.933V261.411Z" fill="white" stroke="#263238" stroke-linecap="round" stroke-linejoin="round"/>
<path d="M138.926 261.411H109.413V264.121H138.926V261.411Z" fill="white" stroke="#263238" stroke-linecap="round" stroke-linejoin="round"/>
<path d="M85.964 237.676H25.4329L13.278 173.258H73.8091L85.964 237.676Z" fill="#263238" stroke="white" stroke-linecap="round" stroke-linejoin="round"/>
<path d="M84.1232 236.046H25.4017L13.8646 174.888H72.5798L84.1232 236.046Z" fill="#263238" stroke="white" stroke-linecap="round" stroke-linejoin="round"/>
<path d="M72.817 231.176H29.158L20.5785 185.71H64.2374L72.817 231.176Z" fill="#263238" stroke="white" stroke-linecap="round" stroke-linejoin="round"/>
<path d="M20.5784 185.71L13.8646 174.888" stroke="#263238" stroke-linecap="round" stroke-linejoin="round"/>
<path d="M64.2374 185.71L72.5799 174.888" stroke="white" stroke-linecap="round" stroke-linejoin="round"/>
<path d="M72.817 231.176L84.1232 236.046" stroke="white" stroke-linecap="round" stroke-linejoin="round"/>
<path d="M29.158 231.176L25.4017 236.046" stroke="#263238" stroke-linecap="round" stroke-linejoin="round"/>
<path d="M46.9099 217.556H36.9701L43.2971 211.911H53.2369L46.9099 217.556Z" fill="#263238" stroke="white" stroke-linecap="round" stroke-linejoin="round"/>
<path d="M79.8865 260.73H43.5217V264.346H79.8865V260.73Z" fill="#263238" stroke="white" stroke-linecap="round" stroke-linejoin="round"/>
<path d="M59.1084 264.346H49.1686L36.9701 250.477H46.9099L59.1084 264.346Z" fill="#263238" stroke="white" stroke-linecap="round" stroke-linejoin="round"/>
<path d="M46.9099 217.787H36.9701V250.333H46.9099V217.787Z" fill="#263238" stroke="white" stroke-linecap="round" stroke-linejoin="round"/>
<path d="M192.438 258.158C193.858 260.737 196.015 262.833 198.634 264.177L192.438 258.158Z" fill="white"/>
<path d="M192.438 258.158C193.858 260.737 196.015 262.833 198.634 264.177" stroke="#263238" stroke-linecap="round" stroke-linejoin="round"/>
<path d="M5.65317 264.346H290.313" stroke="#263238" stroke-linecap="round" stroke-linejoin="round"/>
</g>
<defs>
<clipPath id="clip0_55_135">
<rect width="302" height="281" fill="white"/>
</clipPath>
</defs>
</svg>
