<svg width="266" height="265" viewBox="0 0 266 265" fill="none" xmlns="http://www.w3.org/2000/svg">
<circle cx="132.993" cy="132.696" r="131.709" fill="white" stroke="#0D4EE1"/>
<path d="M215.893 118.489C215.893 116.261 214.092 114.454 211.869 114.454H133.029H54.189C51.9668 114.454 50.1653 116.261 50.1653 118.489V184.446C50.1653 186.675 51.9668 188.482 54.189 188.482H211.869C214.092 188.482 215.893 186.675 215.893 184.446V118.489Z" fill="#00D555"/>
<path d="M154.531 102.672H111.509C108.247 102.667 105.12 101.365 102.814 99.0518C100.507 96.7384 99.2093 93.6022 99.2046 90.3306V79.2507C99.2093 75.9791 100.507 72.8429 102.814 70.5295C105.12 68.2162 108.247 66.9144 111.509 66.9097H154.531C157.794 66.9097 160.924 68.2099 163.232 70.5243C165.539 72.8387 166.836 75.9777 166.836 79.2507V90.2766C166.843 91.9018 166.53 93.5124 165.915 95.0159C165.299 96.5194 164.394 97.8863 163.251 99.038C162.108 100.19 160.749 101.104 159.252 101.727C157.756 102.351 156.151 102.672 154.531 102.672ZM111.509 75.9718C110.643 75.981 109.815 76.3289 109.201 76.9414C108.587 77.5538 108.236 78.3824 108.222 79.2507V90.2766C108.222 91.1605 108.572 92.0083 109.195 92.6333C109.819 93.2584 110.664 93.6096 111.545 93.6096H154.567C155.448 93.6096 156.294 93.2584 156.917 92.6333C157.54 92.0083 157.89 91.1605 157.89 90.2766V79.2507C157.89 78.3668 157.54 77.519 156.917 76.8939C156.294 76.2689 155.448 75.9177 154.567 75.9177L111.509 75.9718Z" fill="#08C152"/>
<path opacity="0.2" d="M211.851 114.454H54.207C53.6771 114.452 53.1519 114.554 52.6617 114.756C52.1714 114.958 51.7257 115.255 51.3502 115.63C50.9746 116.005 50.6766 116.45 50.4733 116.941C50.27 117.432 50.1653 117.958 50.1653 118.49V139.658L132.257 155.873C132.76 155.983 133.281 155.983 133.784 155.873L215.893 139.658V118.49C215.893 117.958 215.788 117.432 215.585 116.941C215.382 116.45 215.084 116.005 214.708 115.63C214.333 115.255 213.887 114.958 213.397 114.756C212.906 114.554 212.381 114.452 211.851 114.454Z" fill="black"/>
<path d="M216.001 135.1L133.748 151.315C133.237 151.405 132.714 151.405 132.203 151.315L49.9498 135.1C49.0461 134.921 48.232 134.434 47.6459 133.721C47.0597 133.009 46.7377 132.115 46.7344 131.191V91.3751C46.7344 90.8522 46.8371 90.3345 47.0366 89.8514C47.2361 89.3684 47.5285 88.9294 47.8971 88.5597C48.2658 88.19 48.7034 87.8967 49.185 87.6966C49.6667 87.4965 50.1829 87.3936 50.7042 87.3936H215.282C215.804 87.3936 216.32 87.4965 216.802 87.6966C217.283 87.8967 217.721 88.19 218.089 88.5597C218.458 88.9294 218.751 89.3684 218.95 89.8514C219.15 90.3345 219.252 90.8522 219.252 91.3751V131.263C219.234 132.18 218.901 133.063 218.308 133.762C217.716 134.462 216.901 134.934 216.001 135.1Z" fill="#00D555"/>
<path d="M141.544 140.523H124.533C122.429 140.523 120.724 142.233 120.724 144.343V155.134C120.724 157.244 122.429 158.954 124.533 158.954H141.544C143.647 158.954 145.352 157.244 145.352 155.134V144.343C145.352 142.233 143.647 140.523 141.544 140.523Z" fill="#08C152"/>
</svg>
