<svg width="339" height="254" viewBox="0 0 339 254" fill="none" xmlns="http://www.w3.org/2000/svg">
<path d="M339 222.657H0V222.827H339V222.657Z" fill="#EBEBEB"/>
<path d="M58.0232 229.131H35.5679V229.301H58.0232V229.131Z" fill="#EBEBEB"/>
<path d="M152.55 229.219H116.033V229.389H152.55V229.219Z" fill="#EBEBEB"/>
<path d="M84.723 232.64H71.7122V232.81H84.723V232.64Z" fill="#EBEBEB"/>
<path d="M302.388 232.558H289.35V232.728H302.388V232.558Z" fill="#EBEBEB"/>
<path d="M283.309 232.558H262.772V232.728H283.309V232.558Z" fill="#EBEBEB"/>
<path d="M251.463 231.436H222.608V231.606H251.463V231.436Z" fill="#EBEBEB"/>
<path d="M160.686 192.329H29.7711C28.7455 192.328 27.7626 191.918 27.038 191.19C26.3134 190.462 25.9065 189.475 25.9065 188.447V3.87419C25.9154 2.85149 26.3263 1.87362 27.0499 1.15298C27.7735 0.432342 28.7514 0.0271426 29.7711 0.0253906H160.686C161.713 0.0253906 162.698 0.43447 163.424 1.16264C164.15 1.8908 164.558 2.87841 164.558 3.90819V188.447C164.558 189.476 164.15 190.464 163.424 191.192C162.698 191.92 161.713 192.329 160.686 192.329ZM29.7711 0.161391C28.7905 0.163192 27.8506 0.555155 27.1579 1.25124C26.4651 1.94733 26.076 2.89067 26.076 3.87419V188.447C26.076 189.43 26.4651 190.373 27.1579 191.07C27.8506 191.766 28.7905 192.158 29.7711 192.159H160.686C161.667 192.158 162.608 191.766 163.302 191.07C163.996 190.374 164.386 189.431 164.388 188.447V3.87419C164.386 2.89005 163.996 1.94673 163.302 1.25083C162.608 0.554934 161.667 0.163189 160.686 0.161391H29.7711Z" fill="#EBEBEB"/>
<path d="M307.344 192.329H176.422C175.396 192.328 174.413 191.918 173.687 191.19C172.961 190.462 172.553 189.476 172.551 188.447V3.87419C172.562 2.85087 172.974 1.873 173.699 1.15255C174.423 0.432104 175.402 0.0271235 176.422 0.0253906H307.344C308.363 0.0289297 309.339 0.43492 310.061 1.15537C310.783 1.87581 311.193 2.85266 311.202 3.87419V188.447C311.202 189.474 310.796 190.46 310.073 191.187C309.35 191.915 308.369 192.326 307.344 192.329ZM176.422 0.161391C175.441 0.163189 174.501 0.554934 173.807 1.25083C173.113 1.94673 172.722 2.89005 172.721 3.87419V188.447C172.722 189.431 173.113 190.374 173.807 191.07C174.501 191.766 175.441 192.158 176.422 192.159H307.344C308.325 192.158 309.266 191.766 309.96 191.07C310.654 190.374 311.044 189.431 311.046 188.447V3.87419C311.044 2.89005 310.654 1.94673 309.96 1.25083C309.266 0.554934 308.325 0.163189 307.344 0.161391H176.422Z" fill="#EBEBEB"/>
<path d="M204.905 222.657H224.106V126.845H204.905V222.657Z" fill="#E6E6E6"/>
<path d="M208.546 222.657H204.898V212.253H212.37L208.546 222.657Z" fill="#F0F0F0"/>
<path d="M276.665 222.657H295.866V126.845H276.665V222.657Z" fill="#E6E6E6"/>
<path d="M204.905 216.272H279.851V126.845L204.905 126.845V216.272Z" fill="#F0F0F0"/>
<path d="M207.732 185.876V203.264H241.151V185.876H207.732Z" fill="#E6E6E6"/>
<path d="M243.599 185.876V203.264H277.017V185.876H243.599Z" fill="#E6E6E6"/>
<path d="M257.003 188.787H263.613C265.035 188.788 266.441 188.497 267.747 187.934C269.053 187.37 270.23 186.545 271.207 185.509H249.409C250.386 186.545 251.563 187.37 252.869 187.934C254.174 188.497 255.581 188.788 257.003 188.787Z" fill="#F0F0F0"/>
<path d="M220.797 188.787H227.408C228.829 188.788 230.236 188.497 231.542 187.934C232.848 187.37 234.025 186.545 235.002 185.509H213.204C214.18 186.545 215.358 187.37 216.663 187.934C217.969 188.497 219.376 188.788 220.797 188.787Z" fill="#F0F0F0"/>
<path d="M207.726 158.846V176.234H241.144V158.846H207.726Z" fill="#E6E6E6"/>
<path d="M243.599 158.853V176.241H277.017V158.853H243.599Z" fill="#E6E6E6"/>
<path d="M257.003 161.757H263.613C265.034 161.754 266.44 161.46 267.744 160.894C269.049 160.328 270.225 159.502 271.2 158.465H249.409C250.385 159.503 251.562 160.33 252.868 160.896C254.173 161.462 255.58 161.754 257.003 161.757Z" fill="#F0F0F0"/>
<path d="M220.797 161.757H227.408C228.829 161.757 230.235 161.468 231.54 160.905C232.846 160.343 234.024 159.52 235.002 158.486H213.204C214.182 159.52 215.359 160.343 216.665 160.905C217.971 161.468 219.377 161.757 220.797 161.757Z" fill="#F0F0F0"/>
<path d="M207.732 131.823V149.211H241.151V131.823H207.732Z" fill="#E6E6E6"/>
<path d="M243.599 131.823V149.211H277.017V131.823H243.599Z" fill="#E6E6E6"/>
<path d="M257.003 134.733H263.613C265.035 134.734 266.441 134.444 267.747 133.88C269.053 133.317 270.23 132.492 271.207 131.456H249.409C250.386 132.492 251.563 133.317 252.869 133.88C254.174 134.444 255.581 134.734 257.003 134.733Z" fill="#F0F0F0"/>
<path d="M220.797 134.733H227.408C228.829 134.734 230.236 134.444 231.542 133.88C232.848 133.317 234.025 132.492 235.002 131.456H213.204C214.18 132.492 215.358 133.317 216.663 133.88C217.969 134.444 219.376 134.734 220.797 134.733Z" fill="#F0F0F0"/>
<path d="M276.204 222.657H279.851V212.253H272.38L276.204 222.657Z" fill="#F0F0F0"/>
<path d="M279.363 61.069L282.299 69.1202H279.363L261.349 61.069H279.363Z" fill="#F5F5F5"/>
<path d="M282.299 61.069V69.1202L264.291 61.069H282.299Z" fill="#E6E6E6"/>
<path d="M208.736 61.069L211.672 69.1202H208.736L190.728 61.069H208.736Z" fill="#F5F5F5"/>
<path d="M211.671 61.069V69.1202L193.664 61.069H211.671Z" fill="#E6E6E6"/>
<path d="M295.52 55.3162H275.932V61.443H295.52V55.3162Z" fill="#E6E6E6"/>
<path d="M178.551 61.4498L275.932 61.4498V55.323L178.551 55.323V61.4498Z" fill="#F5F5F5"/>
<path d="M256.155 34.0254C256.155 34.0254 256.352 55.323 263.681 55.323C271.01 55.323 271.2 34.0254 271.2 34.0254H256.155Z" fill="#F0F0F0"/>
<path d="M210.709 48.3734C210.709 48.3734 211.224 55.3162 230.94 55.3162C250.656 55.3162 251.172 48.3734 251.172 48.3734H210.709Z" fill="#F0F0F0"/>
<path d="M152.116 222.657H153.425L157.174 204.127L157.852 200.877L161.92 180.681H177.636L186.131 222.657H187.447L178.789 179.913C178.76 179.766 178.682 179.634 178.566 179.54C178.451 179.446 178.307 179.395 178.158 179.396H161.398C161.25 179.395 161.107 179.446 160.993 179.541C160.879 179.635 160.801 179.767 160.774 179.913L157.181 197.647L156.503 200.891L152.116 222.657Z" fill="#F0F0F0"/>
<path d="M126.942 222.657H128.25L136.753 180.681H152.428L156.496 200.891L157.174 204.127L160.93 222.657H162.239L157.832 200.897L157.154 197.667L153.56 179.933C153.525 179.79 153.445 179.662 153.331 179.569C153.217 179.476 153.076 179.422 152.93 179.416H136.23C136.082 179.415 135.937 179.466 135.822 179.561C135.707 179.655 135.628 179.787 135.6 179.933L126.942 222.657Z" fill="#F0F0F0"/>
<path d="M179.982 174.5H134.373C133.327 174.502 132.324 174.919 131.584 175.661C130.845 176.403 130.429 177.408 130.427 178.457V178.593C130.427 178.978 130.579 179.346 130.85 179.618C131.121 179.889 131.488 180.042 131.871 180.042H182.484C182.867 180.042 183.234 179.889 183.505 179.618C183.776 179.346 183.928 178.978 183.928 178.593V178.457C183.926 177.408 183.51 176.403 182.77 175.661C182.03 174.919 181.028 174.502 179.982 174.5Z" fill="#F0F0F0"/>
<path d="M106.344 222.657H107.653L111.402 204.127L112.08 200.877L116.148 180.681H131.823L140.346 222.657H141.661L133.003 179.913C132.975 179.766 132.896 179.634 132.781 179.54C132.666 179.446 132.521 179.395 132.373 179.396H115.626C115.478 179.395 115.335 179.446 115.221 179.541C115.107 179.635 115.029 179.767 115.002 179.913L111.409 197.647L110.731 200.891L106.344 222.657Z" fill="#F0F0F0"/>
<path d="M81.1702 222.657H82.4855L90.9808 180.681H106.663L110.731 200.891L111.409 204.127L115.165 222.657H116.474L112.067 200.897L111.389 197.667L107.802 179.913C107.767 179.77 107.686 179.642 107.573 179.549C107.459 179.455 107.318 179.402 107.171 179.396H90.4588C90.3101 179.395 90.1656 179.446 90.0505 179.54C89.9353 179.634 89.8567 179.766 89.8282 179.913L81.1702 222.657Z" fill="#F0F0F0"/>
<path d="M134.244 174.5H88.601C87.555 174.502 86.5524 174.919 85.8128 175.661C85.0731 176.403 84.6568 177.408 84.655 178.457V178.593C84.655 178.978 84.8072 179.346 85.078 179.618C85.3488 179.889 85.7162 180.042 86.0992 180.042H136.719C136.908 180.042 137.095 180.004 137.27 179.931C137.445 179.859 137.604 179.752 137.737 179.617C137.871 179.483 137.977 179.323 138.049 179.147C138.12 178.971 138.157 178.783 138.156 178.593V178.457C138.154 177.414 137.743 176.414 137.01 175.673C136.278 174.932 135.284 174.51 134.244 174.5Z" fill="#F0F0F0"/>
<path d="M57.1756 120.793L122.704 120.793L122.704 15.5091L57.1756 15.5091L57.1756 120.793Z" fill="#E6E6E6"/>
<path d="M52.8976 120.793L120.704 120.793L120.704 15.5091L52.8976 15.5091L52.8976 120.793Z" fill="#F0F0F0"/>
<path d="M57.1756 128.77H122.704V120.787L57.1756 120.787V128.77Z" fill="#E6E6E6"/>
<path d="M45.765 128.77H113.572V120.787L45.765 120.787V128.77Z" fill="#F0F0F0"/>
<path d="M114.704 114.782V21.5201L58.8844 21.5201L58.8844 114.782H114.704Z" fill="#FAFAFA"/>
<path d="M115.185 114.775L95.5504 21.5201H78.9395L98.5743 114.775H115.185Z" fill="white"/>
<path d="M110.663 103.637C110.777 103.637 110.885 103.592 110.965 103.512C111.045 103.431 111.09 103.322 111.09 103.209V25.4302C111.09 25.3166 111.045 25.2076 110.965 25.1273C110.885 25.047 110.777 25.0018 110.663 25.0018C110.55 25.0018 110.441 25.047 110.361 25.1273C110.281 25.2076 110.236 25.3166 110.236 25.4302V103.209C110.236 103.322 110.281 103.431 110.361 103.512C110.441 103.592 110.55 103.637 110.663 103.637Z" fill="#F0F0F0"/>
<path d="M95.0082 114.775L75.3733 21.5201H68.8984L88.5265 114.775H95.0082Z" fill="white"/>
<path d="M59.6504 114.782L59.6504 21.5201H58.891L58.891 114.782H59.6504Z" fill="#E6E6E6"/>
<path opacity="0.6" d="M51.4739 26.1373H117.003L117.559 23.8525H52.0298L51.4739 26.1373Z" fill="#F0F0F0"/>
<path opacity="0.6" d="M51.4739 31.4482H117.003L117.559 29.1702H52.0298L51.4739 31.4482Z" fill="#F0F0F0"/>
<path opacity="0.6" d="M51.4739 36.7658H117.003L117.559 34.481H52.0298L51.4739 36.7658Z" fill="#F0F0F0"/>
<path opacity="0.6" d="M51.4739 42.0766H117.003L117.559 39.7986H52.0298L51.4739 42.0766Z" fill="#F0F0F0"/>
<path opacity="0.6" d="M51.4739 47.3942H117.003L117.559 45.1162H52.0298L51.4739 47.3942Z" fill="#F0F0F0"/>
<path opacity="0.6" d="M51.4739 52.7118H117.003L117.559 50.427H52.0298L51.4739 52.7118Z" fill="#F0F0F0"/>
<path d="M169.5 253.366C242.102 253.366 300.957 249.92 300.957 245.669C300.957 241.417 242.102 237.971 169.5 237.971C96.898 237.971 38.0425 241.417 38.0425 245.669C38.0425 249.92 96.898 253.366 169.5 253.366Z" fill="#F5F5F5"/>
<path d="M164.836 141.282H123.417C122.832 141.282 122.359 141.757 122.359 142.343V159.669C122.359 160.255 122.832 160.73 123.417 160.73H164.836C165.42 160.73 165.893 160.255 165.893 159.669V142.343C165.893 141.757 165.42 141.282 164.836 141.282Z" fill="#0D4EE1"/>
<path opacity="0.6" d="M164.836 141.282H123.417C122.832 141.282 122.359 141.757 122.359 142.343V159.669C122.359 160.255 122.832 160.73 123.417 160.73H164.836C165.42 160.73 165.893 160.255 165.893 159.669V142.343C165.893 141.757 165.42 141.282 164.836 141.282Z" fill="white"/>
<path opacity="0.1" d="M164.829 141.282H123.396C123.116 141.282 122.847 141.393 122.648 141.592C122.45 141.791 122.338 142.061 122.338 142.343V147.898L143.899 152.155C144.031 152.182 144.167 152.182 144.299 152.155L165.866 147.898V142.343C165.866 142.065 165.757 141.798 165.563 141.6C165.369 141.401 165.106 141.287 164.829 141.282Z" fill="#2A373D"/>
<path d="M165.737 134.169H153.086V132.041C153.084 131.161 152.735 130.318 152.115 129.696C151.494 129.074 150.654 128.724 149.777 128.722H138.475C137.598 128.724 136.757 129.074 136.137 129.696C135.517 130.318 135.168 131.161 135.166 132.041V134.169H122.521C122.245 134.169 121.979 134.279 121.783 134.476C121.587 134.672 121.477 134.938 121.477 135.216V145.695C121.479 145.937 121.563 146.171 121.716 146.358C121.869 146.545 122.082 146.673 122.318 146.722L143.926 150.985C144.058 151.006 144.193 151.006 144.326 150.985L165.934 146.722C166.171 146.674 166.384 146.545 166.538 146.359C166.693 146.172 166.778 145.938 166.781 145.695V135.216C166.781 134.938 166.671 134.672 166.475 134.476C166.28 134.279 166.014 134.169 165.737 134.169ZM137.682 132.041C137.683 131.829 137.767 131.627 137.915 131.478C138.064 131.328 138.264 131.242 138.475 131.238H149.777C149.987 131.242 150.188 131.328 150.336 131.478C150.485 131.627 150.569 131.829 150.57 132.041V134.169H137.688L137.682 132.041Z" fill="#0D4EE1"/>
<path opacity="0.6" d="M165.737 134.169H153.086V132.041C153.084 131.161 152.735 130.318 152.115 129.696C151.494 129.074 150.654 128.724 149.777 128.722H138.475C137.598 128.724 136.757 129.074 136.137 129.696C135.517 130.318 135.168 131.161 135.166 132.041V134.169H122.521C122.245 134.169 121.979 134.279 121.783 134.476C121.587 134.672 121.477 134.938 121.477 135.216V145.695C121.479 145.937 121.563 146.171 121.716 146.358C121.869 146.545 122.082 146.673 122.318 146.722L143.926 150.985C144.058 151.006 144.193 151.006 144.326 150.985L165.934 146.722C166.171 146.674 166.384 146.545 166.538 146.359C166.693 146.172 166.778 145.938 166.781 145.695V135.216C166.781 134.938 166.671 134.672 166.475 134.476C166.28 134.279 166.014 134.169 165.737 134.169ZM137.682 132.041C137.683 131.829 137.767 131.627 137.915 131.478C138.064 131.328 138.264 131.242 138.475 131.238H149.777C149.987 131.242 150.188 131.328 150.336 131.478C150.485 131.627 150.569 131.829 150.57 132.041V134.169H137.688L137.682 132.041Z" fill="white"/>
<path d="M146.36 148.123H141.899C141.345 148.123 140.895 148.573 140.895 149.129V151.958C140.895 152.514 141.345 152.964 141.899 152.964H146.36C146.914 152.964 147.363 152.514 147.363 151.958V149.129C147.363 148.573 146.914 148.123 146.36 148.123Z" fill="#0D4EE1"/>
<path opacity="0.3" d="M146.36 148.123H141.899C141.345 148.123 140.895 148.573 140.895 149.129V151.958C140.895 152.514 141.345 152.964 141.899 152.964H146.36C146.914 152.964 147.363 152.514 147.363 151.958V149.129C147.363 148.573 146.914 148.123 146.36 148.123Z" fill="white"/>
<path d="M164.836 16.189H123.417C122.832 16.189 122.359 16.6639 122.359 17.2498V34.5762C122.359 35.162 122.832 35.637 123.417 35.637H164.836C165.42 35.637 165.893 35.162 165.893 34.5762V17.2498C165.893 16.6639 165.42 16.189 164.836 16.189Z" fill="#0D4EE1"/>
<path opacity="0.6" d="M164.836 16.189H123.417C122.832 16.189 122.359 16.6639 122.359 17.2498V34.5762C122.359 35.162 122.832 35.637 123.417 35.637H164.836C165.42 35.637 165.893 35.162 165.893 34.5762V17.2498C165.893 16.6639 165.42 16.189 164.836 16.189Z" fill="white"/>
<path opacity="0.1" d="M164.829 16.189H123.396C123.116 16.189 122.847 16.3007 122.648 16.4997C122.45 16.6986 122.338 16.9684 122.338 17.2498V22.8054L143.899 27.0622C144.031 27.0893 144.167 27.0893 144.299 27.0622L165.866 22.8054V17.2498C165.866 16.9719 165.757 16.7052 165.563 16.5068C165.369 16.3084 165.106 16.1943 164.829 16.189Z" fill="#2A373D"/>
<path d="M165.737 9.07619H153.086V6.94779C153.084 6.06825 152.735 5.22525 152.115 4.60332C151.494 3.98139 150.654 3.63119 149.777 3.62939H138.475C137.598 3.63119 136.757 3.98139 136.137 4.60332C135.517 5.22525 135.168 6.06825 135.166 6.94779V9.07619H122.521C122.245 9.07619 121.979 9.18652 121.783 9.38291C121.587 9.5793 121.477 9.84566 121.477 10.1234V20.6022C121.477 20.8445 121.561 21.0792 121.715 21.2664C121.868 21.4537 122.081 21.5818 122.318 21.629L143.926 25.8654C144.058 25.8925 144.194 25.8925 144.326 25.8654L165.934 21.6018C166.168 21.5572 166.38 21.4339 166.536 21.2522C166.691 21.0706 166.78 20.8413 166.788 20.6022V10.1234C166.788 9.9853 166.761 9.84857 166.708 9.72107C166.655 9.59357 166.577 9.47783 166.48 9.3805C166.382 9.28317 166.266 9.20617 166.139 9.15395C166.011 9.10172 165.875 9.0753 165.737 9.07619ZM137.682 6.94779C137.681 6.73616 137.765 6.53309 137.913 6.3828C138.062 6.23252 138.264 6.14719 138.475 6.14539H149.777C149.987 6.14717 150.188 6.23156 150.336 6.38038C150.484 6.52921 150.569 6.73054 150.57 6.94099V9.0694H137.688L137.682 6.94779Z" fill="#0D4EE1"/>
<path opacity="0.6" d="M165.737 9.07619H153.086V6.94779C153.084 6.06825 152.735 5.22525 152.115 4.60332C151.494 3.98139 150.654 3.63119 149.777 3.62939H138.475C137.598 3.63119 136.757 3.98139 136.137 4.60332C135.517 5.22525 135.168 6.06825 135.166 6.94779V9.07619H122.521C122.245 9.07619 121.979 9.18652 121.783 9.38291C121.587 9.5793 121.477 9.84566 121.477 10.1234V20.6022C121.477 20.8445 121.561 21.0792 121.715 21.2664C121.868 21.4537 122.081 21.5818 122.318 21.629L143.926 25.8654C144.058 25.8925 144.194 25.8925 144.326 25.8654L165.934 21.6018C166.168 21.5572 166.38 21.4339 166.536 21.2522C166.691 21.0706 166.78 20.8413 166.788 20.6022V10.1234C166.788 9.9853 166.761 9.84857 166.708 9.72107C166.655 9.59357 166.577 9.47783 166.48 9.3805C166.382 9.28317 166.266 9.20617 166.139 9.15395C166.011 9.10172 165.875 9.0753 165.737 9.07619ZM137.682 6.94779C137.681 6.73616 137.765 6.53309 137.913 6.3828C138.062 6.23252 138.264 6.14719 138.475 6.14539H149.777C149.987 6.14717 150.188 6.23156 150.336 6.38038C150.484 6.52921 150.569 6.73054 150.57 6.94099V9.0694H137.688L137.682 6.94779Z" fill="white"/>
<path d="M146.36 23.0365H141.899C141.345 23.0365 140.895 23.4871 140.895 24.0429V26.8717C140.895 27.4275 141.345 27.8781 141.899 27.8781H146.36C146.914 27.8781 147.363 27.4275 147.363 26.8717V24.0429C147.363 23.4871 146.914 23.0365 146.36 23.0365Z" fill="#0D4EE1"/>
<path opacity="0.3" d="M146.36 23.0365H141.899C141.345 23.0365 140.895 23.4871 140.895 24.0429V26.8717C140.895 27.4275 141.345 27.8781 141.899 27.8781H146.36C146.914 27.8781 147.363 27.4275 147.363 26.8717V24.0429C147.363 23.4871 146.914 23.0365 146.36 23.0365Z" fill="white"/>
<path d="M100.317 141.282H58.898C58.3139 141.282 57.8403 141.757 57.8403 142.343V159.669C57.8403 160.255 58.3139 160.73 58.898 160.73H100.317C100.901 160.73 101.375 160.255 101.375 159.669V142.343C101.375 141.757 100.901 141.282 100.317 141.282Z" fill="#0D4EE1"/>
<path opacity="0.6" d="M100.317 141.282H58.898C58.3139 141.282 57.8403 141.757 57.8403 142.343V159.669C57.8403 160.255 58.3139 160.73 58.898 160.73H100.317C100.901 160.73 101.375 160.255 101.375 159.669V142.343C101.375 141.757 100.901 141.282 100.317 141.282Z" fill="white"/>
<path opacity="0.1" d="M100.344 141.282H58.898C58.6175 141.282 58.3485 141.393 58.1501 141.592C57.9518 141.791 57.8403 142.061 57.8403 142.343V147.898L79.4007 152.155C79.535 152.182 79.6733 152.182 79.8075 152.155L101.375 147.898V142.343C101.375 142.066 101.267 141.8 101.075 141.602C100.882 141.404 100.62 141.289 100.344 141.282Z" fill="#2A373D"/>
<path d="M101.212 134.169H88.5605V132.041C88.5587 131.161 88.2096 130.318 87.5894 129.696C86.9693 129.074 86.1288 128.724 85.2519 128.722H73.9564C73.0794 128.724 72.2389 129.074 71.6188 129.696C70.9987 130.318 70.6495 131.161 70.6477 132.041V134.169H57.9963C57.7194 134.169 57.4538 134.279 57.258 134.476C57.0622 134.672 56.9521 134.938 56.9521 135.216V145.695C56.9535 145.937 57.0378 146.171 57.1909 146.358C57.344 146.545 57.5565 146.673 57.7929 146.722L79.4007 150.985C79.5356 151.006 79.6727 151.006 79.8075 150.985L101.415 146.722C101.652 146.673 101.864 146.545 102.017 146.358C102.17 146.171 102.255 145.937 102.256 145.695V135.216C102.256 134.938 102.146 134.672 101.95 134.476C101.754 134.279 101.489 134.169 101.212 134.169ZM73.1563 132.041C73.1598 131.829 73.2452 131.627 73.3945 131.477C73.5438 131.327 73.7453 131.242 73.9564 131.238H85.2519C85.463 131.242 85.6644 131.327 85.8137 131.477C85.963 131.627 86.0484 131.829 86.0519 132.041V134.169H73.1699L73.1563 132.041Z" fill="#0D4EE1"/>
<path opacity="0.6" d="M101.212 134.169H88.5605V132.041C88.5587 131.161 88.2096 130.318 87.5894 129.696C86.9693 129.074 86.1288 128.724 85.2519 128.722H73.9564C73.0794 128.724 72.2389 129.074 71.6188 129.696C70.9987 130.318 70.6495 131.161 70.6477 132.041V134.169H57.9963C57.7194 134.169 57.4538 134.279 57.258 134.476C57.0622 134.672 56.9521 134.938 56.9521 135.216V145.695C56.9535 145.937 57.0378 146.171 57.1909 146.358C57.344 146.545 57.5565 146.673 57.7929 146.722L79.4007 150.985C79.5356 151.006 79.6727 151.006 79.8075 150.985L101.415 146.722C101.652 146.673 101.864 146.545 102.017 146.358C102.17 146.171 102.255 145.937 102.256 145.695V135.216C102.256 134.938 102.146 134.672 101.95 134.476C101.754 134.279 101.489 134.169 101.212 134.169ZM73.1563 132.041C73.1598 131.829 73.2452 131.627 73.3945 131.477C73.5438 131.327 73.7453 131.242 73.9564 131.238H85.2519C85.463 131.242 85.6644 131.327 85.8137 131.477C85.963 131.627 86.0484 131.829 86.0519 132.041V134.169H73.1699L73.1563 132.041Z" fill="white"/>
<path d="M81.8348 148.123H77.3736C76.8194 148.123 76.3701 148.573 76.3701 149.129V151.958C76.3701 152.514 76.8194 152.964 77.3736 152.964H81.8348C82.389 152.964 82.8382 152.514 82.8382 151.958V149.129C82.8382 148.573 82.389 148.123 81.8348 148.123Z" fill="#0D4EE1"/>
<path opacity="0.3" d="M81.8348 148.123H77.3736C76.8194 148.123 76.3701 148.573 76.3701 149.129V151.958C76.3701 152.514 76.8194 152.964 77.3736 152.964H81.8348C82.389 152.964 82.8382 152.514 82.8382 151.958V149.129C82.8382 148.573 82.389 148.123 81.8348 148.123Z" fill="white"/>
<path d="M100.317 16.189H58.898C58.3139 16.189 57.8403 16.6639 57.8403 17.2498V34.5762C57.8403 35.162 58.3139 35.637 58.898 35.637H100.317C100.901 35.637 101.375 35.162 101.375 34.5762V17.2498C101.375 16.6639 100.901 16.189 100.317 16.189Z" fill="#0D4EE1"/>
<path opacity="0.6" d="M100.317 16.189H58.898C58.3139 16.189 57.8403 16.6639 57.8403 17.2498V34.5762C57.8403 35.162 58.3139 35.637 58.898 35.637H100.317C100.901 35.637 101.375 35.162 101.375 34.5762V17.2498C101.375 16.6639 100.901 16.189 100.317 16.189Z" fill="white"/>
<path opacity="0.1" d="M100.344 16.189H58.898C58.6175 16.189 58.3485 16.3007 58.1501 16.4997C57.9518 16.6986 57.8403 16.9684 57.8403 17.2498V22.8054L79.4007 27.0622C79.535 27.0895 79.6733 27.0895 79.8075 27.0622L101.375 22.8054V17.2498C101.375 16.9731 101.267 16.7073 101.075 16.5091C100.882 16.311 100.62 16.1961 100.344 16.189Z" fill="#2A373D"/>
<path d="M101.212 9.07619H88.5605V6.9478C88.5587 6.06825 88.2096 5.22525 87.5894 4.60332C86.9693 3.98139 86.1288 3.63119 85.2519 3.62939H73.9564C73.0794 3.63119 72.2389 3.98139 71.6188 4.60332C70.9987 5.22525 70.6495 6.06825 70.6477 6.9478V9.07619H57.9963C57.7194 9.07619 57.4538 9.18652 57.258 9.38291C57.0622 9.5793 56.9521 9.84566 56.9521 10.1234V20.6022C56.9522 20.8445 57.0361 21.0792 57.1894 21.2664C57.3427 21.4537 57.5559 21.5818 57.7929 21.629L79.4007 25.8654C79.535 25.8927 79.6733 25.8927 79.8075 25.8654L101.415 21.6018C101.652 21.5546 101.866 21.4265 102.019 21.2392C102.172 21.052 102.256 20.8173 102.256 20.575V10.1234C102.256 9.84566 102.146 9.5793 101.95 9.38291C101.754 9.18652 101.489 9.07619 101.212 9.07619ZM73.1563 6.9478C73.1581 6.73554 73.243 6.53247 73.3926 6.38238C73.5423 6.23228 73.7448 6.14717 73.9564 6.1454H85.2519C85.4623 6.14714 85.6638 6.23131 85.8133 6.37995C85.9627 6.52859 86.0484 6.72992 86.0519 6.94099V9.0694H73.1699L73.1563 6.9478Z" fill="#0D4EE1"/>
<path opacity="0.6" d="M101.212 9.07619H88.5605V6.9478C88.5587 6.06825 88.2096 5.22525 87.5894 4.60332C86.9693 3.98139 86.1288 3.63119 85.2519 3.62939H73.9564C73.0794 3.63119 72.2389 3.98139 71.6188 4.60332C70.9987 5.22525 70.6495 6.06825 70.6477 6.9478V9.07619H57.9963C57.7194 9.07619 57.4538 9.18652 57.258 9.38291C57.0622 9.5793 56.9521 9.84566 56.9521 10.1234V20.6022C56.9522 20.8445 57.0361 21.0792 57.1894 21.2664C57.3427 21.4537 57.5559 21.5818 57.7929 21.629L79.4007 25.8654C79.535 25.8927 79.6733 25.8927 79.8075 25.8654L101.415 21.6018C101.652 21.5546 101.866 21.4265 102.019 21.2392C102.172 21.052 102.256 20.8173 102.256 20.575V10.1234C102.256 9.84566 102.146 9.5793 101.95 9.38291C101.754 9.18652 101.489 9.07619 101.212 9.07619ZM73.1563 6.9478C73.1581 6.73554 73.243 6.53247 73.3926 6.38238C73.5423 6.23228 73.7448 6.14717 73.9564 6.1454H85.2519C85.4623 6.14714 85.6638 6.23131 85.8133 6.37995C85.9627 6.52859 86.0484 6.72992 86.0519 6.94099V9.0694H73.1699L73.1563 6.9478Z" fill="white"/>
<path d="M81.8348 23.0365H77.3736C76.8194 23.0365 76.3701 23.4871 76.3701 24.0429V26.8717C76.3701 27.4275 76.8194 27.8781 77.3736 27.8781H81.8348C82.389 27.8781 82.8382 27.4275 82.8382 26.8717V24.0429C82.8382 23.4871 82.389 23.0365 81.8348 23.0365Z" fill="#0D4EE1"/>
<path opacity="0.3" d="M81.8348 23.0365H77.3736C76.8194 23.0365 76.3701 23.4871 76.3701 24.0429V26.8717C76.3701 27.4275 76.8194 27.8781 77.3736 27.8781H81.8348C82.389 27.8781 82.8382 27.4275 82.8382 26.8717V24.0429C82.8382 23.4871 82.389 23.0365 81.8348 23.0365Z" fill="white"/>
<path d="M94.9201 98.1834H58.898C58.6156 98.1834 58.3449 98.0709 58.1453 97.8707C57.9456 97.6704 57.8335 97.3989 57.8335 97.1158V79.7961C57.8345 79.6533 57.8645 79.5122 57.9216 79.3813C57.9492 79.3203 57.9809 79.2612 58.0166 79.2046C58.0543 79.1464 58.0999 79.0937 58.1522 79.0482C58.3496 78.849 58.6179 78.7365 58.898 78.7354H92.9946C92.7109 81.1086 92.618 83.5008 92.7166 85.889C92.7166 86.2766 92.7166 86.6642 92.7776 87.045C92.8251 87.759 92.8793 88.4798 92.9607 89.1938C93.3096 92.2489 93.9661 95.2608 94.9201 98.1834Z" fill="#0D4EE1"/>
<path opacity="0.6" d="M94.9201 98.1834H58.898C58.6156 98.1834 58.3449 98.0709 58.1453 97.8707C57.9456 97.6704 57.8335 97.3989 57.8335 97.1158V79.7961C57.8345 79.6533 57.8645 79.5122 57.9216 79.3813C57.9492 79.3203 57.9809 79.2612 58.0166 79.2046C58.0543 79.1464 58.0999 79.0937 58.1522 79.0482C58.3496 78.849 58.6179 78.7365 58.898 78.7354H92.9946C92.7109 81.1086 92.618 83.5008 92.7166 85.889C92.7166 86.2766 92.7166 86.6642 92.7776 87.045C92.8251 87.759 92.8793 88.4798 92.9607 89.1938C93.3096 92.2489 93.9661 95.2608 94.9201 98.1834Z" fill="white"/>
<path opacity="0.1" d="M92.9946 78.7354C92.711 81.1086 92.618 83.5008 92.7167 85.889C92.7167 86.2766 92.7167 86.6642 92.7777 87.045L82.8382 89.0034L79.8008 89.6017C79.6696 89.6357 79.5319 89.6357 79.4007 89.6017L76.3701 89.0102L57.8403 85.3517V79.7894C57.8425 79.6495 57.87 79.5113 57.9217 79.3813C57.9493 79.3203 57.981 79.2612 58.0166 79.2046C58.0544 79.1464 58.1 79.0937 58.1522 79.0482C58.3497 78.849 58.6179 78.7365 58.898 78.7354H92.9946Z" fill="#2A373D"/>
<path d="M94.4116 71.6226H88.5673V69.4942C88.5637 68.614 88.213 67.771 87.5919 67.1493C86.9707 66.5275 86.1294 66.1776 85.2519 66.1758H73.9564C73.0789 66.1758 72.2373 66.5254 71.6168 67.1477C70.9963 67.77 70.6477 68.6141 70.6477 69.4942V71.6226H57.9963C57.8592 71.6226 57.7234 71.6497 57.5967 71.7023C57.47 71.7549 57.3549 71.8321 57.258 71.9293C57.161 72.0265 57.0841 72.142 57.0316 72.269C56.9792 72.3961 56.9521 72.5323 56.9521 72.6698V83.1418C56.9523 83.3858 57.0368 83.6223 57.1914 83.8108C57.3459 83.9993 57.5609 84.1281 57.7996 84.1754H57.8403L76.3701 87.8406L79.4007 88.4322C79.5327 88.4593 79.6688 88.4593 79.8007 88.4322L82.8382 87.8338L92.7166 85.8822C92.618 83.494 92.711 81.1018 92.9946 78.7286C93.2762 76.3256 93.7501 73.9493 94.4116 71.6226ZM73.1563 69.4942C73.1599 69.2831 73.2455 69.0818 73.395 68.9331C73.5444 68.7845 73.7459 68.7003 73.9564 68.6986H85.2519C85.4617 68.7004 85.6624 68.7847 85.8108 68.9336C85.9592 69.0824 86.0434 69.2837 86.0451 69.4942V71.6226H73.1631L73.1563 69.4942Z" fill="#0D4EE1"/>
<path opacity="0.6" d="M94.4116 71.6226H88.5673V69.4942C88.5637 68.614 88.213 67.771 87.5919 67.1493C86.9707 66.5275 86.1294 66.1776 85.2519 66.1758H73.9564C73.0789 66.1758 72.2373 66.5254 71.6168 67.1477C70.9963 67.77 70.6477 68.6141 70.6477 69.4942V71.6226H57.9963C57.8592 71.6226 57.7234 71.6497 57.5967 71.7023C57.47 71.7549 57.3549 71.8321 57.258 71.9293C57.161 72.0265 57.0841 72.142 57.0316 72.269C56.9792 72.3961 56.9521 72.5323 56.9521 72.6698V83.1418C56.9523 83.3858 57.0368 83.6223 57.1914 83.8108C57.3459 83.9993 57.5609 84.1281 57.7996 84.1754H57.8403L76.3701 87.8406L79.4007 88.4322C79.5327 88.4593 79.6688 88.4593 79.8007 88.4322L82.8382 87.8338L92.7166 85.8822C92.618 83.494 92.711 81.1018 92.9946 78.7286C93.2762 76.3256 93.7501 73.9493 94.4116 71.6226ZM73.1563 69.4942C73.1599 69.2831 73.2455 69.0818 73.395 68.9331C73.5444 68.7845 73.7459 68.7003 73.9564 68.6986H85.2519C85.4617 68.7004 85.6624 68.7847 85.8108 68.9336C85.9592 69.0824 86.0434 69.2837 86.0451 69.4942V71.6226H73.1631L73.1563 69.4942Z" fill="white"/>
<path d="M81.8348 85.5762H77.3736C76.8194 85.5762 76.3701 86.0267 76.3701 86.5826V89.4114C76.3701 89.9672 76.8194 90.4178 77.3736 90.4178H81.8348C82.389 90.4178 82.8382 89.9672 82.8382 89.4114V86.5826C82.8382 86.0267 82.389 85.5762 81.8348 85.5762Z" fill="#0D4EE1"/>
<path opacity="0.3" d="M81.8348 85.5762H77.3736C76.8194 85.5762 76.3701 86.0267 76.3701 86.5826V89.4114C76.3701 89.9672 76.8194 90.4178 77.3736 90.4178H81.8348C82.389 90.4178 82.8382 89.9672 82.8382 89.4114V86.5826C82.8382 86.0267 82.389 85.5762 81.8348 85.5762Z" fill="white"/>
<path d="M187.935 160.723H229.354C229.938 160.723 230.412 160.248 230.412 159.662V142.336C230.412 141.75 229.938 141.275 229.354 141.275H187.935C187.351 141.275 186.877 141.75 186.877 142.336V159.662C186.877 160.248 187.351 160.723 187.935 160.723Z" fill="#0D4EE1"/>
<path opacity="0.6" d="M187.935 160.723H229.354C229.938 160.723 230.412 160.248 230.412 159.662V142.336C230.412 141.75 229.938 141.275 229.354 141.275H187.935C187.351 141.275 186.877 141.75 186.877 142.336V159.662C186.877 160.248 187.351 160.723 187.935 160.723Z" fill="white"/>
<path opacity="0.1" d="M187.942 141.282H229.354C229.634 141.282 229.904 141.394 230.102 141.593C230.3 141.791 230.412 142.061 230.412 142.343V147.898L208.824 152.155C208.692 152.182 208.556 152.182 208.424 152.155L186.857 147.898V142.343C186.857 142.201 186.885 142.061 186.94 141.93C186.995 141.8 187.075 141.682 187.176 141.583C187.277 141.484 187.397 141.406 187.529 141.355C187.66 141.303 187.801 141.278 187.942 141.282Z" fill="#2A373D"/>
<path d="M187.04 134.169H199.691V132.041C199.693 131.161 200.042 130.318 200.663 129.696C201.283 129.074 202.123 128.724 203 128.722H214.302C215.179 128.724 216.02 129.074 216.64 129.696C217.26 130.318 217.609 131.161 217.611 132.041V134.169H230.256C230.393 134.169 230.529 134.196 230.655 134.249C230.782 134.301 230.897 134.378 230.994 134.476C231.091 134.573 231.168 134.688 231.22 134.815C231.273 134.942 231.3 135.079 231.3 135.216V145.695C231.298 145.937 231.214 146.171 231.061 146.358C230.908 146.545 230.695 146.673 230.459 146.722L208.824 150.985C208.689 151.006 208.552 151.006 208.417 150.985L186.809 146.722C186.573 146.673 186.361 146.545 186.207 146.358C186.054 146.171 185.97 145.937 185.969 145.695V135.216C185.969 135.076 185.997 134.938 186.051 134.809C186.105 134.68 186.184 134.564 186.284 134.466C186.384 134.368 186.502 134.292 186.632 134.241C186.762 134.19 186.901 134.165 187.04 134.169ZM215.096 132.041C215.094 131.829 215.01 131.627 214.862 131.478C214.714 131.328 214.513 131.242 214.302 131.238H203C202.789 131.242 202.588 131.327 202.438 131.477C202.289 131.627 202.204 131.829 202.2 132.041V134.169H215.082L215.096 132.041Z" fill="#0D4EE1"/>
<path opacity="0.6" d="M187.04 134.169H199.691V132.041C199.693 131.161 200.042 130.318 200.663 129.696C201.283 129.074 202.123 128.724 203 128.722H214.302C215.179 128.724 216.02 129.074 216.64 129.696C217.26 130.318 217.609 131.161 217.611 132.041V134.169H230.256C230.393 134.169 230.529 134.196 230.655 134.249C230.782 134.301 230.897 134.378 230.994 134.476C231.091 134.573 231.168 134.688 231.22 134.815C231.273 134.942 231.3 135.079 231.3 135.216V145.695C231.298 145.937 231.214 146.171 231.061 146.358C230.908 146.545 230.695 146.673 230.459 146.722L208.824 150.985C208.689 151.006 208.552 151.006 208.417 150.985L186.809 146.722C186.573 146.673 186.361 146.545 186.207 146.358C186.054 146.171 185.97 145.937 185.969 145.695V135.216C185.969 135.076 185.997 134.938 186.051 134.809C186.105 134.68 186.184 134.564 186.284 134.466C186.384 134.368 186.502 134.292 186.632 134.241C186.762 134.19 186.901 134.165 187.04 134.169ZM215.096 132.041C215.094 131.829 215.01 131.627 214.862 131.478C214.714 131.328 214.513 131.242 214.302 131.238H203C202.789 131.242 202.588 131.327 202.438 131.477C202.289 131.627 202.204 131.829 202.2 132.041V134.169H215.082L215.096 132.041Z" fill="white"/>
<path d="M206.417 152.964H210.878C211.433 152.964 211.882 152.514 211.882 151.958V149.129C211.882 148.573 211.433 148.123 210.878 148.123H206.417C205.863 148.123 205.414 148.573 205.414 149.129V151.958C205.414 152.514 205.863 152.964 206.417 152.964Z" fill="#0D4EE1"/>
<path opacity="0.3" d="M206.417 152.964H210.878C211.433 152.964 211.882 152.514 211.882 151.958V149.129C211.882 148.573 211.433 148.123 210.878 148.123H206.417C205.863 148.123 205.414 148.573 205.414 149.129V151.958C205.414 152.514 205.863 152.964 206.417 152.964Z" fill="white"/>
<path d="M187.935 35.6301L229.354 35.6301C229.938 35.6301 230.412 35.1552 230.412 34.5693V17.2429C230.412 16.6571 229.938 16.1821 229.354 16.1821L187.935 16.1821C187.351 16.1821 186.877 16.6571 186.877 17.2429V34.5693C186.877 35.1552 187.351 35.6301 187.935 35.6301Z" fill="#0D4EE1"/>
<path opacity="0.6" d="M187.935 35.6301L229.354 35.6301C229.938 35.6301 230.412 35.1552 230.412 34.5693V17.2429C230.412 16.6571 229.938 16.1821 229.354 16.1821L187.935 16.1821C187.351 16.1821 186.877 16.6571 186.877 17.2429V34.5693C186.877 35.1552 187.351 35.6301 187.935 35.6301Z" fill="white"/>
<path opacity="0.1" d="M187.942 16.189H229.354C229.634 16.189 229.903 16.3007 230.102 16.4997C230.3 16.6986 230.412 16.9684 230.412 17.2498V22.8054L208.824 27.0622C208.692 27.0893 208.556 27.0893 208.424 27.0622L186.884 22.8054V17.2498C186.884 16.9684 186.995 16.6986 187.194 16.4997C187.392 16.3007 187.661 16.189 187.942 16.189Z" fill="#2A373D"/>
<path d="M187.04 9.07613H199.691V6.94774C199.693 6.06819 200.042 5.22519 200.663 4.60326C201.283 3.98133 202.123 3.63113 203 3.62934H214.302C214.739 3.62665 215.172 3.71045 215.576 3.87593C215.98 4.04141 216.348 4.2853 216.657 4.59362C216.967 4.90194 217.214 5.26862 217.382 5.6726C217.55 6.07658 217.637 6.50991 217.638 6.94774V9.07613H230.283C230.56 9.07613 230.825 9.18646 231.021 9.38285C231.217 9.57924 231.327 9.8456 231.327 10.1233V20.6021C231.327 20.8444 231.243 21.0791 231.09 21.2664C230.936 21.4536 230.723 21.5817 230.486 21.6289L208.824 25.8653C208.69 25.8926 208.552 25.8926 208.417 25.8653L186.809 21.6017C186.573 21.5545 186.359 21.4264 186.206 21.2392C186.053 21.0519 185.969 20.8172 185.969 20.5749V10.1233C185.969 9.9835 185.997 9.84507 186.051 9.71621C186.105 9.58735 186.184 9.47067 186.284 9.37307C186.384 9.27546 186.502 9.1989 186.632 9.1479C186.762 9.09691 186.901 9.0725 187.04 9.07613ZM215.096 6.94774C215.096 6.7361 215.012 6.53303 214.864 6.38274C214.715 6.23246 214.513 6.14713 214.302 6.14534H203C202.79 6.14708 202.588 6.23125 202.439 6.37989C202.289 6.52853 202.204 6.72986 202.2 6.94093V9.06934H215.082L215.096 6.94774Z" fill="#0D4EE1"/>
<path opacity="0.6" d="M187.04 9.07613H199.691V6.94774C199.693 6.06819 200.042 5.22519 200.663 4.60326C201.283 3.98133 202.123 3.63113 203 3.62934H214.302C214.739 3.62665 215.172 3.71045 215.576 3.87593C215.98 4.04141 216.348 4.2853 216.657 4.59362C216.967 4.90194 217.214 5.26862 217.382 5.6726C217.55 6.07658 217.637 6.50991 217.638 6.94774V9.07613H230.283C230.56 9.07613 230.825 9.18646 231.021 9.38285C231.217 9.57924 231.327 9.8456 231.327 10.1233V20.6021C231.327 20.8444 231.243 21.0791 231.09 21.2664C230.936 21.4536 230.723 21.5817 230.486 21.6289L208.824 25.8653C208.69 25.8926 208.552 25.8926 208.417 25.8653L186.809 21.6017C186.573 21.5545 186.359 21.4264 186.206 21.2392C186.053 21.0519 185.969 20.8172 185.969 20.5749V10.1233C185.969 9.9835 185.997 9.84507 186.051 9.71621C186.105 9.58735 186.184 9.47067 186.284 9.37307C186.384 9.27546 186.502 9.1989 186.632 9.1479C186.762 9.09691 186.901 9.0725 187.04 9.07613ZM215.096 6.94774C215.096 6.7361 215.012 6.53303 214.864 6.38274C214.715 6.23246 214.513 6.14713 214.302 6.14534H203C202.79 6.14708 202.588 6.23125 202.439 6.37989C202.289 6.52853 202.204 6.72986 202.2 6.94093V9.06934H215.082L215.096 6.94774Z" fill="white"/>
<path d="M206.417 27.8713H210.878C211.433 27.8713 211.882 27.4208 211.882 26.8649V24.0361C211.882 23.4803 211.433 23.0297 210.878 23.0297H206.417C205.863 23.0297 205.414 23.4803 205.414 24.0361V26.8649C205.414 27.4208 205.863 27.8713 206.417 27.8713Z" fill="#0D4EE1"/>
<path opacity="0.3" d="M206.417 27.8713H210.878C211.433 27.8713 211.882 27.4208 211.882 26.8649V24.0361C211.882 23.4803 211.433 23.0297 210.878 23.0297H206.417C205.863 23.0297 205.414 23.4803 205.414 24.0361V26.8649C205.414 27.4208 205.863 27.8713 206.417 27.8713Z" fill="white"/>
<path d="M193.359 98.1834H229.361C229.642 98.1816 229.911 98.0683 230.109 97.8683C230.307 97.6682 230.418 97.3977 230.418 97.1158V79.7962C230.417 79.6533 230.387 79.5122 230.33 79.3814C230.305 79.319 230.274 79.2597 230.235 79.2046C230.198 79.1464 230.152 79.0937 230.1 79.0482C230.002 78.9489 229.886 78.8701 229.758 78.8164C229.63 78.7627 229.493 78.7352 229.354 78.7354H195.264C195.548 81.1086 195.641 83.5008 195.542 85.889C195.542 86.2766 195.542 86.6642 195.481 87.045C195.44 87.759 195.379 88.4798 195.298 89.1938C194.956 92.2482 194.306 95.2601 193.359 98.1834Z" fill="#0D4EE1"/>
<path opacity="0.6" d="M193.359 98.1834H229.361C229.642 98.1816 229.911 98.0683 230.109 97.8683C230.307 97.6682 230.418 97.3977 230.418 97.1158V79.7962C230.417 79.6533 230.387 79.5122 230.33 79.3814C230.305 79.319 230.274 79.2597 230.235 79.2046C230.198 79.1464 230.152 79.0937 230.1 79.0482C230.002 78.9489 229.886 78.8701 229.758 78.8164C229.63 78.7627 229.493 78.7352 229.354 78.7354H195.264C195.548 81.1086 195.641 83.5008 195.542 85.889C195.542 86.2766 195.542 86.6642 195.481 87.045C195.44 87.759 195.379 88.4798 195.298 89.1938C194.956 92.2482 194.306 95.2601 193.359 98.1834Z" fill="white"/>
<path opacity="0.1" d="M195.264 78.7354C195.548 81.1086 195.641 83.5008 195.542 85.889C195.542 86.2766 195.542 86.6642 195.481 87.045L205.434 89.0034L208.472 89.6018C208.603 89.6357 208.74 89.6357 208.872 89.6018L211.902 89.0102L230.432 85.3517V79.7894C230.43 79.6495 230.402 79.5113 230.351 79.3814C230.326 79.319 230.294 79.2597 230.256 79.2046C230.218 79.1464 230.172 79.0937 230.12 79.0482C230.023 78.9489 229.907 78.8701 229.779 78.8164C229.651 78.7627 229.513 78.7352 229.374 78.7354H195.264Z" fill="#2A373D"/>
<path d="M193.84 71.6226H199.692V69.4942C199.693 68.6146 200.042 67.7716 200.663 67.1497C201.283 66.5278 202.123 66.1776 203 66.1758H214.296C215.174 66.1758 216.016 66.5252 216.638 67.1473C217.259 67.7694 217.609 68.6135 217.611 69.4942V71.6226H230.256C230.533 71.6226 230.798 71.7329 230.994 71.9293C231.19 72.1257 231.3 72.392 231.3 72.6698V83.1418C231.3 83.3849 231.216 83.6206 231.063 83.8089C230.91 83.9973 230.697 84.1268 230.459 84.1754H230.412L211.882 87.8406L208.824 88.4254C208.692 88.4525 208.556 88.4525 208.424 88.4254L205.387 87.827L195.508 85.8754C195.701 81.0554 195.128 76.2354 193.813 71.5954L193.84 71.6226ZM215.096 69.4942C215.092 69.2831 215.007 69.0818 214.857 68.9331C214.708 68.7845 214.506 68.7003 214.296 68.6986H203C202.79 68.7004 202.59 68.7847 202.441 68.9336C202.293 69.0824 202.209 69.2837 202.207 69.4942V71.6226H215.089L215.096 69.4942Z" fill="#0D4EE1"/>
<path opacity="0.6" d="M193.84 71.6226H199.692V69.4942C199.693 68.6146 200.042 67.7716 200.663 67.1497C201.283 66.5278 202.123 66.1776 203 66.1758H214.296C215.174 66.1758 216.016 66.5252 216.638 67.1473C217.259 67.7694 217.609 68.6135 217.611 69.4942V71.6226H230.256C230.533 71.6226 230.798 71.7329 230.994 71.9293C231.19 72.1257 231.3 72.392 231.3 72.6698V83.1418C231.3 83.3849 231.216 83.6206 231.063 83.8089C230.91 83.9973 230.697 84.1268 230.459 84.1754H230.412L211.882 87.8406L208.824 88.4254C208.692 88.4525 208.556 88.4525 208.424 88.4254L205.387 87.827L195.508 85.8754C195.701 81.0554 195.128 76.2354 193.813 71.5954L193.84 71.6226ZM215.096 69.4942C215.092 69.2831 215.007 69.0818 214.857 68.9331C214.708 68.7845 214.506 68.7003 214.296 68.6986H203C202.79 68.7004 202.59 68.7847 202.441 68.9336C202.293 69.0824 202.209 69.2837 202.207 69.4942V71.6226H215.089L215.096 69.4942Z" fill="white"/>
<path d="M206.417 90.4246H210.878C211.433 90.4246 211.882 89.974 211.882 89.4182V86.5894C211.882 86.0335 211.433 85.583 210.878 85.583H206.417C205.863 85.583 205.414 86.0335 205.414 86.5894V89.4182C205.414 89.974 205.863 90.4246 206.417 90.4246Z" fill="#0D4EE1"/>
<path opacity="0.3" d="M206.417 90.4246H210.878C211.433 90.4246 211.882 89.974 211.882 89.4182V86.5894C211.882 86.0335 211.433 85.583 210.878 85.583H206.417C205.863 85.583 205.414 86.0335 205.414 86.5894V89.4182C205.414 89.974 205.863 90.4246 206.417 90.4246Z" fill="white"/>
<path d="M177.596 76.0358C177.596 75.1945 176.916 74.5126 176.077 74.5126H146.319H116.562C115.723 74.5126 115.043 75.1945 115.043 76.0358V100.931C115.043 101.772 115.723 102.454 116.562 102.454H176.077C176.916 102.454 177.596 101.772 177.596 100.931V76.0358Z" fill="#00D555"/>
<path d="M154.435 70.0654H138.197C136.966 70.0636 135.785 69.5723 134.915 68.6991C134.044 67.8259 133.554 66.6422 133.552 65.4074V61.2254C133.554 59.9906 134.044 58.8068 134.915 57.9337C135.785 57.0605 136.966 56.5692 138.197 56.5674H154.435C155.667 56.5674 156.848 57.0581 157.719 57.9317C158.59 58.8052 159.079 59.99 159.079 61.2254V65.387C159.082 66.0004 158.964 66.6083 158.732 67.1758C158.499 67.7433 158.158 68.2592 157.726 68.6939C157.295 69.1286 156.782 69.4735 156.217 69.7089C155.652 69.9442 155.047 70.0654 154.435 70.0654ZM138.197 59.9878C137.87 59.9913 137.557 60.1226 137.326 60.3537C137.094 60.5849 136.961 60.8976 136.956 61.2254V65.387C136.956 65.7206 137.088 66.0406 137.323 66.2765C137.559 66.5124 137.878 66.645 138.21 66.645H154.448C154.781 66.645 155.1 66.5124 155.335 66.2765C155.571 66.0406 155.703 65.7206 155.703 65.387V61.2254C155.703 60.8917 155.571 60.5718 155.335 60.3358C155.1 60.0999 154.781 59.9674 154.448 59.9674L138.197 59.9878Z" fill="#08C152"/>
<path opacity="0.2" d="M176.07 74.5126H116.569C116.369 74.5117 116.17 74.5504 115.985 74.6266C115.8 74.7027 115.632 74.8148 115.49 74.9563C115.349 75.0978 115.236 75.2661 115.159 75.4513C115.083 75.6366 115.043 75.8352 115.043 76.0358V84.0258L146.028 90.1458C146.218 90.1872 146.414 90.1872 146.604 90.1458L177.596 84.0258V76.0358C177.596 75.8352 177.556 75.6366 177.479 75.4513C177.402 75.2661 177.29 75.0978 177.148 74.9563C177.007 74.8148 176.838 74.7027 176.653 74.6266C176.468 74.5504 176.27 74.5117 176.07 74.5126Z" fill="#2A373D"/>
<path d="M177.636 82.3053L146.591 88.4253C146.398 88.4594 146.2 88.4594 146.008 88.4253L114.962 82.3053C114.621 82.2378 114.314 82.0539 114.092 81.7849C113.871 81.516 113.75 81.1784 113.748 80.8297V65.8017C113.748 65.6044 113.787 65.409 113.862 65.2266C113.938 65.0443 114.048 64.8787 114.187 64.7391C114.326 64.5996 114.491 64.4889 114.673 64.4133C114.855 64.3378 115.05 64.299 115.247 64.299H177.365C177.562 64.299 177.757 64.3378 177.938 64.4133C178.12 64.4889 178.285 64.5996 178.425 64.7391C178.564 64.8787 178.674 65.0443 178.749 65.2266C178.825 65.409 178.863 65.6044 178.863 65.8017V80.8569C178.857 81.2032 178.731 81.5365 178.507 81.8004C178.284 82.0644 177.976 82.2427 177.636 82.3053Z" fill="#00D555"/>
<path d="M149.533 84.3522H143.112C142.319 84.3522 141.675 84.9976 141.675 85.7938V89.867C141.675 90.6631 142.319 91.3086 143.112 91.3086H149.533C150.327 91.3086 150.97 90.6631 150.97 89.867V85.7938C150.97 84.9976 150.327 84.3522 149.533 84.3522Z" fill="#08C152"/>
<path d="M258.25 89.9282C259.03 91.5398 259.606 93.063 260.284 94.6542C260.962 96.2454 261.457 97.8298 261.986 99.455C263.058 102.75 263.85 106.131 264.352 109.56C264.42 109.988 264.454 110.451 264.501 110.92L264.569 111.6C264.569 111.722 264.569 111.811 264.569 111.953V112.395C264.592 113.427 264.503 114.457 264.305 115.469C263.969 117.228 263.49 118.956 262.874 120.637C261.716 123.832 260.273 126.916 258.562 129.851L255.118 128.389C255.884 125.288 256.657 122.126 257.24 119.073C257.525 117.61 257.727 116.132 257.843 114.646C257.883 114.039 257.87 113.429 257.803 112.824L257.728 112.395L257.633 111.851C257.559 111.491 257.511 111.131 257.423 110.763C256.747 107.762 255.873 104.809 254.806 101.923C254.291 100.448 253.721 98.979 253.152 97.5034C252.582 96.0278 251.952 94.5454 251.369 93.1854L258.25 89.9282Z" fill="#FFBE9D"/>
<path d="M255.267 127.484L252.623 130.068L258.393 132.788C258.393 132.788 259.789 130.34 258.826 128.124L255.267 127.484Z" fill="#FFBE9D"/>
<path d="M250.494 133.924L255.362 135.923L258.393 132.761L252.623 130.068L250.494 133.924Z" fill="#FFBE9D"/>
<path d="M266.569 137.467C266.48 136.229 266.076 135.035 265.396 133.999C264.902 133.237 264.211 132.623 263.396 132.224L258.766 129.946C255.687 128.416 252.589 126.927 249.49 125.438C246.392 123.949 243.273 122.487 240.168 121.011C237.063 119.535 233.93 118.101 230.791 116.693C224.527 113.846 218.221 111.076 211.875 108.383C208.702 107.023 205.522 105.718 202.315 104.439C201.379 104.07 200.618 103.357 200.186 102.445C199.754 101.533 199.684 100.491 199.99 99.5297C204.282 85.9557 203.305 71.2564 197.253 58.3743C191.201 45.4922 180.521 35.3781 167.351 30.0565C154.181 24.7349 139.493 24.5986 126.227 29.6749C112.961 34.7512 102.097 44.6654 95.8079 57.433C89.5193 70.2005 88.2708 84.8792 92.3123 98.5306C96.3539 112.182 105.387 123.799 117.604 131.055C129.821 138.312 144.32 140.673 158.198 137.665C172.076 134.658 184.31 126.504 192.45 114.837C193.027 114.007 193.896 113.429 194.881 113.218C195.867 113.007 196.896 113.18 197.759 113.701C200.724 115.469 203.703 117.207 206.695 118.917C212.675 122.335 218.7 125.667 224.771 128.913C227.801 130.558 230.873 132.143 233.89 133.754C236.907 135.366 239.992 136.937 243.063 138.514C246.134 140.092 249.165 141.635 252.277 143.159L256.894 145.457C257.705 145.866 258.613 146.045 259.518 145.974C260.75 145.886 261.939 145.481 262.969 144.797C264.198 144.041 265.188 142.951 265.825 141.654C266.462 140.356 266.72 138.905 266.569 137.467ZM126.65 122.425C118.769 118.525 112.217 112.367 107.825 104.732C103.433 97.0971 101.396 88.327 101.974 79.5311C102.551 70.7352 105.716 62.3086 111.069 55.3169C116.422 48.3253 123.721 43.0826 132.045 40.2521C140.368 37.4215 149.342 37.1301 157.831 39.4147C166.319 41.6994 173.942 46.4574 179.734 53.0872C185.527 59.7169 189.229 67.9205 190.372 76.6605C191.516 85.4006 190.049 94.2844 186.159 102.189C183.576 107.436 179.989 112.123 175.6 115.98C171.212 119.837 166.11 122.79 160.584 124.669C155.058 126.548 149.217 127.317 143.395 126.932C137.572 126.547 131.883 125.016 126.65 122.425Z" fill="#0D4EE1"/>
<path d="M232.683 68.9093C232.683 69.3105 232.473 69.6369 232.208 69.6369C231.944 69.6369 231.734 69.3105 231.734 68.9093C231.734 68.5081 231.944 68.1749 232.208 68.1749C232.473 68.1749 232.683 68.5013 232.683 68.9093Z" fill="#263238"/>
<path d="M232.507 69.637C232.03 70.8688 231.387 72.0289 230.595 73.0846C230.869 73.2813 231.183 73.4156 231.514 73.4778C231.846 73.5401 232.187 73.5289 232.513 73.445L232.507 69.637Z" fill="#FFBE9D"/>
<path d="M234.107 66.6653C234.156 66.6639 234.203 66.6472 234.243 66.6175C234.282 66.5877 234.311 66.5465 234.326 66.4994C234.341 66.4523 234.341 66.4017 234.326 66.3547C234.311 66.3077 234.282 66.2665 234.242 66.2369C233.943 66.0117 233.594 65.861 233.225 65.7971C232.856 65.7333 232.477 65.7582 232.12 65.8697C232.088 65.8784 232.058 65.8938 232.032 65.9148C232.007 65.9359 231.986 65.9621 231.971 65.9918C231.956 66.0215 231.947 66.054 231.945 66.0872C231.944 66.1205 231.949 66.1537 231.961 66.1847C231.973 66.2158 231.991 66.244 232.015 66.2676C232.038 66.2911 232.066 66.3094 232.097 66.3214C232.128 66.3334 232.161 66.3387 232.194 66.337C232.227 66.3353 232.26 66.3267 232.289 66.3117C232.574 66.2268 232.875 66.2102 233.167 66.2634C233.459 66.3165 233.734 66.4379 233.971 66.6177C234.009 66.649 234.057 66.6659 234.107 66.6653Z" fill="#263238"/>
<path d="M246.399 71.9421C245.68 75.6005 244.968 82.2985 247.517 84.7329C247.517 84.7329 246.521 88.4389 239.754 88.4389C232.296 88.4389 236.195 84.7329 236.195 84.7329C240.263 83.7605 240.154 80.7345 239.442 77.9329L246.399 71.9421Z" fill="#FFBE9D"/>
<path d="M248.826 82.4413C249.389 82.6249 248.656 85.9841 248.656 85.9841C248.656 85.9841 247.728 88.3301 236.188 87.5141C235.3 87.4461 235.639 84.2229 236.486 83.7537C239.219 82.2577 247.009 81.8429 248.826 82.4413Z" fill="#263238"/>
<path d="M272.265 222.936C272.888 222.875 273.797 221.726 274.054 221.304C274.066 221.286 274.072 221.265 274.072 221.243C274.072 221.221 274.066 221.2 274.054 221.182C274.043 221.162 274.026 221.146 274.006 221.136C273.985 221.126 273.962 221.123 273.939 221.127C273.871 221.127 272.231 221.44 271.831 222.079C271.788 222.146 271.761 222.222 271.749 222.3C271.737 222.378 271.742 222.459 271.763 222.535C271.851 222.834 272.02 222.916 272.156 222.936H272.265ZM273.695 221.42C273.254 222.032 272.529 222.746 272.183 222.698C272.149 222.698 272.048 222.698 271.987 222.467C271.973 222.423 271.97 222.376 271.977 222.33C271.984 222.284 272.001 222.24 272.027 222.202C272.495 221.783 273.075 221.511 273.695 221.42Z" fill="#0D4EE1"/>
<path d="M273.627 221.42C273.748 221.409 273.869 221.389 273.987 221.358C274.007 221.352 274.025 221.341 274.039 221.325C274.053 221.31 274.063 221.291 274.068 221.27C274.072 221.249 274.07 221.227 274.063 221.207C274.056 221.187 274.044 221.168 274.027 221.155C273.987 221.114 272.888 220.175 272.142 220.25C272.053 220.256 271.965 220.281 271.886 220.323C271.806 220.365 271.737 220.424 271.681 220.495C271.617 220.557 271.578 220.639 271.569 220.728C271.56 220.816 271.583 220.905 271.634 220.978C271.878 221.365 272.949 221.488 273.627 221.42ZM273.681 221.182C273.003 221.263 272.014 221.127 271.824 220.848C271.824 220.848 271.769 220.76 271.864 220.638C271.903 220.593 271.949 220.556 272.001 220.529C272.054 220.502 272.111 220.486 272.169 220.481C272.732 220.559 273.258 220.803 273.681 221.182Z" fill="#0D4EE1"/>
<path d="M225.652 240.82C226.166 240.818 226.678 240.773 227.184 240.684C227.207 240.678 227.228 240.666 227.244 240.649C227.261 240.633 227.273 240.612 227.279 240.589C227.283 240.565 227.28 240.54 227.269 240.518C227.258 240.496 227.24 240.478 227.218 240.467C227.144 240.419 225.408 239.426 224.574 239.651C224.418 239.691 224.284 239.791 224.201 239.929C224.148 240.005 224.119 240.095 224.119 240.188C224.119 240.28 224.148 240.371 224.201 240.446C224.418 240.745 225.015 240.82 225.652 240.82ZM226.805 240.507C225.876 240.637 224.615 240.63 224.384 240.31C224.35 240.269 224.323 240.195 224.384 240.045C224.409 240.003 224.442 239.967 224.482 239.939C224.522 239.911 224.567 239.891 224.615 239.882C225.15 239.739 226.194 240.195 226.805 240.507Z" fill="#0D4EE1"/>
<path d="M227.13 240.684C227.155 240.691 227.18 240.691 227.205 240.684C227.22 240.671 227.233 240.654 227.241 240.635C227.249 240.616 227.253 240.596 227.252 240.575C227.252 240.521 227.11 239.175 226.479 238.651C226.386 238.573 226.278 238.515 226.161 238.48C226.045 238.444 225.922 238.433 225.801 238.447C225.476 238.481 225.388 238.644 225.361 238.78C225.272 239.345 226.466 240.426 227.062 240.698L227.13 240.684ZM225.917 238.644C226.068 238.649 226.214 238.704 226.33 238.801C226.706 239.232 226.943 239.768 227.008 240.337C226.391 239.97 225.584 239.12 225.652 238.78C225.652 238.78 225.652 238.671 225.883 238.651L225.917 238.644Z" fill="#0D4EE1"/>
<path d="M232.635 240.569H227.659L227.157 228.995H232.141L232.635 240.569Z" fill="#FFBE9D"/>
<path d="M278.407 217.646L274.522 220.767L264.637 213.885L268.529 210.764L278.407 217.646Z" fill="#FFBE9D"/>
<path d="M273.81 220.57L277.783 216.619C277.855 216.55 277.947 216.507 278.045 216.498C278.144 216.488 278.242 216.511 278.326 216.565L282.143 219.026C282.236 219.086 282.313 219.167 282.37 219.261C282.427 219.356 282.462 219.462 282.472 219.572C282.481 219.683 282.466 219.794 282.427 219.897C282.387 220 282.325 220.093 282.245 220.169C280.834 221.529 280.082 222.113 278.333 223.847C277.261 224.922 274.638 228.118 273.153 229.593C271.668 231.069 270.014 229.791 270.495 229.049C272.631 225.745 273.356 223.018 273.451 221.359C273.471 221.061 273.599 220.78 273.81 220.57Z" fill="#263238"/>
<path d="M227.686 239.991H233.11C233.208 239.99 233.304 240.024 233.381 240.086C233.457 240.148 233.51 240.234 233.53 240.331L234.514 244.771C234.538 244.878 234.538 244.989 234.514 245.096C234.49 245.202 234.441 245.302 234.373 245.387C234.304 245.473 234.217 245.541 234.118 245.587C234.019 245.634 233.911 245.657 233.802 245.655C231.835 245.655 229.001 245.512 226.533 245.512C223.652 245.512 221.164 245.669 217.78 245.669C215.746 245.669 215.17 243.595 216.024 243.404C219.923 242.554 223.103 242.459 226.466 240.378C226.828 240.137 227.251 240.003 227.686 239.991Z" fill="#263238"/>
<path d="M257.335 86.2289C261.654 88.2689 263.437 102.25 263.437 102.25L253.504 106.16C251.962 102.374 250.714 98.4754 249.768 94.4977C248.379 88.1873 252.894 84.1073 257.335 86.2289Z" fill="#0D4EE1"/>
<path opacity="0.3" d="M257.335 86.2289C261.654 88.2689 263.437 102.25 263.437 102.25L253.504 106.16C251.962 102.374 250.714 98.4754 249.768 94.4977C248.379 88.1873 252.894 84.1073 257.335 86.2289Z" fill="white"/>
<path opacity="0.2" d="M250.901 90.3295C250.562 90.1646 250.208 90.0348 249.843 89.9419C249.447 91.4328 249.433 93.0001 249.802 94.4979C250.743 98.4759 251.99 102.375 253.531 106.16L256.806 104.875C256.203 101.223 254.352 91.9887 250.901 90.3295Z" fill="#2A373D"/>
<path d="M228.534 86.1201C228.534 86.1201 223.232 92.1245 228.235 129.3H254.881C255.064 125.22 252.494 105.187 256.44 85.8617C253.493 85.2933 250.513 84.9162 247.518 84.7329C243.746 84.5151 239.966 84.5151 236.195 84.7329C233.609 84.9942 231.047 85.458 228.534 86.1201Z" fill="#0D4EE1"/>
<path opacity="0.3" d="M228.534 86.1201C228.534 86.1201 223.232 92.1245 228.235 129.3H254.881C255.064 125.22 252.494 105.187 256.44 85.8617C253.493 85.2933 250.513 84.9162 247.518 84.7329C243.746 84.5151 239.966 84.5151 236.195 84.7329C233.609 84.9942 231.047 85.458 228.534 86.1201Z" fill="white"/>
<path opacity="0.2" d="M233.91 94.0898C232.703 90.4586 229.801 89.2958 226.845 91.4514C226.248 94.9738 225.828 100.652 226.309 109.655L231.51 109.607C231.51 109.607 235.693 99.4958 233.91 94.0898Z" fill="#2A373D"/>
<path d="M232.934 92.6007C232.717 94.4231 232.418 96.0755 232.086 97.7959C231.754 99.5163 231.368 101.196 230.927 102.889C230.057 106.35 228.872 109.723 227.388 112.967C227.001 113.803 226.554 114.626 226.079 115.449C225.835 115.863 225.591 116.278 225.313 116.686C224.953 117.253 224.527 117.776 224.045 118.243C223.11 119.114 222 119.774 220.791 120.181C219.809 120.527 218.793 120.766 217.76 120.895C215.917 121.125 214.055 121.147 212.207 120.963C211.303 120.891 210.422 120.775 209.563 120.617C208.682 120.46 207.848 120.297 206.939 120.059L207.38 116.333C210.474 116.202 213.547 115.747 216.546 114.973C217.157 114.792 217.749 114.555 218.316 114.265C218.688 114.094 219.014 113.835 219.265 113.511C219.211 113.558 219.706 112.735 219.997 112.151C220.289 111.566 220.614 110.791 220.892 110.111C221.462 108.71 221.95 107.227 222.398 105.711C222.845 104.195 223.238 102.651 223.604 101.087C223.971 99.5231 224.282 97.9455 224.621 96.3271C224.96 94.7087 225.205 93.1039 225.449 91.6011L232.934 92.6007Z" fill="#FFBE9D"/>
<path d="M235.191 89.7853C236.595 94.3481 230.9 107.948 230.9 107.948L218.906 104.922C219.64 100.623 220.876 96.4261 222.587 92.4169C226.452 83.9305 233.503 84.2841 235.191 89.7853Z" fill="#0D4EE1"/>
<path opacity="0.3" d="M235.191 89.7853C236.595 94.3481 230.9 107.948 230.9 107.948L218.906 104.922C219.64 100.623 220.876 96.4261 222.587 92.4169C226.452 83.9305 233.503 84.2841 235.191 89.7853Z" fill="white"/>
<path d="M207.549 116.353L201.908 116.21L204.62 122.092C204.62 122.092 206.912 122.398 208.797 119.29L210.783 116.917L208.499 116.455C208.186 116.394 207.868 116.359 207.549 116.353Z" fill="#FFBE9D"/>
<path d="M198.349 117.305L201.583 122.18L204.627 122.092L201.908 116.21L198.349 117.305Z" fill="#FFBE9D"/>
<path opacity="0.2" d="M227.164 229.002L227.415 234.965H232.398L232.141 229.002H227.164Z" fill="#2A373D"/>
<path opacity="0.2" d="M268.529 210.764L264.637 213.885L269.736 217.435L273.627 214.314L268.529 210.764Z" fill="#2A373D"/>
<path d="M246.114 68.0254C245.816 72.9758 245.897 75.8862 243.402 78.4294C239.659 82.251 233.564 79.9934 232.384 75.0294C231.32 70.5822 231.991 63.2382 236.819 61.2594C237.883 60.8178 239.043 60.6572 240.187 60.7929C241.331 60.9287 242.421 61.3563 243.353 62.0349C244.285 62.7135 245.029 63.6205 245.512 64.6692C245.995 65.718 246.203 66.8734 246.114 68.0254Z" fill="#FFBE9D"/>
<path d="M250.101 63.4285C250.101 63.4285 252.697 64.2037 251.884 67.1753C250.657 71.6905 247.768 76.8857 244.039 77.2121C239.395 77.6269 237.3 72.8193 236.69 67.8485C233.91 65.9377 231.849 64.1493 232.513 62.1637C233.53 59.1037 237.219 56.4653 243.09 57.1453C248.962 57.8253 251.884 61.6333 250.101 63.4285Z" fill="#263238"/>
<path d="M239.517 68.8685C239.427 70.0963 238.936 71.2601 238.12 72.1801C237.036 73.3769 235.897 72.6289 235.707 71.1737C235.537 69.8545 235.89 67.6445 237.219 66.9849C238.548 66.3253 239.605 67.3861 239.517 68.8685Z" fill="#FFBE9D"/>
<path d="M237.686 129.3C237.686 129.3 236.005 162.974 239.28 177.24C244.466 199.83 267.268 217.932 267.268 217.932L274.59 212.049C274.59 212.049 255.83 198.048 254.142 179.239C252.63 162.348 254.867 142.948 254.867 129.3H237.686Z" fill="#0D4EE1"/>
<path opacity="0.2" d="M237.686 129.3C237.686 129.3 236.005 162.974 239.28 177.24C244.466 199.83 267.268 217.932 267.268 217.932L274.59 212.049C274.59 212.049 255.83 198.048 254.142 179.239C252.63 162.348 254.867 142.948 254.867 129.3H237.686Z" fill="#2A373D"/>
<path opacity="0.2" d="M240.188 139.276C239.51 137.963 238.188 141.873 237.266 146.892C237.266 153.814 237.388 161.689 237.992 168.359C242.595 159.825 241.619 141.996 240.188 139.276Z" fill="#2A373D"/>
<path d="M263.945 216.483L266.725 218.645L275.18 211.771L272.644 209.465L263.945 216.483Z" fill="#2C6BDB"/>
<path opacity="0.4" d="M263.945 216.483L266.725 218.645L275.18 211.771L272.644 209.465L263.945 216.483Z" fill="#FAFAFA"/>
<path d="M228.235 129.3C228.235 129.3 220.737 161.192 220.208 176.424C219.618 193.513 225.557 233.809 225.557 233.809H233.998C233.998 233.809 235.036 193.2 235.415 177.635C235.822 160.669 245.748 129.3 245.748 129.3H228.235Z" fill="#0D4EE1"/>
<path opacity="0.2" d="M228.235 129.3C228.235 129.3 220.737 161.192 220.208 176.424C219.618 193.513 225.557 233.809 225.557 233.809H233.998C233.998 233.809 235.036 193.2 235.415 177.635C235.822 160.669 245.748 129.3 245.748 129.3H228.235Z" fill="#2A373D"/>
<path d="M223.937 230.437C223.896 230.437 224.411 233.952 224.411 233.952H234.676L234.954 230.817L223.937 230.437Z" fill="#2C6BDB"/>
<path opacity="0.4" d="M223.937 230.437C223.896 230.437 224.411 233.952 224.411 233.952H234.676L234.954 230.817L223.937 230.437Z" fill="#FAFAFA"/>
</svg>
