<svg width="266" height="35" viewBox="0 0 266 35" fill="none" xmlns="http://www.w3.org/2000/svg">
<path d="M33.3056 17.6364C33.3056 21.1626 32.6451 24.1829 31.324 26.6971C30.0137 29.2006 28.2239 31.1183 25.9547 32.4499C23.6962 33.7816 21.1341 34.4474 18.2683 34.4474C15.4025 34.4474 12.835 33.7816 10.5659 32.4499C8.30735 31.1076 6.51758 29.1847 5.19656 26.6811C3.88619 24.1669 3.231 21.152 3.231 17.6364C3.231 14.1101 3.88619 11.0952 5.19656 8.59162C6.51758 6.07741 8.30735 4.15447 10.5659 2.8228C12.835 1.49112 15.4025 0.825283 18.2683 0.825283C21.1341 0.825283 23.6962 1.49112 25.9547 2.8228C28.2239 4.15447 30.0137 6.07741 31.324 8.59162C32.6451 11.0952 33.3056 14.1101 33.3056 17.6364ZM27.345 17.6364C27.345 15.1541 26.9561 13.0607 26.1784 11.3562C25.4114 9.64098 24.3461 8.34659 22.9824 7.47301C21.6188 6.58878 20.0474 6.14666 18.2683 6.14666C16.4892 6.14666 14.9178 6.58878 13.5542 7.47301C12.1905 8.34659 11.1199 9.64098 10.3422 11.3562C9.57511 13.0607 9.19158 15.1541 9.19158 17.6364C9.19158 20.1186 9.57511 22.2173 10.3422 23.9325C11.1199 25.6371 12.1905 26.9315 13.5542 27.8157C14.9178 28.6893 16.4892 29.1261 18.2683 29.1261C20.0474 29.1261 21.6188 28.6893 22.9824 27.8157C24.3461 26.9315 25.4114 25.6371 26.1784 23.9325C26.9561 22.2173 27.345 20.1186 27.345 17.6364ZM59.5409 1.27273H65.4695V22.6541C65.4695 24.9979 64.9156 27.0593 63.8076 28.8384C62.7103 30.6175 61.1656 32.0078 59.1734 33.0092C57.1812 34 54.8534 34.4954 52.1901 34.4954C49.5161 34.4954 47.183 34 45.1908 33.0092C43.1986 32.0078 41.6539 30.6175 40.5566 28.8384C39.4593 27.0593 38.9106 24.9979 38.9106 22.6541V1.27273H44.8392V22.1587C44.8392 23.5224 45.1375 24.7369 45.7341 25.8022C46.3414 26.8675 47.1936 27.7038 48.2909 28.3111C49.3882 28.9077 50.6879 29.206 52.1901 29.206C53.6922 29.206 54.9919 28.9077 56.0892 28.3111C57.1972 27.7038 58.0494 26.8675 58.646 25.8022C59.2426 24.7369 59.5409 23.5224 59.5409 22.1587V1.27273ZM87.2784 34H80.9503L92.4719 1.27273H99.7908L111.328 34H105L96.2592 7.98438H96.0036L87.2784 34ZM87.4862 21.168H104.745V25.93H87.4862V21.168ZM142.114 12.315H136.138C135.967 11.3349 135.653 10.4666 135.195 9.71023C134.737 8.94318 134.167 8.29332 133.485 7.76065C132.803 7.22798 132.025 6.82848 131.152 6.56214C130.289 6.28516 129.357 6.14666 128.355 6.14666C126.576 6.14666 124.999 6.5941 123.625 7.48899C122.251 8.37322 121.175 9.67294 120.397 11.3881C119.619 13.0927 119.231 15.1754 119.231 17.6364C119.231 20.1399 119.619 22.2493 120.397 23.9645C121.186 25.669 122.262 26.9581 123.625 27.8317C124.999 28.6946 126.571 29.1261 128.339 29.1261C129.319 29.1261 130.236 28.9982 131.088 28.7425C131.951 28.4762 132.723 28.0874 133.405 27.576C134.097 27.0646 134.678 26.4361 135.147 25.6903C135.626 24.9446 135.956 24.0923 136.138 23.1335L142.114 23.1655C141.89 24.7209 141.406 26.1804 140.66 27.544C139.925 28.9077 138.961 30.1115 137.768 31.1555C136.574 32.1889 135.179 32.9986 133.581 33.5845C131.983 34.1598 130.209 34.4474 128.259 34.4474C125.383 34.4474 122.816 33.7816 120.557 32.4499C118.298 31.1183 116.519 29.1953 115.22 26.6811C113.92 24.1669 113.27 21.152 113.27 17.6364C113.27 14.1101 113.925 11.0952 115.236 8.59162C116.546 6.07741 118.33 4.15447 120.589 2.8228C122.847 1.49112 125.404 0.825283 128.259 0.825283C130.081 0.825283 131.775 1.08096 133.341 1.59233C134.907 2.10369 136.303 2.85476 137.528 3.84553C138.753 4.82564 139.76 6.02947 140.548 7.45703C141.347 8.87393 141.869 10.4933 142.114 12.315ZM147.543 34V1.27273H153.472V15.1275H168.637V1.27273H174.582V34H168.637V20.0973H153.472V34H147.543ZM181.03 34V1.27273H193.302C195.817 1.27273 197.926 1.70952 199.631 2.5831C201.346 3.45667 202.64 4.68182 203.514 6.25852C204.398 7.82457 204.84 9.65163 204.84 11.7397C204.84 13.8384 204.393 15.6602 203.498 17.2049C202.614 18.739 201.309 19.9268 199.583 20.7685C197.857 21.5994 195.737 22.0149 193.223 22.0149H184.481V17.093H192.424C193.894 17.093 195.098 16.8906 196.035 16.4858C196.973 16.0703 197.665 15.4684 198.112 14.68C198.571 13.881 198.8 12.9009 198.8 11.7397C198.8 10.5785 198.571 9.58771 198.112 8.7674C197.654 7.93643 196.957 7.30788 196.019 6.88175C195.082 6.44496 193.872 6.22656 192.392 6.22656H186.958V34H181.03ZM197.937 19.1705L206.039 34H199.423L191.465 19.1705H197.937ZM214.5 34H208.172L219.694 1.27273H227.013L238.55 34H232.222L223.481 7.98438H223.225L214.5 34ZM214.708 21.168H231.966V25.93H214.708V21.168ZM242.861 34V1.27273H263.827V6.24254H248.789V15.1275H262.388V20.0973H248.789V34H242.861Z" fill="white"/>
<path d="M76.3262 10L78.4661 14.6791L83.6398 15.2516L79.8004 18.7236L80.8452 23.7636L76.3262 21.2249L71.7945 23.7636L72.8393 18.7236L69 15.2516L74.1736 14.6791L76.3262 10Z" fill="white"/>
</svg>
