<svg width="319" height="75" viewBox="0 0 319 75" fill="none" xmlns="http://www.w3.org/2000/svg">
<g clip-path="url(#clip0_67_128)">
<path d="M10.0114 50.9886V74H0.755676V34.7273H9.60226V41.4006H10.0625C10.9659 39.2017 12.4063 37.4545 14.3835 36.1591C16.3778 34.8636 18.8409 34.2159 21.7727 34.2159C24.483 34.2159 26.8438 34.7955 28.8551 35.9545C30.8835 37.1136 32.4517 38.7926 33.5597 40.9915C34.6847 43.1903 35.2386 45.858 35.2216 48.9943V74H25.9659V50.4261C25.9659 47.8011 25.2841 45.7472 23.9205 44.2642C22.5739 42.7812 20.7074 42.0398 18.321 42.0398C16.7017 42.0398 15.2614 42.3977 14 43.1136C12.7557 43.8125 11.7756 44.8267 11.0597 46.1562C10.3608 47.4858 10.0114 49.0966 10.0114 50.9886ZM58.777 74.767C54.8395 74.767 51.439 73.9489 48.5753 72.3125C45.7287 70.6591 43.5384 68.3239 42.0043 65.3068C40.4702 62.2727 39.7032 58.7017 39.7032 54.5938C39.7032 50.554 40.4702 47.0085 42.0043 43.9574C43.5555 40.8892 45.7202 38.5028 48.4986 36.7983C51.277 35.0767 54.5412 34.2159 58.2912 34.2159C60.7117 34.2159 62.9958 34.608 65.1435 35.392C67.3083 36.1591 69.2174 37.3523 70.8708 38.9716C72.5412 40.5909 73.8537 42.6534 74.8083 45.1591C75.7628 47.6477 76.2401 50.6136 76.2401 54.0568V56.8949H44.0498V50.6562H67.368C67.3509 48.8835 66.9674 47.3068 66.2174 45.9261C65.4674 44.5284 64.4191 43.429 63.0725 42.6278C61.743 41.8267 60.1918 41.4261 58.4191 41.4261C56.527 41.4261 54.8651 41.8864 53.4333 42.8068C52.0015 43.7102 50.885 44.9034 50.0839 46.3864C49.2998 47.8523 48.8992 49.4631 48.8822 51.2188V56.6648C48.8822 58.9489 49.2998 60.9091 50.135 62.5455C50.9702 64.1648 52.1378 65.4091 53.6378 66.2784C55.1378 67.1307 56.8935 67.5568 58.9049 67.5568C60.2515 67.5568 61.4702 67.3693 62.5611 66.9943C63.652 66.6023 64.5981 66.0312 65.3992 65.2812C66.2003 64.5312 66.8055 63.6023 67.2145 62.4943L75.8566 63.4659C75.3111 65.75 74.2714 67.7443 72.7373 69.4489C71.2202 71.1364 69.277 72.4489 66.9077 73.3864C64.5384 74.3068 61.8282 74.767 58.777 74.767ZM87.5548 34.7273L95.4809 49.2244L103.535 34.7273H113.328L101.489 54.3636L113.532 74H103.791L95.4809 59.8608L87.248 74H77.4298L89.3957 54.3636L77.7366 34.7273H87.5548Z" fill="white"/>
<path d="M117.656 73.8636V21.5H137.292C141.315 21.5 144.69 22.25 147.417 23.75C150.161 25.25 152.232 27.3125 153.63 29.9375C155.045 32.5454 155.752 35.5113 155.752 38.8352C155.752 42.1931 155.045 45.1761 153.63 47.7841C152.215 50.392 150.127 52.446 147.366 53.946C144.605 55.4289 141.204 56.1704 137.164 56.1704H124.15V48.3721H135.886C138.238 48.3721 140.164 47.963 141.664 47.1448C143.164 46.3267 144.272 45.2017 144.988 43.7698C145.721 42.338 146.088 40.6931 146.088 38.8352C146.088 36.9772 145.721 35.3409 144.988 33.9261C144.272 32.5113 143.156 31.4119 141.639 30.6278C140.139 29.8267 138.204 29.4261 135.835 29.4261H127.142V67.2159L117.656 73.8636ZM160.343 73.8636V34.5909H169.317V41.1363H169.726C170.442 38.8693 171.669 37.1221 173.408 35.8948C175.164 34.6505 177.166 34.0284 179.416 34.0284C179.928 34.0284 180.499 34.0539 181.129 34.1051C181.777 34.1392 182.314 34.1988 182.74 34.2841V42.7983C182.348 42.6619 181.726 42.5426 180.874 42.4403C180.039 42.321 179.229 42.2613 178.445 42.2613C176.757 42.2613 175.24 42.6278 173.894 43.3608C172.564 44.0767 171.516 45.0738 170.749 46.3522C169.982 47.6306 169.598 49.1051 169.598 50.7755V73.8636H160.343ZM201.163 74.6306C197.328 74.6306 194.004 73.7869 191.191 72.0994C188.379 70.4119 186.197 68.0511 184.646 65.017C183.112 61.9829 182.345 58.4375 182.345 54.3806C182.345 50.3238 183.112 46.7698 184.646 43.7187C186.197 40.6676 188.379 38.2983 191.191 36.6108C194.004 34.9233 197.328 34.0795 201.163 34.0795C204.998 34.0795 208.322 34.9233 211.135 36.6108C213.947 38.2983 216.12 40.6676 217.654 43.7187C219.206 46.7698 219.981 50.3238 219.981 54.3806C219.981 58.4375 219.206 61.9829 217.654 65.017C216.12 68.0511 213.947 70.4119 211.135 72.0994C208.322 73.7869 204.998 74.6306 201.163 74.6306ZM201.214 67.2159C203.294 67.2159 205.032 66.6448 206.43 65.5028C207.828 64.3437 208.867 62.7926 209.549 60.8494C210.248 58.9062 210.598 56.7414 210.598 54.3551C210.598 51.9517 210.248 49.7784 209.549 47.8352C208.867 45.875 207.828 44.3153 206.43 43.1562C205.032 41.9971 203.294 41.4176 201.214 41.4176C199.083 41.4176 197.311 41.9971 195.896 43.1562C194.498 44.3153 193.45 45.875 192.751 47.8352C192.069 49.7784 191.728 51.9517 191.728 54.3551C191.728 56.7414 192.069 58.9062 192.751 60.8494C193.45 62.7926 194.498 64.3437 195.896 65.5028C197.311 66.6448 199.083 67.2159 201.214 67.2159ZM225.006 21.5L231.5 29L252.159 59.4431H252.773L273 30L279.926 21.5V73.8636H270.824V37.8892H270.338L255 69.5L252.5 73.8636L234.594 37.8125H234.108V73.8636H225.006V21.5ZM297.908 74.6562C295.419 74.6562 293.178 74.213 291.184 73.3267C289.206 72.4233 287.638 71.0937 286.479 69.338C285.337 67.5823 284.766 65.4176 284.766 62.8437C284.766 60.6278 285.175 58.7954 285.993 57.3466C286.811 55.8977 287.928 54.7386 289.343 53.8693C290.758 53 292.351 52.3437 294.124 51.9005C295.914 51.4403 297.763 51.1079 299.672 50.9034C301.973 50.6647 303.84 50.4517 305.272 50.2642C306.704 50.0596 307.743 49.7528 308.391 49.3437C309.056 48.9176 309.388 48.2613 309.388 47.375V47.2216C309.388 45.2954 308.817 43.8039 307.675 42.7471C306.533 41.6903 304.888 41.1619 302.74 41.1619C300.473 41.1619 298.675 41.6562 297.346 42.6448C296.033 43.6335 295.147 44.8011 294.686 46.1477L286.044 44.9204C286.726 42.5341 287.851 40.5397 289.419 38.9375C290.988 37.3181 292.905 36.1079 295.172 35.3068C297.439 34.4886 299.945 34.0795 302.689 34.0795C304.581 34.0795 306.465 34.3011 308.34 34.7443C310.215 35.1875 311.928 35.9204 313.479 36.9431C315.03 37.9488 316.275 39.321 317.212 41.0596C318.167 42.7983 318.644 44.9716 318.644 47.5795V73.8636H309.746V68.4687H309.439C308.877 69.5596 308.084 70.5823 307.061 71.5369C306.056 72.4744 304.786 73.2329 303.252 73.8125C301.735 74.375 299.954 74.6562 297.908 74.6562ZM300.311 67.8551C302.169 67.8551 303.78 67.4886 305.144 66.7556C306.508 66.0056 307.556 65.017 308.289 63.7897C309.039 62.5625 309.414 61.2244 309.414 59.7755V55.1477C309.124 55.3863 308.63 55.6079 307.931 55.8125C307.249 56.017 306.482 56.196 305.63 56.3494C304.777 56.5028 303.934 56.6392 303.098 56.7585C302.263 56.8778 301.539 56.9801 300.925 57.0653C299.544 57.2528 298.309 57.5596 297.218 57.9858C296.127 58.4119 295.266 59.0085 294.635 59.7755C294.005 60.5255 293.689 61.4971 293.689 62.6903C293.689 64.3948 294.311 65.6818 295.556 66.5511C296.8 67.4204 298.385 67.8551 300.311 67.8551Z" fill="white"/>
</g>
<path d="M145 6L147.122 9.55517L151 11.4992L147.122 13.4448L145 17L142.879 13.4448L139 11.4992L142.879 9.55517L145 6Z" fill="white"/>
<path d="M165.5 16L167.092 18.2624L170 19.4995L167.092 20.7376L165.5 23L163.91 20.7376L161 19.4995L163.91 18.2624L165.5 16Z" fill="white"/>
<path d="M120.5 0L123.505 5.49457L129 8.49927L123.505 11.5054L120.5 17L117.495 11.5054L112 8.49927L117.495 5.49457L120.5 0Z" fill="white"/>
<path d="M96.1452 17L100.086 24.1304L107.29 28.0305L100.086 31.9293L96.1452 39.0609L92.2046 31.9293L85 28.0305L92.2046 24.1304L96.1452 17Z" fill="white"/>
<defs>
<clipPath id="clip0_67_128">
<rect width="319" height="54" fill="white" transform="translate(0 21)"/>
</clipPath>
</defs>
</svg>
